<svg width="110" height="18" viewBox="0 0 110 18" fill="none" xmlns="http://www.w3.org/2000/svg">
<path d="M5.14631 17.4869C4.30003 17.4869 3.45375 17.464 2.6189 17.4068C1.73831 17.3476 0.863095 17.2253 0 17.0409V2.0708C0.77552 1.92933 1.55815 1.83008 2.34443 1.77346C3.19071 1.70484 3.97981 1.67053 4.71173 1.67053C5.61985 1.66242 6.5269 1.73514 7.42212 1.88782C8.1686 1.99866 8.88909 2.2427 9.54927 2.60831C10.1242 2.92853 10.6053 3.3938 10.9445 3.95778C11.2761 4.51816 11.4477 5.20433 11.4477 6.01631C11.4477 7.25142 10.853 8.2235 9.66363 8.93255C10.6471 9.29851 11.3104 9.81314 11.665 10.4421C12.0269 11.1044 12.2121 11.8489 12.2025 12.6036C12.2025 14.2275 11.6078 15.4398 10.4299 16.2517C9.22905 17.0866 7.47931 17.4869 5.14631 17.4869ZM3.38513 7.91473H5.07769C6.1527 7.91473 6.90749 7.77749 7.37638 7.50302C7.83383 7.22855 8.06256 6.78254 8.06256 6.17642C8.06256 5.54742 7.82239 5.11285 7.35351 4.86125C6.87318 4.60965 6.17557 4.48385 5.26067 4.48385C4.96333 4.48385 4.64312 4.48385 4.30003 4.49529C3.95694 4.50672 3.6596 4.51816 3.38513 4.55247V7.91473ZM3.38513 10.5679V14.5592C3.63673 14.5935 3.9112 14.6164 4.20854 14.6278C4.50588 14.6392 4.83753 14.6507 5.19206 14.6507C6.23276 14.6507 7.0676 14.502 7.70803 14.2047C8.34846 13.9073 8.66868 13.3584 8.66868 12.5578C8.66868 11.8488 8.40564 11.3342 7.86814 11.0368C7.33063 10.728 6.56441 10.5794 5.56945 10.5794L3.38513 10.5679Z" fill="#0AC18E"/>
<path d="M17.1544 2.18413C17.1544 2.79025 16.96 3.27057 16.5597 3.6251C16.174 3.96414 15.678 4.15113 15.1645 4.15113C14.6509 4.15113 14.155 3.96414 13.7692 3.6251C13.3804 3.27057 13.1746 2.80168 13.1746 2.18413C13.1746 1.57801 13.369 1.09769 13.7692 0.743162C14.152 0.399252 14.6499 0.211521 15.1645 0.217097C15.6796 0.208217 16.1787 0.396389 16.5597 0.743162C16.96 1.09769 17.1544 1.57801 17.1544 2.18413ZM16.8342 17.2914H13.5176V5.56926H16.8342V17.2914Z" fill="#0AC18E"/>
<path d="M18.6182 2.65274L21.9347 2.11523V5.56898H25.9259V8.33656H21.9347V12.4536C21.9347 13.1512 22.0605 13.7116 22.3006 14.1233C22.5408 14.535 23.044 14.7523 23.7874 14.7523C24.1557 14.751 24.5231 14.7166 24.8852 14.6494C25.2391 14.5864 25.5871 14.4946 25.9259 14.3749L26.3948 16.9595C25.9602 17.1343 25.5129 17.2758 25.0568 17.3826C24.4634 17.512 23.8572 17.5734 23.2499 17.5656C22.3464 17.5656 21.5916 17.4398 20.9969 17.1996C20.4387 16.9873 19.9458 16.6324 19.5674 16.1704C19.1986 15.706 18.944 15.1615 18.824 14.5807C18.6773 13.9006 18.6045 13.2066 18.6067 12.5108L18.6182 2.65274Z" fill="#0AC18E"/>
<path d="M26.3949 11.4359C26.3891 10.621 26.5285 9.81164 26.8066 9.04568C27.0656 8.31441 27.4739 7.64501 28.0054 7.07997C28.537 6.51493 29.1803 6.06661 29.8944 5.76348C30.6964 5.42207 31.5617 5.25447 32.4332 5.27172C33.0096 5.26634 33.5848 5.32386 34.1487 5.44326C34.6656 5.55648 35.1709 5.71727 35.6582 5.92358L34.9721 8.57679C34.6353 8.45399 34.2916 8.35089 33.9428 8.26801C33.5343 8.17218 33.1158 8.1261 32.6963 8.13078C31.7127 8.13078 30.9808 8.43956 30.5005 9.04568C30.0202 9.6518 29.78 10.4523 29.78 11.4473C29.78 12.4994 30.0087 13.3228 30.4548 13.8946C30.9122 14.4779 31.7013 14.7638 32.8221 14.7638C33.2553 14.763 33.6877 14.7247 34.1144 14.6494C34.5503 14.5831 34.9765 14.464 35.3838 14.2949L35.8527 17.0167C35.3835 17.205 34.8971 17.3467 34.4003 17.4399C33.7673 17.5629 33.1238 17.6242 32.479 17.6229C31.404 17.6229 30.4891 17.4628 29.7114 17.1425C28.9857 16.8554 28.3333 16.41 27.8015 15.8388C27.298 15.2806 26.9267 14.6161 26.7151 13.8946C26.5017 13.0925 26.3941 12.2659 26.3949 11.4359Z" fill="#0AC18E"/>
<path d="M47.2774 11.4141C47.2858 12.273 47.1505 13.1272 46.8772 13.9415C46.6357 14.6682 46.2419 15.3349 45.7221 15.8971C45.2124 16.441 44.5924 16.8699 43.9037 17.1551C42.3855 17.7498 40.6988 17.7498 39.1806 17.1551C38.4919 16.8699 37.8719 16.441 37.3622 15.8971C36.8416 15.3314 36.4409 14.6662 36.1843 13.9415C35.8931 13.1312 35.7498 12.2751 35.7611 11.4141C35.7514 10.556 35.8987 9.70329 36.1957 8.89814C36.4578 8.17767 36.8667 7.51952 37.3965 6.96541C37.9131 6.42716 38.5363 6.0026 39.2263 5.71886C39.9586 5.41656 40.7442 5.26487 41.5364 5.27284C42.3361 5.26379 43.1295 5.41546 43.8694 5.71886C44.5575 5.99993 45.1775 6.42496 45.6878 6.96541C46.2081 7.52263 46.6089 8.18034 46.8657 8.89814C47.144 9.70755 47.2832 10.5582 47.2774 11.4141ZM43.8923 11.4141C43.8923 10.3848 43.6864 9.58431 43.2747 9.00106C42.863 8.41782 42.2798 8.12047 41.525 8.12047C40.7702 8.12047 40.1755 8.41782 39.7638 9.00106C39.3521 9.58431 39.1348 10.3963 39.1348 11.4141C39.1348 12.4434 39.3407 13.2553 39.7638 13.85C40.1755 14.4562 40.7702 14.7535 41.525 14.7535C42.2798 14.7535 42.863 14.4562 43.2747 13.85C43.6864 13.2439 43.8923 12.4319 43.8923 11.4141Z" fill="#0AC18E"/>
<path d="M52.2408 2.18413C52.2408 2.79025 52.0464 3.27057 51.6461 3.6251C51.2604 3.96414 50.7644 4.15113 50.2509 4.15113C49.7374 4.15113 49.2414 3.96414 48.8557 3.6251C48.4668 3.27057 48.261 2.80168 48.261 2.18413C48.261 1.57801 48.4554 1.09769 48.8557 0.743162C49.2384 0.399252 49.7363 0.211521 50.2509 0.217097C50.766 0.208217 51.2651 0.396389 51.6461 0.743162C52.0464 1.09769 52.2408 1.57801 52.2408 2.18413ZM51.932 17.2914H48.6155V5.56926H51.932V17.2914Z" fill="#0AC18E"/>
<path d="M53.8189 5.96966C54.537 5.77261 55.2664 5.61983 56.0032 5.51221C56.9303 5.36858 57.867 5.29594 58.8051 5.29492C59.8001 5.29492 60.6235 5.42072 61.2868 5.68376C61.8958 5.90697 62.4359 6.28542 62.8535 6.78163C63.2509 7.27733 63.5322 7.85564 63.677 8.4742C63.844 9.19009 63.9247 9.92343 63.9171 10.6585V17.2801H60.6006V11.0588C60.6006 9.98379 60.4634 9.22899 60.1775 8.78298C59.8916 8.33696 59.3655 8.11968 58.5993 8.11968C58.3591 8.11968 58.1075 8.13111 57.8445 8.15398C57.5814 8.17686 57.3413 8.19973 57.1354 8.23404V17.2801H53.8189V5.96966Z" fill="#0AC18E"/>
<path d="M72.9862 17.6009C70.4702 17.6009 68.5566 16.9032 67.2452 15.508C65.93 14.1128 65.2744 12.1305 65.2782 9.56117C65.2603 8.39314 65.4661 7.23247 65.8843 6.14174C66.2493 5.18943 66.8104 4.32446 67.5311 3.60289C68.2406 2.90846 69.0908 2.3742 70.0242 2.03612C71.0323 1.6718 72.0973 1.48979 73.1692 1.49861C73.7672 1.49208 74.3645 1.54187 74.9532 1.64729C75.4291 1.72598 75.899 1.83678 76.3599 1.97894C76.705 2.08209 77.0415 2.2121 77.3663 2.36777C77.6293 2.50501 77.8237 2.60794 77.9495 2.67655L76.9431 5.47844C76.4152 5.20567 75.8592 4.99094 75.2849 4.838C74.5841 4.65001 73.8603 4.56147 73.1349 4.57497C72.6017 4.57588 72.0723 4.66475 71.5681 4.838C71.0572 5.02099 70.5927 5.31377 70.2072 5.69572C69.7891 6.13169 69.4659 6.64959 69.258 7.21674C69.0178 7.84573 68.9035 8.60053 68.9035 9.49256C68.9008 10.1626 68.9776 10.8305 69.1322 11.4825C69.2731 12.0581 69.53 12.599 69.887 13.0721C70.2527 13.5314 70.7233 13.8961 71.2593 14.1357C71.8197 14.3987 72.5059 14.5245 73.3064 14.5245C73.7616 14.5261 74.2164 14.4955 74.6673 14.433C75.0302 14.385 75.3893 14.3124 75.7423 14.2157C76.0233 14.145 76.2985 14.0533 76.5657 13.9413C76.8059 13.8383 77.0232 13.7354 77.2062 13.6554L78.1668 16.4458C77.6751 16.7431 76.9889 17.0062 76.0969 17.2463C75.0795 17.4978 74.034 17.617 72.9862 17.6009Z" fill="#0AC18E"/>
<path d="M83.3702 5.25977C84.3538 5.25977 85.1657 5.37413 85.8176 5.59142C86.4133 5.77268 86.9527 6.10339 87.3844 6.55206C87.7824 6.97909 88.0691 7.49755 88.2192 8.06165C88.3855 8.70779 88.4662 9.37296 88.4594 10.0401V16.9476C87.9791 17.0505 87.3272 17.1763 86.4809 17.3136C85.4628 17.4672 84.4341 17.5399 83.4046 17.5309C82.7129 17.5374 82.0227 17.4683 81.346 17.325C80.7802 17.2085 80.2411 16.9874 79.7564 16.6731C79.3151 16.3736 78.9602 15.9635 78.7271 15.4838C78.487 14.992 78.3726 14.3973 78.3726 13.6768C78.3539 13.0712 78.4959 12.4714 78.7843 11.9385C79.0454 11.472 79.4239 11.0817 79.8822 10.8063C80.3679 10.5093 80.9021 10.3003 81.4604 10.1888C82.0695 10.0595 82.6904 9.99439 83.3131 9.99437C83.695 9.9937 84.0767 10.0128 84.4567 10.0516C84.7318 10.0729 85.0039 10.1227 85.2687 10.2002V9.89145C85.2687 9.33107 85.0971 8.87362 84.754 8.53053C84.4109 8.18744 83.8163 8.0159 82.97 8.0159C82.4111 8.01752 81.8531 8.05957 81.3003 8.1417C80.8132 8.20623 80.3341 8.32121 79.8708 8.48479L79.4476 5.8087C79.642 5.75152 79.8822 5.6829 80.1681 5.61429C80.454 5.54567 80.7742 5.48849 81.1173 5.43131C81.4604 5.37413 81.8149 5.33982 82.1923 5.29407C82.5926 5.28264 82.9814 5.25977 83.3702 5.25977ZM83.6333 14.9691C83.9649 14.9691 84.2737 14.9577 84.571 14.9463C84.8088 14.9411 85.0458 14.9182 85.2801 14.8776V12.3617C85.0798 12.3207 84.8775 12.2902 84.674 12.2702C84.4312 12.2393 84.1868 12.224 83.9421 12.2244C83.6476 12.2252 83.3535 12.2443 83.0615 12.2816C82.8096 12.3071 82.565 12.3809 82.341 12.4989C82.143 12.5948 81.9735 12.7406 81.8492 12.9221C81.726 13.1211 81.6624 13.3513 81.6662 13.5854C81.6662 14.1 81.8378 14.4659 82.1923 14.6604C82.5468 14.8777 83.0272 14.9691 83.6333 14.9691Z" fill="#0AC18E"/>
<path d="M93.6172 14.912C94.2233 14.912 94.6579 14.8548 94.9095 14.729C95.1611 14.6146 95.2868 14.3745 95.2868 14.0428C95.2868 13.7798 95.1267 13.5396 94.7951 13.3452C94.3176 13.0745 93.8161 12.8486 93.2969 12.6705C92.8134 12.4948 92.34 12.2925 91.8788 12.0643C91.482 11.8775 91.1188 11.6263 90.8038 11.321C90.5036 11.0269 90.2697 10.6721 90.1177 10.2803C89.9461 9.81579 89.8646 9.32287 89.8775 8.82788C89.8775 7.73 90.2892 6.86084 91.1012 6.22041C91.9132 5.57998 93.0339 5.25977 94.4634 5.25977C95.1504 5.25941 95.8359 5.32451 96.5105 5.45418C97.04 5.54587 97.5604 5.68362 98.0659 5.86589L97.4826 8.45048C97.0707 8.30753 96.6506 8.18915 96.2246 8.09596C95.7251 7.98637 95.215 7.93267 94.7036 7.93585C93.6629 7.93585 93.1483 8.22176 93.1483 8.805C93.1456 8.92672 93.169 9.04761 93.2169 9.15952C93.2776 9.27955 93.3682 9.38194 93.4799 9.45687C93.6539 9.57499 93.8376 9.67828 94.0289 9.76565C94.3148 9.90507 94.6089 10.0273 94.9095 10.1316C95.5297 10.356 96.1335 10.6235 96.7164 10.9321C97.1334 11.1516 97.5119 11.4374 97.8371 11.7784C98.1016 12.0681 98.3006 12.4113 98.4204 12.7848C98.5419 13.2046 98.5997 13.6402 98.5919 14.0771C98.5919 15.2322 98.1573 16.1128 97.2882 16.696C96.419 17.2907 95.1954 17.588 93.6057 17.588C92.733 17.6043 91.8614 17.516 91.0097 17.325C90.5211 17.2045 90.04 17.0555 89.5687 16.879L90.1291 14.18C90.6935 14.4018 91.2748 14.5777 91.8674 14.7061C92.4407 14.8422 93.0279 14.9113 93.6172 14.912Z" fill="#0AC18E"/>
<path d="M99.827 17.2916V0.537505L103.144 0V5.6152C103.425 5.52629 103.711 5.45374 104.001 5.39791C104.336 5.33086 104.677 5.29639 105.019 5.29498C105.968 5.29498 106.757 5.42078 107.386 5.68382C107.974 5.91664 108.493 6.2943 108.896 6.78169C109.282 7.28157 109.555 7.85896 109.697 8.47426C109.86 9.19064 109.936 9.92396 109.925 10.6586V17.2802H106.609V11.0589C106.609 9.98385 106.471 9.22905 106.197 8.78304C105.923 8.33702 105.408 8.11974 104.676 8.11974C104.396 8.11633 104.116 8.14317 103.841 8.19979C103.606 8.24487 103.373 8.30213 103.144 8.37134V17.2802H99.827V17.2916Z" fill="#0AC18E"/>
</svg>
