<svg width="102" height="20" viewBox="0 0 102 20" fill="none" xmlns="http://www.w3.org/2000/svg">
<g clip-path="url(#clip0_2066_327)">
<path d="M6.16037 8.40417L10.1286 4.5203L14.0989 8.40622L16.4079 6.14623L10.1286 0L3.85138 6.14417L6.16037 8.40417ZM2.2207 7.73977L4.52969 9.99961L2.2207 12.2598L-0.0882874 9.99976L2.2207 7.73977ZM6.16037 11.5958L10.1286 15.4797L14.0988 11.5939L16.409 13.8527L16.4079 13.8539L10.1286 20L3.85121 13.856L3.84799 13.8528L6.16037 11.5958ZM20.3456 10.0007L18.0368 12.2607L15.7277 10.0009L18.0366 7.74072L20.3456 10.0007Z" fill="#FAB409"/>
<path d="M12.4707 9.999H12.4716L10.1286 7.70568L8.39706 9.40047H8.39689L8.19806 9.59524L7.78765 9.99695L7.78442 10.0001L7.78765 10.0034L10.1286 12.2947L12.4716 10.0014L12.4728 10.0001L12.4707 9.999ZM23.9453 4.84637H28.9672C30.2136 4.84637 31.1561 5.15945 31.7949 5.78562C32.2892 6.27057 32.5363 6.87163 32.5363 7.58863V7.61895C32.5363 7.92193 32.4981 8.18968 32.4211 8.42189C32.349 8.64451 32.2454 8.85613 32.1133 9.05058C31.9885 9.234 31.8385 9.39969 31.6674 9.54296C31.4997 9.68353 31.3166 9.80548 31.1214 9.90659C31.7479 10.1391 32.2411 10.4546 32.6007 10.8536C32.9601 11.2528 33.1401 11.8058 33.1401 12.5127V12.5429C33.1401 13.0278 33.0449 13.4519 32.8542 13.8157C32.6637 14.1792 32.3906 14.4823 32.035 14.7248C31.6795 14.9673 31.252 15.1489 30.7523 15.2703C30.2527 15.3914 29.6989 15.4519 29.0913 15.4519H23.9453V4.84637ZM28.4651 9.13399C28.9916 9.13399 29.4096 9.04584 29.7189 8.86893C30.0285 8.69216 30.1833 8.40672 30.1833 8.01292V7.98259C30.1833 7.62922 30.049 7.3591 29.7808 7.17207C29.5124 6.9852 29.1254 6.89169 28.6199 6.89169H26.267V9.13399H28.4651ZM29.0999 13.4068C29.6262 13.4068 30.0387 13.3136 30.3382 13.1265C30.6374 12.9397 30.7872 12.6492 30.7872 12.2552V12.225C30.7872 11.8715 30.6477 11.5913 30.3692 11.384C30.0905 11.1773 29.6416 11.0736 29.0224 11.0736H26.267V13.4069H29.0999V13.4068ZM36.1309 4.84637H38.515V15.4522H36.1309V4.84637ZM42.1257 4.84637H44.3235L49.401 11.3766V4.84637H51.7539V15.4522H49.7262L44.4784 8.71001V15.4522H42.1257V4.84637ZM58.9712 4.7707H61.1691L65.8132 15.4522H63.3209L62.3302 13.0736H57.7482L56.7576 15.4522H54.3269L58.9712 4.7707ZM61.4788 11.0128L60.0391 7.57362L58.5998 11.0128H61.4788ZM68.3866 4.84637H70.5849L75.662 11.3766V4.84637H78.0149V15.4522H75.9872L70.7395 8.71001V15.4522H68.3866V4.84637ZM86.5943 15.6339C85.7993 15.6339 85.0618 15.4924 84.3806 15.2098C83.6993 14.9272 83.1112 14.5406 82.6159 14.0506C82.1205 13.5608 81.7333 12.9825 81.4551 12.3159C81.1763 11.6491 81.0371 10.937 81.0371 10.1794V10.1492C81.0371 9.39163 81.1763 8.68221 81.4551 8.0205C81.7335 7.35895 82.1205 6.77811 82.6159 6.27815C83.1111 5.7782 83.7047 5.38408 84.3959 5.09627C85.0871 4.80846 85.8513 4.66455 86.6871 4.66455C87.1924 4.66455 87.6542 4.70515 88.0722 4.78571C88.4902 4.86674 88.8693 4.97764 89.2101 5.11901C89.5432 5.2565 89.8599 5.42924 90.1546 5.63413C90.441 5.83447 90.7101 6.05747 90.9593 6.3009L89.4425 8.01292C89.0189 7.63933 88.5883 7.34615 88.1498 7.13416C87.711 6.92217 87.2184 6.81602 86.6715 6.81602C86.2173 6.81602 85.7967 6.90195 85.41 7.07366C85.0301 7.24028 84.6899 7.48278 84.4114 7.78561C84.133 8.08858 83.9162 8.43974 83.7611 8.8386C83.6067 9.23777 83.5294 9.66443 83.5294 10.1189V10.1491C83.5294 10.6035 83.6067 11.033 83.7611 11.4368C83.9162 11.841 84.1299 12.1944 84.4038 12.4974C84.677 12.8003 85.0074 13.0404 85.3942 13.2172C85.7816 13.3941 86.2071 13.4823 86.6715 13.4823C87.2909 13.4823 87.8141 13.3712 88.2424 13.149C88.6707 12.927 89.0967 12.6239 89.5197 12.2399L91.0367 13.7399C90.7683 14.0234 90.4786 14.2867 90.1699 14.5277C89.8662 14.7628 89.5364 14.9636 89.1867 15.1264C88.8308 15.2929 88.4409 15.4194 88.0183 15.505C87.5948 15.5908 87.1203 15.6339 86.5943 15.6339ZM93.8423 4.84637H102V6.92217H96.1953V9.07365H101.304V11.1493H96.1953V13.3766H102.078V15.4522H93.8423V4.84637Z" fill="#FAB409"/>
</g>
<defs>
<clipPath id="clip0_2066_327">
<rect width="102" height="20" fill="white"/>
</clipPath>
</defs>
</svg>
