<svg width="107" height="22" viewBox="0 0 107 22" fill="none" xmlns="http://www.w3.org/2000/svg">
<path d="M6.50279 8.93567L10.6324 4.80618L14.7643 8.93785L17.1672 6.53493L10.6324 0L4.09987 6.53275L6.50279 8.93567Z" fill="#F3BA2F"/>
<path d="M4.80588 10.6314L2.403 8.22852L2.57272e-06 10.6315L2.40288 13.0344L4.80588 10.6314Z" fill="#F3BA2F"/>
<path d="M6.50285 12.3292L10.6325 16.4587L14.7642 12.3271L17.1684 14.7287L17.1673 14.7301L10.6325 21.2648L4.09976 14.7323L4.09641 14.7289L6.50285 12.3292Z" fill="#F3BA2F"/>
<path d="M18.8622 13.0358L21.2652 10.6328L18.8623 8.22993L16.4593 10.6329L18.8622 13.0358Z" fill="#F3BA2F"/>
<path d="M13.0698 10.6307H13.0708L10.6324 8.19238L8.83046 9.99436H8.83029L8.62337 10.2015L8.19626 10.6286L8.1929 10.6319L8.19626 10.6354L10.6324 13.0716L13.0708 10.6333L13.072 10.6319L13.0698 10.6307Z" fill="#F3BA2F"/>
<path d="M25.0114 5.15234H30.2376C31.5347 5.15234 32.5156 5.48523 33.1803 6.151C33.6948 6.66662 33.9519 7.30568 33.9519 8.06803V8.10027C33.9519 8.42241 33.9121 8.70709 33.832 8.95399C33.7521 9.20121 33.6452 9.42375 33.5117 9.62244C33.3785 9.8213 33.2237 9.99581 33.0477 10.146C32.8715 10.2964 32.6822 10.4254 32.4795 10.5326C33.1315 10.7798 33.6447 11.1152 34.0189 11.5395C34.393 11.9639 34.5802 12.5519 34.5802 13.3035V13.3356C34.5802 13.8512 34.4811 14.3021 34.2828 14.6889C34.0844 15.0754 33.8003 15.3977 33.4303 15.6555C33.0603 15.9133 32.6153 16.1065 32.0954 16.2355C31.5754 16.3643 30.9991 16.4286 30.3668 16.4286H25.0114V5.15234ZM29.7151 9.71112C30.263 9.71112 30.698 9.6174 31.0199 9.4293C31.3421 9.24136 31.5031 8.93786 31.5031 8.51915V8.48691C31.5031 8.11119 31.3634 7.82399 31.0843 7.62513C30.805 7.42644 30.4022 7.32701 29.8762 7.32701H27.4276V9.71112H29.7151ZM30.3757 14.2541C30.9234 14.2541 31.3527 14.155 31.6644 13.9562C31.9758 13.7575 32.1316 13.4486 32.1316 13.0297V12.9976C32.1316 12.6218 31.9865 12.3238 31.6966 12.1035C31.4066 11.8836 30.9395 11.7734 30.2951 11.7734H27.4276V14.2543H30.3757V14.2541Z" fill="#F3BA2F"/>
<path d="M37.6927 5.15234H40.1737V16.429H37.6927V5.15234Z" fill="#F3BA2F"/>
<path d="M43.9313 5.15234H46.2185L51.5025 12.0956V5.15234H53.9511V16.429H51.8409L46.3797 9.26033V16.429H43.9313V5.15234Z" fill="#F3BA2F"/>
<path d="M61.4621 5.07227H63.7494L68.5825 16.4293H65.9888L64.9577 13.9003H60.1893L59.1584 16.4293H56.6288L61.4621 5.07227ZM64.0717 11.7091L62.5734 8.05244L61.0756 11.7091H64.0717Z" fill="#F3BA2F"/>
<path d="M71.2605 5.15234H73.5482L78.8319 12.0956V5.15234H81.2805V16.429H79.1703L73.7091 9.26033V16.429H71.2605V5.15234Z" fill="#F3BA2F"/>
<path d="M90.2089 16.6221C89.3816 16.6221 88.6141 16.4716 87.9051 16.1711C87.1962 15.8706 86.5842 15.4596 86.0687 14.9387C85.5531 14.4178 85.1502 13.8029 84.8606 13.0942C84.5706 12.3852 84.4256 11.6281 84.4256 10.8226V10.7905C84.4256 9.98501 84.5706 9.23073 84.8606 8.52717C85.1503 7.82378 85.5531 7.20621 86.0687 6.67464C86.584 6.14306 87.2017 5.72402 87.9211 5.418C88.6404 5.11199 89.4357 4.95898 90.3055 4.95898C90.8314 4.95898 91.3119 5.00215 91.7469 5.08781C92.1819 5.17397 92.5764 5.29187 92.9311 5.44219C93.2857 5.59268 93.6129 5.77524 93.914 5.98989C94.2141 6.20487 94.4936 6.44101 94.7514 6.69882L93.173 8.51911C92.7321 8.1219 92.284 7.81017 91.8277 7.58478C91.371 7.35939 90.8584 7.24652 90.2892 7.24652C89.8166 7.24652 89.3789 7.33789 88.9765 7.52045C88.5737 7.70302 88.2273 7.95529 87.9372 8.27742C87.6475 8.59956 87.4219 8.97292 87.2605 9.39701C87.0998 9.82143 87.0193 10.2751 87.0193 10.7583V10.7904C87.0193 11.2736 87.0998 11.7302 87.2605 12.1595C87.4219 12.5893 87.6443 12.965 87.9293 13.2872C88.2136 13.6093 88.5574 13.8646 88.96 14.0525C89.3631 14.2406 89.806 14.3344 90.2892 14.3344C90.9338 14.3344 91.4783 14.2163 91.9241 13.98C92.3698 13.744 92.8131 13.4217 93.2533 13.0134L94.832 14.6083C94.542 14.9198 94.2408 15.1992 93.93 15.4459C93.6184 15.6931 93.2775 15.9051 92.9068 16.0824C92.5364 16.2594 92.1307 16.394 91.6908 16.485C91.2501 16.5762 90.7563 16.6221 90.2089 16.6221Z" fill="#F3BA2F"/>
<path d="M97.7517 5.15234H106.241V7.35943H100.2V9.64696H105.517V11.8539H100.2V14.222H106.322V16.429H97.7517V5.15234Z" fill="#F3BA2F"/>
</svg>
