<svg width="8" height="8" viewBox="0 0 8 8" fill="none" xmlns="http://www.w3.org/2000/svg">
<path fill-rule="evenodd" clip-rule="evenodd" d="M4 0C6.20929 0 8 1.79071 8 4C8 6.20929 6.20929 8 4 8C1.79071 8 0 6.20929 0 4C0 1.79071 1.79071 0 4 0Z" fill="#F0B90B"/>
<path d="M2.19918 3.99992L2.20206 5.05761L3.10078 5.58646V6.20569L1.6761 5.37011V3.69063L2.19918 3.99992ZM2.19918 2.94223V3.55858L1.67578 3.24896V2.63261L2.19918 2.323L2.72514 2.63261L2.19918 2.94223ZM3.4761 2.63261L3.9995 2.323L4.52546 2.63261L3.9995 2.94223L3.4761 2.63261Z" fill="white"/>
<path d="M2.57617 4.83838V4.21915L3.09957 4.52877V5.14511L2.57617 4.83838ZM3.47489 5.80825L3.99829 6.11787L4.52425 5.80825V6.4246L3.99829 6.73422L3.47489 6.4246V5.80825ZM5.27489 2.63261L5.79829 2.323L6.32425 2.63261V3.24896L5.79829 3.55858V2.94223L5.27489 2.63261ZM5.79829 5.05761L5.80117 3.99992L6.32457 3.69031V5.36979L4.89989 6.20537V5.58614L5.79829 5.05761Z" fill="white"/>
<path d="M5.42379 4.83847L4.90039 5.1452V4.52885L5.42379 4.21924V4.83847Z" fill="white"/>
<path d="M5.42297 3.16146L5.42585 3.78069L4.52457 4.30954V5.36979L4.00117 5.67652L3.47777 5.36979V4.30954L2.57649 3.78069V3.16146L3.10213 2.85184L3.99797 3.38325L4.89925 2.85184L5.42521 3.16146H5.42297ZM2.57617 2.10409L3.99829 1.26562L5.42297 2.10409L4.89957 2.4137L3.99829 1.88229L3.09957 2.4137L2.57617 2.10409Z" fill="white"/>
</svg>
