<svg width="104" height="23" viewBox="0 0 104 23" fill="none" xmlns="http://www.w3.org/2000/svg">
<path fill-rule="evenodd" clip-rule="evenodd" d="M8.22064 22.0117C14.0319 23.5044 19.917 19.8616 21.3657 13.876C22.8144 7.8901 19.2785 1.82665 13.4675 0.334351C7.65799 -1.15794 1.77285 2.48516 0.324868 8.47144C-1.12447 14.4567 2.41176 20.5194 8.22064 22.0117ZM13.2401 6.76276C14.7427 7.29592 15.8415 8.09514 15.6256 9.58185C15.4694 10.6702 14.8837 11.197 14.1061 11.3818C15.1738 11.9544 15.7171 12.8325 15.1996 14.3548C14.5573 16.2455 13.0313 16.4051 11.002 16.0095L10.5095 18.0426L9.3195 17.7371L9.80555 15.7312C9.49711 15.6523 9.18189 15.5685 8.85718 15.4777L8.36943 17.493L7.18074 17.1875L7.67324 15.1505C7.56212 15.1212 7.45029 15.0912 7.33768 15.0609C7.16862 15.0155 6.99777 14.9696 6.82485 14.925L5.2762 14.5273L5.86699 13.124C5.86699 13.124 6.74384 13.3643 6.73198 13.3465C7.0689 13.4323 7.21837 13.2061 7.27735 13.0553L8.05557 9.84127C8.08476 9.8485 8.11334 9.85588 8.14092 9.863C8.15465 9.86655 8.16814 9.87003 8.18132 9.8734C8.13387 9.85384 8.09082 9.84127 8.0576 9.83254L8.6128 7.53824C8.62737 7.27777 8.54026 6.94921 8.05828 6.82526C8.07692 6.81234 7.19396 6.60389 7.19396 6.60389L7.51054 5.29456L9.15172 5.71669L9.15037 5.72297C9.39712 5.78617 9.65133 5.84622 9.91029 5.90698L10.398 3.89374L11.5874 4.19925L11.1095 6.17303C11.4288 6.2481 11.7501 6.32387 12.0629 6.40418L12.5375 4.44331L13.7275 4.74883L13.2401 6.76276ZM9.47593 14.0646C10.447 14.3288 12.5692 14.9062 12.9066 13.5095C13.2523 12.0815 11.1941 11.6057 10.1898 11.3736C10.0776 11.3476 9.97849 11.3247 9.89741 11.3039L9.24392 14.0025C9.31051 14.0196 9.38856 14.0408 9.47593 14.0646ZM10.3916 10.1212C11.2012 10.3438 12.9671 10.8293 13.2747 9.55985C13.5888 8.26145 11.8725 7.87005 11.0342 7.6789C10.9399 7.65739 10.8568 7.63843 10.7888 7.62099L10.1964 10.0686C10.2523 10.0829 10.318 10.101 10.3916 10.1212Z" fill="#F7931A"/>
<path d="M31.7836 6.76176C32.6632 6.76176 33.4231 6.92412 34.0617 7.2429C34.7033 7.56482 35.2327 7.99847 35.6574 8.54386C36.0764 9.09203 36.3882 9.73273 36.5895 10.467C36.7895 11.2034 36.8898 11.9949 36.8898 12.8423C36.8898 14.144 36.6584 15.3737 36.1909 16.5329C35.7235 17.6939 35.0894 18.7008 34.2827 19.5597C33.4767 20.4176 32.5249 21.0939 31.4274 21.5936C30.3316 22.0936 29.1402 22.3436 27.861 22.3436C27.6956 22.3436 27.4048 22.3387 26.994 22.33C26.5831 22.3212 26.111 22.2776 25.5822 22.2039C25.0501 22.1274 24.4874 22.0143 23.8933 21.8628C23.2994 21.714 22.7354 21.5056 22.2043 21.2409L26.9536 0.683992L31.2074 0.00488281L29.5069 7.29981C29.8709 7.13082 30.2377 6.99988 30.6037 6.90456C30.9701 6.81064 31.3633 6.76176 31.7836 6.76176ZM28.2155 18.8674C28.8561 18.8674 29.4598 18.705 30.0268 18.3862C30.5956 18.0671 31.0864 17.6362 31.4975 17.0996C31.9087 16.5605 32.2341 15.9533 32.4713 15.2749C32.7086 14.5965 32.8286 13.8887 32.8286 13.1524C32.8286 12.2477 32.6818 11.5421 32.3893 11.0319C32.0968 10.5239 31.5555 10.2683 30.7695 10.2683C30.5119 10.2683 30.18 10.319 29.7686 10.4094C29.3557 10.5054 28.9863 10.7048 28.6551 11.0047L26.8445 18.7518C26.9536 18.7717 27.0502 18.7906 27.1326 18.8084C27.2132 18.8276 27.3024 18.8412 27.3912 18.8506C27.4851 18.8614 27.5925 18.867 27.7223 18.867C27.8522 18.867 28.0145 18.8674 28.2155 18.8674Z" fill="#F7931A"/>
<path d="M41.3023 21.9477H37.2393L40.6705 7.07471H44.7612L41.3023 21.9477ZM43.2794 5.26259C42.7123 5.26259 42.1981 5.08871 41.7419 4.74025C41.2819 4.39389 41.0542 3.86073 41.0542 3.14216C41.0542 2.74692 41.1321 2.37611 41.2867 2.02626C41.4436 1.6771 41.6487 1.37648 41.9056 1.1209C42.1622 0.867408 42.4594 0.664897 42.797 0.512315C43.1367 0.362178 43.498 0.287109 43.883 0.287109C44.4498 0.287109 44.9612 0.46099 45.4191 0.809448C45.8754 1.15965 46.1048 1.69281 46.1048 2.40754C46.1048 2.80418 46.0272 3.17638 45.8713 3.52554C45.7164 3.87469 45.5113 4.17532 45.2544 4.4309C44.9999 4.68474 44.6999 4.88655 44.363 5.03773C44.023 5.19031 43.6631 5.26259 43.2794 5.26259Z" fill="#F7931A"/>
<path d="M48.3212 3.37052L52.5767 2.69141L51.5317 7.07542H56.0892L55.2662 10.5244H50.7362L49.5295 15.7268C49.4184 16.1605 49.3553 16.5655 49.3377 16.9419C49.3177 17.32 49.3641 17.6447 49.4739 17.9181C49.5831 18.1922 49.7793 18.4034 50.064 18.5529C50.3474 18.7048 50.7531 18.7812 51.2853 18.7812C51.7235 18.7812 52.1506 18.7383 52.5634 18.6531C52.9739 18.5693 53.3898 18.4527 53.8108 18.3001L54.1138 21.5249C53.5647 21.7323 52.9702 21.9107 52.3296 22.0609C51.6879 22.2131 50.9284 22.2864 50.0505 22.2864C48.7882 22.2864 47.8097 22.0933 47.1125 21.7089C46.4163 21.3217 45.9241 20.7927 45.6296 20.123C45.3391 19.4558 45.2093 18.6866 45.2456 17.82C45.2832 16.9513 45.4103 16.0383 45.6296 15.0767L48.3212 3.37052Z" fill="#F7931A"/>
<path d="M55.9099 16.0101C55.9099 14.729 56.1112 13.5209 56.5135 12.39C56.9152 11.258 57.4938 10.2682 58.2445 9.41868C58.9926 8.57337 59.904 7.90369 60.9768 7.41208C62.0445 6.92326 63.2399 6.67676 64.5574 6.67676C65.3821 6.67676 66.1186 6.75706 66.7667 6.91802C67.4175 7.08038 68.0062 7.29023 68.5387 7.55349L67.1375 10.8356C66.7714 10.6826 66.3915 10.5479 65.9986 10.4257C65.6054 10.301 65.1255 10.2409 64.5578 10.2409C63.2016 10.2409 62.1295 10.7224 61.3317 11.6823C60.5368 12.6428 60.1365 13.9357 60.1365 15.5576C60.1365 16.5188 60.3379 17.296 60.7419 17.8906C61.1439 18.4852 61.8865 18.781 62.9647 18.781C63.4969 18.781 64.0104 18.7237 64.5022 18.612C64.9977 18.4988 65.4353 18.3564 65.8207 18.1881L66.124 21.5526C65.6102 21.7579 65.0435 21.9433 64.4218 22.1056C63.7989 22.2624 63.0572 22.3438 62.1973 22.3438C61.0622 22.3438 60.1013 22.1727 59.3153 21.8357C58.5289 21.4936 57.8791 21.0393 57.3673 20.4639C56.8528 19.8871 56.4834 19.2136 56.2549 18.4405C56.0265 17.6682 55.9099 16.8568 55.9099 16.0101Z" fill="#F7931A"/>
<path d="M73.9581 22.3438C72.9884 22.3438 72.1461 22.1915 71.4316 21.8902C70.7192 21.5889 70.129 21.1661 69.6623 20.6179C69.1949 20.0725 68.8451 19.4262 68.6055 18.6815C68.3659 17.9371 68.2506 17.1127 68.2506 16.2094C68.2506 15.0764 68.4272 13.9438 68.7841 12.8142C69.1393 11.6823 69.6664 10.6652 70.3639 9.76121C71.0561 8.85584 71.9099 8.11563 72.9152 7.53848C73.9195 6.96516 75.0746 6.67676 76.3721 6.67676C77.3242 6.67676 78.1621 6.82934 78.8864 7.13066C79.6074 7.43128 80.2012 7.85761 80.6706 8.40299C81.135 8.95116 81.4879 9.59466 81.7251 10.3405C81.9641 11.0835 82.082 11.9099 82.082 12.8139C82.082 13.9434 81.9078 15.0761 81.5621 16.2091C81.216 17.3365 80.7025 18.356 80.0246 19.2621C79.3481 20.1661 78.5021 20.9059 77.4859 21.4806C76.4711 22.0554 75.2943 22.3438 73.9581 22.3438ZM75.9888 10.2413C75.3865 10.2413 74.854 10.4215 74.3981 10.7773C73.9405 11.1372 73.5561 11.5897 73.2463 12.1355C72.9332 12.6836 72.701 13.2814 72.5441 13.9312C72.3885 14.5824 72.3122 15.1979 72.3122 15.7828C72.3122 16.7265 72.46 17.4615 72.7505 17.9905C73.045 18.5167 73.5741 18.7813 74.3432 18.7813C74.9475 18.7813 75.4773 18.6025 75.9359 18.2429C76.3908 17.8857 76.7755 17.4329 77.0876 16.8861C77.3988 16.3407 77.633 15.7412 77.7899 15.0904C77.9435 14.4413 78.0218 13.8222 78.0218 13.2385C78.0218 12.2971 77.8747 11.5604 77.5815 11.0321C77.2886 10.506 76.7572 10.2413 75.9888 10.2413Z" fill="#F7931A"/>
<path d="M86.5108 21.9477H82.4444L85.8756 7.07471H89.9684L86.5108 21.9477ZM88.4848 5.26259C87.9181 5.26259 87.4042 5.08871 86.9487 4.74025C86.4911 4.39389 86.2613 3.86073 86.2613 3.14216C86.2613 2.74692 86.3403 2.37611 86.4952 2.02626C86.6501 1.6771 86.8565 1.37648 87.1134 1.1209C87.3686 0.867408 87.6686 0.664897 88.0055 0.512315C88.3431 0.362178 88.7044 0.287109 89.0881 0.287109C89.6562 0.287109 90.1694 0.46099 90.6263 0.809448C91.0835 1.15965 91.3143 1.69281 91.3143 2.40754C91.3143 2.80418 91.2323 3.17638 91.0788 3.52554C90.9252 3.87469 90.7188 4.17532 90.4629 4.4309C90.2053 4.68474 89.909 4.88655 89.5715 5.03773C89.2312 5.19031 88.8705 5.26259 88.4848 5.26259Z" fill="#F7931A"/>
<path d="M92.8948 7.75259C93.2032 7.65971 93.5476 7.54798 93.9221 7.42647C94.298 7.30497 94.718 7.19184 95.1871 7.08989C95.6511 6.98479 96.1748 6.8996 96.7506 6.83361C97.3265 6.76622 97.9827 6.7334 98.7118 6.7334C100.855 6.7334 102.332 7.37619 103.147 8.65795C103.962 9.9397 104.103 11.6939 103.574 13.9173L101.705 21.9479H97.6156L99.427 14.0863C99.5375 13.5954 99.6242 13.1209 99.6883 12.6572C99.753 12.1977 99.7493 11.7927 99.6737 11.4421C99.6015 11.0958 99.4314 10.8122 99.1673 10.5926C98.8992 10.3765 98.4942 10.2679 97.9448 10.2679C97.415 10.2679 96.8761 10.3266 96.326 10.4397L93.6628 21.9475H89.5714L92.8948 7.75259Z" fill="#F7931A"/>
</svg>
