<svg viewBox="0 0 258 258" xmlns="http://www.w3.org/2000/svg"><path d="M118.667 133.206l23.426 6.277c10.933 2.929 15.486 11.96 12.437 22.303-2.023 7.548-7.22 13.409-14.165 14.338-2.621.413-6.075-.234-8.938-1l-22.385-5.999 9.625-35.92zm41.846-39.562c3.987 3.858 4.935 9.692 3.331 15.678-2.51 9.37-9.72 14.413-19.09 11.903l-21.345-5.72 8.44-31.495 18.74 5.022c4.165 1.116 7.67 2.613 9.924 4.612zm-31.816 99.998l-4.882 18.22-12.234-3.278 4.882-18.22-12.754-3.418-4.882 18.221-12.234-3.278 4.883-18.221-24.468-6.556 4.463-16.658 7.549 2.023c3.904 1.046 7.604-1.31 8.58-4.955l19.738-73.662c1.047-3.905-1.31-7.604-4.953-8.58-5.033-1.35-7.55-2.023-7.55-2.023s1.489-5.553 4.464-16.66l24.468 6.557 4.882-18.22 12.234 3.277L136 66.431l12.754 3.418 4.882-18.22 12.234 3.278-4.952 18.48c6.177 1.935 10.913 4.04 15.301 7.448 9.817 7.094 14.645 19.268 11.019 32.803-3.07 11.454-10.786 19.429-21.742 21.793 12.349 8.052 15.198 21.37 11.78 34.124-4.654 16.328-18.795 25.372-32.925 26.05-5.624.166-10.449-.569-15.655-1.963zM5.362 95.87c-18.274 68.196 22.312 138.494 90.51 156.768 68.195 18.273 138.494-22.314 156.767-90.51 18.273-68.197-22.314-138.494-90.51-156.768C93.932-12.912 23.635 27.675 5.362 95.871z" fill="#F28931" fill-rule="evenodd"/></svg>