<svg width="36" height="36" viewBox="0 0 36 36" fill="none" xmlns="http://www.w3.org/2000/svg">
<g clip-path="url(#clip0_607_3808)">
<path d="M35.711 16.7485L28.2059 1.56518C27.9754 1.09398 27.6168 0.697251 27.1712 0.420435C26.7257 0.143619 26.2111 -0.00208292 25.6866 2.24987e-05H13.3432C12.7469 0.00132273 12.1753 0.238793 11.7537 0.660468C11.332 1.08214 11.0945 1.65368 11.0932 2.25002V4.0444H2.17266C1.88693 4.0444 1.604 4.10076 1.34008 4.21025C1.07616 4.31974 0.836433 4.48022 0.634619 4.68249C0.432805 4.88476 0.272871 5.12486 0.163974 5.38902C0.055078 5.65319 -0.000641714 5.93624 5.57545e-06 6.22198L0.0309431 18.1364L0.0604743 29.7879C0.0625179 30.3629 0.292138 30.9138 0.699137 31.32C1.10614 31.7262 1.6574 31.9547 2.23243 31.9556H11.0918V33.75C11.0931 34.3464 11.3306 34.9179 11.7522 35.3396C12.1739 35.7612 12.7455 35.9987 13.3418 36H25.6866C26.2102 35.9981 26.7229 35.8507 27.1677 35.5743C27.6124 35.298 27.9716 34.9035 28.2052 34.4349L35.711 19.2375C35.9011 18.8502 36 18.4245 36 17.993C36 17.5615 35.9011 17.1358 35.711 16.7485ZM11.3077 24.3717C10.9866 24.3717 10.7363 24.282 10.5567 24.1024C10.3772 23.9229 10.2877 23.6789 10.2881 23.3705C10.2881 23.0489 10.3777 22.808 10.5567 22.6477C10.7358 22.4874 10.9861 22.407 11.3077 22.4065H13.384V13.9992L11.8083 14.9534C11.5739 15.0898 11.3545 15.1423 11.1502 15.1109C10.9532 15.0838 10.7705 14.9927 10.6306 14.8514C10.4896 14.7113 10.3903 14.5348 10.3437 14.3417C10.294 14.141 10.3102 13.9297 10.3901 13.7391C10.4843 13.5199 10.6511 13.3398 10.8626 13.2293L13.4213 11.6902C13.6596 11.5469 13.9074 11.42 14.1631 11.3105C14.3787 11.2126 14.6118 11.159 14.8486 11.153C15.0831 11.1441 15.3131 11.2189 15.4976 11.3639C15.6706 11.5046 15.757 11.7364 15.757 12.0593V22.4065H17.6484C17.97 22.4065 18.2203 22.4869 18.3994 22.6477C18.5784 22.8085 18.668 23.0494 18.668 23.3705C18.668 23.6921 18.5784 23.9393 18.3994 24.1123C18.2203 24.2853 17.97 24.3717 17.6484 24.3717H11.3077ZM34.9882 18.8803L27.4823 34.0777C27.3171 34.4129 27.0613 34.6951 26.7439 34.8924C26.4266 35.0898 26.0603 35.1943 25.6866 35.1942H13.3432C12.96 35.1942 12.5924 35.0421 12.3212 34.7714C12.0501 34.5006 11.8974 34.1332 11.8969 33.75V31.2188H23.0625C23.3629 31.2044 23.6543 31.1117 23.9078 30.9498C24.1612 30.788 24.368 30.5627 24.5074 30.2963L30.2484 18.6729C30.352 18.4616 30.4058 18.2294 30.4058 17.994C30.4058 17.7587 30.352 17.5265 30.2484 17.3152L24.5102 5.70377C24.4235 5.52922 24.3042 5.37289 24.1587 5.24323C24.0161 5.09694 23.8456 4.9807 23.6573 4.90136C23.4691 4.82202 23.2668 4.78119 23.0625 4.78127H11.8969V2.25002C11.8969 1.86643 12.0493 1.49855 12.3205 1.22731C12.5917 0.956075 12.9596 0.803694 13.3432 0.803694H25.6866C26.0604 0.803855 26.4268 0.908481 26.7443 1.10577C27.0619 1.30306 27.318 1.58517 27.4838 1.92026L34.9882 17.1056C35.1249 17.3815 35.1959 17.6852 35.1959 17.993C35.1959 18.3008 35.1249 18.6045 34.9882 18.8803Z" fill="white"/>
</g>
<defs>
<clipPath id="clip0_607_3808">
<rect width="36" height="36" fill="white"/>
</clipPath>
</defs>
</svg>
