<svg width="89" height="25" viewBox="0 0 89 25" fill="none" xmlns="http://www.w3.org/2000/svg">
<path d="M18.91 0H8.39765L7.52643 5.08069L17.0125 5.09263C21.6844 5.09263 23.0659 6.86222 23.0265 9.80004C23.0062 11.3051 22.3809 13.8491 22.1108 14.6739C21.3909 16.8724 19.9121 19.3813 14.3671 19.3713L5.14601 19.3674L4.27289 24.45H14.7618C18.4614 24.45 20.0361 24.0012 21.701 23.1976C25.3949 21.4181 27.5929 17.6143 28.473 12.6503C29.7846 5.25838 28.1515 0 18.91 0Z" fill="#008DE4"/>
<path d="M51.4214 24.4622L52.1623 20.0445H61.1426C61.848 20.0445 62.3423 19.6022 62.4478 18.8663C62.5889 18.1297 62.2362 17.6881 61.5309 17.6881H57.2371C53.8494 17.6881 52.2265 15.6268 52.8264 12.0923C53.4262 8.55772 55.7552 6.49707 59.1422 6.49707H68.8984L68.1225 10.9147H59.5241C58.8181 10.9147 58.3243 11.3563 58.2182 12.0923C58.0771 12.8289 58.4298 13.2704 59.1358 13.2704H63.4296C66.8166 13.2704 68.4396 15.3324 67.8403 18.8663C67.2411 22.4002 64.9465 24.4622 61.5595 24.4622H51.4214Z" fill="#008DE4"/>
<path d="M37.745 24.4622C32.1695 24.4622 29.6638 21.2956 30.652 15.4783C31.6052 9.66168 35.2044 6.49512 40.7793 6.49512H50.66L47.6251 24.4629L37.745 24.4622ZM44.1669 10.9135H41.6251C38.5908 10.9135 36.7956 12.3124 36.2688 15.4783C35.7045 18.6449 36.8337 20.0438 39.868 20.0438H42.6488L44.1669 10.9135Z" fill="#008DE4"/>
<path d="M81.143 24.4613L82.9076 14.0049C83.2253 11.9429 82.4234 11.0598 80.4471 11.0598H77.6371L75.3787 24.4613H69.6596L73.7945 0H79.5136L78.413 6.49756H82.696C87.7066 6.49756 89.5062 8.78032 88.6242 14.0082L86.8595 24.4646L81.143 24.4613Z" fill="#008DE4"/>
<path d="M3.86168 9.67285C1.10824 9.67285 0.71362 11.5452 0.453082 12.6763C0.111841 14.1582 0 14.7582 0 14.7582H10.7634C13.5168 14.7582 13.9115 12.8858 14.172 11.7547C14.5132 10.2729 14.6251 9.67285 14.6251 9.67285H3.86168Z" fill="#008DE4"/>
</svg>
