<svg viewBox="0 0 256 256" xmlns="http://www.w3.org/2000/svg"><path d="M128 256c70.692 0 128-57.308 128-128C256 57.308 198.692 0 128 0 57.308 0 0 57.308 0 128c0 70.692 57.308 128 128 128zM71.519 103.269c.12-.432.217-.86.355-1.273 2.469-7.398 4.942-14.794 7.416-22.19.43-1.288.433-1.291 1.816-1.291l73.246-.001c13.361 0 26.722.011 40.083-.007 3.812-.006 7.342.988 10.646 2.822 1.776.985 3.177 2.383 4.25 4.121 1.79 2.898 2.648 6.058 3.033 9.427.388 3.411-.23 6.586-1.363 9.786-1.548 4.37-2.85 8.827-4.257 13.247-3.595 11.294-7.17 22.595-10.8 33.878-.76 2.36-2.012 4.515-3.188 6.695-2.382 4.414-5.868 7.847-9.642 11.047-2.749 2.331-5.876 4.063-8.97 5.866-2.835 1.652-5.938 2.332-9.125 2.719-1.566.19-3.158.222-4.738.223-37.19.011-74.382.01-111.573.007-.541 0-1.082-.035-1.775-.058.098-.475.134-.838.247-1.175a16777.6 16777.6 0 0 1 7.59-22.684c.345-1.031.359-1.031 1.576-1.031 14.98-.002 29.96-.001 44.94-.001h56.509c1.132-.007 1.138-.005 1.5-1.112 2.603-7.97 5.2-15.941 7.805-23.91 2.54-7.774 5.086-15.546 7.625-23.32.136-.415.235-.843.388-1.399-.54-.031-.97-.079-1.402-.079-7.06-.004-14.12-.003-21.179-.003-26.378 0-52.756 0-79.134-.005-.604 0-1.239.115-1.88-.3m-28.282 36.294c.15-.537.24-.96.386-1.363 2.311-6.417 4.63-12.831 6.947-19.246.21-.58.42-1.16.626-1.742.144-.404.415-.608.856-.587.274.013.549-.002.824-.002 19.402 0 38.804 0 58.207.003.47 0 .94.039 1.558.066-.126.505-.196.897-.32 1.271-2.265 6.8-4.536 13.596-6.808 20.393-.436 1.303-.442 1.305-1.803 1.305H47.46c-1.03 0-2.06.007-3.09-.004-.33-.004-.661-.053-1.133-.094" fill="#3177BF" fill-rule="evenodd"/></svg>