<svg width="89" height="25" viewBox="0 0 89 25" fill="none" xmlns="http://www.w3.org/2000/svg">
<path d="M85.8457 0.620143C86.7565 0.112287 87.7686 0.417001 88.6794 0.417001C88.6794 0.417001 88.7806 0.620143 88.7806 0.721715C88.0722 4.88614 87.3638 9.05056 86.6553 13.215C86.5541 14.0276 86.3517 14.3323 85.4409 14.3323C83.012 14.2307 83.012 14.3323 82.4048 11.9961C81.7976 9.65999 81.0892 7.42542 80.4819 4.98771C80.0771 5.29242 80.1783 5.80028 80.1783 6.10499C79.7735 8.5427 79.3687 10.9804 78.9639 13.5197C78.8627 14.1291 78.6603 14.3323 78.0531 14.3323C75.8266 14.3323 75.8266 14.3323 76.2314 12.1993C76.8386 8.5427 77.4458 4.88614 78.0531 1.22957C78.1543 0.518572 78.3567 0.31543 79.0651 0.31543C81.5952 0.31543 81.5952 0.31543 82.3036 2.75314C82.9108 4.98771 83.518 7.32385 84.3277 9.55842L85.8457 0.620143Z" fill="#B79D32"/>
<path d="M37.5716 3.97048C36.5595 3.36106 35.5475 2.8532 34.4343 2.75163C32.815 2.54849 31.4994 3.05634 30.4874 4.37677C29.2729 6.00191 28.9693 7.83019 29.3741 9.76005C29.7789 11.6899 31.7018 12.5025 33.4222 11.7915C33.7259 11.6899 33.8271 11.4868 33.8271 11.182C33.9283 10.7758 33.9283 10.3695 34.0295 9.96319C34.3331 9.04905 34.0295 8.74433 33.2198 8.94748C32.4102 9.04905 32.4102 8.74433 32.5114 8.03333C32.815 6.50977 32.815 6.50977 34.2319 6.50977C35.1427 6.50977 36.0535 6.50977 36.9644 6.50977C37.3692 6.50977 37.5716 6.61134 37.4704 7.11919C37.1668 9.04905 36.8632 10.8773 36.5595 12.8072C36.4583 13.2135 36.3571 13.4166 35.9523 13.5182C34.1307 14.4323 32.2078 14.8386 30.1837 14.4323C27.8561 14.026 26.338 12.2993 26.1356 9.86162C26.0344 8.33805 26.1356 6.91605 26.6416 5.49405C28.5645 -0.0923677 33.5235 -0.904938 37.5716 0.821774C37.9764 1.02492 38.0776 1.22806 37.9764 1.63434C37.774 2.34534 37.6728 3.15791 37.5716 3.97048Z" fill="#B79D32"/>
<path d="M41.9235 14.3313C40.8102 14.3313 39.5958 14.3313 38.4826 14.3313C37.9765 14.3313 37.7741 14.3313 37.8753 13.7219C38.4826 9.35431 39.191 5.08831 39.8994 0.822318C40.0006 0.416033 40.1018 0.212891 40.5066 0.212891C42.8343 0.212891 45.2632 0.212891 47.5909 0.212891C48.0969 0.212891 48.1981 0.416033 48.0969 0.92389C47.7933 2.95532 47.7933 2.95532 45.7692 2.95532C44.9596 2.95532 44.2511 3.05689 43.4415 2.95532C42.7331 2.85374 42.5307 3.15846 42.4295 3.76789C42.1259 5.4946 42.1259 5.4946 43.8463 5.4946C44.7572 5.4946 45.5668 5.4946 46.4776 5.4946C46.8824 5.4946 47.0848 5.59617 46.9836 6.10403V6.2056C46.68 8.33859 46.68 8.33859 44.656 8.33859H44.1499C41.8223 8.33859 41.8223 8.33859 41.4175 10.6747C41.3163 11.2842 41.4175 11.4873 42.0247 11.4873C43.3403 11.4873 44.656 11.4873 45.8704 11.4873C46.3764 11.4873 46.5788 11.5889 46.4776 12.1983C46.174 14.3313 46.174 14.3313 44.1499 14.3313H41.9235Z" fill="#B79D32"/>
<path d="M57.6098 10.6751C57.6098 11.6908 57.4074 12.5033 57.3062 13.3159C57.3062 13.6206 57.0026 13.7222 56.8002 13.8238C55.4846 14.3316 54.1689 14.6363 52.8533 14.5348C50.6268 14.4332 48.7039 12.9096 48.2991 10.6751C47.5907 7.32321 48.4003 4.27607 50.8292 1.93993C52.8533 -0.0914921 56.0918 -0.497777 58.6219 0.822649C59.0267 1.02579 59.2291 1.22893 59.1279 1.63522C58.9255 2.34622 58.8243 3.15879 58.7231 3.97136C58.6219 3.97136 58.5207 3.86979 58.4195 3.76822C55.5858 1.73679 52.8533 2.65093 51.74 6.00278C51.3352 7.0185 51.234 8.13578 51.3352 9.15149C51.6388 11.3861 53.0557 12.4018 55.181 11.7923C55.9906 11.5892 56.8002 11.0813 57.6098 10.6751Z" fill="#B79D32"/>
<path d="M72.7903 14.3318C71.3735 14.3318 71.3735 14.3318 71.5759 12.8082C72.1831 8.9485 72.8915 5.08879 73.3975 1.22908C73.4987 0.518086 73.8024 0.213372 74.5108 0.314943C76.636 0.416514 76.636 0.314943 76.3324 2.44794C75.7252 5.90136 75.2192 9.25321 74.612 12.7066C74.4096 14.3318 74.4096 14.3318 72.7903 14.3318Z" fill="#B79D32"/>
<path d="M60.9497 20.2226C60.9497 19.2069 61.0509 18.2928 60.9497 17.277C60.8485 16.4645 61.2534 16.2613 61.9618 16.3629C62.569 16.3629 62.9738 16.3629 62.9738 17.277C62.9738 19.5116 63.075 19.5116 65.2003 19.3085C65.6051 19.3085 65.8075 19.1053 65.8075 18.699C65.8075 18.2928 65.8075 17.988 65.8075 17.5818C65.8075 16.566 66.6171 16.0582 67.528 16.4645C67.8316 16.566 67.7304 16.8708 67.7304 17.0739C67.7304 19.2069 67.7304 21.4415 67.7304 23.5745C67.7304 24.387 67.1232 24.1839 66.7183 24.1839C66.3135 24.1839 65.7063 24.4886 65.7063 23.5745C65.7063 23.1682 65.7063 22.6603 65.7063 22.254C65.7063 21.7462 66.0099 21.0352 65.5039 20.832C64.7955 20.5273 63.8846 20.6289 63.1762 20.832C62.8726 20.832 62.9738 21.2383 62.9738 21.4415C62.9738 22.1525 62.9738 22.7619 62.9738 23.4729C63.075 24.387 62.4678 24.1839 61.9618 24.1839C61.4558 24.1839 60.9497 24.387 60.9497 23.4729C60.9497 22.965 60.9497 22.3556 60.9497 21.8478V20.2226Z" fill="#B79D32"/>
<path d="M22.4922 20.1205C22.4922 19.1047 22.4922 18.089 22.4922 17.0733C22.4922 16.5655 22.5935 16.2607 23.2007 16.2607C24.5163 16.2607 25.832 16.2607 27.0464 16.2607C27.5524 16.2607 27.7548 16.3623 27.7548 16.9717C27.7548 17.4796 27.6536 17.7843 27.0464 17.7843C26.4392 17.7843 25.832 17.7843 25.1235 17.7843C24.6175 17.7843 24.4151 17.8859 24.3139 18.4953C24.3139 19.1047 24.5163 19.2063 25.1235 19.2063C25.6295 19.2063 26.2368 19.2063 26.7428 19.2063C27.2488 19.2063 27.5524 19.3079 27.5524 19.9173C27.5524 20.5267 27.35 20.6283 26.7428 20.6283C26.338 20.6283 25.9332 20.6283 25.5283 20.6283C24.4151 20.6283 24.1115 21.0346 24.3139 22.1519C24.5163 22.5582 24.7187 22.5582 25.0223 22.5582C25.7308 22.5582 26.4392 22.5582 27.1476 22.5582C27.7548 22.5582 27.856 22.7613 27.856 23.2692C27.856 23.777 27.7548 23.9802 27.1476 23.9802C25.832 23.9802 24.4151 23.9802 23.0995 23.9802C22.5935 23.9802 22.4922 23.777 22.4922 23.3707C22.4922 22.355 22.4922 21.2377 22.4922 20.1205Z" fill="#B79D32"/>
<path d="M69.0458 20.223C69.0458 19.2073 69.0458 18.09 69.0458 17.0743C69.0458 16.5664 69.147 16.3633 69.7542 16.3633C71.0698 16.3633 72.3855 16.3633 73.7011 16.3633C74.2071 16.3633 74.4096 16.5664 74.4096 17.0743C74.4096 17.5821 74.3083 17.8869 73.8023 17.7853C73.0939 17.7853 72.3855 17.7853 71.6771 17.7853C71.171 17.7853 71.0698 17.9884 71.0698 18.4963C71.0698 18.9026 71.0698 19.3088 71.6771 19.3088C72.2843 19.3088 72.8915 19.3088 73.4987 19.3088C74.1059 19.3088 74.2071 19.512 74.2071 20.1214C74.2071 20.7308 74.0047 20.8324 73.4987 20.8324C73.0939 20.8324 72.5879 20.8324 72.1831 20.8324C71.2722 20.7308 70.9686 21.1371 71.0698 22.0513C71.0698 22.6607 71.2722 22.8638 71.7783 22.7623C72.3855 22.7623 72.9927 22.7623 73.7011 22.7623C74.2071 22.7623 74.5108 22.8638 74.5108 23.4733C74.5108 24.0827 74.3083 24.2858 73.8023 24.1843C72.4867 24.1843 71.171 24.1843 69.8554 24.1843C69.3494 24.1843 69.147 23.9811 69.147 23.4733C69.147 22.2544 69.0458 21.2387 69.0458 20.223Z" fill="#B79D32"/>
<path d="M43.1379 20.1214C43.1379 19.1057 43.1379 17.9884 43.1379 16.9727C43.1379 16.4649 43.2391 16.2617 43.7451 16.3633C45.0607 16.3633 46.4776 16.3633 47.7932 16.3633C48.4004 16.3633 48.4004 16.7696 48.4004 17.1759C48.4004 17.6837 48.198 17.8869 47.7932 17.7853C47.0848 17.7853 46.3764 17.7853 45.668 17.7853C45.1619 17.7853 45.0607 17.9884 45.0607 18.4963C45.0607 18.9026 45.0607 19.3088 45.668 19.3088C46.174 19.3088 46.68 19.3088 47.2872 19.3088C47.7932 19.3088 48.198 19.3089 48.198 20.1214C48.198 21.0356 47.692 20.7308 47.2872 20.8324C46.9836 20.8324 46.5788 20.8324 46.2752 20.8324C45.1619 20.8324 44.8583 21.2387 45.0607 22.356C45.2631 22.5591 45.4655 22.5591 45.7692 22.5591C46.4776 22.5591 47.186 22.5591 47.8944 22.5591C48.5016 22.5591 48.6029 22.7623 48.6029 23.2701C48.6029 23.778 48.4004 23.9811 47.8944 23.9811C46.5788 23.9811 45.1619 23.9811 43.8463 23.9811C43.3403 23.9811 43.2391 23.778 43.2391 23.2701C43.2391 22.356 43.1379 21.2387 43.1379 20.1214Z" fill="#B79D32"/>
<path d="M83.2142 20.1214C83.2142 19.1057 83.2142 18.09 83.2142 17.0743C83.2142 16.5664 83.3154 16.3633 83.8215 16.3633C85.1371 16.3633 86.4527 16.3633 87.7684 16.3633C88.2744 16.3633 88.3756 16.5664 88.3756 17.0743C88.3756 17.4806 88.3756 17.8869 87.7684 17.8869C87.06 17.8869 86.3515 17.8869 85.6431 17.8869C85.1371 17.8869 85.0359 18.1916 85.0359 18.5979C85.0359 19.0041 85.0359 19.4104 85.6431 19.4104C86.2503 19.4104 86.8576 19.4104 87.4648 19.4104C87.9708 19.4104 88.1732 19.6136 88.1732 20.1214C88.1732 20.6293 88.072 20.8324 87.4648 20.8324C87.06 20.8324 86.5539 20.8324 86.1491 20.8324C85.2383 20.7308 84.9347 21.0356 85.0359 21.9497C85.0359 22.6607 85.2383 22.8638 85.8455 22.7623C86.4527 22.7623 86.9588 22.7623 87.566 22.7623C88.072 22.7623 88.4768 22.7623 88.4768 23.4733C88.4768 24.1843 88.1732 24.2858 87.6672 24.1843C86.4527 24.1843 85.1371 24.1843 83.9227 24.1843C83.3154 24.1843 83.113 23.9811 83.113 23.3717C83.2142 22.2544 83.2142 21.1371 83.2142 20.1214Z" fill="#B79D32"/>
<path d="M14.0925 22.0505C14.1937 23.7772 13.9913 23.9804 12.2709 24.082C9.03238 24.2851 7.10952 22.1521 7.81794 19.105C8.32395 16.6673 11.5625 15.2453 13.6877 16.5657C14.3961 16.972 13.8901 17.683 14.0925 18.2924C12.6757 17.5814 11.2588 17.0735 10.1456 18.5971C9.43719 19.5112 9.53839 21.1364 10.2468 22.0505C11.0564 22.8631 12.2709 22.8631 14.0925 22.0505Z" fill="#B79D32"/>
<path d="M21.1768 22.0505C21.3792 23.6757 21.1768 23.8788 19.6587 24.082C16.319 24.4882 14.1937 22.2537 14.9022 19.105C15.5094 16.6673 18.7479 15.2453 20.8732 16.5657C21.4804 16.972 21.278 17.5814 21.1768 17.9877C20.9744 18.394 20.6708 17.9877 20.3671 17.8861C19.3551 17.4798 18.3431 17.4798 17.5334 18.2924C16.825 19.0034 16.7238 20.527 17.2298 21.5427C17.7359 22.5584 18.7479 22.9647 19.9623 22.5584C20.3671 22.4568 20.772 22.2537 21.1768 22.0505Z" fill="#B79D32"/>
<path d="M39.1908 16.3628C40.1016 16.3628 41.0124 16.3628 41.9233 16.3628C42.4293 16.3628 42.6317 16.566 42.6317 17.0738C42.6317 17.5817 42.5305 17.7848 42.0245 17.7848C40.2028 17.8864 40.2028 17.8864 40.2028 19.8163C40.2028 20.9335 40.1016 22.0508 40.2028 23.1681C40.304 24.0823 39.798 23.9807 39.1908 24.0822C38.4823 24.0822 38.1787 23.9807 38.1787 23.1681C38.2799 21.6445 38.1787 20.2225 38.1787 18.699C38.1787 17.988 37.9763 17.6833 37.2679 17.7848C36.9643 17.7848 36.6607 17.7848 36.3571 17.7848C35.8511 17.7848 35.5475 17.6833 35.5475 17.0738C35.5475 16.4644 35.7499 16.2613 36.2559 16.3628C37.2679 16.3628 38.1787 16.3628 39.1908 16.3628Z" fill="#B79D32"/>
<path fill-rule="evenodd" clip-rule="evenodd" d="M2.15061 14.3323H2.85903C3.37837 14.3323 3.89771 14.3055 4.40338 14.2795C4.8831 14.2548 5.3505 14.2307 5.79393 14.2307C7.91919 14.0276 9.53845 13.0118 10.7529 11.1836C11.7649 9.55842 12.2709 7.73013 12.1697 5.80028C12.0685 2.34686 10.3481 0.620144 6.90716 0.417001C6.29994 0.366215 5.66742 0.366215 5.02225 0.366215C4.37708 0.366215 3.71926 0.366215 3.06144 0.31543C2.25181 0.31543 2.04941 0.620143 1.9482 1.33114C1.44219 4.88611 0.834975 8.44108 0.22776 11.996L0.227746 11.9961C0.0241637 13.171 -0.0770362 13.755 0.168718 14.0453C0.411633 14.3323 0.993532 14.3323 2.15061 14.3323ZM3.97203 11.5902C7.00813 11.6918 8.93099 9.76194 8.93099 6.51165C9.0322 4.07394 7.91896 3.05823 5.59128 2.95666C4.98406 2.95666 4.78166 3.1598 4.68045 3.76923L4.68035 3.76987C4.27557 6.20737 3.87079 8.64486 3.46601 10.9808C3.26361 11.5902 3.56722 11.5902 3.97203 11.5902Z" fill="#B79D32"/>
<path fill-rule="evenodd" clip-rule="evenodd" d="M60.6459 2.85378C59.3302 4.58049 58.8242 6.61191 58.8242 8.74491C58.8242 11.8936 60.3423 14.0266 62.7711 14.5345C65.4024 14.9408 67.7301 14.2298 69.3494 11.9952C70.9686 9.8622 71.5758 7.42448 71.2722 4.78363C71.0698 2.44749 69.653 0.720779 67.6289 0.212923C64.9976 -0.498076 62.2651 0.619208 60.6459 2.85378ZM63.2773 4.07203C62.3665 5.39246 62.0629 6.81446 62.0629 8.23646C62.0629 8.94746 62.0629 9.45531 62.2653 9.96317C62.7713 11.893 64.593 12.5025 66.2122 11.2836C66.617 10.9789 67.0218 10.5726 67.2243 10.0647C67.9327 8.64274 68.3375 6.91603 68.1351 5.29089C68.0339 4.17361 67.7303 3.05632 66.4146 2.75161C65.2002 2.44689 64.087 2.95475 63.2773 4.07203Z" fill="#B79D32"/>
<path fill-rule="evenodd" clip-rule="evenodd" d="M23.7068 11.6906C25.0224 9.9639 25.5284 8.03405 25.5284 5.90105C25.5284 3.05705 24.314 0.924057 21.9863 0.314629C19.4562 -0.39637 17.1286 0.111487 15.3069 2.14291C13.1816 4.58062 12.4732 7.52619 13.1816 10.6749C13.5865 12.8079 15.0033 14.1283 17.1286 14.433C19.7599 14.8393 22.0875 14.0268 23.7068 11.6906ZM21.3793 9.96356C21.9865 8.84628 22.2901 7.52585 22.2901 6.20542C22.2901 4.174 21.6829 3.05671 20.4684 2.752C19.0516 2.44729 17.736 3.25986 16.9263 4.98657C16.1167 6.51014 15.9143 8.23685 16.3191 9.86199C16.7239 11.7918 18.4444 12.5028 20.0636 11.4871C20.6708 11.0808 21.0757 10.573 21.3793 9.96356Z" fill="#B79D32"/>
<path fill-rule="evenodd" clip-rule="evenodd" d="M49.716 17.1756V20.2227C49.716 21.2384 49.716 22.2541 49.8172 23.3714C49.8172 23.8793 50.0196 24.0824 50.5256 24.0824C51.0105 24.0419 51.4793 24.0337 51.9449 24.0256C52.6452 24.0134 53.3382 24.0013 54.0677 23.8793C55.7882 23.5746 56.8002 22.2541 56.9014 20.3243C56.9014 18.496 55.8894 16.9724 54.1689 16.5661C53.4099 16.3757 52.6509 16.3836 51.8918 16.3916C51.4364 16.3963 50.981 16.4011 50.5256 16.363C49.8172 16.2614 49.716 16.5661 49.716 17.1756ZM51.6388 19.308V20.1205V21.9488V21.9488C51.6388 22.2535 51.6388 22.4567 52.0436 22.5582C52.9544 22.6598 54.0676 22.152 54.4725 21.3394C54.8773 20.3237 54.6749 18.9017 53.8652 18.2922C53.258 17.886 52.5496 17.5812 51.8412 17.886C51.5186 18.0154 51.5662 18.3513 51.6168 18.7093C51.6456 18.9129 51.6755 19.1238 51.6388 19.308Z" fill="#B79D32"/>
<path fill-rule="evenodd" clip-rule="evenodd" d="M75.7253 17.0733V20.1205V23.2692C75.7253 23.3017 75.7227 23.3369 75.72 23.3734C75.7058 23.5647 75.6889 23.7933 76.0289 23.8786C77.0409 24.2849 77.6481 23.8786 77.6481 22.7613V22.0503C77.6823 21.913 77.6703 21.7641 77.6589 21.6231C77.6366 21.3471 77.6168 21.1018 77.9517 21.0346C78.4578 20.933 78.9638 21.0346 79.2674 21.5424L80.1782 23.3707C80.3806 23.777 81.8987 24.1833 82.3035 23.8786C82.5059 23.777 82.4047 23.5739 82.3035 23.4723C81.8987 22.4566 81.4938 21.4409 80.7854 20.6283C80.762 20.6048 80.7386 20.5827 80.7162 20.5615C80.5443 20.399 80.4274 20.2884 80.7854 20.0189C81.595 19.4095 81.6963 18.5969 81.4938 17.6827C81.1902 16.667 80.3806 16.3623 79.4698 16.2607H76.4337C75.8265 16.2607 75.7253 16.5655 75.7253 17.0733ZM77.6459 18.7178C77.6469 18.7777 77.648 18.8392 77.648 18.9017C77.5468 19.4096 77.7492 19.7143 78.3564 19.8159C78.4177 19.8056 78.4791 19.7964 78.5398 19.7873C79.0801 19.706 79.5708 19.6322 79.5708 18.9017C79.5708 18.0714 79.0698 17.9953 78.5229 17.9122C78.4677 17.9038 78.412 17.8953 78.3564 17.886C77.6298 17.7949 77.6368 18.1945 77.6459 18.7178Z" fill="#B79D32"/>
<path fill-rule="evenodd" clip-rule="evenodd" d="M5.49028 17.5823C5.18667 16.6682 4.88306 16.0587 3.76982 16.3634C3.63614 16.3903 3.49539 16.3817 3.35691 16.3732C2.97122 16.3496 2.60311 16.3271 2.45418 17.0744C2.04937 18.1917 1.64455 19.2836 1.23974 20.3755C0.834926 21.4674 0.430113 22.5593 0.0253006 23.6766C0.0253006 23.731 0.0180346 23.7781 0.0112903 23.8219C-0.00713564 23.9414 -0.0216677 24.0357 0.126504 24.1844C0.63252 24.4891 1.94816 24.0829 2.04937 23.575C2.15057 22.864 2.55538 22.7624 3.1626 22.7624H4.78185C5.18667 22.6609 5.49028 22.864 5.49028 23.1687C5.59148 24.0829 6.2999 24.0829 7.00832 24.0829C7.81795 24.0829 7.71675 23.7781 7.51434 23.2703C7.36309 22.8583 7.21184 22.4509 7.06158 22.0461C6.50803 20.5551 5.96785 19.1001 5.49028 17.5823ZM4.57933 20.5274C4.27572 19.8164 4.07332 19.207 3.87091 18.496L3.6685 18.5976C3.5673 18.9023 3.4661 19.1957 3.36489 19.4891C3.16249 20.076 2.96008 20.6628 2.75767 21.34H4.07332C4.78174 21.34 4.78174 21.0353 4.57933 20.5274Z" fill="#B79D32"/>
<path fill-rule="evenodd" clip-rule="evenodd" d="M31.7671 16.3547C31.6381 16.3586 31.5144 16.3623 31.3982 16.3623C30.6898 16.3623 30.1837 16.3623 29.4753 16.2607C29.0705 16.2607 28.8681 16.3623 28.8681 16.7686V23.4723C28.8681 24.0593 29.213 24.0232 29.5041 23.9928C29.5656 23.9863 29.6248 23.9802 29.6777 23.9802C29.7774 23.9802 29.8893 24.0048 30.003 24.0298C30.3509 24.1063 30.7147 24.1864 30.791 23.5739C30.8275 23.3172 30.7981 23.0339 30.7694 22.7577C30.7186 22.2689 30.6701 21.802 30.9934 21.5424C31.3307 21.2716 31.848 21.2716 32.3652 21.2716C32.6239 21.2716 32.8825 21.2716 33.1186 21.2377H33.2198C34.4343 21.0346 35.0415 20.222 35.1427 19.1047C35.2439 17.7843 34.7379 16.9717 33.5235 16.5655C32.9507 16.3191 32.3117 16.3383 31.7671 16.3547ZM31.8032 17.8868C30.9936 17.7852 30.8924 18.1915 30.9936 18.8009C30.9936 18.8915 30.9891 18.9799 30.9848 19.0646C30.9602 19.5501 30.9416 19.9182 31.8032 19.9182C31.8681 19.9089 31.9331 19.9005 31.9975 19.8921C32.6355 19.809 33.22 19.7329 33.22 18.9025C33.22 18.0899 32.5116 17.9884 31.8032 17.8868Z" fill="#B79D32"/>
</svg>
