<?xml version="1.0" encoding="utf-8"?>
<!-- Generator: Adobe Illustrator 23.0.2, SVG Export Plug-In . SVG Version: 6.00 Build 0)  -->
<svg version="1.1" id="Слой_1" xmlns="http://www.w3.org/2000/svg" xmlns:xlink="http://www.w3.org/1999/xlink" x="0px" y="0px"
	 viewBox="0 0 507.9 498.7" style="enable-background:new 0 0 507.9 498.7;" xml:space="preserve">
<style type="text/css">
	.st0{fill:#C2A633;}
</style>
<g>
	<path class="st0" d="M262.5,168.4h-35.2v69.4h55.4v29h-55.4v69.4h36.9c9.5,0,77.9,1.1,77.8-80.7
		C341.9,173.7,275.7,168.4,262.5,168.4z"/>
	<path class="st0" d="M256.6,6.1c-136,0-246.3,110.3-246.3,246.3s110.3,246.3,246.3,246.3s246.3-110.3,246.3-246.3
		S392.6,6.1,256.6,6.1z M266.3,385.4h-89.2V266.8h-31.4v-29h31.4V119.2h76.5c18.1,0,138.1-3.8,138.1,135.3
		C391.7,395.9,266.3,385.4,266.3,385.4L266.3,385.4z"/>
</g>
</svg>
