<svg width="112" height="36" viewBox="0 0 112 36" fill="none" xmlns="http://www.w3.org/2000/svg">
<path d="M35.4101 19.2737C35.4101 19.4581 35.2559 19.6083 35.0712 19.6083H28.544C28.7069 21.2207 29.9205 22.6919 31.6276 22.6919C32.794 22.6919 33.6605 22.2459 34.3123 21.3154C34.4067 21.1866 34.5482 21.1053 34.7282 21.1825C34.8269 21.2254 34.8955 21.3154 34.9126 21.4184C34.9296 21.5255 34.8999 21.5857 34.8698 21.6456C34.2136 22.7906 32.9057 23.3524 31.6232 23.3524C29.4273 23.3524 27.8621 21.3883 27.8621 19.2867C27.8621 17.1852 29.4273 15.2208 31.6232 15.2208C33.8191 15.2168 35.4058 17.1765 35.4101 19.2737ZM34.7112 18.9565C34.5696 17.3441 33.3347 15.8729 31.6276 15.8729C29.9208 15.8729 28.7069 17.3438 28.544 18.9565H34.7112ZM43.3312 15.3797C43.5199 15.3797 43.6571 15.5427 43.6571 15.7056C43.6571 15.8943 43.5156 16.0315 43.3312 16.0315H41.5813V22.8977C41.5813 23.0606 41.4398 23.2236 41.2554 23.2236C41.0667 23.2236 40.9295 23.0606 40.9295 22.8977V16.0315H39.2482C39.0595 16.0315 38.9223 15.89 38.9223 15.7056C38.9223 15.5427 39.0639 15.3797 39.2482 15.3797H40.9295V12.8666C40.9295 12.708 41.0366 12.5621 41.1912 12.5364C41.41 12.5019 41.5813 12.6521 41.5813 12.8579V15.3797H43.3312ZM54.0057 18.6989V22.8588C54.0057 23.0476 53.8428 23.1847 53.6798 23.1847C53.4911 23.1847 53.3539 23.0432 53.3539 22.8588V18.6989C53.3539 17.2966 52.5606 15.894 50.9951 15.894C48.9878 15.894 48.1216 17.6479 48.2373 19.445C48.2373 19.4922 48.2588 19.7023 48.2588 19.7237V22.8458C48.2588 23.0044 48.1517 23.1503 47.9971 23.176C47.7783 23.2105 47.607 23.0603 47.607 22.8545V9.19113C47.607 9.02818 47.7485 8.86523 47.9329 8.86523C48.1216 8.86523 48.2588 9.02818 48.2588 9.19113V16.9235C48.8205 15.9201 49.824 15.2422 50.9907 15.2422C52.9079 15.2422 54.0057 16.9235 54.0057 18.6989ZM65.7097 19.2737C65.7097 19.4581 65.5555 19.6083 65.3708 19.6083H58.8392C59.0022 21.2207 60.2157 22.6919 61.9228 22.6919C63.0892 22.6919 63.9558 22.2459 64.6076 21.3154C64.7019 21.1866 64.8434 21.1053 65.0235 21.1825C65.1222 21.2254 65.1908 21.3154 65.2078 21.4184C65.2249 21.5255 65.1951 21.5857 65.165 21.6456C64.5089 22.7906 63.2009 23.3524 61.9184 23.3524C59.7225 23.3524 58.1573 21.3883 58.1573 19.2867C58.1573 17.1852 59.7225 15.2211 61.9184 15.2211C64.1184 15.2168 65.7054 17.1765 65.7097 19.2737ZM65.0064 18.9565C64.8649 17.3441 63.6299 15.8729 61.9228 15.8729C60.216 15.8729 59.0022 17.3438 58.8392 18.9565H65.0064ZM73.7208 15.6842C73.7208 15.8943 73.6051 16.0101 73.4164 16.0359C71.4995 16.3146 70.6372 17.8801 70.6372 19.7026V22.8247C70.6372 22.9833 70.5302 23.1292 70.3756 23.155C70.1568 23.1894 69.9855 23.0392 69.9855 22.8334V15.7183C69.9855 15.5597 70.0925 15.4139 70.2471 15.3881C70.4659 15.3536 70.6372 15.5039 70.6372 15.7096V17.1591C71.1732 16.25 72.2496 15.3834 73.3692 15.3834C73.5321 15.3797 73.7208 15.4995 73.7208 15.6842ZM84.4425 19.2737C84.4425 19.4581 84.2882 19.6083 84.1035 19.6083H77.5763C77.7393 21.2207 78.9528 22.6919 80.6599 22.6919C81.8263 22.6919 82.6929 22.2459 83.3447 21.3154C83.439 21.1866 83.5806 21.1053 83.7606 21.1825C83.8593 21.2254 83.9279 21.3154 83.9449 21.4184C83.962 21.5255 83.9322 21.5857 83.9021 21.6456C83.246 22.7906 81.9381 23.3524 80.6556 23.3524C78.4596 23.3524 76.8944 21.3883 76.8944 19.2867C76.8944 17.1852 78.4596 15.2211 80.6556 15.2211C82.8515 15.2168 84.4381 17.1765 84.4425 19.2737ZM83.7435 18.9565C83.602 17.3441 82.367 15.8729 80.6599 15.8729C78.9532 15.8729 77.7393 17.3438 77.5763 18.9565H83.7435ZM94.9798 15.7655V22.8977C94.9798 23.0864 94.8168 23.2236 94.6539 23.2236C94.4652 23.2236 94.328 23.082 94.328 22.8977V21.5426C93.792 22.6189 92.8313 23.3868 91.6174 23.3868C89.6788 23.3868 88.6024 21.7055 88.6024 19.9302V15.7484C88.6024 15.5855 88.744 15.4226 88.9283 15.4226C89.117 15.4226 89.2542 15.5855 89.2542 15.7484V19.9298C89.2542 21.3321 90.0475 22.7347 91.6131 22.7347C93.809 22.7347 94.3236 20.6803 94.3236 18.4118V15.7484C94.3236 15.5597 94.5123 15.3667 94.7439 15.4353C94.8854 15.4824 94.9798 15.6196 94.9798 15.7655ZM111.491 18.6734V22.8548C111.491 23.0435 111.328 23.1807 111.165 23.1807C110.977 23.1807 110.839 23.0392 110.839 22.8548V18.6734C110.839 17.2712 110.046 15.8943 108.481 15.8943C106.516 15.8943 105.77 17.9959 105.77 19.6297V22.8548C105.77 23.0435 105.607 23.1807 105.444 23.1807C105.255 23.1807 105.118 23.0392 105.118 22.8548V18.6734C105.118 17.2712 104.325 15.8943 102.759 15.8943C100.774 15.8943 99.9545 17.4595 100.027 19.5397C100.027 19.5869 100.049 19.6812 100.027 19.7026V22.8461C100.027 23.0047 99.9203 23.1506 99.7614 23.1764C99.5426 23.2108 99.3713 23.0606 99.3713 22.8548V15.7183C99.3713 15.5597 99.4783 15.4139 99.6329 15.3881C99.8517 15.3536 100.023 15.5039 100.023 15.7096V16.9018C100.585 15.8983 101.588 15.2422 102.755 15.2422C104.084 15.2422 105.114 16.0827 105.534 17.3224C106.07 16.1088 107.121 15.2422 108.476 15.2422C110.393 15.2422 111.491 16.8978 111.491 18.6734Z" fill="#131313"/>
<g opacity="0.6">
<g opacity="0.6">
<path opacity="0.6" d="M10.9104 13.1406L0 18.1026L10.9104 24.5485L21.8164 18.1026L10.9104 13.1406Z" fill="#131313"/>
</g>
</g>
<g opacity="0.45">
<g opacity="0.45">
<path opacity="0.45" d="M0 18.1024L10.9104 24.5483V0L0 18.1024Z" fill="#131313"/>
</g>
</g>
<g opacity="0.8">
<g opacity="0.8">
<path opacity="0.8" d="M10.9103 0V24.5483L21.8163 18.1024L10.9103 0Z" fill="#131313"/>
</g>
</g>
<g opacity="0.45">
<g opacity="0.45">
<path opacity="0.45" d="M0 20.1689L10.9104 35.5394V26.6145L0 20.1689Z" fill="#131313"/>
</g>
</g>
<g opacity="0.8">
<g opacity="0.8">
<path opacity="0.8" d="M10.9103 26.6148V35.5394L21.825 20.1689L10.9103 26.6148Z" fill="#131313"/>
</g>
</g>
</svg>
