<svg width="186" height="38" viewBox="0 0 186 38" fill="none" xmlns="http://www.w3.org/2000/svg">
<g clip-path="url(#clip0_728_4028)">
<path d="M5.03125 24.7196C5.03125 25.3333 5.51244 25.8592 6.1686 25.8592C6.82476 25.8592 7.30594 25.3771 7.30594 24.7196C7.30594 24.0622 6.82476 23.5801 6.1686 23.5801C5.51244 23.5801 5.03125 24.106 5.03125 24.7196Z" fill="white"/>
<path d="M28.4337 23.4048C27.9525 23.7555 27.3401 23.9746 26.6839 23.9746C25.0654 23.9746 23.7093 22.6597 23.7093 20.9942C23.7093 19.3287 25.0216 18.0138 26.6839 18.0138C28.3024 18.0138 29.6585 19.3287 29.6585 20.9942C29.6585 21.301 29.6148 21.6078 29.5273 21.8708L31.6707 23.3172V0H15.8791L23.2719 5.0842C23.7531 4.73356 24.3655 4.51442 25.0216 4.51442C26.6402 4.51442 27.9962 5.8293 27.9962 7.49481C27.9962 9.16032 26.6839 10.4752 25.0216 10.4752C23.4031 10.4752 22.047 9.16032 22.047 7.49481C22.047 7.188 22.0908 6.8812 22.1783 6.61822L12.5983 0H0V6.57439L3.19332 8.76586C3.67451 8.41523 4.28692 8.19608 4.94309 8.19608C6.56162 8.19608 7.91769 9.51096 7.91769 11.1765C7.91769 12.7982 6.60536 14.1569 4.94309 14.1569C3.32455 14.1569 1.96849 12.842 1.96849 11.1765C1.96849 10.8697 2.01223 10.5629 2.09972 10.2999L0 8.85352V27.3057L15.8354 38L19.8161 35.2826L7.91769 27.0865C7.4365 27.4371 6.82408 27.6563 6.16792 27.6563C4.54939 27.6563 3.19332 26.3414 3.19332 24.6759C3.19332 23.0542 4.50564 21.6955 6.16792 21.6955C7.8302 21.6955 9.14252 23.0104 9.14252 24.6759C9.14252 24.9827 9.09878 25.2895 9.01129 25.5525L21.4784 34.1869L31.6707 27.3057V25.6401L28.4337 23.4048ZM22.572 17.6632V17.8824L14.4793 18.3206L22.572 24.1061V28.9712L14.4793 23.4048V18.3645L9.05503 18.6713V14.376L17.2352 13.8939L9.05503 8.10842V3.24337L22.572 12.4914V17.6632Z" fill="white"/>
<path d="M25.0221 8.59065C25.6503 8.59065 26.1595 8.08045 26.1595 7.45109C26.1595 6.82172 25.6503 6.31152 25.0221 6.31152C24.394 6.31152 23.8848 6.82172 23.8848 7.45109C23.8848 8.08045 24.394 8.59065 25.0221 8.59065Z" fill="white"/>
<path d="M6.08133 11.1764C6.08133 10.5628 5.60015 10.0369 4.94399 10.0369C4.28783 10.0369 3.80664 10.519 3.80664 11.1764C3.80664 11.79 4.28783 12.316 4.94399 12.316C5.60015 12.316 6.08133 11.79 6.08133 11.1764Z" fill="white"/>
<path d="M25.5469 21.038C25.5469 21.6516 26.0281 22.1776 26.6842 22.1776C27.3404 22.1776 27.8216 21.6954 27.8216 21.038C27.8216 20.3806 27.3404 19.8984 26.6842 19.8984C26.0281 19.8984 25.5469 20.4244 25.5469 21.038Z" fill="white"/>
<path d="M51.7049 21.4762C50.9613 21.4762 50.3051 21.4762 49.6927 21.4762H47.1993L52.0111 15.3401C52.6235 14.595 53.2359 13.8061 53.8046 13.0172C54.417 12.2282 55.0295 11.4393 55.6419 10.6504V8.06445H41.95V11.2202C42.9998 11.2202 44.0059 11.2202 44.9683 11.2202C45.9307 11.2202 46.8493 11.2202 47.6804 11.2202H50.4801L45.7994 17.2686C45.362 17.7946 44.9246 18.4082 44.4434 19.0218C43.9622 19.6792 43.481 20.2928 42.9998 20.9064C42.5186 21.52 42.0812 22.0898 41.6875 22.6158V24.6319H55.7294V21.4762C55.1607 21.4762 54.5483 21.4762 53.8484 21.4762C53.1485 21.4762 52.4048 21.4762 51.7049 21.4762Z" fill="white"/>
<path d="M65.8348 13.2802C65.0912 12.8858 64.1725 12.7104 63.1227 12.7104C61.8979 12.7104 60.848 12.9734 60.0169 13.4994C59.1857 14.0253 58.5733 14.7266 58.1359 15.647C57.6984 16.5674 57.5234 17.6193 57.5234 18.8027C57.5234 19.9861 57.7422 21.038 58.1796 21.9584C58.617 22.8788 59.3169 23.6239 60.2793 24.1499C61.2417 24.6758 62.4228 24.9388 63.9538 24.9388C64.5225 24.9388 65.0912 24.895 65.5724 24.8512C66.0535 24.7635 66.5347 24.6758 66.9284 24.5882C67.3221 24.5005 67.6721 24.369 67.9783 24.1937L67.8471 21.2572C67.4971 21.4325 67.1034 21.6078 66.666 21.6955C66.2285 21.8269 65.8348 21.9146 65.4411 21.9584C65.0474 22.0023 64.6975 22.0461 64.3913 22.0461C63.6039 22.0461 62.9477 21.9146 62.4228 21.6516C61.8978 21.3887 61.5479 21.038 61.2854 20.5559C61.1105 20.2053 61.023 19.8108 60.9355 19.3725H68.0658C68.1095 19.1534 68.1095 18.8904 68.1533 18.6712C68.1533 18.4521 68.197 18.1453 68.197 17.8385C68.197 16.6989 67.9783 15.7347 67.5846 14.9896C67.1471 14.2445 66.5785 13.6747 65.8348 13.2802ZM61.9853 15.5594C62.3353 15.2964 62.729 15.1649 63.1664 15.1649C63.7351 15.1649 64.2163 15.384 64.5662 15.8223C64.8725 16.2168 65.0474 16.7427 65.0912 17.4002L60.9355 17.4878C60.9792 17.181 61.0667 16.8742 61.1542 16.6113C61.3729 16.173 61.6354 15.8223 61.9853 15.5594Z" fill="white"/>
<path d="M77.5576 12.7542C76.9452 12.7542 76.3765 12.8418 75.8953 13.061C75.4142 13.2801 74.9767 13.5431 74.6268 13.8499C74.2768 14.1567 73.9269 14.5512 73.6644 14.9018H73.3582L73.227 12.8856L70.3398 13.061C70.3398 13.9814 70.3398 14.9018 70.3398 15.7784C70.3398 16.655 70.3398 17.5754 70.3398 18.452V19.5915C70.3398 20.5558 70.3398 21.4324 70.3398 22.1774C70.3398 22.9664 70.3398 23.7553 70.3398 24.5881H73.7956C73.7956 23.7553 73.7956 22.9664 73.7956 22.2213C73.7956 21.4762 73.7956 20.6434 73.7956 19.7668V17.3562C73.9706 17.0933 74.1893 16.8303 74.408 16.6111C74.6268 16.392 74.8892 16.2167 75.1517 16.0852C75.4142 15.9537 75.7204 15.866 76.0703 15.866C76.639 15.866 77.0327 16.0413 77.2952 16.392C77.5139 16.7426 77.6451 17.2686 77.6451 17.926V19.7668C77.6451 20.5996 77.6451 21.4324 77.6451 22.1774C77.6451 22.9664 77.6451 23.7553 77.6451 24.5881H81.1009C81.1009 23.7553 81.1009 22.9664 81.1009 22.1774C81.1009 21.3885 81.1009 20.5119 81.1009 19.5915C81.1009 19.1094 81.1009 18.6711 81.1009 18.2328C81.1009 17.7945 81.1009 17.3124 81.1009 16.8303C81.1009 15.4716 80.7947 14.4635 80.226 13.7622C79.6136 13.061 78.7387 12.7542 77.5576 12.7542Z" fill="white"/>
<path d="M90.5052 21.9583C90.199 22.0459 89.9365 22.0898 89.6741 22.0898C89.1054 22.0898 88.668 21.9144 88.4055 21.52C88.143 21.1693 88.0118 20.5996 88.0118 19.8983V15.603C88.4055 15.603 88.8429 15.603 89.2804 15.603C90.024 15.603 90.7239 15.603 91.4676 15.603V12.9733H88.0118C88.0118 12.6226 88.0118 12.272 88.0118 11.9652C88.0118 11.3954 88.0118 10.8256 88.0118 10.2997C88.0118 9.77372 88.0118 9.20394 88.0118 8.59033L84.5997 9.20394C84.5997 9.94904 84.5997 10.6941 84.5997 11.4392C84.5997 11.9214 84.5997 12.4473 84.5997 12.9733H82.7188V15.603H84.5997C84.5997 15.7345 84.5997 15.8222 84.5997 15.9537C84.5997 16.6111 84.5997 17.2247 84.5997 17.7945C84.5997 18.3643 84.5997 18.934 84.5997 19.46C84.5997 19.9859 84.5997 20.5119 84.5997 20.994C84.5997 21.9144 84.7747 22.7034 85.0809 23.2731C85.3871 23.8429 85.8683 24.2812 86.4807 24.5004C87.0932 24.7633 87.8368 24.8948 88.6679 24.8948C89.0179 24.8948 89.3679 24.851 89.7615 24.8072C90.1115 24.7633 90.4615 24.6757 90.7677 24.6319C91.0739 24.5442 91.3363 24.4565 91.5113 24.325L91.2926 21.52C91.0739 21.7391 90.7677 21.8706 90.5052 21.9583Z" fill="white"/>
<path d="M102.535 14.5073C102.185 13.8937 101.66 13.4554 100.96 13.1924C100.26 12.9295 99.4726 12.7542 98.4664 12.7542C97.9415 12.7542 97.4603 12.798 96.9791 12.8418C96.4979 12.8856 96.0605 12.9733 95.6231 13.061C95.1856 13.1486 94.7919 13.2363 94.3982 13.3678C94.0483 13.4554 93.6983 13.5869 93.3921 13.6746L93.5671 16.655C93.917 16.4796 94.3107 16.3043 94.6607 16.2167C95.0106 16.0852 95.3606 15.9975 95.7106 15.9099C96.0605 15.8222 96.3667 15.7784 96.6729 15.7345C96.9791 15.6907 97.2853 15.6907 97.5478 15.6907C98.029 15.6907 98.4664 15.7345 98.8164 15.8222C99.1663 15.9099 99.4288 16.0852 99.6038 16.3482C99.7788 16.6111 99.8662 16.9618 99.8662 17.4001L96.6292 17.8822C96.1917 17.9698 95.798 18.0575 95.3606 18.189C94.9232 18.3205 94.5295 18.5396 94.1358 18.8464C93.7858 19.1094 93.4796 19.5039 93.2171 19.9422C92.9984 20.3804 92.8672 20.9502 92.8672 21.6077C92.8672 22.3089 92.9984 22.9225 93.3046 23.4047C93.5671 23.9306 93.9608 24.3251 94.442 24.5881C94.9232 24.851 95.5356 25.0264 96.1917 25.0264C96.7604 25.0264 97.2416 24.9387 97.679 24.7634C98.1165 24.5881 98.5102 24.3689 98.8164 24.0621C99.1226 23.7991 99.3851 23.4923 99.6038 23.1855H99.8662L100.085 24.7195H103.06C103.06 24.0183 103.06 23.3608 103.06 22.7472C103.06 22.1336 103.06 21.52 103.06 20.9502V19.723C103.06 19.2847 103.06 18.8026 103.06 18.2328C103.06 17.663 103.06 17.2247 103.06 16.8303C103.103 15.866 102.885 15.0771 102.535 14.5073ZM99.7788 20.6434C99.6038 20.9502 99.4288 21.257 99.1663 21.4762C98.9476 21.6953 98.6852 21.9145 98.4227 22.0021C98.1602 22.1336 97.8978 22.1774 97.5916 22.1774C97.2416 22.1774 96.9354 22.0898 96.6729 21.9145C96.4105 21.7392 96.2792 21.4324 96.2792 20.9941C96.2792 20.7311 96.323 20.4681 96.4542 20.249C96.5854 20.0298 96.7167 19.8983 96.9354 19.723C97.1541 19.5915 97.3728 19.5039 97.6353 19.46C98.1165 19.3724 98.5102 19.2847 98.7726 19.1971C99.0351 19.1532 99.2538 19.0656 99.3851 19.0217C99.5163 18.9779 99.6475 18.8903 99.735 18.8464V20.6434H99.7788Z" fill="white"/>
<path d="M119.814 16.0853C119.07 15.647 118.02 15.2525 116.708 14.858C116.008 14.6389 115.439 14.4636 115.002 14.2444C114.565 14.0253 114.215 13.8061 113.996 13.5432C113.777 13.2802 113.69 12.9734 113.69 12.5789C113.69 12.1844 113.821 11.8776 114.04 11.6147C114.258 11.3517 114.565 11.1764 114.958 11.0449C115.352 10.9134 115.746 10.8696 116.227 10.8696C116.664 10.8696 117.102 10.9134 117.627 11.0449C118.152 11.1764 118.677 11.3079 119.201 11.527C119.726 11.7462 120.251 12.0091 120.733 12.3159L121.039 8.94108C120.733 8.76576 120.383 8.63427 119.945 8.50278C119.508 8.37129 119.07 8.23981 118.589 8.15215C118.108 8.06449 117.583 7.97683 117.058 7.88917C116.533 7.80151 116.008 7.80151 115.527 7.80151C114.215 7.80151 113.121 8.02066 112.29 8.41512C111.415 8.85342 110.803 9.4232 110.365 10.1683C109.928 10.9134 109.709 11.7462 109.709 12.7104C109.709 13.6746 109.884 14.4636 110.278 15.0772C110.671 15.6908 111.196 16.1729 111.896 16.5674C112.596 16.9618 113.471 17.3125 114.477 17.5754C115.221 17.7946 115.833 18.0137 116.358 18.1891C116.883 18.4082 117.277 18.6712 117.583 18.9342C117.845 19.1971 118.02 19.5916 118.02 19.9861C118.02 20.4244 117.933 20.775 117.714 21.038C117.495 21.3009 117.189 21.5201 116.796 21.6516C116.402 21.7831 115.921 21.8269 115.396 21.8269C114.871 21.8269 114.302 21.7831 113.733 21.6516C113.165 21.5201 112.552 21.3886 111.984 21.1694C111.415 20.9503 110.846 20.6873 110.321 20.3805L110.059 23.7554C110.453 23.9307 110.978 24.1498 111.59 24.3252C112.202 24.5005 112.902 24.632 113.602 24.7635C114.302 24.8949 115.046 24.9388 115.702 24.9388C117.189 24.9388 118.37 24.7196 119.333 24.3252C120.251 23.8869 120.951 23.3171 121.389 22.572C121.826 21.8269 122.045 20.9503 122.045 19.9422C122.045 19.0218 121.87 18.2767 121.564 17.6631C121.126 17.0057 120.601 16.5235 119.814 16.0853Z" fill="black"/>
<path d="M130.049 15.4717C129.831 16.2606 129.612 17.0933 129.349 17.8823L128.475 20.9942H128.168L127.337 17.8823C127.118 17.0495 126.9 16.2168 126.681 15.4278C126.462 14.6389 126.244 13.8061 126.025 12.9734L122.307 13.061C122.613 13.8938 122.919 14.7266 123.225 15.6031C123.531 16.4797 123.838 17.3125 124.144 18.1452L124.888 20.2491C125.15 21.038 125.456 21.8269 125.719 22.6158C125.981 23.3171 126.2 23.9745 126.462 24.6758C126.2 25.3771 125.894 26.0783 125.631 26.7796C125.325 27.6124 124.975 28.4013 124.669 29.1902L128.256 29.1026C128.562 28.2698 128.956 27.3494 129.349 26.2975C129.743 25.2456 130.224 24.0184 130.793 22.5282L132.062 19.2848C132.412 18.3206 132.761 17.4878 133.024 16.7865C133.286 16.0853 133.549 15.4278 133.768 14.858C133.986 14.2883 134.205 13.6747 134.468 13.061H130.749C130.487 13.85 130.268 14.6827 130.049 15.4717Z" fill="black"/>
<path d="M142.999 18.5834C142.474 18.3205 141.774 18.1013 140.943 17.8383C140.418 17.7069 140.024 17.5754 139.718 17.4439C139.456 17.3124 139.237 17.1809 139.149 17.0056C139.062 16.8741 139.018 16.6988 139.018 16.4796C139.018 16.2605 139.062 16.0413 139.193 15.9099C139.324 15.7784 139.456 15.6469 139.674 15.6031C139.893 15.5592 140.112 15.5154 140.331 15.5154C140.549 15.5154 140.899 15.5592 141.293 15.6469C141.687 15.7345 142.08 15.8222 142.474 15.9975C142.868 16.1728 143.261 16.3482 143.611 16.5673L143.83 13.5869C143.524 13.4554 143.174 13.3239 142.737 13.1924C142.299 13.061 141.818 12.9733 141.293 12.8856C140.768 12.798 140.199 12.7542 139.631 12.7542C138.318 12.7542 137.268 13.061 136.525 13.7184C135.781 14.3758 135.387 15.2524 135.387 16.4358C135.387 17.0933 135.519 17.663 135.737 18.1013C135.956 18.5396 136.35 18.8903 136.787 19.1532C137.268 19.4162 137.837 19.6354 138.537 19.8107C139.149 19.986 139.631 20.1175 139.981 20.2051C140.331 20.3366 140.593 20.4681 140.724 20.5996C140.856 20.7311 140.943 20.9064 140.943 21.1255C140.943 21.4324 140.856 21.6515 140.724 21.783C140.593 21.9145 140.374 22.046 140.156 22.0898C139.893 22.1336 139.631 22.1774 139.324 22.1774C138.887 22.1774 138.45 22.1336 138.012 22.046C137.575 21.9583 137.137 21.8268 136.7 21.6953C136.262 21.52 135.912 21.3447 135.562 21.1255L135.344 24.0621C135.65 24.2374 136.044 24.3689 136.481 24.4566C136.919 24.5881 137.4 24.6757 137.925 24.7195C138.45 24.7634 138.975 24.8072 139.543 24.8072C140.681 24.8072 141.643 24.6319 142.343 24.3251C143.043 24.0183 143.611 23.58 143.918 23.0102C144.268 22.4404 144.443 21.783 144.443 21.0379C144.443 20.3804 144.311 19.8545 144.049 19.4162C143.918 19.1532 143.524 18.8464 142.999 18.5834Z" fill="black"/>
<path d="M153.279 21.9583C152.972 22.0459 152.71 22.0898 152.447 22.0898C151.879 22.0898 151.441 21.9144 151.179 21.52C150.916 21.1693 150.785 20.5996 150.785 19.8983V15.603C151.179 15.603 151.616 15.603 152.054 15.603C152.797 15.603 153.497 15.603 154.241 15.603V12.9733H150.785C150.785 12.6226 150.785 12.272 150.785 11.9652C150.785 11.3954 150.785 10.8256 150.785 10.2997C150.785 9.77372 150.785 9.20394 150.785 8.59033L147.373 9.20394C147.373 9.94904 147.373 10.6941 147.373 11.4392C147.373 11.9214 147.373 12.4473 147.373 12.9733H145.492V15.603H147.373C147.373 15.7345 147.373 15.8222 147.373 15.9537C147.373 16.6111 147.373 17.2247 147.373 17.7945C147.373 18.3643 147.373 18.934 147.373 19.46C147.373 19.9859 147.373 20.5119 147.373 20.994C147.373 21.9144 147.548 22.7034 147.854 23.2731C148.161 23.8429 148.642 24.2812 149.254 24.5004C149.867 24.7633 150.61 24.8948 151.441 24.8948C151.791 24.8948 152.141 24.851 152.535 24.8072C152.885 24.7633 153.235 24.6757 153.541 24.6319C153.847 24.5442 154.11 24.4565 154.285 24.325L154.066 21.52C153.847 21.7391 153.585 21.8706 153.279 21.9583Z" fill="black"/>
<path d="M163.907 13.2802C163.163 12.8858 162.245 12.7104 161.195 12.7104C159.97 12.7104 158.92 12.9734 158.089 13.4994C157.258 14.0253 156.646 14.7266 156.208 15.647C155.771 16.5674 155.596 17.6193 155.596 18.8027C155.596 19.9861 155.814 21.038 156.252 21.9584C156.689 22.8788 157.389 23.6239 158.352 24.1499C159.314 24.6758 160.495 24.9388 162.026 24.9388C162.595 24.9388 163.163 24.895 163.645 24.8512C164.126 24.7635 164.607 24.6758 165.001 24.5882C165.394 24.4567 165.744 24.369 166.051 24.1937L165.919 21.2572C165.569 21.4325 165.176 21.6078 164.738 21.6955C164.301 21.8269 163.907 21.9146 163.513 21.9584C163.12 22.0023 162.77 22.0461 162.464 22.0461C161.676 22.0461 161.02 21.9146 160.495 21.6516C159.97 21.3887 159.62 21.038 159.358 20.5559C159.183 20.2053 159.095 19.8108 159.008 19.3725H166.138C166.182 19.1534 166.182 18.8904 166.226 18.6712C166.226 18.4521 166.269 18.1453 166.269 17.8385C166.269 16.6989 166.051 15.7347 165.657 14.9896C165.219 14.2445 164.651 13.6747 163.907 13.2802ZM160.058 15.5594C160.408 15.2964 160.801 15.1649 161.239 15.1649C161.807 15.1649 162.289 15.384 162.638 15.8223C162.945 16.2168 163.12 16.7427 163.163 17.4002L159.008 17.4878C159.051 17.181 159.139 16.8742 159.226 16.6113C159.489 16.173 159.751 15.8223 160.058 15.5594Z" fill="black"/>
<path d="M185.167 13.7624C184.599 13.0611 183.724 12.7104 182.586 12.7104C181.974 12.7104 181.449 12.7981 180.968 13.0173C180.487 13.2364 180.049 13.4994 179.699 13.8062C179.349 14.1568 178.999 14.5075 178.737 14.8581H178.474C178.299 14.2445 177.993 13.7185 177.6 13.3679C177.118 12.9296 176.418 12.7104 175.544 12.7104C174.931 12.7104 174.406 12.7981 173.969 13.0173C173.488 13.2364 173.094 13.4994 172.744 13.8062C172.394 14.113 172.088 14.4636 171.825 14.8581H171.475L171.344 12.8419L168.457 13.0173C168.457 13.9377 168.457 14.8581 168.457 15.7347C168.457 16.6113 168.457 17.5317 168.457 18.4083V19.5478C168.457 20.5121 168.457 21.3886 168.457 22.1337C168.457 22.9227 168.457 23.7116 168.457 24.5444H171.913C171.913 23.7116 171.913 22.9227 171.913 22.1776C171.913 21.4325 171.913 20.5997 171.913 19.7231V17.3125C172.088 17.0495 172.263 16.7866 172.481 16.5674C172.7 16.3483 172.919 16.173 173.181 15.9976C173.444 15.8662 173.75 15.7785 174.056 15.7785C174.581 15.7785 174.975 15.9538 175.194 16.3045C175.412 16.6551 175.5 17.181 175.5 17.8385V19.6793C175.5 20.5121 175.5 21.3448 175.5 22.0899C175.5 22.8788 175.5 23.6678 175.5 24.5005H178.956C178.956 23.6678 178.956 22.8788 178.956 22.0899C178.956 21.301 178.956 20.4244 178.956 19.504C178.956 19.0219 178.956 18.5836 178.956 18.1453C178.956 17.8385 178.956 17.5317 178.956 17.2249C179.131 16.9619 179.306 16.7427 179.481 16.5674C179.699 16.3483 179.962 16.173 180.224 16.0415C180.487 15.91 180.793 15.8223 181.099 15.8223C181.668 15.8223 182.018 15.9976 182.236 16.3483C182.455 16.6989 182.543 17.2249 182.543 17.8823V19.7231C182.543 20.5559 182.543 21.3886 182.543 22.1337C182.543 22.9227 182.543 23.7116 182.543 24.5444H185.998C185.998 23.7116 185.998 22.9227 185.998 22.1337C185.998 21.3448 185.998 20.4682 185.998 19.5478C185.998 19.0657 185.998 18.6274 185.998 18.1891C185.998 17.7508 185.998 17.2687 185.998 16.7866C185.998 15.4717 185.692 14.4636 185.167 13.7624Z" fill="black"/>
</g>
<defs>
<clipPath id="clip0_728_4028">
<rect width="186" height="38" fill="white"/>
</clipPath>
</defs>
</svg>
