<svg width="20" height="24" viewBox="0 0 20 24" fill="none" xmlns="http://www.w3.org/2000/svg">
<path d="M3.17676 15.6105C3.17676 15.9979 3.48063 16.3301 3.89499 16.3301C4.30935 16.3301 4.61322 16.0256 4.61322 15.6105C4.61322 15.1953 4.30935 14.8908 3.89499 14.8908C3.48063 14.8908 3.17676 15.223 3.17676 15.6105Z" fill="white"/>
<path d="M17.9558 14.7801C17.6519 15.0015 17.2652 15.1399 16.8508 15.1399C15.8287 15.1399 14.9724 14.3096 14.9724 13.2578C14.9724 12.206 15.8011 11.3757 16.8508 11.3757C17.8729 11.3757 18.7293 12.206 18.7293 13.2578C18.7293 13.4516 18.7017 13.6453 18.6464 13.8114L20 14.7247V0H10.0276L14.6961 3.21066C15 2.98923 15.3867 2.85084 15.8011 2.85084C16.8232 2.85084 17.6796 3.68119 17.6796 4.73295C17.6796 5.78472 16.8508 6.61507 15.8011 6.61507C14.779 6.61507 13.9227 5.78472 13.9227 4.73295C13.9227 4.53921 13.9503 4.34546 14.0055 4.17939L7.9558 0H0V4.15171L2.01657 5.53562C2.32044 5.3142 2.70718 5.1758 3.12155 5.1758C4.14365 5.1758 5 6.00615 5 7.05792C5 8.082 4.17127 8.94003 3.12155 8.94003C2.09945 8.94003 1.24309 8.10968 1.24309 7.05792C1.24309 6.86417 1.27072 6.67042 1.32597 6.50435L0 5.59098V17.2435L10 23.9969L12.5138 22.2809L5 17.1051C4.69613 17.3265 4.30939 17.4649 3.89503 17.4649C2.87293 17.4649 2.01657 16.6345 2.01657 15.5828C2.01657 14.5587 2.8453 13.7007 3.89503 13.7007C4.94475 13.7007 5.77348 14.531 5.77348 15.5828C5.77348 15.7765 5.74586 15.9703 5.69061 16.1363L13.5635 21.5889L20 17.2435V16.1917L17.9558 14.7801ZM14.2541 11.1543V11.2927L9.14365 11.5694L14.2541 15.223V18.2952L9.14365 14.7801V11.5971L5.71823 11.7909V9.07842L10.884 8.77396L5.71823 5.12045V2.04818L14.2541 7.88826V11.1543Z" fill="white"/>
<path d="M15.801 5.4249C16.1977 5.4249 16.5192 5.10271 16.5192 4.70527C16.5192 4.30783 16.1977 3.98564 15.801 3.98564C15.4043 3.98564 15.0828 4.30783 15.0828 4.70527C15.0828 5.10271 15.4043 5.4249 15.801 5.4249Z" fill="white"/>
<path d="M3.83978 7.05791C3.83978 6.67042 3.53592 6.33828 3.12155 6.33828C2.70719 6.33828 2.40332 6.64274 2.40332 7.05791C2.40332 7.44541 2.70719 7.77754 3.12155 7.77754C3.53592 7.77754 3.83978 7.44541 3.83978 7.05791Z" fill="white"/>
<path d="M16.1326 13.2855C16.1326 13.673 16.4364 14.0051 16.8508 14.0051C17.2652 14.0051 17.569 13.7007 17.569 13.2855C17.569 12.8703 17.2652 12.5659 16.8508 12.5659C16.4364 12.5659 16.1326 12.898 16.1326 13.2855Z" fill="white"/>
</svg>
