<svg width="30" height="35" viewBox="0 0 30 35" fill="none" xmlns="http://www.w3.org/2000/svg">
<path d="M4.63281 22.7652C4.63281 23.3303 5.07595 23.8147 5.68023 23.8147C6.28452 23.8147 6.72766 23.3707 6.72766 22.7652C6.72766 22.1598 6.28452 21.7158 5.68023 21.7158C5.07595 21.7158 4.63281 22.2001 4.63281 22.7652Z" fill="white"/>
<path d="M26.1855 21.5543C25.7424 21.8772 25.1784 22.0791 24.5741 22.0791C23.0836 22.0791 21.8347 20.8681 21.8347 19.3343C21.8347 17.8005 23.0433 16.5896 24.5741 16.5896C26.0647 16.5896 27.3135 17.8005 27.3135 19.3343C27.3135 19.6169 27.2733 19.8994 27.1927 20.1416L29.1667 21.4736V0H14.6236L21.4319 4.68221C21.875 4.3593 22.439 4.15748 23.0433 4.15748C24.5338 4.15748 25.7827 5.3684 25.7827 6.90223C25.7827 8.43605 24.5741 9.64697 23.0433 9.64697C21.5527 9.64697 20.3039 8.43605 20.3039 6.90223C20.3039 6.61968 20.3442 6.33713 20.4247 6.09495L11.6022 0H0V6.05458L2.94084 8.07278C3.38398 7.74987 3.94797 7.54805 4.55226 7.54805C6.04282 7.54805 7.29167 8.75896 7.29167 10.2928C7.29167 11.7863 6.0831 13.0375 4.55226 13.0375C3.06169 13.0375 1.81285 11.8266 1.81285 10.2928C1.81285 10.0102 1.85313 9.7277 1.9337 9.48551L0 8.15351V25.1467L14.5833 34.9955L18.2493 32.4929L7.29167 24.9449C6.84853 25.2678 6.28453 25.4696 5.68025 25.4696C4.18969 25.4696 2.94084 24.2587 2.94084 22.7249C2.94084 21.2314 4.1494 19.9801 5.68025 19.9801C7.2111 19.9801 8.41966 21.191 8.41966 22.7249C8.41966 23.0074 8.37937 23.29 8.2988 23.5321L19.7802 31.4838L29.1667 25.1467V23.6129L26.1855 21.5543ZM20.7873 16.2666V16.4685L13.3345 16.8721L20.7873 22.2001V26.6805L13.3345 21.5543V16.9125L8.33909 17.195V13.2394L15.8725 12.7954L8.33909 7.46732V2.98693L20.7873 11.5037V16.2666Z" fill="white"/>
<path d="M23.0416 7.91127C23.62 7.91127 24.089 7.44141 24.089 6.86181C24.089 6.28221 23.62 5.81235 23.0416 5.81235C22.4631 5.81235 21.9941 6.28221 21.9941 6.86181C21.9941 7.44141 22.4631 7.91127 23.0416 7.91127Z" fill="white"/>
<path d="M5.5968 10.2928C5.5968 9.72768 5.15366 9.24332 4.54938 9.24332C3.94509 9.24332 3.50195 9.68732 3.50195 10.2928C3.50195 10.8579 3.94509 11.3422 4.54938 11.3422C5.15366 11.3422 5.5968 10.8579 5.5968 10.2928Z" fill="white"/>
<path d="M23.5254 19.3747C23.5254 19.9398 23.9685 20.4241 24.5728 20.4241C25.1771 20.4241 25.6202 19.9801 25.6202 19.3747C25.6202 18.7692 25.1771 18.3252 24.5728 18.3252C23.9685 18.3252 23.5254 18.8096 23.5254 19.3747Z" fill="white"/>
</svg>
