<svg width="186" height="38" viewBox="0 0 186 38" fill="none" xmlns="http://www.w3.org/2000/svg">
<g clip-path="url(#clip0_115_443)">
<path d="M5.03058 24.7197C5.03058 25.3333 5.51176 25.8593 6.16793 25.8593C6.82409 25.8593 7.30527 25.3772 7.30527 24.7197C7.30527 24.0623 6.82409 23.5802 6.16793 23.5802C5.51176 23.5802 5.03058 24.1061 5.03058 24.7197Z" fill="url(#paint0_linear_115_443)"/>
<path d="M28.4337 23.4048C27.9525 23.7555 27.3401 23.9746 26.6839 23.9746C25.0654 23.9746 23.7093 22.6597 23.7093 20.9942C23.7093 19.3287 25.0216 18.0138 26.6839 18.0138C28.3024 18.0138 29.6585 19.3287 29.6585 20.9942C29.6585 21.301 29.6148 21.6078 29.5273 21.8708L31.6707 23.3172V0H15.8791L23.2719 5.0842C23.7531 4.73356 24.3655 4.51442 25.0216 4.51442C26.6402 4.51442 27.9962 5.8293 27.9962 7.49481C27.9962 9.16032 26.6839 10.4752 25.0216 10.4752C23.4031 10.4752 22.047 9.16032 22.047 7.49481C22.047 7.188 22.0908 6.8812 22.1783 6.61822L12.5983 0H0V6.57439L3.19332 8.76586C3.67451 8.41523 4.28692 8.19608 4.94309 8.19608C6.56162 8.19608 7.91769 9.51096 7.91769 11.1765C7.91769 12.7982 6.60536 14.1569 4.94309 14.1569C3.32455 14.1569 1.96849 12.842 1.96849 11.1765C1.96849 10.8697 2.01223 10.5629 2.09972 10.2999L0 8.85352V27.3057L15.8354 38L19.8161 35.2826L7.91769 27.0865C7.4365 27.4371 6.82408 27.6563 6.16792 27.6563C4.54939 27.6563 3.19332 26.3414 3.19332 24.6759C3.19332 23.0542 4.50564 21.6955 6.16792 21.6955C7.8302 21.6955 9.14252 23.0104 9.14252 24.6759C9.14252 24.9827 9.09878 25.2895 9.01129 25.5525L21.4784 34.1869L31.6707 27.3057V25.6401L28.4337 23.4048ZM22.572 17.6632V17.8824L14.4793 18.3206L22.572 24.1061V28.9712L14.4793 23.4048V18.3645L9.05503 18.6713V14.376L17.2352 13.8939L9.05503 8.10842V3.24337L22.572 12.4914V17.6632Z" fill="url(#paint1_linear_115_443)"/>
<path d="M25.0216 8.59054C25.6498 8.59054 26.159 8.08034 26.159 7.45098C26.159 6.82162 25.6498 6.31142 25.0216 6.31142C24.3935 6.31142 23.8843 6.82162 23.8843 7.45098C23.8843 8.08034 24.3935 8.59054 25.0216 8.59054Z" fill="url(#paint2_linear_115_443)"/>
<path d="M6.08042 11.1765C6.08042 10.5629 5.59923 10.0369 4.94307 10.0369C4.28691 10.0369 3.80573 10.519 3.80573 11.1765C3.80573 11.7901 4.28691 12.316 4.94307 12.316C5.59923 12.316 6.08042 11.7901 6.08042 11.1765Z" fill="url(#paint3_linear_115_443)"/>
<path d="M25.5465 21.0381C25.5465 21.6517 26.0277 22.1776 26.6839 22.1776C27.34 22.1776 27.8212 21.6955 27.8212 21.0381C27.8212 20.3806 27.34 19.8985 26.6839 19.8985C26.0277 19.8985 25.5465 20.4245 25.5465 21.0381Z" fill="url(#paint4_linear_115_443)"/>
<path d="M51.7055 21.4764C50.9619 21.4764 50.3057 21.4764 49.6933 21.4764H47.1999L52.0117 15.3403C52.6241 14.5952 53.2366 13.8062 53.8052 13.0173C54.4176 12.2284 55.0301 11.4394 55.6425 10.6505V8.06459H41.9506V11.2203C43.0004 11.2203 44.0065 11.2203 44.9689 11.2203C45.9313 11.2203 46.8499 11.2203 47.6811 11.2203H50.4807L45.8001 17.2687C45.3626 17.7947 44.9252 18.4083 44.444 19.0219C43.9628 19.6794 43.4816 20.293 43.0004 20.9066C42.5192 21.5202 42.0818 22.09 41.6881 22.6159V24.6321H55.73V21.4764C55.1613 21.4764 54.5489 21.4764 53.849 21.4764C53.1491 21.4764 52.4054 21.4764 51.7055 21.4764Z" fill="url(#paint5_linear_115_443)"/>
<path d="M65.8348 13.2803C65.0912 12.8858 64.1725 12.7105 63.1227 12.7105C61.8979 12.7105 60.848 12.9735 60.0169 13.4994C59.1857 14.0254 58.5733 14.7266 58.1359 15.6471C57.6984 16.5675 57.5234 17.6194 57.5234 18.8028C57.5234 19.9862 57.7422 21.0381 58.1796 21.9585C58.617 22.8789 59.3169 23.624 60.2793 24.1499C61.2417 24.6759 62.4228 24.9389 63.9538 24.9389C64.5225 24.9389 65.0912 24.895 65.5724 24.8512C66.0535 24.7636 66.5347 24.6759 66.9284 24.5882C67.3221 24.5006 67.6721 24.3691 67.9783 24.1938L67.8471 21.2572C67.4971 21.4325 67.1034 21.6078 66.666 21.6955C66.2285 21.827 65.8348 21.9146 65.4411 21.9585C65.0474 22.0023 64.6975 22.0461 64.3913 22.0461C63.6039 22.0461 62.9477 21.9146 62.4228 21.6517C61.8978 21.3887 61.5479 21.0381 61.2854 20.5559C61.1105 20.2053 61.023 19.8108 60.9355 19.3725H68.0658C68.1095 19.1534 68.1095 18.8904 68.1533 18.6713C68.1533 18.4521 68.197 18.1453 68.197 17.8385C68.197 16.699 67.9783 15.7347 67.5846 14.9896C67.1471 14.2445 66.5785 13.6747 65.8348 13.2803ZM61.9853 15.5594C62.3353 15.2964 62.729 15.1649 63.1664 15.1649C63.7351 15.1649 64.2163 15.3841 64.5662 15.8224C64.8725 16.2168 65.0474 16.7428 65.0912 17.4002L60.9355 17.4879C60.9792 17.1811 61.0667 16.8743 61.1542 16.6113C61.3729 16.173 61.6354 15.8224 61.9853 15.5594Z" fill="url(#paint6_linear_115_443)"/>
<path d="M77.5582 12.7543C76.9458 12.7543 76.3771 12.842 75.896 13.0611C75.4148 13.2803 74.9773 13.5433 74.6274 13.8501C74.2774 14.1569 73.9275 14.5513 73.665 14.902H73.3588L73.2276 12.8858L70.3405 13.0611C70.3405 13.9815 70.3405 14.902 70.3405 15.7785C70.3405 16.6551 70.3405 17.5755 70.3405 18.4521V19.5917C70.3405 20.5559 70.3405 21.4325 70.3405 22.1776C70.3405 22.9666 70.3405 23.7555 70.3405 24.5882H73.7962C73.7962 23.7555 73.7962 22.9666 73.7962 22.2215C73.7962 21.4764 73.7962 20.6436 73.7962 19.767V17.3564C73.9712 17.0934 74.1899 16.8305 74.4087 16.6113C74.6274 16.3922 74.8898 16.2168 75.1523 16.0854C75.4148 15.9539 75.721 15.8662 76.0709 15.8662C76.6396 15.8662 77.0333 16.0415 77.2958 16.3922C77.5145 16.7428 77.6457 17.2687 77.6457 17.9262V19.767C77.6457 20.5998 77.6457 21.4325 77.6457 22.1776C77.6457 22.9666 77.6457 23.7555 77.6457 24.5882H81.1015C81.1015 23.7555 81.1015 22.9666 81.1015 22.1776C81.1015 21.3887 81.1015 20.5121 81.1015 19.5917C81.1015 19.1096 81.1015 18.6713 81.1015 18.233C81.1015 17.7947 81.1015 17.3126 81.1015 16.8305C81.1015 15.4717 80.7953 14.4637 80.2266 13.7624C79.6142 13.0611 78.7393 12.7543 77.5582 12.7543Z" fill="url(#paint7_linear_115_443)"/>
<path d="M90.5065 21.9585C90.2003 22.0461 89.9379 22.09 89.6754 22.09C89.1067 22.09 88.6693 21.9146 88.4068 21.5202C88.1444 21.1695 88.0131 20.5998 88.0131 19.8985V15.6032C88.4068 15.6032 88.8443 15.6032 89.2817 15.6032C90.0254 15.6032 90.7253 15.6032 91.4689 15.6032V12.9735H88.0131C88.0131 12.6228 88.0131 12.2722 88.0131 11.9654C88.0131 11.3956 88.0131 10.8258 88.0131 10.2999C88.0131 9.77393 88.0131 9.20415 88.0131 8.59054L84.6011 9.20415C84.6011 9.94925 84.6011 10.6943 84.6011 11.4394C84.6011 11.9216 84.6011 12.4475 84.6011 12.9735H82.7201V15.6032H84.6011C84.6011 15.7347 84.6011 15.8224 84.6011 15.9539C84.6011 16.6113 84.6011 17.2249 84.6011 17.7947C84.6011 18.3645 84.6011 18.9343 84.6011 19.4602C84.6011 19.9862 84.6011 20.5121 84.6011 20.9942C84.6011 21.9146 84.7761 22.7036 85.0823 23.2734C85.3885 23.8431 85.8697 24.2814 86.4821 24.5006C87.0945 24.7636 87.8382 24.895 88.6693 24.895C89.0192 24.895 89.3692 24.8512 89.7629 24.8074C90.1128 24.7636 90.4628 24.6759 90.769 24.6321C91.0752 24.5444 91.3377 24.4567 91.5127 24.3253L91.2939 21.5202C91.0752 21.7393 90.769 21.8708 90.5065 21.9585Z" fill="url(#paint8_linear_115_443)"/>
<path d="M102.536 14.5075C102.186 13.8939 101.661 13.4556 100.961 13.1926C100.262 12.9296 99.4741 12.7543 98.468 12.7543C97.9431 12.7543 97.4619 12.7982 96.9807 12.842C96.4995 12.8858 96.0621 12.9735 95.6247 13.0611C95.1872 13.1488 94.7935 13.2364 94.3998 13.3679C94.0499 13.4556 93.6999 13.5871 93.3937 13.6747L93.5687 16.6551C93.9186 16.4798 94.3123 16.3045 94.6623 16.2168C95.0122 16.0854 95.3622 15.9977 95.7121 15.91C96.0621 15.8224 96.3683 15.7785 96.6745 15.7347C96.9807 15.6909 97.2869 15.6909 97.5494 15.6909C98.0306 15.6909 98.468 15.7347 98.818 15.8224C99.1679 15.91 99.4304 16.0854 99.6054 16.3483C99.7803 16.6113 99.8678 16.9619 99.8678 17.4002L96.6308 17.8824C96.1933 17.97 95.7996 18.0577 95.3622 18.1892C94.9247 18.3206 94.531 18.5398 94.1374 18.8466C93.7874 19.1096 93.4812 19.504 93.2187 19.9423C93 20.3806 92.8688 20.9504 92.8688 21.6078C92.8688 22.3091 93 22.9227 93.3062 23.4048C93.5687 23.9308 93.9624 24.3253 94.4436 24.5882C94.9247 24.8512 95.5372 25.0265 96.1933 25.0265C96.762 25.0265 97.2432 24.9389 97.6806 24.7636C98.1181 24.5882 98.5118 24.3691 98.818 24.0623C99.1242 23.7993 99.3866 23.4925 99.6054 23.1857H99.8678L100.087 24.7197H103.061C103.061 24.0185 103.061 23.361 103.061 22.7474C103.061 22.1338 103.061 21.5202 103.061 20.9504V19.7232C103.061 19.2849 103.061 18.8028 103.061 18.233C103.061 17.6632 103.061 17.2249 103.061 16.8305C103.105 15.8662 102.886 15.0773 102.536 14.5075ZM99.7803 20.6436C99.6054 20.9504 99.4304 21.2572 99.1679 21.4764C98.9492 21.6955 98.6867 21.9146 98.4243 22.0023C98.1618 22.1338 97.8993 22.1776 97.5931 22.1776C97.2432 22.1776 96.937 22.09 96.6745 21.9146C96.412 21.7393 96.2808 21.4325 96.2808 20.9942C96.2808 20.7313 96.3246 20.4683 96.4558 20.2491C96.587 20.03 96.7183 19.8985 96.937 19.7232C97.1557 19.5917 97.3744 19.504 97.6369 19.4602C98.1181 19.3726 98.5118 19.2849 98.7742 19.1972C99.0367 19.1534 99.2554 19.0657 99.3866 19.0219C99.5179 18.9781 99.6491 18.8904 99.7366 18.8466V20.6436H99.7803Z" fill="url(#paint9_linear_115_443)"/>
<path d="M119.815 16.0854C119.071 15.6471 118.022 15.2526 116.709 14.8581C116.009 14.639 115.441 14.4637 115.003 14.2445C114.566 14.0254 114.216 13.8062 113.997 13.5433C113.778 13.2803 113.691 12.9735 113.691 12.579C113.691 12.1845 113.822 11.8777 114.041 11.6148C114.26 11.3518 114.566 11.1765 114.959 11.045C115.353 10.9135 115.747 10.8697 116.228 10.8697C116.666 10.8697 117.103 10.9135 117.628 11.045C118.153 11.1765 118.678 11.308 119.203 11.5271C119.728 11.7463 120.253 12.0092 120.734 12.316L121.04 8.94118C120.734 8.76586 120.384 8.63437 119.946 8.50288C119.509 8.3714 119.071 8.23991 118.59 8.15225C118.109 8.06459 117.584 7.97693 117.059 7.88927C116.534 7.80162 116.009 7.80161 115.528 7.80161C114.216 7.80161 113.122 8.02076 112.291 8.41523C111.416 8.85352 110.804 9.4233 110.366 10.1684C109.929 10.9135 109.71 11.7463 109.71 12.7105C109.71 13.6747 109.885 14.4637 110.279 15.0773C110.673 15.6909 111.198 16.173 111.897 16.5675C112.597 16.9619 113.472 17.3126 114.478 17.5755C115.222 17.7947 115.834 18.0138 116.359 18.1892C116.884 18.4083 117.278 18.6713 117.584 18.9343C117.847 19.1972 118.022 19.5917 118.022 19.9862C118.022 20.4245 117.934 20.7751 117.715 21.0381C117.497 21.301 117.19 21.5202 116.797 21.6517C116.403 21.7832 115.922 21.827 115.397 21.827C114.872 21.827 114.303 21.7832 113.735 21.6517C113.166 21.5202 112.554 21.3887 111.985 21.1696C111.416 20.9504 110.848 20.6874 110.323 20.3806L110.06 23.7555C110.454 23.9308 110.979 24.1499 111.591 24.3253C112.204 24.5006 112.904 24.6321 113.603 24.7636C114.303 24.895 115.047 24.9389 115.703 24.9389C117.19 24.9389 118.372 24.7197 119.334 24.3253C120.253 23.887 120.952 23.3172 121.39 22.5721C121.827 21.827 122.046 20.9504 122.046 19.9423C122.046 19.0219 121.871 18.2768 121.565 17.6632C121.127 17.0058 120.602 16.5236 119.815 16.0854Z" fill="black"/>
<path d="M130.051 15.4717C129.832 16.2607 129.614 17.0934 129.351 17.8824L128.476 20.9942H128.17L127.339 17.8824C127.12 17.0496 126.902 16.2168 126.683 15.4279C126.464 14.639 126.245 13.8062 126.027 12.9735L122.308 13.0611C122.615 13.8939 122.921 14.7266 123.227 15.6032C123.533 16.4798 123.84 17.3126 124.146 18.1453L124.889 20.2491C125.152 21.0381 125.458 21.827 125.721 22.6159C125.983 23.3172 126.202 23.9746 126.464 24.6759C126.202 25.3772 125.895 26.0784 125.633 26.7797C125.327 27.6125 124.977 28.4014 124.671 29.1903L128.258 29.1027C128.564 28.2699 128.958 27.3495 129.351 26.2976C129.745 25.2457 130.226 24.0185 130.795 22.5283L132.063 19.2849C132.413 18.3206 132.763 17.4879 133.026 16.7866C133.288 16.0854 133.551 15.4279 133.769 14.8581C133.988 14.2884 134.207 13.6747 134.469 13.0611H130.751C130.489 13.8501 130.27 14.6828 130.051 15.4717Z" fill="black"/>
<path d="M142.999 18.5836C142.475 18.3206 141.775 18.1015 140.943 17.8385C140.419 17.707 140.025 17.5755 139.719 17.4441C139.456 17.3126 139.237 17.1811 139.15 17.0058C139.062 16.8743 139.019 16.699 139.019 16.4798C139.019 16.2607 139.062 16.0415 139.194 15.91C139.325 15.7785 139.456 15.6471 139.675 15.6032C139.894 15.5594 140.112 15.5156 140.331 15.5156C140.55 15.5156 140.9 15.5594 141.293 15.6471C141.687 15.7347 142.081 15.8224 142.475 15.9977C142.868 16.173 143.262 16.3483 143.612 16.5675L143.831 13.5871C143.524 13.4556 143.174 13.3241 142.737 13.1926C142.3 13.0611 141.818 12.9735 141.293 12.8858C140.769 12.7982 140.2 12.7543 139.631 12.7543C138.319 12.7543 137.269 13.0611 136.525 13.7186C135.782 14.376 135.388 15.2526 135.388 16.436C135.388 17.0934 135.519 17.6632 135.738 18.1015C135.957 18.5398 136.35 18.8904 136.788 19.1534C137.269 19.4164 137.838 19.6355 138.538 19.8108C139.15 19.9862 139.631 20.1176 139.981 20.2053C140.331 20.3368 140.594 20.4683 140.725 20.5998C140.856 20.7313 140.943 20.9066 140.943 21.1257C140.943 21.4325 140.856 21.6517 140.725 21.7832C140.594 21.9146 140.375 22.0461 140.156 22.09C139.894 22.1338 139.631 22.1776 139.325 22.1776C138.888 22.1776 138.45 22.1338 138.013 22.0461C137.575 21.9585 137.138 21.827 136.7 21.6955C136.263 21.5202 135.913 21.3449 135.563 21.1257L135.344 24.0623C135.65 24.2376 136.044 24.3691 136.482 24.4567C136.919 24.5882 137.4 24.6759 137.925 24.7197C138.45 24.7636 138.975 24.8074 139.544 24.8074C140.681 24.8074 141.643 24.6321 142.343 24.3253C143.043 24.0185 143.612 23.5802 143.918 23.0104C144.268 22.4406 144.443 21.7832 144.443 21.0381C144.443 20.3806 144.312 19.8547 144.049 19.4164C143.918 19.1534 143.524 18.8466 142.999 18.5836Z" fill="black"/>
<path d="M153.279 21.9585C152.973 22.0461 152.711 22.09 152.448 22.09C151.88 22.09 151.442 21.9146 151.18 21.5202C150.917 21.1695 150.786 20.5998 150.786 19.8985V15.6032C151.18 15.6032 151.617 15.6032 152.055 15.6032C152.798 15.6032 153.498 15.6032 154.242 15.6032V12.9735H150.786C150.786 12.6228 150.786 12.2722 150.786 11.9654C150.786 11.3956 150.786 10.8258 150.786 10.2999C150.786 9.77393 150.786 9.20415 150.786 8.59054L147.374 9.20415C147.374 9.94925 147.374 10.6943 147.374 11.4394C147.374 11.9216 147.374 12.4475 147.374 12.9735H145.493V15.6032H147.374C147.374 15.7347 147.374 15.8224 147.374 15.9539C147.374 16.6113 147.374 17.2249 147.374 17.7947C147.374 18.3645 147.374 18.9343 147.374 19.4602C147.374 19.9862 147.374 20.5121 147.374 20.9942C147.374 21.9146 147.549 22.7036 147.855 23.2734C148.161 23.8431 148.642 24.2814 149.255 24.5006C149.867 24.7636 150.611 24.895 151.442 24.895C151.792 24.895 152.142 24.8512 152.536 24.8074C152.886 24.7636 153.236 24.6759 153.542 24.6321C153.848 24.5444 154.111 24.4567 154.285 24.3253L154.067 21.5202C153.848 21.7393 153.586 21.8708 153.279 21.9585Z" fill="black"/>
<path d="M163.909 13.2803C163.166 12.8858 162.247 12.7105 161.197 12.7105C159.972 12.7105 158.922 12.9735 158.091 13.4994C157.26 14.0254 156.648 14.7266 156.21 15.6471C155.773 16.5675 155.598 17.6194 155.598 18.8028C155.598 19.9862 155.816 21.0381 156.254 21.9585C156.691 22.8789 157.391 23.624 158.354 24.1499C159.316 24.6759 160.497 24.9389 162.028 24.9389C162.597 24.9389 163.166 24.895 163.647 24.8512C164.128 24.7636 164.609 24.6759 165.003 24.5882C165.396 24.4567 165.746 24.3691 166.053 24.1938L165.921 21.2572C165.571 21.4325 165.178 21.6078 164.74 21.6955C164.303 21.827 163.909 21.9146 163.515 21.9585C163.122 22.0023 162.772 22.0461 162.466 22.0461C161.678 22.0461 161.022 21.9146 160.497 21.6517C159.972 21.3887 159.622 21.0381 159.36 20.5559C159.185 20.2053 159.097 19.8108 159.01 19.3725H166.14C166.184 19.1534 166.184 18.8904 166.228 18.6713C166.228 18.4521 166.271 18.1453 166.271 17.8385C166.271 16.699 166.053 15.7347 165.659 14.9896C165.221 14.2445 164.653 13.6747 163.909 13.2803ZM160.06 15.5594C160.41 15.2964 160.803 15.1649 161.241 15.1649C161.809 15.1649 162.291 15.3841 162.641 15.8224C162.947 16.2168 163.122 16.7428 163.166 17.4002L159.01 17.4879C159.054 17.1811 159.141 16.8743 159.229 16.6113C159.491 16.173 159.753 15.8224 160.06 15.5594Z" fill="black"/>
<path d="M185.169 13.7624C184.6 13.0611 183.725 12.7105 182.588 12.7105C181.976 12.7105 181.451 12.7982 180.969 13.0173C180.488 13.2364 180.051 13.4994 179.701 13.8062C179.351 14.1569 179.001 14.5075 178.738 14.8581H178.476C178.301 14.2445 177.995 13.7186 177.601 13.3679C177.12 12.9296 176.42 12.7105 175.545 12.7105C174.933 12.7105 174.408 12.7982 173.97 13.0173C173.489 13.2364 173.095 13.4994 172.746 13.8062C172.396 14.113 172.089 14.4637 171.827 14.8581H171.477L171.346 12.842L168.459 13.0173C168.459 13.9377 168.459 14.8581 168.459 15.7347C168.459 16.6113 168.459 17.5317 168.459 18.4083V19.5479C168.459 20.5121 168.459 21.3887 168.459 22.1338C168.459 22.9227 168.459 23.7116 168.459 24.5444H171.914C171.914 23.7116 171.914 22.9227 171.914 22.1776C171.914 21.4325 171.914 20.5998 171.914 19.7232V17.3126C172.089 17.0496 172.264 16.7866 172.483 16.5675C172.702 16.3483 172.921 16.173 173.183 15.9977C173.445 15.8662 173.752 15.7785 174.058 15.7785C174.583 15.7785 174.976 15.9539 175.195 16.3045C175.414 16.6551 175.501 17.1811 175.501 17.8385V19.6794C175.501 20.5121 175.501 21.3449 175.501 22.09C175.501 22.8789 175.501 23.6678 175.501 24.5006H178.957C178.957 23.6678 178.957 22.8789 178.957 22.09C178.957 21.301 178.957 20.4245 178.957 19.504C178.957 19.0219 178.957 18.5836 178.957 18.1453C178.957 17.8385 178.957 17.5317 178.957 17.2249C179.132 16.9619 179.307 16.7428 179.482 16.5675C179.701 16.3483 179.963 16.173 180.226 16.0415C180.488 15.91 180.794 15.8224 181.101 15.8224C181.669 15.8224 182.019 15.9977 182.238 16.3483C182.457 16.699 182.544 17.2249 182.544 17.8824V19.7232C182.544 20.5559 182.544 21.3887 182.544 22.1338C182.544 22.9227 182.544 23.7116 182.544 24.5444H186C186 23.7116 186 22.9227 186 22.1338C186 21.3449 186 20.4683 186 19.5479C186 19.0657 186 18.6274 186 18.1892C186 17.7509 186 17.2687 186 16.7866C186 15.4717 185.694 14.4637 185.169 13.7624Z" fill="black"/>
</g>
<defs>
<linearGradient id="paint0_linear_115_443" x1="5.47353" y1="25.5202" x2="6.87578" y2="23.8863" gradientUnits="userSpaceOnUse">
<stop stop-color="#9F8EE1"/>
<stop offset="1" stop-color="#4CACCE"/>
</linearGradient>
<linearGradient id="paint1_linear_115_443" x1="3.25504" y1="28.3493" x2="29.1531" y2="-1.82765" gradientUnits="userSpaceOnUse">
<stop stop-color="#9F8EE1"/>
<stop offset="1" stop-color="#4CACCE"/>
</linearGradient>
<linearGradient id="paint2_linear_115_443" x1="24.3368" y1="8.2531" x2="25.7389" y2="6.61934" gradientUnits="userSpaceOnUse">
<stop stop-color="#9F8EE1"/>
<stop offset="1" stop-color="#4CACCE"/>
</linearGradient>
<linearGradient id="paint3_linear_115_443" x1="4.26101" y1="11.9557" x2="5.66309" y2="10.3219" gradientUnits="userSpaceOnUse">
<stop stop-color="#9F8EE1"/>
<stop offset="1" stop-color="#4CACCE"/>
</linearGradient>
<linearGradient id="paint4_linear_115_443" x1="25.9991" y1="21.8376" x2="27.4012" y2="20.2038" gradientUnits="userSpaceOnUse">
<stop stop-color="#9F8EE1"/>
<stop offset="1" stop-color="#4CACCE"/>
</linearGradient>
<linearGradient id="paint5_linear_115_443" x1="41.8427" y1="16.3574" x2="101.56" y2="16.3574" gradientUnits="userSpaceOnUse">
<stop stop-color="#9F8EE1"/>
<stop offset="1" stop-color="#4CACCE"/>
</linearGradient>
<linearGradient id="paint6_linear_115_443" x1="41.8427" y1="18.8348" x2="101.56" y2="18.8348" gradientUnits="userSpaceOnUse">
<stop stop-color="#9F8EE1"/>
<stop offset="1" stop-color="#4CACCE"/>
</linearGradient>
<linearGradient id="paint7_linear_115_443" x1="41.8427" y1="18.6839" x2="101.56" y2="18.6839" gradientUnits="userSpaceOnUse">
<stop stop-color="#9F8EE1"/>
<stop offset="1" stop-color="#4CACCE"/>
</linearGradient>
<linearGradient id="paint8_linear_115_443" x1="41.8428" y1="16.8097" x2="101.56" y2="16.8097" gradientUnits="userSpaceOnUse">
<stop stop-color="#9F8EE1"/>
<stop offset="1" stop-color="#4CACCE"/>
</linearGradient>
<linearGradient id="paint9_linear_115_443" x1="41.8428" y1="18.8231" x2="101.56" y2="18.8231" gradientUnits="userSpaceOnUse">
<stop stop-color="#9F8EE1"/>
<stop offset="1" stop-color="#4CACCE"/>
</linearGradient>
<clipPath id="clip0_115_443">
<rect width="186" height="38" fill="white"/>
</clipPath>
</defs>
</svg>
