<svg width="107" height="26" viewBox="0 0 107 26" fill="none" xmlns="http://www.w3.org/2000/svg">
<path d="M12.6928 0C10.1824 0 7.72841 0.744422 5.64108 2.13913C3.55375 3.53384 1.92688 5.51619 0.96619 7.8355C0.00549959 10.1548 -0.245861 12.7069 0.243895 15.1691C0.733651 17.6313 1.94253 19.8929 3.71765 21.668C5.49278 23.4432 7.75442 24.652 10.2166 25.1418C12.6788 25.6315 15.2309 25.3802 17.5502 24.4195C19.8695 23.4588 21.8518 21.8319 23.2466 19.7446C24.6413 17.6573 25.3857 15.2032 25.3857 12.6928C25.3857 11.026 25.0574 9.37546 24.4195 7.8355C23.7816 6.29553 22.8467 4.89628 21.668 3.71765C20.4894 2.53901 19.0901 1.60406 17.5502 0.966185C16.0102 0.32831 14.3597 0 12.6928 0V0ZM12.8986 13.1104L11.5783 17.5655H18.6401C18.7362 17.5655 18.8284 17.6037 18.8963 17.6716C18.9642 17.7395 19.0024 17.8317 19.0024 17.9278C19.0018 17.9621 18.9967 17.9962 18.9871 18.0291L18.373 20.1446C18.3437 20.2456 18.2823 20.3344 18.1981 20.3976C18.114 20.4607 18.0115 20.4948 17.9063 20.4946H7.12015L8.94394 14.3355L6.92672 14.9495L7.37192 13.5096L9.39221 12.8955L11.9529 4.24323C11.981 4.14184 12.0416 4.05244 12.1253 3.98869C12.209 3.92493 12.3113 3.89032 12.4165 3.89014H15.1491C15.2452 3.89014 15.3374 3.92831 15.4053 3.99625C15.4733 4.0642 15.5114 4.15635 15.5114 4.25244C15.5161 4.28502 15.5161 4.31811 15.5114 4.35069L13.3499 11.6673L15.3548 11.0533L14.9219 12.5178L12.8986 13.1104Z" fill="#345D9D"/>
<path d="M34.7199 22.8163H31.4026V5.24609H34.7199V22.8163Z" fill="#345D9D"/>
<path d="M40.9426 22.8163H37.6254V10.4394H40.9426V22.8163ZM37.4309 7.23647C37.4309 6.74078 37.5949 6.33279 37.9228 6.0125C38.2583 5.69221 38.7121 5.53207 39.284 5.53207C39.8483 5.53207 40.2983 5.69221 40.6338 6.0125C40.9693 6.33279 41.1371 6.74078 41.1371 7.23647C41.1371 7.73978 40.9655 8.15158 40.6224 8.47187C40.2868 8.79216 39.8407 8.9523 39.284 8.9523C38.7273 8.9523 38.2774 8.79216 37.9342 8.47187C37.5987 8.15158 37.4309 7.73978 37.4309 7.23647Z" fill="#345D9D"/>
<path d="M47.6344 7.39661V10.4394H49.7506V12.8644H47.6344V19.0414C47.6344 19.499 47.7221 19.8269 47.8975 20.0252C48.0729 20.2235 48.4084 20.3226 48.9041 20.3226C49.2702 20.3226 49.5943 20.2959 49.8764 20.2425V22.7476C49.2282 22.9459 48.561 23.0451 47.8746 23.0451C45.5563 23.0451 44.3743 21.8745 44.3286 19.5333V12.8644H42.5212V10.4394H44.3286V7.39661H47.6344Z" fill="#345D9D"/>
<path d="M57.2889 23.0451C55.4739 23.0451 53.9945 22.4884 52.8506 21.375C51.7143 20.2616 51.1462 18.7783 51.1462 16.9252V16.6049C51.1462 15.3619 51.3864 14.2523 51.8668 13.2762C52.3472 12.2925 53.026 11.5375 53.9029 11.0113C54.7876 10.4775 55.7942 10.2106 56.9228 10.2106C58.6158 10.2106 59.9465 10.7444 60.915 11.812C61.8911 12.8797 62.3792 14.3934 62.3792 16.3533V17.7031H54.4978C54.6045 18.5114 54.9248 19.1596 55.4586 19.6477C56.0001 20.1358 56.6826 20.3798 57.5062 20.3798C58.7797 20.3798 59.7749 19.9184 60.4918 18.9957L62.1161 20.8145C61.6204 21.5161 60.9493 22.0651 60.1028 22.4617C59.2564 22.8506 58.3184 23.0451 57.2889 23.0451ZM56.9114 12.8873C56.2555 12.8873 55.7217 13.1084 55.3099 13.5507C54.9058 13.9931 54.6465 14.626 54.5321 15.4496H59.1305V15.1865C59.1153 14.4544 58.917 13.8901 58.5357 13.4936C58.1544 13.0894 57.613 12.8873 56.9114 12.8873Z" fill="#345D9D"/>
<path d="M69.4141 20.3798C70.0242 20.3798 70.5199 20.212 70.9012 19.8765C71.2825 19.5409 71.4807 19.0948 71.496 18.5381H74.5959C74.5883 19.377 74.3595 20.1472 73.9096 20.8488C73.4597 21.5427 72.842 22.0842 72.0565 22.4731C71.2787 22.8544 70.4169 23.0451 69.4713 23.0451C67.7021 23.0451 66.3065 22.4845 65.2847 21.3635C64.2628 20.2349 63.7519 18.6792 63.7519 16.6965V16.4791C63.7519 14.5726 64.259 13.0513 65.2732 11.915C66.2875 10.7787 67.6792 10.2106 69.4484 10.2106C70.9965 10.2106 72.2357 10.6529 73.1661 11.5375C74.1041 12.4145 74.5807 13.5851 74.5959 15.0492H71.496C71.4807 14.4087 71.2825 13.8901 70.9012 13.4936C70.5199 13.0894 70.0166 12.8873 69.3912 12.8873C68.621 12.8873 68.0376 13.1695 67.6411 13.7338C67.2522 14.2905 67.0577 15.198 67.0577 16.4562V16.7994C67.0577 18.0729 67.2522 18.988 67.6411 19.5447C68.03 20.1014 68.621 20.3798 69.4141 20.3798Z" fill="#345D9D"/>
<path d="M75.9686 16.5134C75.9686 15.2857 76.205 14.1913 76.6778 13.2305C77.1506 12.2696 77.8293 11.5261 78.714 10.9999C79.6062 10.4737 80.6395 10.2106 81.8139 10.2106C83.484 10.2106 84.8452 10.7215 85.8976 11.7434C86.9576 12.7653 87.5486 14.1532 87.6706 15.9072L87.6935 16.7536C87.6935 18.6525 87.1635 20.1777 86.1035 21.3292C85.0435 22.4731 83.6213 23.0451 81.8368 23.0451C80.0523 23.0451 78.6263 22.4731 77.5586 21.3292C76.4986 20.1853 75.9686 18.6296 75.9686 16.6621V16.5134ZM79.2745 16.7536C79.2745 17.928 79.4956 18.8279 79.9379 19.4532C80.3802 20.0709 81.0132 20.3798 81.8368 20.3798C82.6375 20.3798 83.2628 20.0747 83.7128 19.4647C84.1627 18.847 84.3877 17.8632 84.3877 16.5134C84.3877 15.3619 84.1627 14.4697 83.7128 13.8367C83.2628 13.2038 82.6299 12.8873 81.8139 12.8873C81.0056 12.8873 80.3802 13.2038 79.9379 13.8367C79.4956 14.4621 79.2745 15.4344 79.2745 16.7536Z" fill="#345D9D"/>
<path d="M93.2185 22.8163H89.9012V10.4394H93.2185V22.8163ZM89.7068 7.23647C89.7068 6.74078 89.8707 6.33279 90.1986 6.0125C90.5342 5.69221 90.9879 5.53207 91.5599 5.53207C92.1242 5.53207 92.5741 5.69221 92.9097 6.0125C93.2452 6.33279 93.413 6.74078 93.413 7.23647C93.413 7.73978 93.2414 8.15158 92.8982 8.47187C92.5627 8.79216 92.1166 8.9523 91.5599 8.9523C91.0032 8.9523 90.5532 8.79216 90.2101 8.47187C89.8745 8.15158 89.7068 7.73978 89.7068 7.23647Z" fill="#345D9D"/>
<path d="M98.9952 10.4394L99.0981 11.8692C99.9827 10.7635 101.169 10.2106 102.656 10.2106C103.967 10.2106 104.943 10.5957 105.584 11.3659C106.225 12.1361 106.552 13.2877 106.568 14.8205V22.8163H103.262V14.9005C103.262 14.199 103.109 13.6918 102.804 13.3792C102.499 13.0589 101.992 12.8987 101.283 12.8987C100.353 12.8987 99.6548 13.2953 99.1896 14.0884V22.8163H95.8838V10.4394H98.9952Z" fill="#345D9D"/>
</svg>
