<?xml version="1.0" encoding="utf-8"?>
<!-- Generator: Adobe Illustrator 23.0.1, SVG Export Plug-In . SVG Version: 6.00 Build 0)  -->
<svg version="1.1" id="Layer_1" xmlns="http://www.w3.org/2000/svg" xmlns:xlink="http://www.w3.org/1999/xlink" x="0px" y="0px"
	 viewBox="0 0 108 29" style="enable-background:new 0 0 108 29;" xml:space="preserve">
<style type="text/css">
	.st0{fill:#FF6600;}
	.st1{fill:#4C4C4C;}
</style>
<path class="st0" d="M14.3,0C6.4,0,0,6.5,0,14.5c0,1.6,0.3,3.1,0.7,4.6H5V6.9l9.3,9.4l9.3-9.4v12.2h4.3c0.5-1.4,0.7-3,0.7-4.6
	C28.5,6.5,22.1,0,14.3,0"/>
<path class="st1" d="M12.1,18.5l-4-4.1V22h-6c2.5,4.2,7,7,12.2,7s9.7-2.8,12.2-7h-6v-7.7l-4,4.1l-2.1,2.2L12.1,18.5L12.1,18.5
	L12.1,18.5z"/>
<g>
	<path class="st1" d="M39.5,18.2c0.9-2.6,1.7-5.1,2.5-7.6c0.1-0.4,0.1-1,0.5-1.1c0.3-0.2,0.8-0.1,1.2-0.1c1,0,1,0,1.2,1
		c0.6,3.7,1.2,7.5,1.8,11.2c0.1,0.3,0,0.5-0.3,0.4c-0.5,0-1.1,0-1.6,0c-0.2,0-0.3-0.1-0.4-0.3c-0.4-2.5-0.8-5-1.3-7.6
		c-0.2,0.6-0.4,1.2-0.6,1.7c-0.6,1.9-1.3,3.8-1.9,5.8c-0.1,0.3-0.2,0.4-0.6,0.4c-0.4,0-0.9,0-1.3,0c-0.3,0-0.4-0.1-0.5-0.4
		c-0.7-2.3-1.5-4.7-2.3-7c0-0.1-0.1-0.3-0.2-0.4c-0.1,0.7-0.2,1.3-0.3,2c-0.3,1.8-0.6,3.6-0.9,5.4c0,0.2-0.1,0.3-0.4,0.3
		c-0.5,0-1.1,0-1.6,0c-0.4,0-0.4-0.1-0.4-0.5c0.4-2.2,0.7-4.3,1.1-6.5c0.3-1.7,0.6-3.5,0.9-5.2c0.1-0.4,0.2-0.6,0.6-0.5
		c0.5,0,0.9,0,1.4,0c0.3,0,0.5,0.1,0.6,0.4c0.8,2.6,1.7,5.2,2.5,7.8C39.4,17.8,39.5,18,39.5,18.2z"/>
	<path class="st1" d="M69.4,17.5c0.1-0.2,0.1-0.4,0.1-0.5c0-2.4,0-4.8,0-7.1c0-0.3,0.1-0.5,0.4-0.5c0.5,0,1.1,0,1.6,0
		c0.3,0,0.3,0.1,0.3,0.3c0,4,0,8,0,11.9c0,0.3-0.1,0.4-0.4,0.4c0,0,0,0,0,0c-0.6,0-1.4,0.2-1.9-0.1c-0.5-0.2-0.7-1-1.1-1.5
		c-1.4-2.2-2.8-4.3-4.2-6.5c-0.1,0.2-0.1,0.3-0.1,0.5c0,2.4,0,4.8,0,7.2c0,0.4-0.1,0.5-0.4,0.4c-0.5,0-1.1,0-1.6,0
		c-0.3,0-0.4-0.1-0.4-0.3c0-4,0-8,0-11.9c0-0.3,0.1-0.4,0.4-0.4c0.5,0,1.1,0,1.6,0c0.3,0,0.4,0.1,0.6,0.3c1.6,2.5,3.2,4.9,4.8,7.4
		C69.2,17.3,69.3,17.4,69.4,17.5z"/>
	<path class="st1" d="M74.3,15.7c0-2,0-3.9,0-5.9c0-0.3,0.1-0.4,0.4-0.4c2.4,0,4.9,0,7.3,0c0.3,0,0.4,0.1,0.4,0.4c0,0.5,0,1.1,0,1.6
		c0,0.3-0.1,0.3-0.4,0.3c-1.6,0-3.3,0-4.9,0c-0.4,0-0.5,0.1-0.4,0.5c0,0.5,0,1.1,0,1.6c0,0.3,0.1,0.5,0.4,0.5c1.6,0,3.3,0,4.9,0
		c0.3,0,0.4,0.1,0.4,0.4c0,0.5,0,0.9,0,1.4c0,0.4-0.1,0.6-0.5,0.6c-1.6,0-3.2,0-4.8,0c-0.3,0-0.4,0.1-0.4,0.4c0,0.7,0,1.4,0,2.1
		c0,0.3,0.1,0.5,0.4,0.5c1.6,0,3.3,0,4.9,0c0.3,0,0.4,0.1,0.4,0.4c0,0.6,0,1.1,0,1.7c0,0.2-0.1,0.3-0.3,0.3c-2.5,0-5,0-7.5,0
		c-0.3,0-0.3-0.2-0.3-0.4C74.3,19.7,74.3,17.7,74.3,15.7z"/>
	<g>
		<path class="st1" d="M107.9,14.2c-0.4-1.7-1.4-3-2.8-3.9c-2-1.3-4.7-1.2-6.8,0.3c-2,1.4-3,4-2.5,6.5c0.6,2.9,3,4.9,5.8,5
			c2.9,0.1,5.3-1.7,6.1-4.5c0-0.1,0-0.3,0.1-0.3c0-0.9,0-1.9,0-2.8C107.9,14.4,107.9,14.3,107.9,14.2z M102,19.8
			c-2.2,0.1-3.9-1.7-4-3.9c-0.1-2.4,1.5-4.2,3.8-4.3c2.1-0.1,3.9,1.7,4,4C105.9,17.9,104.2,19.8,102,19.8z"/>
	</g>
	<g>
		<path class="st1" d="M94.6,21.6c-0.9-1.6-1.7-3.2-2.6-4.8c-0.1-0.2-0.3-0.3,0.1-0.4c1.8-0.8,2.2-2.1,2-3.8C94,11,93,9.9,91.5,9.6
			c-0.4-0.1-0.8-0.1-1.3-0.2c-1.6,0-3.3,0-4.9,0c-0.4,0-0.4,0.1-0.4,0.4c0,2.5,0,5.1,0,7.6c0,1.4,0,2.8,0,4.2c0,0.3,0.1,0.4,0.4,0.4
			c0.5,0,1.1,0,1.6,0c0.3,0,0.4-0.1,0.4-0.4c0-1.5,0-3,0-4.5c0-0.3,0.1-0.4,0.4-0.4c0.4,0,0.8,0,1.2,0c0.4,0,0.6,0.1,0.8,0.5
			c0.8,1.5,1.6,3.1,2.4,4.6c0.1,0.2,0.1,0.3,0.4,0.3c0.8,0,1.5,0,2.4,0C94.7,21.9,94.6,21.7,94.6,21.6z M91.8,13.4
			c-0.1,0.5-0.5,0.9-1,0.9c-1.1,0.1-2.2,0-3.3,0c-0.2,0-0.2-0.1-0.2-0.2c0-0.7,0-1.4,0-2.1c0-0.2,0.1-0.2,0.3-0.2c0.5,0,1,0,1.5,0v0
			c0.5,0,1,0,1.5,0C91.5,11.9,92,12.5,91.8,13.4z"/>
	</g>
	<g>
		<path class="st1" d="M53.9,9.4c-3.4,0-6.2,2.8-6.2,6.3c0,3.6,2.7,6.3,6.2,6.4c3.4,0,6.1-2.8,6.1-6.2C60,12.3,57.4,9.4,53.9,9.4z
			 M53.9,19.8c-2.2,0-3.9-1.8-3.9-4.1c0-2.3,1.7-4.1,3.9-4.1c2.1,0,4,1.8,3.9,4C57.8,18,56.1,19.8,53.9,19.8z"/>
	</g>
</g>
</svg>
