<?xml version="1.0" encoding="utf-8"?>
<!-- Generator: Adobe Illustrator 23.0.1, SVG Export Plug-In . SVG Version: 6.00 Build 0)  -->
<svg version="1.1" id="Layer_1" xmlns="http://www.w3.org/2000/svg" xmlns:xlink="http://www.w3.org/1999/xlink" x="0px" y="0px"
	 viewBox="0 0 75 75" style="enable-background:new 0 0 75 75;" xml:space="preserve">
<style type="text/css">
	.st0{fill:#3499DC;}
	.st1{fill:#FFFFFF;}
</style>
<circle class="st0" cx="37.5" cy="37.5" r="37.5"/>
<path class="st1" d="M24.4,18.3c3.1-0.5,7.5-0.9,13.6-0.9c6.3,0,10.6,1.2,13.6,3.5c2.8,2.3,4.7,5.9,4.7,10.3s-1.4,8-4.2,10.6
	c-3.5,3.3-8.5,4.7-14.5,4.7c-1.4,0-2.4,0-3.5-0.2v15.9h-9.9v-44L24.4,18.3L24.4,18.3z M34.4,38.5c0.9,0.2,1.9,0.3,3.3,0.3
	c5.4,0,8.7-2.8,8.7-7.3c0-4.2-2.8-6.6-7.8-6.6c-2.1,0-3.5,0.2-4.2,0.3C34.4,25.3,34.4,38.5,34.4,38.5z"/>

</svg>
