<svg width="110" height="24" viewBox="0 0 110 24" fill="none" xmlns="http://www.w3.org/2000/svg">
<path fill-rule="evenodd" clip-rule="evenodd" d="M106.501 6.35124C106.42 6.3781 106.392 6.4587 106.365 6.56796C106.365 6.70408 106.392 6.78467 106.446 6.83661L107.067 6.94587C107.257 6.97094 107.364 7.02646 107.447 7.08019C107.527 7.13572 107.554 7.18945 107.554 7.27004C107.554 7.40437 107.5 7.62109 107.364 7.97214C107.23 8.32497 107.067 8.75483 106.85 9.27065L106.175 10.8647C105.985 11.2695 105.822 11.6223 105.688 11.8909C105.554 12.1901 105.471 12.3244 105.444 12.3244C105.418 12.3244 105.364 12.2151 105.281 12.0271C105.201 11.839 105.12 11.6492 105.04 11.4324C104.957 11.2157 104.903 11.0527 104.85 10.9184L104.228 9.0808C104.175 8.94468 104.094 8.75482 104.012 8.48437C103.931 8.24258 103.849 7.97034 103.768 7.72855C103.687 7.48497 103.66 7.29691 103.66 7.18766C103.66 7.13393 103.687 7.0784 103.741 7.05154C103.822 7.02467 103.931 6.96915 104.092 6.94407L104.579 6.83482C104.66 6.78109 104.687 6.70049 104.66 6.56616C104.66 6.45691 104.606 6.37631 104.524 6.34945C104.226 6.37631 103.929 6.37631 103.634 6.40318H102.794H101.848C101.551 6.37631 101.226 6.37631 100.902 6.34945C100.82 6.37631 100.766 6.45691 100.766 6.56616C100.739 6.70049 100.766 6.78288 100.82 6.83482L101.334 6.94407C101.685 7.02467 101.929 7.18766 102.063 7.42945C102.199 7.67303 102.36 8.02408 102.495 8.48259L104.09 12.7811C104.225 13.1321 104.307 13.4008 104.361 13.5924C104.388 13.7805 104.415 13.9704 104.415 14.1584C104.415 14.2927 104.388 14.4557 104.334 14.6187C104.307 14.8068 104.252 14.9429 104.225 15.0235C104.144 15.2653 103.983 15.5913 103.793 15.9423C103.603 16.3471 103.361 16.7805 103.062 17.2408C102.982 17.3483 102.901 17.4289 102.792 17.5113C102.684 17.565 102.55 17.5919 102.387 17.5919H102.009C101.792 17.5919 101.603 17.6742 101.441 17.8086C101.307 17.9447 101.226 18.1596 101.198 18.4032C101.198 18.6468 101.28 18.8635 101.441 19.0229C101.604 19.159 101.821 19.2396 102.092 19.2396C102.333 19.2647 102.55 19.211 102.767 19.0766C103.009 18.9405 103.198 18.6719 103.388 18.2922C103.632 17.7513 103.929 17.1566 104.226 16.4814C104.524 15.833 104.848 15.1847 105.147 14.5095C105.444 13.8324 105.742 13.2109 106.01 12.6432C106.281 12.1023 106.497 11.6438 106.659 11.2927L107.767 9.02348C108.118 8.32139 108.389 7.80736 108.632 7.48318C108.876 7.159 109.172 6.96915 109.471 6.88855L109.822 6.83303C109.904 6.75243 109.931 6.67363 109.931 6.56437C109.904 6.45512 109.849 6.37452 109.768 6.34766C109.499 6.37452 109.254 6.37452 109.01 6.40139H108.281H107.418C107.121 6.3781 106.823 6.3781 106.501 6.35124Z" fill="#E94343"/>
<path fill-rule="evenodd" clip-rule="evenodd" d="M43.9146 6.18899C43.5636 6.13526 43.2931 6.1084 43.0496 6.1084C41.9409 6.13526 41.0221 6.35198 40.32 6.78362C39.6179 7.24213 39.077 7.78303 38.726 8.46004C38.4018 9.13527 38.2406 9.83915 38.2406 10.5681C38.2406 11.2165 38.3481 11.7842 38.5379 12.2714C38.7546 12.7854 39.0251 13.2153 39.3743 13.5395C39.7254 13.8905 40.1588 14.1341 40.6173 14.2971C41.0776 14.4869 41.5917 14.5675 42.1308 14.5675C42.5087 14.5675 42.9152 14.5138 43.3469 14.3795C43.7517 14.2433 44.1564 13.9998 44.563 13.7024C44.9409 13.4051 45.2382 13.0004 45.4549 12.5132C45.4281 12.4326 45.4012 12.3502 45.3206 12.3251C45.2669 12.2427 45.1863 12.2159 45.077 12.2427C44.8603 12.5938 44.5917 12.8642 44.2388 13.106C43.8878 13.3245 43.4543 13.432 42.8884 13.432C42.1594 13.432 41.5648 13.2421 41.0776 12.8911C40.6173 12.5418 40.2663 12.1084 40.0227 11.5944C39.7791 11.0803 39.643 10.5395 39.643 10.0272C39.6716 9.29825 39.806 8.70362 40.0496 8.21646C40.32 7.75795 40.6711 7.40512 41.0776 7.16154C41.4824 6.91795 41.9409 6.81049 42.4012 6.81049C42.806 6.81049 43.2108 6.91795 43.5636 7.13467C43.9146 7.32273 44.1851 7.56631 44.4018 7.83676C44.4555 7.89049 44.5093 7.94422 44.5648 7.97109H44.6991C44.8352 7.97109 44.9158 7.89049 44.9964 7.75616C45.0788 7.62004 45.1326 7.43198 45.1326 7.24213C45.1326 7.08093 45.1057 6.91795 45.052 6.78362C44.9964 6.64929 44.9158 6.54004 44.8084 6.45944C44.5343 6.35198 44.237 6.27138 43.9146 6.18899Z" fill="#E94343"/>
<path fill-rule="evenodd" clip-rule="evenodd" d="M35.9678 7.40691C36.0501 7.59497 36.1021 7.78482 36.1021 7.97288C36.1021 8.109 36.0752 8.18959 36.0484 8.24332C36.0215 8.32571 35.9946 8.35079 35.966 8.37765C35.914 8.43138 35.751 8.45825 35.4537 8.48512C35.1295 8.51198 34.6155 8.54064 33.8866 8.54064H32.4824C32.4018 8.54064 32.3749 8.54064 32.3463 8.51377C32.3194 8.48691 32.3194 8.48691 32.3194 8.46004C32.3463 8.21646 32.4555 7.97288 32.6436 7.73109C32.8603 7.46064 33.1307 7.21706 33.4818 7.02721C33.7791 6.83736 34.157 6.72989 34.5636 6.72989C34.9701 6.72989 35.2657 6.81228 35.4824 6.94661C35.726 7.05407 35.8872 7.21706 35.9678 7.40691ZM37.5904 8.83795C37.6173 8.75556 37.6173 8.62124 37.6173 8.48512C37.6173 8.08034 37.5098 7.70243 37.2663 7.35139C37.0227 7.00034 36.6985 6.70302 36.2937 6.45944C35.8621 6.24273 35.3481 6.13526 34.7534 6.1084C33.9707 6.13526 33.2955 6.35198 32.6722 6.75676C32.0507 7.16332 31.5904 7.70243 31.2663 8.37765C30.9421 9.05467 30.7809 9.8087 30.7809 10.6487C30.7809 11.0803 30.8346 11.5406 30.9689 11.9992C31.1033 12.4326 31.2931 12.8356 31.5904 13.2421C31.8877 13.62 32.2657 13.946 32.7797 14.1878C33.2937 14.4314 33.8615 14.5389 34.5098 14.5657C34.8609 14.5657 35.2137 14.512 35.6167 14.3777C36.0233 14.2415 36.4281 14.0535 36.7791 13.783C37.1301 13.4857 37.4006 13.1347 37.6442 12.703C37.6173 12.6206 37.5904 12.5418 37.5367 12.4863C37.483 12.4594 37.4006 12.4344 37.2663 12.4595C36.969 12.866 36.6716 13.1078 36.3475 13.2439C36.077 13.3783 35.7797 13.4606 35.4555 13.4338C34.7266 13.4338 34.1051 13.2726 33.6179 12.9198C33.1325 12.5938 32.7528 12.1353 32.5092 11.5693C32.2657 11.0015 32.1313 10.38 32.1313 9.70482C32.1045 9.46124 32.1313 9.30004 32.2137 9.21765C32.2675 9.16392 32.4018 9.13706 32.6454 9.16392H36.3475C36.754 9.16392 37.0495 9.16393 37.2394 9.13706C37.4275 9.11019 37.5098 9.08333 37.5367 9.0296C37.5636 8.97407 37.5636 8.92034 37.5904 8.83795Z" fill="#E94343"/>
<path fill-rule="evenodd" clip-rule="evenodd" d="M46.0209 7.05283C46.0477 7.13522 46.0746 7.18895 46.1283 7.24089H46.6692C46.8591 7.21402 46.9934 7.26776 47.0471 7.35014C47.074 7.40387 47.1009 7.56686 47.1009 7.80865V12.4027C47.074 12.8093 47.1295 13.1872 47.2352 13.4827C47.3713 13.8069 47.5612 14.0773 47.8567 14.2654C48.1809 14.4552 48.6143 14.5358 49.1534 14.5627C49.6943 14.5358 50.126 14.4266 50.477 14.2385C50.828 14.0504 51.0985 13.8606 51.2615 13.6152C51.2883 13.5615 51.2883 13.5078 51.2346 13.4272C51.2077 13.3448 51.1522 13.2928 51.0716 13.2928C51.0448 13.2928 50.9624 13.3448 50.8549 13.4272C50.7743 13.4809 50.6651 13.5346 50.5576 13.5615C50.477 13.5884 50.4215 13.6421 50.3409 13.669C50.2334 13.6958 50.1242 13.6958 50.0436 13.6958C49.6101 13.669 49.286 13.5615 49.071 13.343C48.8561 13.1549 48.72 12.8845 48.6662 12.5334C48.5857 12.2093 48.5588 11.8564 48.5588 11.4516V7.72268C48.5588 7.53462 48.5857 7.3985 48.6394 7.31791C48.6662 7.23552 48.7737 7.21044 48.9636 7.23551H51.1791C51.2866 7.15492 51.3421 7.0188 51.3421 6.82895C51.3689 6.64089 51.3152 6.4779 51.1791 6.3973H48.9671C48.8042 6.3973 48.6967 6.37044 48.6698 6.34358C48.643 6.31671 48.6161 6.20925 48.6161 6.0194V5.12745C48.5624 5.04686 48.4818 5.0182 48.4012 5.0182C48.2937 4.99133 48.2113 4.99133 48.1845 5.0182C48.077 5.23491 47.9409 5.45163 47.7797 5.66656C47.6167 5.91014 47.4824 6.07134 47.3462 6.18059C47.237 6.28984 47.0758 6.39731 46.834 6.50656C46.6173 6.64089 46.3737 6.72327 46.0764 6.80387C46.0477 6.89163 46.0209 6.97223 46.0209 7.05283Z" fill="#E94343"/>
<path fill-rule="evenodd" clip-rule="evenodd" d="M21.5391 5.9999C21.5391 5.94617 21.5123 5.89244 21.4836 5.86378C21.4568 5.83691 21.4299 5.83691 21.3762 5.83691C21.2132 5.94438 20.9965 6.05184 20.7278 6.18796C20.4842 6.32229 20.2138 6.43154 19.9702 6.54079C19.7266 6.67691 19.5117 6.75572 19.3756 6.81124C19.295 6.83632 19.2681 6.91871 19.2681 6.99931C19.2681 7.0799 19.295 7.13542 19.3218 7.16229L19.5117 7.32527C19.6997 7.40587 19.809 7.51513 19.8896 7.59572C19.972 7.70498 20.0257 7.8393 20.0257 7.97363C20.0526 8.10975 20.0526 8.29781 20.0257 8.5414V12.0554C20.0526 12.5139 20.0526 12.865 20.0257 13.1068C19.9988 13.3504 19.9182 13.5133 19.809 13.5939C19.7015 13.6727 19.5385 13.7551 19.3218 13.782L18.917 13.8357C18.8365 13.8895 18.8078 13.9719 18.8365 14.1062C18.8633 14.2136 18.8902 14.2942 18.9439 14.3498C19.1875 14.3229 19.4848 14.296 19.809 14.2674H20.8084H21.8347C22.1588 14.2942 22.5636 14.3229 23.0239 14.3498C23.1045 14.296 23.1314 14.2154 23.1314 14.1062C23.1582 13.9719 23.1314 13.8895 23.0508 13.8357L22.3218 13.782C22.0782 13.7551 21.8902 13.7014 21.8078 13.619C21.6735 13.5384 21.5911 13.3486 21.566 13.105C21.5391 12.8632 21.5391 12.5121 21.5391 12.0536V9.32229C21.5391 8.97125 21.566 8.67394 21.5929 8.40349C21.6466 8.10617 21.7272 7.91632 21.8096 7.78199C21.892 7.64587 21.9726 7.56528 22.1069 7.48468C22.2144 7.40408 22.3505 7.37722 22.5117 7.37722C22.646 7.37722 22.809 7.40408 22.9451 7.45782C23.0794 7.51334 23.2424 7.59393 23.4036 7.70139C23.486 7.72826 23.5397 7.78199 23.5935 7.80886C23.6472 7.83572 23.7296 7.83572 23.8371 7.83572C24.0251 7.83572 24.215 7.78199 24.4048 7.64587C24.566 7.48468 24.6735 7.24109 24.7021 6.94378C24.7021 6.67333 24.6215 6.48348 24.4317 6.34916C24.2705 6.21483 24.0538 6.13244 23.8102 6.10557C23.4305 6.13244 23.0544 6.2399 22.7015 6.48348C22.3236 6.72707 21.9457 7.02438 21.5947 7.32169C21.5678 7.29483 21.5409 7.21423 21.5409 7.13364V5.9999H21.5391Z" fill="#E94343"/>
<path fill-rule="evenodd" clip-rule="evenodd" d="M16.7284 7.40691C16.8358 7.59497 16.8645 7.78482 16.8358 7.97288C16.8358 8.109 16.8358 8.18959 16.809 8.24332C16.7839 8.32571 16.7552 8.35079 16.7284 8.37765C16.6746 8.43138 16.4848 8.45825 16.1875 8.48512C15.8901 8.51198 15.3761 8.54064 14.6472 8.54064H13.2412C13.1588 8.54064 13.1337 8.54064 13.1069 8.51377C13.08 8.48691 13.08 8.48691 13.08 8.46004C13.1069 8.21646 13.2143 7.97288 13.406 7.73109C13.6209 7.46064 13.8913 7.21706 14.2442 7.02721C14.5415 6.83736 14.9194 6.72989 15.3242 6.72989C15.729 6.72989 16.0263 6.81228 16.243 6.94661C16.4848 7.05407 16.6478 7.21706 16.7284 7.40691ZM18.3493 8.83795C18.3761 8.75556 18.3761 8.62124 18.3761 8.48512C18.3761 8.08034 18.2687 7.70243 18.0251 7.35139C17.7815 7.00034 17.4573 6.70302 17.0507 6.45944C16.6191 6.24273 16.1051 6.13526 15.5373 6.1084C14.7546 6.13526 14.0507 6.35198 13.4292 6.75676C12.8346 7.16332 12.3761 7.70243 12.0233 8.37765C11.6991 9.05467 11.5379 9.8087 11.5379 10.6487C11.5379 11.0803 11.5916 11.5406 11.726 11.9992C11.8621 12.4326 12.0501 12.8356 12.3475 13.2421C12.6448 13.62 13.0245 13.946 13.5098 14.1878C14.0239 14.4314 14.6185 14.5389 15.2669 14.5657C15.6179 14.5657 15.969 14.512 16.3737 14.3777C16.7803 14.2415 17.1851 14.0535 17.5361 13.783C17.8872 13.4857 18.1576 13.1347 18.4012 12.703C18.3743 12.6206 18.3475 12.5418 18.2937 12.4863C18.2131 12.4594 18.1307 12.4344 18.0233 12.4595C17.726 12.866 17.4287 13.1078 17.1045 13.2439C16.834 13.3783 16.5367 13.4606 16.1857 13.4338C15.4567 13.4338 14.8603 13.2726 14.3749 12.9198C13.8878 12.5938 13.5098 12.1353 13.2663 11.5693C13.0245 11.0015 12.8884 10.38 12.8884 9.70482C12.8615 9.46124 12.8884 9.30004 12.9689 9.21765C13.0245 9.16392 13.157 9.13706 13.4024 9.16392H17.1027C17.5075 9.16392 17.8066 9.16393 17.9946 9.13706C18.1845 9.11019 18.2651 9.08333 18.2919 9.0296C18.3224 8.97407 18.3224 8.92034 18.3493 8.83795Z" fill="#E94343"/>
<path fill-rule="evenodd" clip-rule="evenodd" d="M32.2388 0.324179C31.8609 0.107462 31.4006 0 30.8615 0C30.1863 0.0268657 29.6185 0.161196 29.1582 0.404778C28.6997 0.648361 28.295 0.972539 27.9708 1.37732C27.6735 1.75523 27.4317 2.13314 27.2687 2.51284C27.0251 3.0806 26.8639 3.67523 26.7815 4.26986C26.6741 4.86448 26.6203 5.45911 26.6203 6.05374C26.6203 6.13613 26.5935 6.21673 26.5397 6.29732C26.486 6.35105 26.4305 6.40479 26.3499 6.43165L25.4866 6.86509C25.4597 6.91882 25.4329 6.99941 25.4597 7.0818C25.4597 7.13732 25.4866 7.19106 25.5403 7.243H26.2424C26.4305 7.21613 26.5666 7.26986 26.5935 7.35225C26.6472 7.40598 26.6472 7.56897 26.6203 7.81076V12.0555C26.6472 12.514 26.6472 12.8651 26.5935 13.1069C26.5666 13.3505 26.5129 13.5135 26.4054 13.594C26.2979 13.7015 26.1349 13.7552 25.8914 13.7821L25.4311 13.8358C25.3505 13.8896 25.3236 13.972 25.3236 14.1063C25.3505 14.2138 25.3773 14.2943 25.4597 14.3499C25.757 14.323 26.0544 14.2961 26.3517 14.2675H27.4066H28.406C28.7302 14.2943 29.1081 14.323 29.5684 14.3499C29.6221 14.2961 29.649 14.2155 29.6759 14.1063C29.7027 13.972 29.6759 13.8896 29.5935 13.8358L28.8914 13.7821C28.6478 13.7552 28.4597 13.7015 28.3505 13.6191C28.2681 13.5385 28.1893 13.3487 28.1624 13.1051C28.1338 12.8633 28.1338 12.5123 28.1338 12.0537V7.80897C28.1338 7.56538 28.1338 7.40419 28.1624 7.35046C28.1893 7.26986 28.2967 7.21434 28.4866 7.2412H30.5947C30.6753 7.21434 30.7576 7.13374 30.8114 7.05314C30.8382 6.91882 30.8651 6.81136 30.8651 6.7021C30.8651 6.56598 30.8382 6.48538 30.7576 6.40479H28.4866C28.2967 6.43165 28.1893 6.40478 28.1624 6.32239C28.1338 6.2418 28.1338 6.07881 28.1338 5.83702V5.24239C28.1338 4.91821 28.1338 4.54031 28.1624 4.13374C28.1893 3.72896 28.2162 3.34926 28.2967 2.97135C28.3773 2.56657 28.4597 2.21553 28.5672 1.89135C28.7033 1.5403 28.9182 1.26985 29.1618 1.08C29.4072 0.89015 29.6759 0.782687 29.9732 0.782687C30.3242 0.782687 30.6215 0.865077 30.892 1.05314C31.1624 1.24299 31.3791 1.43284 31.5672 1.67642C31.6496 1.75523 31.7284 1.81254 31.8108 1.83762C31.8645 1.86448 31.9451 1.89135 32.0544 1.89135C32.2711 1.89135 32.4609 1.83761 32.5953 1.70149C32.7296 1.56538 32.8102 1.37732 32.8388 1.18747C32.8066 0.838211 32.6167 0.540896 32.2388 0.324179Z" fill="#E94343"/>
<path fill-rule="evenodd" clip-rule="evenodd" d="M86.3679 5.86378C86.3142 5.83691 86.2605 5.83691 86.2336 5.83691C86.0993 5.94438 85.9094 6.05184 85.6676 6.18796C85.2252 6.38856 84.6843 6.65721 84.2348 6.81124C84.1811 6.83632 84.1542 6.91871 84.1542 6.99931C84.1542 7.0799 84.1811 7.13542 84.2079 7.16229L84.3978 7.26975C84.5608 7.40408 84.6951 7.51333 84.7757 7.59393C84.8563 7.70319 84.8634 7.74617 84.8921 7.8805C84.919 8.01662 84.9118 8.29602 84.9118 8.5396V12.0536C84.9387 12.5121 84.9118 12.8632 84.8831 13.105C84.8563 13.3486 84.8026 13.5116 84.6951 13.5922C84.5858 13.6996 84.4246 13.7533 84.181 13.7802L83.7476 13.8339C83.6939 13.8877 83.667 13.9701 83.6939 14.1044C83.6939 14.2119 83.7208 14.2925 83.8031 14.348C84.0736 14.3211 84.3709 14.2942 84.6951 14.2656H85.6676H86.6384C86.9357 14.2924 87.2348 14.3211 87.4766 14.348C87.559 14.2942 87.5858 14.2136 87.6127 14.1044C87.6127 13.9701 87.5858 13.8877 87.5303 13.8339L87.1793 13.7802C86.9357 13.7533 86.7458 13.671 86.6384 13.5922C86.5578 13.5098 86.4772 13.3468 86.4503 13.105C86.4234 12.8632 86.4234 12.5121 86.4234 12.0536V8.9999C86.4234 8.53961 86.4324 8.17423 86.6939 7.78378C86.8282 7.59393 87.0718 7.40587 87.396 7.26975C87.6933 7.13542 88.0175 7.0799 88.424 7.0799C89.0993 7.10677 89.5596 7.29662 89.8551 7.64767C90.1542 7.99871 90.2885 8.48587 90.2885 9.05363V12.0536C90.2885 12.5121 90.2885 12.8632 90.2617 13.105C90.2348 13.3486 90.1542 13.5116 90.0718 13.5922C89.9375 13.671 89.7745 13.7533 89.5327 13.7802L89.153 13.8339C89.0993 13.8877 89.0706 13.9701 89.0706 14.1044C89.0993 14.2119 89.1261 14.2925 89.2067 14.348C89.4521 14.3211 89.7476 14.2942 90.0718 14.2656H91.0443H92.0169C92.3142 14.2924 92.6384 14.3211 92.9357 14.348C92.9894 14.2942 93.0449 14.2136 93.0718 14.1044C93.0718 13.9701 93.0449 13.8877 92.9644 13.8339L92.5327 13.7802C92.2891 13.7533 92.1261 13.6996 91.9918 13.5922C91.9112 13.5098 91.8306 13.3468 91.8037 13.105C91.7769 12.8632 91.7769 12.5121 91.7769 12.0536V8.59334C91.7769 8.13304 91.6963 7.72826 91.5351 7.37722C91.3721 6.99931 91.1303 6.70199 90.7793 6.45841C90.4282 6.24169 89.9948 6.13423 89.427 6.10736C88.913 6.13423 88.4276 6.24169 87.9673 6.43154C87.507 6.62139 87.0485 6.86498 86.6169 7.13542C86.5631 7.13542 86.5076 7.10677 86.4808 7.0799C86.4539 7.05304 86.427 6.9993 86.427 6.94557V6.53901C86.427 6.40468 86.427 6.21482 86.4539 5.99811C86.4216 5.91751 86.3948 5.89244 86.3679 5.86378Z" fill="#E94343"/>
<path fill-rule="evenodd" clip-rule="evenodd" d="M80.6114 7.34959C80.9911 7.7275 81.2598 8.21467 81.4496 8.8093C81.6377 9.40392 81.7201 9.99855 81.6932 10.5663C81.7201 11.1072 81.6395 11.6212 81.4783 12.1335C81.3422 12.6475 81.0986 13.0791 80.7744 13.4302C80.4234 13.7812 79.9631 13.9442 79.3953 13.9442C78.8007 13.9442 78.3153 13.7544 77.9625 13.4033C77.5577 13.0254 77.2873 12.5669 77.0992 11.9992C76.9093 11.4045 76.8019 10.8099 76.8019 10.1884C76.8288 9.07975 77.0437 8.21467 77.4771 7.64691C77.8837 7.02541 78.4514 6.7281 79.1267 6.7281C79.7464 6.7281 80.2604 6.94482 80.6114 7.34959ZM82.8825 12.4827C83.2335 11.8344 83.3947 11.0786 83.4234 10.2421C83.3965 9.43079 83.2067 8.70183 82.8556 8.08034C82.5046 7.45705 82.0174 6.97168 81.3959 6.62064C80.7744 6.29646 80.0992 6.13526 79.3702 6.1084C78.5589 6.13526 77.8299 6.32332 77.2084 6.67616C76.5601 7.02541 76.0479 7.53944 75.6681 8.1878C75.2902 8.83616 75.1022 9.59199 75.1022 10.4571C75.1022 11.2953 75.292 12.0242 75.6681 12.6457C76.0192 13.2403 76.4795 13.6989 77.101 14.0517C77.7225 14.3759 78.4246 14.5371 79.1822 14.5639C80.0186 14.5371 80.7762 14.3759 81.3959 14.023C82.0443 13.6469 82.5314 13.1329 82.8825 12.4827Z" fill="#E94343"/>
<path fill-rule="evenodd" clip-rule="evenodd" d="M95.0688 8.54064C95.0151 8.54064 94.9882 8.54064 94.9613 8.51377C94.9345 8.48691 94.9345 8.48691 94.9345 8.46004C94.9613 8.21646 95.0706 7.97288 95.2587 7.73109C95.4754 7.46064 95.7458 7.21706 96.0718 7.02721C96.396 6.83736 96.7739 6.72989 97.1787 6.72989C97.5566 6.72989 97.8539 6.81228 98.0706 6.94661C98.3142 7.05407 98.4754 7.21526 98.5846 7.40511C98.667 7.59317 98.719 7.78303 98.6921 7.97109C98.6921 8.10721 98.6921 8.1878 98.6652 8.24154C98.6384 8.32392 98.6115 8.349 98.5828 8.37586C98.5291 8.4296 98.3393 8.45646 98.0419 8.48333C97.7446 8.51019 97.2055 8.53885 96.4748 8.53885H95.0688V8.54064ZM94.7984 9.21587C94.8807 9.16214 95.0151 9.13527 95.2569 9.16213H98.9607C99.3673 9.16213 99.6628 9.16213 99.8527 9.13527C100.216 9.07437 100.231 8.83616 100.231 8.48512C100.231 8.08034 100.094 7.70243 99.8527 7.35139C99.636 7.00034 99.3136 6.70302 98.907 6.45944C98.4736 6.24273 97.9596 6.13526 97.3667 6.1084C96.584 6.13526 95.9088 6.35198 95.2855 6.75676C94.664 7.16332 94.2037 7.70243 93.8813 8.37765C93.5303 9.05467 93.3673 9.8087 93.3673 10.6487C93.3673 11.0803 93.4479 11.5406 93.584 11.9992C93.6915 12.4326 93.9064 12.8356 94.2037 13.2421C94.501 13.62 94.8807 13.946 95.3661 14.1878C95.8784 14.4314 96.4479 14.5389 97.0963 14.5657C97.4473 14.5657 97.8252 14.512 98.2318 14.3777C98.6366 14.2415 99.0145 14.0535 99.3673 13.783C99.7184 13.4857 100.016 13.1347 100.259 12.703C100.232 12.6206 100.206 12.5418 100.123 12.4863C100.069 12.4594 99.9888 12.4344 99.8527 12.4595C99.5554 12.866 99.2581 13.1078 98.9607 13.2439C98.6903 13.3783 98.393 13.4606 98.0419 13.4338C97.313 13.4338 96.7184 13.2726 96.2312 12.9198C95.744 12.5938 95.3661 12.1353 95.0975 11.5693C94.9524 11.2308 94.8449 10.8708 94.7822 10.4929C94.7339 10.2027 94.6963 9.78542 94.7088 9.4899C94.7142 9.36094 94.7446 9.27139 94.7984 9.21587Z" fill="#E94343"/>
<path fill-rule="evenodd" clip-rule="evenodd" d="M60.3708 1.08124H59.6419C59.3983 1.05259 59.101 1.05258 58.8037 1.02751C58.7231 1.05437 58.6944 1.13677 58.6694 1.24423C58.6425 1.35169 58.6694 1.43408 58.7231 1.51467L59.0473 1.54154C59.452 1.62035 59.7494 1.70273 59.9392 1.78512C60.1291 1.89259 60.2616 2.08243 60.3171 2.32602C60.3708 2.5696 60.3977 2.89199 60.3708 3.29856C60.344 3.86632 60.3171 4.54155 60.2903 5.32423C60.2616 6.10871 60.2079 6.92006 60.1541 7.75647C60.1273 8.40483 60.0753 8.9726 60.0449 9.45797C60.018 9.972 59.9643 10.4323 59.9374 10.8371C59.9106 11.2687 59.8568 11.7022 59.8282 12.1338C59.7744 12.5923 59.7207 12.9451 59.6401 13.1601C59.5577 13.3768 59.4234 13.5111 59.2622 13.5935C59.0723 13.6723 58.8574 13.7547 58.587 13.7816L58.1535 13.8353C58.0729 13.889 58.0461 13.9714 58.0729 14.1057C58.0729 14.1863 58.0998 14.2669 58.1804 14.3493C58.5314 14.3225 58.8574 14.2956 59.2067 14.2669H60.2347H61.3416C61.7464 14.2938 62.0992 14.3225 62.4216 14.3493C62.504 14.2956 62.5577 14.215 62.5577 14.1057C62.5577 13.9965 62.5309 13.9159 62.4485 13.8353L61.6926 13.7816C61.4491 13.7547 61.2592 13.701 61.1249 13.5935C60.9906 13.4842 60.9082 13.2962 60.8813 13.0526C60.8007 12.7839 60.772 12.4042 60.8007 11.9171C60.8007 11.0789 60.8276 10.2425 60.8544 9.40424C60.8813 8.56603 60.9082 7.83707 60.935 7.21558C60.9619 6.64782 61.0174 6.05319 61.0425 5.45856C61.0694 4.86394 61.0962 4.2693 61.1249 3.67468H61.1786C61.3953 4.13318 61.6121 4.59349 61.8019 5.10573C62.0186 5.59289 62.2335 6.07827 62.4485 6.53856L64.2592 10.4019C64.4222 10.7278 64.612 11.1326 64.827 11.6198C65.0706 12.132 65.3124 12.6192 65.5291 13.1045C65.7458 13.5917 65.907 14.0234 66.0162 14.4013C66.0431 14.4281 66.07 14.4281 66.0968 14.4568L66.1774 14.4836C66.233 14.4836 66.2867 14.4836 66.3136 14.4568C66.3404 14.4281 66.3673 14.4281 66.3959 14.4013C66.5303 14.0771 66.6933 13.6723 66.9368 13.1869C67.1536 12.6998 67.3953 12.1589 67.6658 11.5929C67.9631 11.0251 68.2604 10.4305 68.5846 9.83588L69.6968 7.62752C70.3058 6.41856 70.9398 4.78154 71.6365 3.72662H71.6634L71.7189 12.0783C71.744 12.5099 71.7189 12.8341 71.6921 13.0759C71.6312 13.6132 71.2228 13.7422 70.7464 13.7798L70.1518 13.8335C70.098 13.8872 70.0712 13.9696 70.098 14.1039C70.098 14.1845 70.1249 14.2651 70.2055 14.3475C70.6103 14.3207 71.0419 14.2938 71.4485 14.2651H72.6377H73.7733C74.178 14.292 74.5846 14.3207 74.9894 14.3475C75.0718 14.2938 75.0986 14.2132 75.0986 14.1039C75.1255 13.9947 75.0986 13.9141 75.0449 13.8335L74.3966 13.7798C73.9416 13.7386 73.5404 13.5147 73.4777 13.0222C73.4509 12.7804 73.4222 12.4813 73.4222 12.1571C73.3685 11.1845 73.3416 10.1565 73.3148 9.10335C73.2861 8.02155 73.2324 6.99528 73.2055 6.02274V3.45438C73.2055 2.99587 73.2324 2.64303 73.2861 2.37259C73.3416 2.129 73.4759 1.91408 73.664 1.77796C73.8539 1.67049 74.1762 1.58811 74.6097 1.53438L75.0145 1.50751C75.07 1.45378 75.0968 1.37318 75.07 1.23706C75.07 1.15467 75.0431 1.07408 74.9876 1.02035C74.6634 1.04721 74.3392 1.04721 74.0419 1.07408H73.2037C72.704 1.07408 72.2168 1.05796 71.7171 1.02035C71.6903 1.47886 71.5273 1.99289 71.2837 2.58751C70.9864 3.20901 70.6353 3.96662 70.2037 4.85677L68.3124 8.66633C68.0688 9.18036 67.8252 9.69439 67.5834 10.2066C67.3398 10.7207 67.0694 11.206 66.7721 11.6932H66.7183C66.4747 11.2329 66.258 10.8013 66.0431 10.341C65.7995 9.85558 65.5828 9.36842 65.3679 8.90991L63.0718 4.31587C62.7744 3.66751 62.504 3.04602 62.2891 2.47826C62.0992 1.9105 62.0186 1.42512 62.0455 1.01855C61.4867 1.07229 60.9314 1.08124 60.3708 1.08124Z" fill="#E94343"/>
<path fill-rule="evenodd" clip-rule="evenodd" d="M2.40538 1.40526C2.37851 1.51272 2.43224 1.59332 2.51463 1.67571L3.21672 1.7563C3.51404 1.78496 3.73075 1.86556 3.86508 1.99989C3.99941 2.10735 4.0818 2.2972 4.10687 2.59451C4.13553 2.89182 4.1606 3.32526 4.1606 3.89123V7.89064C4.7015 7.9193 5.2424 7.9193 5.78329 7.89064V2.37779C5.75643 2.16108 5.78329 1.99988 5.83702 1.86377C5.86389 1.78317 5.97135 1.70078 6.10747 1.67571C6.26867 1.64884 6.5409 1.64884 6.89016 1.64884C7.91643 1.6757 8.70091 1.94615 9.26867 2.51392C9.80957 3.08168 10.08 3.86615 10.08 4.83869C10.1087 5.70377 9.89195 6.43272 9.43165 7.02735C9.02688 7.54138 8.43225 7.9193 7.62091 8.10915C6.83822 8.299 5.72956 8.3796 4.24299 8.35273C2.94627 8.32766 1.5403 8.24527 0 8.08407C1.70329 8.43512 2.97314 8.6787 3.78269 8.7593C5.10628 8.92228 6.403 8.89542 7.61912 8.70557C8.24061 8.62318 8.80837 8.46198 9.3224 8.27213C9.80777 8.05542 10.2949 7.7599 10.809 7.40706C11.1063 7.19034 11.3749 6.83929 11.6185 6.37899C11.8084 5.94735 11.9158 5.43332 11.9427 4.81183C11.9158 4.1366 11.7546 3.54377 11.4573 3.02795C11.16 2.51392 10.809 2.10914 10.3487 1.81362C9.89016 1.54317 9.3224 1.32645 8.67225 1.19033C8.05076 1.08287 7.32001 1.02734 6.48359 1.02734C5.67225 1.02734 4.94329 1.02735 4.29493 1.05421C3.64657 1.08287 3.05195 1.10794 2.53792 1.16167C2.45911 1.2154 2.40538 1.296 2.40538 1.40526Z" fill="#E94343"/>
<path fill-rule="evenodd" clip-rule="evenodd" d="M5.78332 11.297V9.40384C5.1869 9.43071 4.64779 9.40384 4.16063 9.32324V11.297C4.16063 11.9704 4.13376 12.4844 4.08003 12.8355C4.05316 13.1883 3.9457 13.4032 3.75406 13.5107C3.61973 13.6468 3.34928 13.7543 2.9445 13.7812L2.53794 13.8349C2.45734 13.9155 2.43047 13.9961 2.45734 14.1053C2.45734 14.2128 2.48421 14.2934 2.56659 14.3489C2.99824 14.3221 3.40301 14.2952 3.78272 14.2665H4.99884H6.16123C6.566 14.2934 7.05317 14.3221 7.62093 14.3489C7.67466 14.2952 7.70332 14.2146 7.72839 14.1053C7.72839 13.971 7.70153 13.8886 7.6478 13.8349L7.1069 13.7812C6.67347 13.7543 6.37794 13.6719 6.21496 13.5376C6.02511 13.4032 5.89078 13.1865 5.83525 12.8355C5.78331 12.4827 5.75645 11.9704 5.78332 11.297Z" fill="#E94343"/>
<path fill-rule="evenodd" clip-rule="evenodd" d="M59.9285 17.5664H60.7559V20.5037C60.7559 21.7539 60.1505 22.1712 59.2497 22.1712C59.0204 22.1712 58.732 22.13 58.5565 22.0637L58.6568 21.3975C58.7911 21.4386 58.972 21.4781 59.1691 21.4781C59.6383 21.4781 59.9267 21.2631 59.9267 20.4751V17.5664H59.9285Z" fill="#E94343"/>
<path fill-rule="evenodd" clip-rule="evenodd" d="M65.0992 21.1137C65.0992 21.5023 65.1117 21.8265 65.1261 22.0952H64.4007L64.3613 21.5972H64.3469C64.2072 21.8337 63.8849 22.1686 63.2992 22.1686C62.701 22.1686 62.1565 21.8122 62.1565 20.7447V18.8211H62.984V20.6014C62.984 21.1459 63.1595 21.4952 63.5947 21.4952C63.9243 21.4952 64.1392 21.2605 64.2269 21.051C64.2538 20.9775 64.2735 20.8898 64.2735 20.7949V18.8193H65.101V21.1137H65.0992Z" fill="#E94343"/>
<path fill-rule="evenodd" clip-rule="evenodd" d="M66.4909 21.3371C66.6789 21.4517 67.0336 21.5717 67.3309 21.5717C67.6945 21.5717 67.8539 21.4248 67.8539 21.2081C67.8539 20.986 67.7195 20.8732 67.3165 20.7317C66.6789 20.5096 66.4085 20.1604 66.4156 19.7771C66.4156 19.1986 66.8921 18.749 67.6515 18.749C68.015 18.749 68.3303 18.8422 68.5183 18.9425L68.3571 19.5263C68.2156 19.4457 67.9542 19.3383 67.664 19.3383C67.3685 19.3383 67.2073 19.4798 67.2073 19.6822C67.2073 19.8899 67.3613 19.992 67.7786 20.1389C68.3715 20.3556 68.6455 20.6565 68.6527 21.1419C68.6527 21.7329 68.1888 22.1699 67.3219 22.1699C66.9243 22.1699 66.5697 22.0696 66.3279 21.9353L66.4909 21.3371Z" fill="#E94343"/>
<path fill-rule="evenodd" clip-rule="evenodd" d="M70.8179 17.9834V18.8234H71.6042V19.4413H70.8179V20.8867C70.8179 21.2825 70.9254 21.4921 71.2424 21.4921C71.3965 21.4921 71.4699 21.4777 71.5648 21.4509L71.5791 22.0831C71.4574 22.1297 71.2424 22.1709 70.9809 22.1709C70.6765 22.1709 70.4221 22.0634 70.2681 21.895C70.0944 21.707 70.0138 21.4115 70.0138 20.9816V19.4431H69.5427V18.8252H70.0138V18.2198L70.8179 17.9834Z" fill="#E94343"/>
<path fill-rule="evenodd" clip-rule="evenodd" d="M75.5231 20.7263C75.5231 20.8069 75.5302 20.8804 75.5517 20.9556C75.6323 21.2923 75.9279 21.5341 76.2771 21.5341C76.8019 21.5341 77.1117 21.0971 77.1117 20.4523C77.1117 19.8738 76.8287 19.4045 76.2986 19.4045C75.9547 19.4045 75.6395 19.6535 75.5589 20.0153C75.5392 20.0816 75.5249 20.1568 75.5249 20.2231V20.7263H75.5231ZM74.6974 19.9114C74.6974 19.4816 74.6831 19.1323 74.6705 18.8225H75.3959L75.4371 19.3275H75.4496C75.6914 18.9568 76.0747 18.749 76.5726 18.749C77.3267 18.749 77.9517 19.3938 77.9517 20.4147C77.9517 21.5968 77.2067 22.1699 76.4598 22.1699C76.0496 22.1699 75.7075 21.9944 75.5392 21.7329H75.5249V23.4272H74.6992V19.9114H74.6974Z" fill="#E94343"/>
<path fill-rule="evenodd" clip-rule="evenodd" d="M81.1899 20.1138C81.1971 19.8111 81.0628 19.3132 80.5111 19.3132C80.0007 19.3132 79.7858 19.7771 79.7535 20.1138H81.1899ZM79.7517 20.6923C79.7696 21.2834 80.2353 21.5395 80.7601 21.5395C81.1434 21.5395 81.4192 21.4857 81.6681 21.3908L81.7899 21.9622C81.5087 22.0768 81.1183 22.1699 80.6472 22.1699C79.5852 22.1699 78.9601 21.5108 78.9601 20.5096C78.9601 19.6016 79.5117 18.749 80.5595 18.749C81.6287 18.749 81.9708 19.6231 81.9708 20.3413C81.9708 20.4953 81.9565 20.6171 81.944 20.6905H79.7517V20.6923Z" fill="#E94343"/>
<path fill-rule="evenodd" clip-rule="evenodd" d="M83.1726 19.8793C83.1726 19.4352 83.1655 19.1199 83.1458 18.8244H83.864L83.8926 19.4495H83.9195C84.0807 18.9856 84.464 18.751 84.8132 18.751C84.8938 18.751 84.9404 18.7581 85.0084 18.7707V19.5498C84.9404 19.5372 84.8669 19.5229 84.7666 19.5229C84.3708 19.5229 84.1004 19.7772 84.0269 20.148C84.0126 20.2214 84.0001 20.3092 84.0001 20.4023V22.0967H83.1744V19.8793H83.1726Z" fill="#E94343"/>
<path fill-rule="evenodd" clip-rule="evenodd" d="M86.3858 22.0966V19.4422H85.9417V18.8243H86.3858V18.6828C86.3858 18.2602 86.5005 17.8357 86.7817 17.567C87.0234 17.3378 87.353 17.25 87.636 17.25C87.8581 17.25 88.0318 17.284 88.1661 17.3324L88.107 17.97C88.0193 17.936 87.9046 17.9091 87.7578 17.9091C87.3476 17.9091 87.2061 18.253 87.2061 18.656V18.8243H87.9243V19.4422H87.2115V22.0966H86.3858Z" fill="#E94343"/>
<path fill-rule="evenodd" clip-rule="evenodd" d="M90.9226 20.1138C90.9297 19.8111 90.7936 19.3132 90.2438 19.3132C89.7333 19.3132 89.5184 19.7771 89.4844 20.1138H90.9226ZM89.4844 20.6923C89.5041 21.2834 89.9679 21.5395 90.4927 21.5395C90.876 21.5395 91.1518 21.4857 91.399 21.3908L91.5208 21.9622C91.2396 22.0768 90.8491 22.1699 90.3781 22.1699C89.316 22.1699 88.6909 21.5108 88.6909 20.5096C88.6909 19.6016 89.2426 18.749 90.2903 18.749C91.3596 18.749 91.6999 19.6231 91.6999 20.3413C91.6999 20.4953 91.6873 20.6171 91.673 20.6905H89.4844V20.6923Z" fill="#E94343"/>
<path fill-rule="evenodd" clip-rule="evenodd" d="M95.3123 21.9964C95.1368 22.077 94.7947 22.1719 94.3846 22.1719C93.3619 22.1719 92.6974 21.5128 92.6974 20.4972C92.6974 19.5158 93.369 18.751 94.5189 18.751C94.8216 18.751 95.1296 18.8172 95.3177 18.905L95.1708 19.5247C95.0365 19.4638 94.8413 19.3975 94.5457 19.3975C93.9135 19.3975 93.5374 19.8614 93.5428 20.4596C93.5428 21.1313 93.9798 21.5146 94.5457 21.5146C94.8341 21.5146 95.0365 21.4555 95.1977 21.3874L95.3123 21.9964Z" fill="#E94343"/>
<path fill-rule="evenodd" clip-rule="evenodd" d="M97.51 17.9834V18.8234H98.2963V19.4413H97.51V20.8867C97.51 21.2825 97.6175 21.4921 97.9345 21.4921C98.0886 21.4921 98.162 21.4777 98.2569 21.4509L98.2695 22.0831C98.1477 22.1297 97.9327 22.1709 97.6712 22.1709C97.3686 22.1709 97.1124 22.0634 96.9584 21.895C96.7847 21.707 96.7023 21.4115 96.7023 20.9816V19.4431H96.233V18.8252H96.7023V18.2198L97.51 17.9834Z" fill="#E94343"/>
</svg>
