<?xml version="1.0" encoding="utf-8"?>
<!-- Generator: Adobe Illustrator 23.0.1, SVG Export Plug-In . SVG Version: 6.00 Build 0)  -->
<svg version="1.1" id="Layer_1" xmlns="http://www.w3.org/2000/svg" xmlns:xlink="http://www.w3.org/1999/xlink" x="0px" y="0px"
	 viewBox="0 0 75 75" style="enable-background:new 0 0 75 75;" xml:space="preserve">
<style type="text/css">
	.st0{fill-rule:evenodd;clip-rule:evenodd;fill:#F00F0F;}
	.st1{fill-rule:evenodd;clip-rule:evenodd;fill:#FEFEFE;}
	.st2{fill:#FFFFFF;}
</style>
<g id="Слой_x0020_1">
	<g id="_234703568">
		<path id="_234703616" class="st0" d="M37.5,0C58.2,0,75,16.8,75,37.5S58.2,75,37.5,75S0,58.2,0,37.5S16.8,0,37.5,0z"/>
		<path id="_234708728" class="st1" d="M10.1,25.2c10.5,0,13.6-1.1,17.3,1.3c4.8,3.2,4,10.1,1,12.4c-6.6,5-19.7,2.7-23,1.1
			c8.3,1.1,15.8,1.8,19.9-1.9c2.7-2.5,1.5-8.5-0.2-10c-1.4-1.2-1.8-1.7-5.1-1.8c-2.6,0.2-2.6,0.9-2.6,2l-0.1,11.5h-3.5V28.5
			c0.1-1.3,0.1-2.1-3.7-2.1C10.1,25.9,10.1,25.7,10.1,25.2L10.1,25.2z M17.3,43.1V49c0,2.4,1.5,3.6,4.4,3.7v1.1c-3.8,0-7.6,0-11.5,0
			v-1.2c2.9-0.2,3.6-1.5,3.6-3.5v-6.2C15,43.1,16.2,43.1,17.3,43.1z"/>
		<path id="_234708800" class="st1" d="M35.5,49.4c0.1,2.7,0.8,3.6,3.7,3.7v1.1c-3.8,0-5.5,0-9.3,0V53c2.9-0.2,3.6-1.5,3.6-3.5
			l1.1-21c0.1-1.3,0.1-2.1-3.7-2.1c0-0.5,0-0.7,0-1.2h7.3c0,1.5,0.3,2.4,0.9,3.6L48.2,48l0.1,0.3l0.2-0.3l9.6-19.3
			c0.6-1.3,0.9-2.1,0.9-3.6h7.3c0,0.5,0,0.7,0,1.2c-3.8,0-3.8,0.8-3.7,2.1l0.1,21c0.1,2,0.8,3.3,3.6,3.5v1.2c-3.8,0-6.9,0-10.7,0V53
			c2.9-0.1,3.6-1,3.7-3.7L59,30.9L47.6,54.2h-0.5h-0.3L36.3,31L35.5,49.4L35.5,49.4z"/>
	</g>
</g>
</svg>
