<svg width="15" height="253" viewBox="0 0 15 253" fill="none" xmlns="http://www.w3.org/2000/svg">
<path d="M6 1C6 0.447715 6.44772 -2.41411e-08 7 0C7.55228 2.41411e-08 8 0.447715 8 1L7 1L6 1ZM7.7071 252.707C7.31657 253.098 6.68341 253.098 6.29288 252.707L-0.0710785 246.343C-0.461603 245.953 -0.461603 245.319 -0.0710785 244.929C0.319446 244.538 0.952611 244.538 1.34314 244.929L6.99999 250.586L12.6568 244.929C13.0474 244.538 13.6805 244.538 14.0711 244.929C14.4616 245.319 14.4616 245.953 14.0711 246.343L7.7071 252.707ZM7 1L8 1L8 3.02419L7 3.02419L6 3.02419L6 1L7 1ZM7 7.07258L8 7.07258L8 11.121L7 11.121L6 11.121L6 7.07258L7 7.07258ZM7 15.1694L8 15.1694L8 19.2177L7 19.2177L6 19.2177L6 15.1694L7 15.1694ZM7 23.2661L8 23.2661L8 27.3145L7 27.3145L6 27.3145L6 23.2661L7 23.2661ZM7 31.3629L8 31.3629L8 35.4113L7 35.4113L6 35.4113L6 31.3629L7 31.3629ZM7 39.4597L8 39.4597L8 43.5081L7 43.5081L6 43.5081L6 39.4597L7 39.4597ZM7 47.5564L8 47.5564L8 51.6048L7 51.6048L6 51.6048L6 47.5564L7 47.5564ZM7 55.6532L8 55.6532L8 59.7016L7 59.7016L6 59.7016L6 55.6532L7 55.6532ZM7 63.75L8 63.75L8 67.7984L7 67.7984L6 67.7984L6 63.75L7 63.75ZM7 71.8468L8 71.8468L8 75.8951L7 75.8951L6 75.8951L6 71.8468L7 71.8468ZM7 79.9435L8 79.9435L8 83.9919L7 83.9919L6 83.9919L6 79.9435L7 79.9435ZM7 88.0403L8 88.0403L8 92.0887L7 92.0887L6 92.0887L6 88.0403L7 88.0403ZM7 96.1371L8 96.1371L8 100.185L7 100.185L6 100.185L6 96.1371L7 96.1371ZM7 104.234L8 104.234L8 108.282L7 108.282L6 108.282L6 104.234L7 104.234ZM7 112.331L8 112.331L7.99999 116.379L6.99999 116.379L5.99999 116.379L6 112.331L7 112.331ZM6.99999 120.427L7.99999 120.427L7.99999 124.476L6.99999 124.476L5.99999 124.476L5.99999 120.427L6.99999 120.427ZM6.99999 128.524L7.99999 128.524L7.99999 132.573L6.99999 132.573L5.99999 132.573L5.99999 128.524L6.99999 128.524ZM6.99999 136.621L7.99999 136.621L7.99999 140.669L6.99999 140.669L5.99999 140.669L5.99999 136.621L6.99999 136.621ZM6.99999 144.718L7.99999 144.718L7.99999 148.766L6.99999 148.766L5.99999 148.766L5.99999 144.718L6.99999 144.718ZM6.99999 152.814L7.99999 152.814L7.99999 156.863L6.99999 156.863L5.99999 156.863L5.99999 152.814L6.99999 152.814ZM6.99999 160.911L7.99999 160.911L7.99999 164.96L6.99999 164.96L5.99999 164.96L5.99999 160.911L6.99999 160.911ZM6.99999 169.008L7.99999 169.008L7.99999 173.056L6.99999 173.056L5.99999 173.056L5.99999 169.008L6.99999 169.008ZM6.99999 177.105L7.99999 177.105L7.99999 181.153L6.99999 181.153L5.99999 181.153L5.99999 177.105L6.99999 177.105ZM6.99999 185.202L7.99999 185.202L7.99999 189.25L6.99999 189.25L5.99999 189.25L5.99999 185.202L6.99999 185.202ZM6.99999 193.298L7.99999 193.298L7.99999 197.347L6.99999 197.347L5.99999 197.347L5.99999 193.298L6.99999 193.298ZM6.99999 201.395L7.99999 201.395L7.99999 205.443L6.99999 205.443L5.99999 205.443L5.99999 201.395L6.99999 201.395ZM6.99999 209.492L7.99999 209.492L7.99999 213.54L6.99999 213.54L5.99999 213.54L5.99999 209.492L6.99999 209.492ZM6.99999 217.589L7.99999 217.589L7.99999 221.637L6.99999 221.637L5.99999 221.637L5.99999 217.589L6.99999 217.589ZM6.99999 225.685L7.99999 225.685L7.99999 229.734L6.99999 229.734L5.99999 229.734L5.99999 225.685L6.99999 225.685ZM6.99999 233.782L7.99999 233.782L7.99999 237.831L6.99999 237.831L5.99999 237.831L5.99999 233.782L6.99999 233.782ZM6.99999 241.879L7.99999 241.879L7.99999 245.927L6.99999 245.927L5.99999 245.927L5.99999 241.879L6.99999 241.879ZM6.99999 249.976L7.99999 249.976L7.99999 252L6.99999 252L5.99999 252L5.99999 249.976L6.99999 249.976Z" fill="#52B5D0"/>
</svg>
