<svg width="86" height="24" viewBox="0 0 86 24" fill="none" xmlns="http://www.w3.org/2000/svg">
<g clip-path="url(#clip0_51_829)">
<path d="M25.2221 0H0.573232C0.4212 0 0.275398 0.0561879 0.167895 0.156204C0.0603933 0.256219 0 0.39187 0 0.533315V23.4657C0 23.6072 0.0603933 23.743 0.167895 23.843C0.275398 23.9429 0.4212 23.9991 0.573232 23.9991H25.2221C25.3743 23.9991 25.52 23.9429 25.6276 23.843C25.735 23.743 25.7955 23.6072 25.7955 23.4657V0.533315C25.7955 0.39187 25.735 0.256219 25.6276 0.156204C25.52 0.0561879 25.3743 0 25.2221 0ZM17.197 15.4661C17.197 15.6076 17.1366 15.7432 17.0291 15.8432C16.9216 15.9432 16.7758 15.9994 16.6237 15.9994H9.1717C9.01967 15.9994 8.87387 15.9432 8.76637 15.8432C8.65887 15.7432 8.59847 15.6076 8.59847 15.4661V8.53303C8.59847 8.39159 8.65887 8.25593 8.76637 8.15592C8.87387 8.0559 9.01967 7.99971 9.1717 7.99971H16.6237C16.7758 7.99971 16.9216 8.0559 17.0291 8.15592C17.1366 8.25593 17.197 8.39159 17.197 8.53303V15.4661Z" fill="black"/>
<path d="M76.8237 8.00073H69.3715C69.0551 8.00073 68.7983 8.2395 68.7983 8.53405V15.4671C68.7983 15.7617 69.0551 16.0004 69.3715 16.0004H76.8237C77.1403 16.0004 77.3969 15.7617 77.3969 15.4671V8.53405C77.3969 8.2395 77.1403 8.00073 76.8237 8.00073Z" fill="black"/>
<path d="M68.227 0.000366211H60.7751C60.4585 0.000366211 60.2019 0.23914 60.2019 0.53368V7.46677C60.2019 7.76131 60.4585 8.00009 60.7751 8.00009H68.227C68.5437 8.00009 68.8005 7.76131 68.8005 7.46677V0.53368C68.8005 0.23914 68.5437 0.000366211 68.227 0.000366211Z" fill="black"/>
<path d="M85.4268 0.000366211H77.9747C77.6583 0.000366211 77.4015 0.23914 77.4015 0.53368V7.46677C77.4015 7.76131 77.6583 8.00009 77.9747 8.00009H85.4268C85.7435 8.00009 86 7.76131 86 7.46677V0.53368C86 0.23914 85.7435 0.000366211 85.4268 0.000366211Z" fill="black"/>
<path d="M68.227 16.0002H60.7751C60.4585 16.0002 60.2019 16.239 60.2019 16.5335V23.4667C60.2019 23.7612 60.4585 24 60.7751 24H68.227C68.5437 24 68.8005 23.7612 68.8005 23.4667V16.5335C68.8005 16.239 68.5437 16.0002 68.227 16.0002Z" fill="black"/>
<path d="M85.4268 16.0002H77.9747C77.6583 16.0002 77.4015 16.239 77.4015 16.5335V23.4667C77.4015 23.7612 77.6583 24 77.9747 24H85.4268C85.7435 24 86 23.7612 86 23.4667V16.5335C86 16.239 85.7435 16.0002 85.4268 16.0002Z" fill="black"/>
<path d="M55.319 0.000366211H47.8671C47.5505 0.000366211 47.2937 0.23914 47.2937 0.53368V7.46677C47.2937 7.76131 47.5505 8.00009 47.8671 8.00009H55.319C55.6357 8.00009 55.8922 7.76131 55.8922 7.46677V0.53368C55.8922 0.23914 55.6357 0.000366211 55.319 0.000366211Z" fill="black"/>
<path d="M55.319 16.0002H47.8671C47.5505 16.0002 47.2937 16.239 47.2937 16.5335V23.4667C47.2937 23.7612 47.5505 24 47.8671 24H55.319C55.6357 24 55.8922 23.7612 55.8922 23.4667V16.5335C55.8922 16.239 55.6357 16.0002 55.319 16.0002Z" fill="black"/>
<path d="M47.2913 8.52703C47.2913 8.38559 47.2308 8.24994 47.1234 8.14993C47.016 8.0499 46.8701 7.99372 46.7181 7.99372H38.6928V0.533315C38.6928 0.39187 38.6323 0.256219 38.5249 0.156204C38.4174 0.0561879 38.2716 0 38.1196 0H30.6677C30.5155 0 30.3698 0.0561879 30.2622 0.156204C30.1547 0.256219 30.0942 0.39187 30.0942 0.533315V23.4538C30.0942 23.5953 30.1547 23.7309 30.2622 23.8309C30.3698 23.931 30.5155 23.9871 30.6677 23.9871H38.1196C38.2716 23.9871 38.4174 23.931 38.5249 23.8309C38.6323 23.7309 38.6928 23.5953 38.6928 23.4538V15.9934H46.7181C46.8701 15.9934 47.016 15.9372 47.1234 15.8372C47.2308 15.7372 47.2913 15.6016 47.2913 15.4601V8.52703Z" fill="black"/>
</g>
<defs>
<clipPath id="clip0_51_829">
<rect width="86" height="24" fill="white"/>
</clipPath>
</defs>
</svg>
