<svg width="116" height="32" viewBox="0 0 116 32" fill="none" xmlns="http://www.w3.org/2000/svg">
<g clip-path="url(#clip0_51_991)">
<path d="M15.8715 31.7697C24.572 31.7697 31.6252 24.6972 31.6252 15.9729C31.6252 7.2485 24.572 0.176025 15.8715 0.176025C7.17097 0.176025 0.117798 7.2485 0.117798 15.9729C0.117798 24.6972 7.17097 31.7697 15.8715 31.7697Z" fill="#26A17B"/>
<path d="M17.5507 17.4307V17.4281C17.4418 17.4357 16.8795 17.4688 15.6284 17.4688C14.6279 17.4688 13.9264 17.4408 13.6781 17.4281V17.4307C9.8309 17.2605 6.96129 16.59 6.96129 15.7849C6.96129 14.9824 9.83343 14.3094 13.6781 14.1392V16.7627C13.9289 16.7805 14.6507 16.8237 15.6461 16.8237C16.8416 16.8237 17.4393 16.7729 17.5507 16.7627V14.1418C21.3904 14.3145 24.2524 14.9849 24.2524 15.7875C24.2524 16.59 21.3878 17.2605 17.5507 17.4332M17.5507 13.87V11.5234H22.9075V7.94495H8.32391V11.5234H13.6807V13.87C9.32688 14.0707 6.05457 14.9342 6.05457 15.9703C6.05457 17.0065 9.32941 17.87 13.6807 18.0732V25.5957H17.5533V18.0732C21.8995 17.8726 25.1667 17.0091 25.1667 15.9729C25.1667 14.9392 21.8995 14.0732 17.5533 13.8726" fill="white"/>
<path d="M45.007 8.9227V12.717H48.6846V15.564H44.9817V21.3367C44.9817 22.6116 45.6832 23.2338 46.7115 23.2338C47.2257 23.2338 47.8209 23.0713 48.3072 22.8275L49.2266 25.6465C48.2819 26.0249 47.4967 26.1875 46.4963 26.2154C43.6039 26.3246 41.7119 24.6713 41.7119 21.3367V15.564H39.2247V12.717H41.7119V9.27572L45.007 8.9227ZM108.409 12.5392L108.653 14.0833C109.681 12.43 111.059 12.1862 112.411 12.1862C113.789 12.1862 115.114 12.7271 115.843 13.4586L114.356 16.331C113.68 15.7621 113.059 15.4624 111.978 15.4624C110.248 15.4624 108.653 16.3843 108.653 18.8503V25.8979H105.355V12.5341L108.409 12.5392ZM100.327 17.6618C100.112 15.9271 98.7596 15.0586 96.8676 15.0586C95.0846 15.0586 93.6232 15.9271 93.1369 17.6618H100.327ZM93.0837 20.3995C93.299 22.0529 94.7325 23.2465 97.0576 23.2465C98.2733 23.2465 99.8689 22.7843 100.626 21.9995L102.733 24.0871C101.328 25.55 99.0306 26.256 97.0019 26.256C92.4074 26.256 89.6746 23.4091 89.6746 19.1271C89.6746 15.0611 92.4328 12.1329 96.7587 12.1329C101.219 12.1329 104.005 14.8986 103.491 20.3995H93.0837ZM78.5406 6.92651V14.3525C79.731 12.8084 81.1899 12.3462 82.7045 12.3462C86.4884 12.3462 88.1651 14.9214 88.1651 18.8529V25.9005H84.8674V18.8808C84.8674 16.4402 83.596 15.4116 81.8383 15.4116C79.8906 15.4116 78.5406 17.0649 78.5406 19.0713V25.903H75.243V6.92905L78.5406 6.92651ZM69.7824 8.77032V12.5646H73.4599V15.4116H69.7571V21.1843C69.7571 22.4592 70.4612 23.0814 71.4869 23.0814C72.0011 23.0814 72.5963 22.9189 73.0826 22.6751L74.0019 25.4941C73.0572 25.8725 72.2721 26.0351 71.2716 26.063C68.3792 26.1722 66.4873 24.5164 66.4873 21.1843V15.4116H64.0001V12.5646H66.4873V9.12334L69.7824 8.77032ZM60.6721 17.6618C60.4568 15.9271 59.1043 15.0586 57.2123 15.0586C55.4293 15.0586 53.9679 15.9271 53.4816 17.6618H60.6721ZM53.4284 20.3995C53.6437 22.0529 55.0772 23.2465 57.4023 23.2465C58.618 23.2465 60.2136 22.7843 60.9709 21.9995L63.0782 24.0871C61.6725 25.55 59.3753 26.256 57.3466 26.256C52.7496 26.256 50.0193 23.4091 50.0193 19.1271C50.0193 15.0611 52.7775 12.1329 57.1009 12.1329C61.5611 12.1329 64.3446 14.8986 63.8329 20.3995H53.4284Z" fill="#5B5A5D"/>
</g>
<defs>
<clipPath id="clip0_51_991">
<rect width="116" height="32" fill="white"/>
</clipPath>
</defs>
</svg>
