<svg width="247" height="32" viewBox="0 0 247 32" fill="none" xmlns="http://www.w3.org/2000/svg">
<g clip-path="url(#clip0_51_841)">
<path d="M52.3084 19.8862V19.9512C52.3084 23.1382 49.6802 24.7588 45.7325 24.7263H37.3755V7.21409H45.5479C49.1155 7.21409 51.3364 8.99187 51.3364 11.7398V11.7995C51.3364 13.7669 50.2721 14.8889 49.0177 15.5772C51.054 16.3577 52.3029 17.5447 52.3029 19.8862M44.7008 14.2981C46.4221 14.2981 47.4864 13.7669 47.4864 12.4553V12.3957C47.4864 11.2412 46.5796 10.5854 44.9506 10.5854H41.1332V14.2981H44.7008ZM45.7325 21.3875C47.4213 21.3875 48.4584 20.7967 48.4584 19.4851V19.4201C48.4584 18.2331 47.5842 17.5176 45.6076 17.5176H41.1332V21.3875H45.7325ZM60.4156 24.7588H56.533V7.24119H60.4156V24.7534V24.7588ZM81.2021 7.24119V24.7534H77.9168L69.4024 13.6098V24.7534H65.585V7.24119H69.1526L77.3847 18.0434V7.24119H81.2021ZM95.0706 7.11653L102.613 24.7534H98.5133L96.9168 20.8184H89.4993L87.9028 24.7534H83.9606L91.503 7.11653H95.0706ZM90.9057 17.4201H95.5702L93.2515 11.7398L90.9057 17.4201ZM121.021 7.24119V24.7534H117.736L109.221 13.6098V24.7534H105.404V7.24119H108.972L117.204 18.0434V7.24119H121.021ZM138.517 19.4472L140.988 21.9133C139.174 23.8482 137.17 25.0352 133.787 25.0352C128.623 25.0352 124.773 21.0407 124.773 16.0108V15.9458C124.773 10.981 128.564 6.89431 133.945 6.89431C137.263 6.89431 139.234 8.01626 140.863 9.60976L138.387 12.4499C137.007 11.2304 135.634 10.4824 133.88 10.4824C130.904 10.4824 128.775 12.9485 128.775 15.9458V16.0108C128.775 19.0081 130.871 21.5068 133.88 21.5068C135.916 21.5068 137.138 20.6938 138.512 19.4472M157.49 21.3225V24.7263H144.121V7.21409H157.365V10.6504H147.944V14.2114H156.241V17.6477H147.944V21.3333H157.49V21.3225ZM13.8685 0L5.3541 4.89973L8.48185 6.71003L13.8685 3.6206L19.2552 6.71003L22.3884 4.89973L13.8685 0ZM19.2498 9.27371L22.383 11.084V14.7046L16.9963 17.794V23.9783L13.8631 25.7886L10.7354 23.9783V17.794L5.34867 14.7046V11.084L8.47642 9.27371L13.8631 12.3631L19.2498 9.27371ZM22.383 17.2629V20.8835L19.2498 22.6938V19.0732L22.383 17.2629ZM19.2226 25.2575L24.6093 22.168V15.9892L27.7371 14.1789V23.9837L19.2226 28.8835V25.2629V25.2575ZM24.6039 9.80488L21.4707 7.99458L24.6039 6.18428L27.7316 7.99458V11.6152L24.6039 13.4255V9.80488ZM10.7354 30.1897V26.5691L13.8631 28.3794L16.9963 26.5691V30.1897L13.8631 32L10.7354 30.1897ZM8.48185 22.6992L5.3541 20.8889V17.2683L8.48185 19.0786V22.6992ZM13.8685 9.80488L10.7408 7.99458L13.8685 6.18428L17.0017 7.99458L13.8685 9.80488ZM6.26093 7.99458L3.13318 9.80488V13.4255L0.00543012 11.6152V7.99458L3.13318 6.18428L6.26093 7.99458ZM0 14.1734L3.12775 15.9837V22.1626L8.51443 25.252V28.8726L0 23.9783V14.1734ZM167.612 16.1626C167.612 21.2195 171.429 25.2141 176.566 25.2141C179.884 25.2141 181.887 23.9946 183.701 22.0921L181.73 20.0921C180.226 21.4959 178.847 22.374 176.691 22.374C173.34 22.374 170.902 19.5664 170.902 16.0976C170.902 12.6287 173.313 9.88618 176.691 9.88618C178.695 9.88618 180.199 10.7588 181.605 12.0705L183.576 9.79404C181.887 8.20054 179.943 7.07859 176.691 7.07859C171.369 7.07859 167.612 11.1707 167.612 16.1626ZM189.495 24.9051V17.5068H197.885V24.9051H200.985V7.36043H197.885V14.6667H189.495V7.36043H186.394V24.9051H189.495ZM218.514 24.9051H221.766L213.974 7.23577H211.123L203.391 24.9051H206.551L208.365 20.6612H216.689L218.508 24.9051H218.514ZM209.527 17.9458L212.53 10.9214L215.565 17.9458H209.527ZM227.37 7.36043H224.27V24.9051H227.37V7.36043ZM247 7.36043H243.932V19.4743L234.511 7.36043H231.665V24.9051H234.701V12.4173L244.404 24.9051H247V7.36043Z" fill="#F0B90B"/>
</g>
<defs>
<clipPath id="clip0_51_841">
<rect width="247" height="32" fill="white"/>
</clipPath>
</defs>
</svg>
