<svg width="151" height="24" viewBox="0 0 151 24" fill="none" xmlns="http://www.w3.org/2000/svg">
<g clip-path="url(#clip0_51_853)">
<path d="M33.0662 0.559814H36.7013V10.1808L46.4534 0.559814H51.312L42.6435 8.95631L51.8363 23.1954H46.9777L39.8472 11.6852L36.7013 14.6939V23.1954H33.0662V0.559814Z" fill="#333333"/>
<path d="M53.7937 0.559742H57.394V4.47811C57.6736 3.70843 58.4076 2.79881 59.5611 1.71426C60.7146 0.629713 62.0428 0.0699463 63.5458 0.0699463C63.6157 0.0699463 63.7206 0.0699463 63.8954 0.104932C64.0701 0.104932 64.3498 0.139917 64.7692 0.174903V4.19823C64.5595 4.16324 64.3498 4.12826 64.14 4.12826C63.9653 4.12826 63.7555 4.09327 63.5109 4.09327C61.5884 4.09327 60.1204 4.72301 59.1067 5.9475C58.093 7.17199 57.5687 8.60639 57.5687 10.2157V23.2303H53.7588V0.559742H53.7937Z" fill="#333333"/>
<path d="M78.9953 9.48105C79.8691 9.37609 80.4633 8.99125 80.7429 8.3965C80.9177 8.04665 80.9876 7.55685 80.9876 6.92711C80.9876 5.63265 80.5332 4.68805 79.5895 4.09329C78.6807 3.49854 77.3524 3.21866 75.6397 3.21866C73.6473 3.21866 72.2492 3.74344 71.4103 4.82799C70.9559 5.42274 70.6413 6.29738 70.5015 7.48688H66.9362C67.0061 4.68805 67.9149 2.72886 69.6626 1.64431C71.4103 0.559767 73.4027 0 75.7096 0C78.3661 0 80.5332 0.524781 82.176 1.53936C83.8189 2.55394 84.6578 4.12828 84.6578 6.26239V19.312C84.6578 19.6968 84.7277 20.0117 84.9024 20.2566C85.0772 20.5015 85.3918 20.6064 85.9161 20.6064C86.0909 20.6064 86.2656 20.6064 86.4753 20.5714C86.6851 20.5364 86.8948 20.5015 87.1395 20.4665V23.2653C86.5453 23.4402 86.0909 23.5452 85.7763 23.5802C85.4617 23.6152 85.0422 23.6501 84.5179 23.6501C83.2247 23.6501 82.246 23.1953 81.6517 22.2507C81.3372 21.7609 81.1274 21.0612 80.9876 20.1516C80.2186 21.1662 79.1001 22.0408 77.667 22.8105C76.199 23.5452 74.626 23.93 72.8784 23.93C70.7811 23.93 69.0684 23.3003 67.7402 22.0058C66.4119 20.7464 65.7478 19.137 65.7478 17.2128C65.7478 15.1137 66.4119 13.5044 67.7052 12.3499C68.9985 11.1953 70.7462 10.4956 72.8434 10.2157L78.9953 9.48105ZM70.9559 19.7668C71.7598 20.3965 72.7036 20.7114 73.8221 20.7114C75.1503 20.7114 76.4436 20.3965 77.702 19.7668C79.7992 18.7522 80.8828 17.0729 80.8828 14.7289V11.6501C80.4284 11.93 79.8341 12.2099 79.1001 12.3848C78.3661 12.5948 77.667 12.7347 76.933 12.8047L74.626 13.0845C73.2628 13.2595 72.2142 13.5394 71.5152 13.9592C70.3267 14.6239 69.7675 15.6735 69.7675 17.1079C69.7675 18.2624 70.1869 19.137 70.9559 19.7668Z" fill="#333333"/>
<path d="M89.6912 0.559814H93.3264V10.1808L103.078 0.559814H107.937L99.2336 8.9913L108.426 23.2304H103.568L96.4373 11.7202L93.3264 14.6939V23.1954H89.6562V0.559814H89.6912Z" fill="#333333"/>
<path d="M123.946 1.18946C125.449 1.95913 126.602 2.90374 127.371 4.12823C128.14 5.28275 128.629 6.6122 128.874 8.11657C129.084 9.16613 129.224 10.8104 129.224 13.1195H112.76C112.83 15.4285 113.355 17.2827 114.368 18.6472C115.382 20.0466 116.92 20.7463 119.052 20.7463C121.01 20.7463 122.582 20.0816 123.771 18.7871C124.435 18.0174 124.889 17.1428 125.169 16.1282H128.909C128.804 16.9679 128.49 17.8775 127.93 18.8921C127.371 19.9067 126.742 20.7463 126.078 21.411C124.924 22.5306 123.526 23.3002 121.813 23.6851C120.905 23.895 119.891 24.0349 118.738 24.0349C115.941 24.0349 113.564 23.0204 111.607 20.9562C109.65 18.8921 108.671 16.0233 108.671 12.3498C108.671 8.71132 109.65 5.77255 111.607 3.49849C113.564 1.22444 116.116 0.104907 119.297 0.104907C120.905 0.0349366 122.443 0.419776 123.946 1.18946ZM125.309 10.0758C125.169 8.43144 124.785 7.10199 124.225 6.1224C123.177 4.30316 121.464 3.35855 119.052 3.35855C117.304 3.35855 115.871 3.98829 114.683 5.24776C113.495 6.50724 112.9 8.11657 112.83 10.0758H125.309Z" fill="#333333"/>
<path d="M132.544 0.559815H136.145V3.77847C137.228 2.44903 138.347 1.50442 139.535 0.90967C140.724 0.314918 142.052 0.0350342 143.52 0.0350342C146.736 0.0350342 148.903 1.15457 150.021 3.39363C150.65 4.61812 150.965 6.36739 150.965 8.67643V23.1954H147.085V8.92133C147.085 7.5569 146.875 6.43737 146.456 5.56273C145.792 4.16331 144.569 3.46361 142.786 3.46361C141.877 3.46361 141.143 3.56856 140.584 3.74349C139.535 4.05836 138.626 4.6881 137.822 5.59772C137.193 6.33241 136.774 7.10209 136.599 7.90675C136.424 8.71142 136.319 9.83095 136.319 11.3353V23.1954H132.51V0.559815H132.544Z" fill="#333333"/>
<path d="M14.4708 0.454834C6.46644 0.454834 0 6.96212 0 14.9388V21.1312C0 22.2857 0.908796 23.1954 2.06227 23.1954C3.21574 23.1954 4.12454 22.2857 4.12454 21.1312V14.9388C4.12454 13.7843 5.03333 12.8747 6.18681 12.8747C7.34028 12.8747 8.24907 13.7843 8.24907 14.9388V21.1312C8.24907 22.2857 9.15787 23.1954 10.3113 23.1954C11.4648 23.1954 12.3736 22.2857 12.3736 21.1312V14.9388C12.3736 13.7843 13.2824 12.8747 14.4359 12.8747C15.5894 12.8747 16.4981 13.7843 16.4981 14.9388V21.1312C16.4981 22.2857 17.4069 23.1954 18.5604 23.1954C19.7139 23.1954 20.6227 22.2857 20.6227 21.1312V14.9388C20.6227 13.7843 21.5315 12.8747 22.685 12.8747C23.8384 12.8747 24.7472 13.7843 24.7472 14.9388V21.1312C24.7472 22.2857 25.656 23.1954 26.8095 23.1954C27.963 23.1954 28.8718 22.2857 28.8718 21.1312V14.9388C28.9417 6.96212 22.4403 0.454834 14.4708 0.454834Z" fill="#00ADBB"/>
</g>
<defs>
<clipPath id="clip0_51_853">
<rect width="151" height="24" fill="white"/>
</clipPath>
</defs>
</svg>
