<svg width="180" height="36" viewBox="0 0 180 36" fill="none" xmlns="http://www.w3.org/2000/svg">
<g clip-path="url(#clip0_51_819)">
<path d="M11.011 20.8732L18.0028 27.8651L24.9976 20.8704L29.0664 24.9336L29.0636 24.9364L18.0028 36L6.94211 24.9421L6.93642 24.9364L11.011 20.8732ZM22.1286 17.9986H22.1314L22.1286 18.0014L18.0028 22.13L13.8771 18.0071L13.8714 17.9986L14.5993 17.2707L14.9519 16.9209L18.0028 13.87L22.1286 17.9986ZM27.864 18.0017L31.9314 13.9343L35.9989 18.0017L31.9314 22.0689L27.864 18.0017ZM0 18.0006L4.06745 13.9331L8.13462 18.0006L4.06745 22.068L0 18.0006ZM11.011 15.1268L18.0028 8.13775L24.9976 15.1325L29.0636 11.0636L18.0028 0L6.94211 11.0607L11.011 15.1268Z" fill="#F3BA2F"/>
<path d="M42.345 8.72339H51.1936C53.3887 8.72339 55.0492 9.29206 56.1752 10.4294C57.0322 11.2782 57.5042 12.4422 57.4803 13.6481V13.7021C57.4879 14.1912 57.4197 14.6783 57.2784 15.1466C57.1524 15.5495 56.9696 15.9325 56.7353 16.2839C56.5169 16.6152 56.2528 16.914 55.9505 17.1711C55.6554 17.4253 55.3318 17.6445 54.9866 17.825C55.9821 18.1719 56.8775 18.7577 57.594 19.5311C58.2272 20.2513 58.5437 21.2465 58.5437 22.5166V22.5706C58.5616 23.3637 58.389 24.1498 58.0404 24.8624C57.7026 25.5189 57.2073 26.0816 56.5988 26.5002C55.911 26.9614 55.145 27.2938 54.3383 27.4811C53.3798 27.7083 52.3974 27.8181 51.4125 27.8081H42.345V8.72339ZM50.3064 16.4403C51.0719 16.4773 51.8339 16.3126 52.5157 15.9626C53.0574 15.6462 53.3736 15.0471 53.3289 14.4215V14.3675C53.3577 13.7928 53.0901 13.2418 52.6209 12.9088C52.1489 12.5733 51.4674 12.4056 50.5766 12.4056H46.4366V16.4403H50.3064ZM51.4239 24.1317C52.1865 24.1743 52.9459 23.9997 53.6133 23.6284C54.1421 23.2886 54.4455 22.6861 54.4037 22.0588V22.0048C54.4245 21.4103 54.1481 20.8424 53.6673 20.4921C53.1782 20.1131 52.3878 19.9235 51.2959 19.9235H46.4366V24.1317H51.4239Z" fill="#F3BA2F"/>
<path d="M63.8153 8.72339H68.015V27.8138H63.8153V8.72339Z" fill="#F3BA2F"/>
<path d="M74.3699 8.72339H78.2426L87.1936 20.4722V8.72339H91.3392V27.8138H87.7651L78.5213 15.6783V27.8138H74.3699V8.72339Z" fill="#F3BA2F"/>
<path d="M104.055 8.58691H107.922L116.102 27.8138H111.718L109.972 23.5317H101.899L100.154 27.8138H95.8715L104.055 8.58691ZM108.473 19.8239L105.931 13.6311L103.401 19.8239H108.473Z" fill="#F3BA2F"/>
<path d="M120.643 8.72339H124.516L133.461 20.4722V8.72339H137.607V27.8138H134.033L124.789 15.6783V27.8138H120.643V8.72339Z" fill="#F3BA2F"/>
<path d="M152.722 28.1494C151.384 28.1608 150.057 27.9017 148.821 27.3874C146.472 26.4172 144.611 24.5377 143.666 22.1783C143.172 20.9562 142.922 19.6494 142.929 18.3312V18.2772C142.908 15.68 143.908 13.1756 145.713 11.3081C146.602 10.3956 147.666 9.67199 148.841 9.18122C150.119 8.65178 151.492 8.38763 152.876 8.40498C153.694 8.39901 154.511 8.47208 155.315 8.62392C156.003 8.75414 156.676 8.95517 157.323 9.22387C157.909 9.47096 158.467 9.78174 158.986 10.1508C159.492 10.5108 159.968 10.9123 160.408 11.3507L157.738 14.4329C157.055 13.8034 156.29 13.2706 155.463 12.8492C154.651 12.4608 153.759 12.266 152.858 12.2805C151.343 12.2643 149.892 12.9006 148.878 14.0263C148.38 14.5816 147.991 15.2248 147.729 15.9229C147.455 16.6604 147.317 17.4418 147.322 18.2288V18.2829C147.32 19.0688 147.458 19.8487 147.729 20.586C147.988 21.2866 148.373 21.9335 148.866 22.4939C149.873 23.6335 151.326 24.2815 152.847 24.2682C153.804 24.2983 154.755 24.0922 155.614 23.6682C156.431 23.2227 157.188 22.6719 157.863 22.0304L160.536 24.7317C160.064 25.2437 159.553 25.7192 159.009 26.1533C158.474 26.5764 157.893 26.9378 157.277 27.231C156.621 27.5398 155.93 27.7681 155.219 27.9105C154.397 28.0752 153.56 28.1554 152.722 28.1494Z" fill="#F3BA2F"/>
<path d="M165.492 8.72339H179.859V12.4596H169.623V16.3323H178.637V20.0685H169.637V24.0776H180.001V27.8138H165.5L165.492 8.72339Z" fill="#F3BA2F"/>
</g>
<defs>
<clipPath id="clip0_51_819">
<rect width="180.001" height="36" fill="white"/>
</clipPath>
</defs>
</svg>
