<svg width="90" height="30" viewBox="0 0 90 30" fill="none" xmlns="http://www.w3.org/2000/svg">
<g clip-path="url(#clip0_51_846)">
<path d="M64.0898 23.1428V0.012207H68.7429V23.1428H64.0898Z" fill="#F7A600"/>
<path d="M9.89386 30.0122H-0.0734863V6.88159H9.48978C14.1428 6.88159 16.849 9.41629 16.849 13.3836C16.849 15.9551 15.1102 17.6081 13.9102 18.1591C15.3428 18.8081 17.1918 20.2653 17.1918 23.3632C17.1918 27.6734 14.1428 30.0122 9.89386 30.0122ZM9.13468 10.9102H4.59182V16.2367H9.13468C11.1061 16.2367 12.2081 15.1591 12.2081 13.5673C12.2081 11.9755 11.1061 10.9102 9.13468 10.9102ZM9.42855 20.2898H4.57957V25.9714H9.42855C11.5347 25.9714 12.5388 24.6734 12.5388 23.1061C12.5388 21.5387 11.5347 20.2898 9.42855 20.2898Z" fill="#14192C"/>
<path d="M31.3714 20.5224V30.0122H26.7551V20.5224L19.5918 6.88159H24.6367L29.0816 16.2L33.4653 6.88159H38.5102L31.3714 20.5224Z" fill="#14192C"/>
<path d="M51.7103 30.0122H41.7429V6.88159H51.3062C55.9592 6.88159 58.6654 9.41629 58.6654 13.3836C58.6654 15.9551 56.9266 17.6081 55.7266 18.1591C57.1592 18.8081 59.0082 20.2653 59.0082 23.3632C58.996 27.6734 55.9592 30.0122 51.7103 30.0122ZM50.9388 10.9102H46.396V16.2367H50.9388C52.9103 16.2367 54.0123 15.1591 54.0123 13.5673C54.0123 11.9755 52.9103 10.9102 50.9388 10.9102ZM51.2327 20.2898H46.3837V25.9714H51.2327C53.3388 25.9714 54.3429 24.6734 54.3429 23.1061C54.3429 21.5387 53.3511 20.2898 51.2327 20.2898Z" fill="#14192C"/>
<path d="M83.7184 10.9102V30.0122H79.0653V10.9102H72.8572V6.88159H89.9388V10.9102H83.7184Z" fill="#14192C"/>
</g>
<defs>
<clipPath id="clip0_51_846">
<rect width="90" height="30" fill="white"/>
</clipPath>
</defs>
</svg>
