<svg width="128" height="48" viewBox="0 0 128 48" fill="none" xmlns="http://www.w3.org/2000/svg">
<g clip-path="url(#clip0_51_1012)">
<path d="M35.5771 16.5518L28.1379 14.069V3.31038L35.5862 5.51728L35.5771 16.5518Z" fill="#F68D11"/>
<path d="M37.5172 5.51728L44.9655 3.31038L44.9396 14.0616L37.5172 16.5518V5.51728Z" fill="#F68D11"/>
<path d="M43.4483 2.14533L36.5065 -5.30226e-05L29.6552 2.14533L36.5164 3.9845L43.4483 2.14533Z" fill="#F68D11"/>
<path d="M54.3358 16.5518L46.8966 14.069V3.31038L54.3449 5.51728L54.3358 16.5518Z" fill="#F68D11"/>
<path d="M56.2759 5.51728L63.7242 3.31038L63.6982 14.0616L56.2759 16.5518V5.51728Z" fill="#F68D11"/>
<path d="M62.2069 2.14533L55.2651 -5.30226e-05L48.4138 2.14533L55.2751 3.9845L62.2069 2.14533Z" fill="#F68D11"/>
<path d="M7.44828 21.2414L0 19.0345V29.7931L7.43923 32.2759L7.44828 21.2414Z" fill="#F68D11"/>
<path d="M9.37927 21.2414L16.8275 19.0345L16.8017 29.7859L9.37927 32.2759V21.2414Z" fill="#F68D11"/>
<path d="M15.3103 17.8696L8.36849 15.7242L1.51721 17.8696L8.37854 19.7087L15.3103 17.8696Z" fill="#F68D11"/>
<path d="M26.1979 32.2759L18.7587 29.7931V19.0345L26.2069 21.2414L26.1979 32.2759Z" fill="#F68D11"/>
<path d="M28.1379 21.2414L35.5862 19.0345L35.5603 29.7859L28.1379 32.2759V21.2414Z" fill="#F68D11"/>
<path d="M34.069 17.8696L27.1272 15.7242L20.2759 17.8696L27.1372 19.7087L34.069 17.8696Z" fill="#F68D11"/>
<path d="M16.8185 48L9.37927 45.5172V34.7586L16.8275 36.9655L16.8185 48Z" fill="#F68D11"/>
<path d="M18.7587 36.9655L26.2069 34.7586L26.1811 45.51L18.7587 48V36.9655Z" fill="#F68D11"/>
<path d="M24.6897 33.5937L17.7479 31.4483L10.8966 33.5937L17.7579 35.4329L24.6897 33.5937Z" fill="#F68D11"/>
<path d="M49.7627 38.4896L49.2154 38.4916C49.0146 38.4916 48.7586 38.6272 48.6957 38.8472L47.0353 44.6969L45.393 38.8599C45.3437 38.6769 45.1713 38.4916 44.9368 38.4916H44.2888C44.0554 38.4916 43.8852 38.6794 43.838 38.8637L42.3103 44.64L40.7318 38.8458C40.6695 38.6339 40.4071 38.4916 40.2013 38.4916L39.4137 38.4902C39.2455 38.4902 39.089 38.5625 39.0052 38.6789C38.9484 38.7578 38.9326 38.8472 38.9588 38.925L41.3975 47.5583C41.4513 47.7399 41.6085 47.9227 41.8386 47.9227H42.6217C42.8333 47.9227 43.0187 47.7685 43.0722 47.5498L44.5732 41.7989L46.2066 47.5564C46.2557 47.7326 46.4137 47.9227 46.6449 47.9227H47.4154C47.6297 47.9227 47.8102 47.7738 47.8631 47.5556L50.2104 38.9285C50.238 38.8455 50.222 38.7531 50.166 38.6753C50.0835 38.5608 49.9291 38.4896 49.7627 38.4896Z" fill="#100F0D"/>
<path d="M56.5347 42.1551H52.3973C52.4925 40.994 53.2464 39.7901 54.5236 39.7438C55.8828 39.7882 56.5046 40.9645 56.5347 42.1551ZM54.5206 38.4279C51.7258 38.4279 50.453 40.8987 50.453 43.1942C50.453 46.0591 52.0353 47.91 54.4842 47.91C56.2367 47.91 57.5727 47.0246 58.1498 45.4775C58.1807 45.389 58.1711 45.293 58.1228 45.2069C58.064 45.1024 57.9526 45.0235 57.8207 44.9945L57.045 44.8461C56.8367 44.8135 56.5981 44.9369 56.5192 45.1158C56.1424 45.9754 55.4555 46.4632 54.5934 46.4886C53.7639 46.4629 53.0022 45.9702 52.6533 45.2339C52.3697 44.6326 52.3278 44.0398 52.3231 43.437L57.9399 43.435C58.0577 43.435 58.1796 43.3832 58.2657 43.296C58.3377 43.2237 58.3769 43.1339 58.376 43.0439C58.3622 40.8122 57.3424 38.4279 54.5206 38.4279Z" fill="#100F0D"/>
<path d="M65.2861 43.2079C65.2861 43.7365 65.1903 46.3757 63.3153 46.4433C62.6869 46.4193 62.0518 46.0499 61.6971 45.5037C61.4358 45.0907 61.2833 44.5197 61.2441 43.8132V42.2604C61.2747 41.0709 62.112 39.7655 63.3092 39.715C65.1906 39.7892 65.2861 42.6375 65.2861 43.2079ZM63.6094 38.3478H63.4607C62.5329 38.3478 61.8038 38.7332 61.2441 39.523L61.2433 35.8836C61.2433 35.6792 61.0323 35.493 60.7991 35.493H59.9914C59.7804 35.493 59.5443 35.6601 59.5437 35.8836V47.2447C59.5445 47.4511 59.7556 47.6385 59.9884 47.6385L60.2256 47.6373C60.4496 47.6373 60.6091 47.4568 60.6629 47.2891L60.9156 46.4871C61.5026 47.3208 62.3867 47.8104 63.3329 47.8104H63.4778C65.9702 47.8104 67.0858 45.3862 67.0858 42.9837C67.0858 41.7878 66.7909 40.6444 66.2769 39.8466C65.683 38.9222 64.6607 38.3478 63.6094 38.3478Z" fill="#100F0D"/>
<path d="M75.9301 42.9522C75.4049 42.5749 74.7735 42.4488 74.1409 42.3225L72.9279 42.0976C72.0576 41.9545 71.5539 41.7211 71.5539 40.9531C71.5539 40.1412 72.3953 39.8309 73.1086 39.8116C73.9798 39.8336 74.635 40.2223 74.953 40.9059C75.0286 41.067 75.1961 41.1754 75.3701 41.1754C75.3999 41.1754 75.4303 41.1721 75.459 41.1658L76.2159 40.9986C76.3395 40.9713 76.4548 40.8866 76.5166 40.7765C76.566 40.6891 76.5768 40.5936 76.5473 40.5084C76.0841 39.1591 74.9081 38.4461 73.129 38.4461C71.5216 38.4497 69.8038 39.1644 69.8038 41.1607C69.8038 42.5252 70.6612 43.3917 72.3539 43.7365L73.7117 43.9952C74.457 44.1379 75.2193 44.3917 75.2193 45.192C75.2193 46.3768 73.8405 46.4976 73.4237 46.5062C72.4885 46.4861 71.4297 46.0689 71.1726 45.1856C71.121 44.9914 70.8766 44.8541 70.6623 44.8987L69.8706 45.062C69.7514 45.0871 69.6424 45.1646 69.579 45.2693C69.5257 45.3564 69.5106 45.4541 69.5351 45.5432C69.9437 47.0088 71.3586 47.8926 73.3199 47.9075L73.3635 47.9078C75.1153 47.9078 76.987 47.1577 76.987 45.0535C76.987 44.197 76.6016 43.4311 75.9301 42.9522Z" fill="#100F0D"/>
<path d="M83.9379 42.1636H79.7994C79.8941 41.0014 80.648 39.797 81.9252 39.7528C83.2839 39.796 83.9065 40.9721 83.9379 42.1636ZM81.923 38.4359C79.1277 38.4359 77.8546 40.9068 77.8546 43.2022C77.8546 46.0668 79.4372 47.9176 81.8863 47.9176C83.6392 47.9176 84.9752 47.032 85.5528 45.4853C85.5834 45.3967 85.5738 45.3005 85.5252 45.2142C85.4665 45.1095 85.3548 45.0306 85.2232 45.0022L84.4463 44.8538C84.2645 44.8243 84.011 44.9184 83.9216 45.1238C83.5445 45.9829 82.8574 46.4706 81.9961 46.4971C81.1658 46.4706 80.4044 45.9779 80.0568 45.242C79.7727 44.642 79.7305 44.0486 79.7263 43.4444L85.3426 43.443C85.4596 43.443 85.5807 43.3915 85.6668 43.3049C85.739 43.2323 85.7782 43.1424 85.7774 43.0519C85.7644 40.8204 84.7454 38.4359 81.923 38.4359Z" fill="#100F0D"/>
<path d="M91.0811 38.5409C90.9716 38.5289 90.8662 38.523 90.7639 38.523C89.8213 38.523 89.0557 39.0355 88.5244 40.0146L88.5264 39.1572C88.5255 38.9496 88.3184 38.7671 88.0831 38.7671H87.3815C87.1515 38.7671 86.9484 38.9503 86.9468 39.1605L86.9457 47.4896C86.9457 47.6987 87.1487 47.8822 87.3804 47.8822L88.1989 47.8819C88.4119 47.8819 88.6516 47.7147 88.6535 47.4896L88.6541 43.2905C88.6541 42.5981 88.7186 42.0764 89.0494 41.4592C89.522 40.5801 90.1818 40.1489 91.0668 40.142C91.2886 40.1404 91.4833 39.9467 91.4833 39.7275V38.9484C91.4833 38.7445 91.3065 38.5655 91.0811 38.5409Z" fill="#100F0D"/>
<path d="M99.6745 38.3774L99.0281 38.3777C98.8257 38.3777 98.5661 38.5231 98.5032 38.7363L96.408 45.3213L94.2684 38.7429C94.2052 38.5245 93.9451 38.3777 93.7415 38.3777L92.8185 38.3768C92.6491 38.3768 92.4852 38.4524 92.4014 38.5691C92.3451 38.6472 92.3297 38.7358 92.3575 38.8184L95.2858 47.5051C95.3421 47.6769 95.4913 47.8778 95.7275 47.8778H96.8444C97.0494 47.8778 97.2174 47.7383 97.2943 47.5043L100.135 38.8212C100.163 38.7388 100.148 38.6499 100.092 38.5716C100.007 38.4538 99.8439 38.3774 99.6745 38.3774Z" fill="#100F0D"/>
<path d="M101.798 35.0384C101.203 35.0384 100.719 35.5239 100.719 36.1212C100.719 36.7184 101.203 37.2036 101.798 37.2036C102.394 37.2036 102.878 36.7184 102.878 36.1212C102.878 35.5239 102.394 35.0384 101.798 35.0384Z" fill="#100F0D"/>
<path d="M102.242 38.3245L101.356 38.3236C101.115 38.3236 100.895 38.5187 100.895 38.7325L100.891 47.5763C100.891 47.6833 100.946 47.7896 101.042 47.8685C101.129 47.9401 101.241 47.9815 101.353 47.9815L102.246 47.9829H102.246C102.491 47.9808 102.706 47.791 102.706 47.5769V38.7325C102.706 38.5151 102.489 38.3245 102.242 38.3245Z" fill="#100F0D"/>
<path d="M110.526 44.3217L109.786 44.3245C109.579 44.3245 109.406 44.4486 109.329 44.6643C109.058 45.8306 108.446 46.4351 107.518 46.4618C105.709 46.408 105.569 43.8872 105.569 43.1159C105.569 41.5777 106.101 39.9178 107.588 39.874C108.486 39.9016 109.139 40.5452 109.335 41.594C109.372 41.808 109.536 41.97 109.761 41.9981L110.553 42.0059C110.79 41.9802 110.975 41.8011 110.974 41.579C110.693 39.6837 109.38 38.4586 107.625 38.4586L107.564 38.4602L107.495 38.4586C104.942 38.4586 103.799 40.8411 103.799 43.2022C103.799 45.367 104.763 47.8947 107.481 47.8947H107.611C109.322 47.8947 110.614 46.695 110.984 44.7498C110.993 44.6571 110.961 44.5645 110.895 44.4891C110.81 44.3915 110.674 44.3289 110.526 44.3217Z" fill="#100F0D"/>
<path d="M117.836 42.1636H113.697C113.791 41.0011 114.545 39.797 115.823 39.7528C117.182 39.796 117.805 40.9721 117.836 42.1636ZM115.821 38.4359C113.026 38.4359 111.753 40.9068 111.753 43.2022C111.753 46.0668 113.335 47.9176 115.785 47.9176C117.537 47.9176 118.872 47.0326 119.45 45.4856C119.48 45.3965 119.47 45.2999 119.422 45.2142C119.362 45.1088 119.254 45.0317 119.12 45.0022L118.345 44.8538C118.162 44.8243 117.909 44.9184 117.82 45.1238C117.442 45.9829 116.754 46.4706 115.893 46.4975C115.063 46.4706 114.302 45.9779 113.954 45.242C113.67 44.6411 113.628 44.0478 113.623 43.4444L119.24 43.4436C119.358 43.4436 119.48 43.3915 119.567 43.304C119.638 43.231 119.677 43.141 119.676 43.0519C119.663 40.8204 118.643 38.4359 115.821 38.4359Z" fill="#100F0D"/>
<path d="M126.712 42.9522C126.186 42.5745 125.554 42.4486 124.922 42.3225L123.709 42.0976C122.84 41.9545 122.336 41.7211 122.336 40.9531C122.336 39.9059 123.636 39.8184 123.889 39.8116C124.761 39.8336 125.417 40.2223 125.734 40.9062C125.81 41.0673 125.978 41.1754 126.153 41.1754C126.183 41.1754 126.213 41.1721 126.242 41.1658L126.998 40.9986C127.122 40.9713 127.237 40.8863 127.299 40.7763C127.348 40.6888 127.359 40.5936 127.329 40.5084C126.866 39.1591 125.69 38.4461 123.91 38.4461C122.303 38.4497 120.586 39.1644 120.586 41.1607C120.586 42.5255 121.443 43.392 123.136 43.7365L124.494 43.9952C125.239 44.1379 126.002 44.3917 126.002 45.192C126.002 46.3768 124.623 46.4976 124.206 46.5062C123.339 46.4877 122.229 46.1296 121.955 45.1867C121.905 44.9914 121.661 44.8543 121.443 44.8987L120.652 45.062C120.533 45.0875 120.423 45.1655 120.36 45.2703C120.307 45.3577 120.292 45.4546 120.317 45.5432C120.724 47.0088 122.139 47.8926 124.101 47.9075L124.144 47.9078C125.896 47.9078 127.768 47.1577 127.768 45.0535C127.768 44.1964 127.383 43.4304 126.712 42.9522Z" fill="#100F0D"/>
<path fill-rule="evenodd" clip-rule="evenodd" d="M90.68 21.2971V19.2888C90.6811 18.9842 90.9122 18.7798 91.1898 18.7801L100.187 18.7798C100.474 18.7798 100.706 18.9892 100.706 19.2866V21.0088C100.703 21.2971 100.46 21.674 100.028 22.2726L95.368 28.9266C97.0971 28.8855 98.9277 29.1445 100.499 30.0279C100.854 30.227 100.948 30.5225 100.977 30.8109V32.9538C100.977 33.2493 100.654 33.5908 100.315 33.4129C97.5453 31.9619 93.87 31.8035 90.8071 33.4297C90.4946 33.5966 90.1669 33.2604 90.1669 32.9649V30.9287C90.1669 30.6038 90.1735 30.0457 90.5015 29.5487L95.9015 21.803L91.2005 21.8019C90.9128 21.8019 90.6827 21.5971 90.68 21.2971Z" fill="#100F0D"/>
<path fill-rule="evenodd" clip-rule="evenodd" d="M57.8607 33.8356H55.1228C54.8626 33.8186 54.6544 33.6223 54.6337 33.3721L54.6356 19.323C54.6356 19.0419 54.8723 18.8174 55.1636 18.8174L57.7128 18.816C57.9799 18.8309 58.1934 19.0323 58.2116 19.2877V21.1234H58.2624C58.9261 19.3487 60.1782 18.5222 61.8643 18.5222C63.576 18.5222 64.6494 19.3487 65.416 21.1234C66.0808 19.3487 67.5879 18.5222 69.1989 18.5222C70.3487 18.5222 71.5992 18.9945 72.3658 20.0582C73.2345 21.2414 73.0555 22.955 73.0555 24.4634L73.0538 33.3294C73.0538 33.6097 72.8174 33.8356 72.5264 33.8356H69.7926C69.5173 33.8186 69.3007 33.5989 69.3007 33.3307V25.8822C69.3007 25.2913 69.3512 23.8125 69.2237 23.2513C69.0188 22.3044 68.4053 22.0399 67.6144 22.0399C66.9493 22.0399 66.259 22.4833 65.9779 23.1913C65.6971 23.9019 65.723 25.0844 65.723 25.8822V33.3294C65.723 33.6097 65.4866 33.8356 65.195 33.8356H62.4607C62.1868 33.8186 61.9697 33.5989 61.9697 33.3307L61.9661 25.8822C61.9661 24.3152 62.2224 22.0102 60.2808 22.0102C58.3134 22.0102 58.3901 24.2565 58.3901 25.8822L58.3884 33.3294C58.3895 33.6097 58.1528 33.8356 57.8607 33.8356Z" fill="#100F0D"/>
<path fill-rule="evenodd" clip-rule="evenodd" d="M108.477 21.3888C106.457 21.3888 106.33 24.138 106.33 25.8533C106.33 27.5676 106.305 31.2331 108.452 31.2331C110.573 31.2331 110.675 28.2768 110.675 26.4736C110.675 25.2913 110.625 23.8727 110.267 22.7492C109.959 21.7732 109.346 21.3888 108.477 21.3888ZM108.452 18.5222C112.514 18.5222 114.712 22.0103 114.712 26.4431C114.712 30.7307 112.284 34.1307 108.452 34.1307C104.466 34.1307 102.293 30.6417 102.293 26.296C102.293 21.9208 104.49 18.5222 108.452 18.5222Z" fill="#100F0D"/>
<path fill-rule="evenodd" clip-rule="evenodd" d="M119.981 33.8356H117.254C116.979 33.8186 116.763 33.5989 116.763 33.3307L116.759 19.2753C116.781 19.0193 117.009 18.8174 117.283 18.8174L119.823 18.816C120.063 18.8293 120.259 18.992 120.309 19.2097V21.3594H120.361C121.127 19.4375 122.201 18.5222 124.091 18.5222C125.317 18.5222 126.519 18.9644 127.285 20.1768C128 21.2998 128 23.1913 128 24.5514V33.3926C127.969 33.6417 127.747 33.8356 127.477 33.8356H124.732C124.478 33.8191 124.275 33.632 124.244 33.3926V25.764C124.244 24.2269 124.423 21.9795 122.532 21.9795C121.868 21.9795 121.255 22.424 120.948 23.1031C120.565 23.9602 120.514 24.8174 120.514 25.764V33.3294C120.509 33.6097 120.273 33.8356 119.981 33.8356Z" fill="#100F0D"/>
<path fill-rule="evenodd" clip-rule="evenodd" d="M86.2673 33.8C86.0858 33.962 85.826 33.9728 85.6213 33.8637C84.7123 33.1081 84.549 32.7578 84.0522 32.0391C82.5495 33.5696 81.4855 34.0287 79.5399 34.0287C77.2345 34.0287 75.4425 32.6064 75.4425 29.7622C75.4425 27.5408 76.6455 26.0297 78.3611 25.2885C79.8464 24.6365 81.9208 24.5178 83.5082 24.3395V23.9844C83.5082 23.333 83.5592 22.5623 83.1746 21.9997C82.8428 21.496 82.2025 21.2891 81.6384 21.2891C80.5942 21.2891 79.6665 21.8244 79.4381 22.9332C79.3917 23.1794 79.2108 23.4241 78.9628 23.4359L76.3104 23.1485C76.0858 23.0981 75.8373 22.919 75.9021 22.5771C76.5117 19.3578 79.4182 18.3851 82.0232 18.3851C83.354 18.3851 85.096 18.7404 86.146 19.7476C87.477 20.9925 87.3487 22.6514 87.3487 24.4589V28.7233C87.3487 30.0061 87.8819 30.5691 88.3832 31.2605C88.5567 31.5098 88.5959 31.8053 88.373 31.9882C87.8141 32.4566 86.8207 33.3187 86.2748 33.8061L86.2673 33.8ZM83.5082 27.1252C83.5082 28.1921 83.5335 29.0817 82.9956 30.029C82.5603 30.8 81.8684 31.2736 81.1002 31.2736C80.0513 31.2736 79.437 30.474 79.437 29.2883C79.437 26.9575 81.5286 26.5331 83.5082 26.5331V27.1252Z" fill="#100F0D"/>
<path fill-rule="evenodd" clip-rule="evenodd" d="M50.3849 33.8C50.2039 33.962 49.9421 33.9728 49.7374 33.8637C48.8285 33.1081 48.6657 32.7578 48.1683 32.0391C46.6665 33.5696 45.602 34.0287 43.6552 34.0287C41.3507 34.0287 39.5581 32.6064 39.5581 29.7622C39.5581 27.5408 40.7622 26.0297 42.4778 25.2885C43.9633 24.6365 46.0376 24.5178 47.6249 24.3395V23.9844C47.6249 23.333 47.6765 22.5623 47.2919 21.9997C46.9592 21.496 46.3184 21.2891 45.7559 21.2891C44.7118 21.2891 43.7829 21.8244 43.5553 22.9332C43.5079 23.1794 43.3278 23.4241 43.08 23.4359L40.4265 23.1485C40.2025 23.0981 39.9537 22.919 40.018 22.5771C40.6276 19.3578 43.5344 18.3851 46.1391 18.3851C47.4715 18.3851 49.2122 18.7404 50.2624 19.7476C51.594 20.9925 51.4654 22.6514 51.4654 24.4589V28.7233C51.4654 30.0061 51.9989 30.5691 52.4988 31.2605C52.6731 31.5098 52.7126 31.8053 52.4902 31.9882C51.9308 32.4566 50.9369 33.3187 50.3912 33.8061L50.3849 33.8ZM47.6249 27.1252C47.6249 28.1921 47.65 29.0817 47.1131 30.029C46.6781 30.8 45.9857 31.2736 45.2185 31.2736C44.1675 31.2736 43.5534 30.474 43.5534 29.2883C43.5534 26.9575 45.6445 26.5331 47.6249 26.5331V27.1252Z" fill="#100F0D"/>
</g>
<defs>
<clipPath id="clip0_51_1012">
<rect width="128" height="48" fill="white"/>
</clipPath>
</defs>
</svg>
