<svg width="168" height="38" viewBox="0 0 168 38" fill="none" xmlns="http://www.w3.org/2000/svg">
<g clip-path="url(#clip0_51_864)">
<path d="M17.36 37.7765C17.332 37.7765 17.304 37.8044 17.304 37.8324C17.304 37.8603 17.332 37.8883 17.36 37.8883C17.388 37.8883 17.416 37.8603 17.416 37.8324C17.416 37.8044 17.388 37.7765 17.36 37.7765Z" fill="#3952A8"/>
<path d="M15.568 37.1617C15.484 37.1617 15.428 37.2176 15.428 37.3014C15.428 37.3853 15.484 37.4412 15.568 37.4412C15.652 37.4412 15.708 37.3853 15.708 37.3014C15.708 37.2176 15.652 37.1617 15.568 37.1617Z" fill="#3952A8"/>
<path d="M13.832 36.3514C13.72 36.3514 13.636 36.4353 13.636 36.547C13.636 36.6588 13.72 36.7426 13.832 36.7426C13.944 36.7426 14.028 36.6588 14.028 36.547C14.028 36.4353 13.944 36.3514 13.832 36.3514Z" fill="#3952A8"/>
<path d="M12.2079 35.3735C12.0679 35.3735 11.9559 35.4853 11.9559 35.625C11.9559 35.7647 12.0679 35.8765 12.2079 35.8765C12.3479 35.8765 12.4599 35.7647 12.4599 35.625C12.4599 35.4853 12.3479 35.3735 12.2079 35.3735Z" fill="#3952A8"/>
<path d="M10.668 34.2001C10.5 34.2001 10.332 34.3398 10.332 34.5354C10.332 34.703 10.472 34.8707 10.668 34.8707C10.836 34.8707 11.004 34.731 11.004 34.5354C11.004 34.3677 10.864 34.2001 10.668 34.2001Z" fill="#3952A8"/>
<path d="M9.26798 32.9147C9.04398 32.9147 8.87598 33.0823 8.87598 33.3059C8.87598 33.5294 9.04398 33.697 9.26798 33.697C9.49198 33.697 9.65998 33.5294 9.65998 33.3059C9.65998 33.0823 9.49198 32.9147 9.26798 32.9147Z" fill="#3952A8"/>
<path d="M7.97998 31.4618C7.72798 31.4618 7.53198 31.6574 7.53198 31.9089C7.53198 32.1603 7.72798 32.3559 7.97998 32.3559C8.23198 32.3559 8.42798 32.1603 8.42798 31.9089C8.45598 31.6574 8.23198 31.4618 7.97998 31.4618Z" fill="#3952A8"/>
<path d="M6.88796 29.8691C6.60796 29.8691 6.35596 30.0927 6.35596 30.4C6.35596 30.6794 6.57996 30.9309 6.88796 30.9309C7.16796 30.9309 7.41996 30.7074 7.41996 30.4C7.39196 30.1206 7.16796 29.8691 6.88796 29.8691Z" fill="#3952A8"/>
<path d="M6.55198 28.7514C6.55198 28.4441 6.29998 28.1647 5.96398 28.1647C5.62798 28.1647 5.37598 28.4161 5.37598 28.7514C5.37598 29.0588 5.62798 29.3382 5.96398 29.3382C6.29998 29.3382 6.55198 29.0867 6.55198 28.7514Z" fill="#3952A8"/>
<path d="M5.90799 27.0191C5.90799 26.6559 5.62799 26.3765 5.26399 26.3765C4.89999 26.3765 4.62 26.6559 4.62 27.0191C4.62 27.3824 4.89999 27.6618 5.26399 27.6618C5.62799 27.6618 5.90799 27.3824 5.90799 27.0191Z" fill="#3952A8"/>
<path d="M5.51597 25.2029C5.51597 24.8117 5.20797 24.5044 4.81597 24.5044C4.42397 24.5044 4.11597 24.8117 4.11597 25.2029C4.11597 25.5941 4.42397 25.9015 4.81597 25.9015C5.20797 25.9015 5.51597 25.5941 5.51597 25.2029Z" fill="#3952A8"/>
<path d="M5.37598 23.3309C5.37598 22.9118 5.03998 22.5486 4.59198 22.5486C4.17198 22.5486 3.80798 22.8839 3.80798 23.3309C3.80798 23.7501 4.14398 24.1133 4.59198 24.1133C5.03998 24.1133 5.37598 23.7501 5.37598 23.3309Z" fill="#3952A8"/>
<path d="M4.64798 22.2971C5.12398 22.2971 5.48798 21.9338 5.48798 21.4588C5.48798 20.9838 5.12398 20.6206 4.64798 20.6206C4.17198 20.6206 3.80798 20.9838 3.80798 21.4588C3.80798 21.9059 4.17198 22.2971 4.64798 22.2971Z" fill="#3952A8"/>
<path d="M4.00403 19.5867C4.00403 20.0897 4.39603 20.4809 4.90003 20.4809C5.40403 20.4809 5.79603 20.0897 5.79603 19.5867C5.79603 19.0838 5.40403 18.6926 4.90003 18.6926C4.42403 18.6926 4.00403 19.0838 4.00403 19.5867Z" fill="#3952A8"/>
<path d="M31.2199 33.4456C31.1919 33.4456 31.1639 33.4735 31.1639 33.5014C31.1639 33.5294 31.1919 33.5573 31.2199 33.5573C31.2479 33.5573 31.2759 33.5294 31.2759 33.5014C31.2759 33.4735 31.2479 33.4456 31.2199 33.4456Z" fill="#3952A8"/>
<path d="M29.5679 34.2559C29.5119 34.2559 29.4559 34.3117 29.4559 34.3676C29.4559 34.4235 29.5119 34.4794 29.5679 34.4794C29.6239 34.4794 29.6799 34.4235 29.6799 34.3676C29.6799 34.3117 29.6239 34.2559 29.5679 34.2559Z" fill="#3952A8"/>
<path d="M27.804 34.8986C27.72 34.8986 27.636 34.9824 27.636 35.0662C27.636 35.15 27.72 35.2339 27.804 35.2339C27.888 35.2339 27.972 35.15 27.972 35.0662C27.972 34.9824 27.916 34.8986 27.804 34.8986Z" fill="#3952A8"/>
<path d="M26.012 35.3456C25.872 35.3456 25.788 35.4573 25.788 35.5691C25.788 35.6809 25.9 35.7926 26.012 35.7926C26.124 35.7926 26.236 35.6809 26.236 35.5691C26.236 35.4573 26.124 35.3456 26.012 35.3456Z" fill="#3952A8"/>
<path d="M24.136 35.597C23.968 35.597 23.856 35.7368 23.856 35.8765C23.856 36.0441 23.996 36.1559 24.136 36.1559C24.304 36.1559 24.416 36.0162 24.416 35.8765C24.444 35.7368 24.304 35.597 24.136 35.597Z" fill="#3952A8"/>
<path d="M22.2599 35.6809C22.0639 35.6809 21.924 35.8206 21.924 36.0162C21.924 36.2118 22.0639 36.3515 22.2599 36.3515C22.4559 36.3515 22.5959 36.1838 22.5959 36.0162C22.6239 35.8206 22.4559 35.6809 22.2599 35.6809Z" fill="#3952A8"/>
<path d="M20.3839 35.5413C20.1599 35.5413 19.9919 35.7089 19.9919 35.9324C19.9919 36.156 20.1599 36.3236 20.3839 36.3236C20.6079 36.3236 20.7759 36.156 20.7759 35.9324C20.8039 35.7089 20.6079 35.5413 20.3839 35.5413Z" fill="#3952A8"/>
<path d="M18.536 35.2059C18.284 35.2059 18.088 35.4015 18.088 35.653C18.088 35.9045 18.284 36.1001 18.536 36.1001C18.788 36.1001 18.984 35.9045 18.984 35.653C18.984 35.4015 18.788 35.2059 18.536 35.2059Z" fill="#3952A8"/>
<path d="M16.716 34.6191C16.436 34.6191 16.212 34.8427 16.212 35.1221C16.212 35.4015 16.436 35.625 16.716 35.625C16.996 35.625 17.22 35.4015 17.22 35.1221C17.248 34.8427 16.996 34.6191 16.716 34.6191Z" fill="#3952A8"/>
<path d="M15.008 33.8088C14.7 33.8088 14.448 34.0603 14.448 34.3677C14.448 34.675 14.7 34.9265 15.008 34.9265C15.316 34.9265 15.568 34.675 15.568 34.3677C15.568 34.0882 15.316 33.8088 15.008 33.8088Z" fill="#3952A8"/>
<path d="M14.0279 33.4177C14.0279 33.0824 13.7479 32.803 13.4119 32.803C13.0759 32.803 12.7679 33.0824 12.7679 33.4177C12.7679 33.753 13.0479 34.0324 13.4119 34.0324C13.7479 34.0603 14.0279 33.7809 14.0279 33.4177Z" fill="#3952A8"/>
<path d="M11.928 31.5736C11.536 31.5736 11.228 31.881 11.228 32.2721C11.228 32.6633 11.536 32.9707 11.928 32.9707C12.292 32.9707 12.628 32.6633 12.628 32.2721C12.628 31.881 12.292 31.5736 11.928 31.5736Z" fill="#3952A8"/>
<path d="M10.612 30.1486C10.192 30.1486 9.85596 30.4839 9.85596 30.903C9.85596 31.3221 10.192 31.6574 10.612 31.6574C11.032 31.6574 11.368 31.3221 11.368 30.903C11.368 30.4839 11.032 30.1486 10.612 30.1486Z" fill="#3952A8"/>
<path d="M9.49193 30.2045C9.93993 30.2045 10.3039 29.8412 10.3039 29.3942C10.3039 28.9471 9.93993 28.5839 9.49193 28.5839C9.04393 28.5839 8.67993 28.9471 8.67993 29.3942C8.70793 29.8412 9.04393 30.2045 9.49193 30.2045Z" fill="#3952A8"/>
<path d="M9.43595 27.7456C9.43595 27.2706 9.04395 26.8794 8.56795 26.8794C8.09195 26.8794 7.69995 27.2706 7.69995 27.7456C7.69995 28.2206 8.09195 28.6117 8.56795 28.6117C9.07195 28.6117 9.43595 28.2206 9.43595 27.7456Z" fill="#3952A8"/>
<path d="M37.968 20.6206C37.94 20.6206 37.912 20.6486 37.912 20.6765C37.912 20.7044 37.94 20.7324 37.968 20.7324C37.996 20.7324 38.024 20.7044 38.024 20.6765C37.996 20.6486 37.996 20.6206 37.968 20.6206Z" fill="#3952A8"/>
<path d="M37.408 22.353C37.352 22.353 37.296 22.4089 37.296 22.4648C37.296 22.5207 37.352 22.5766 37.408 22.5766C37.464 22.5766 37.52 22.5207 37.52 22.4648C37.52 22.4089 37.464 22.353 37.408 22.353Z" fill="#3952A8"/>
<path d="M36.652 24.0294C36.568 24.0294 36.512 24.0853 36.512 24.1691C36.512 24.2529 36.568 24.3368 36.652 24.3368C36.736 24.3368 36.82 24.2809 36.82 24.1691C36.792 24.1132 36.736 24.0294 36.652 24.0294Z" fill="#3952A8"/>
<path d="M35.728 25.6221C35.616 25.6221 35.532 25.7059 35.532 25.8177C35.532 25.9294 35.616 26.0132 35.728 26.0132C35.84 26.0132 35.924 25.9294 35.924 25.8177C35.924 25.7059 35.84 25.6221 35.728 25.6221Z" fill="#3952A8"/>
<path d="M34.636 27.103C34.496 27.103 34.384 27.2148 34.384 27.3545C34.384 27.4942 34.496 27.606 34.636 27.606C34.776 27.606 34.888 27.4942 34.888 27.3545C34.888 27.2148 34.776 27.103 34.636 27.103Z" fill="#3952A8"/>
<path d="M33.4039 28.4441C33.2359 28.4441 33.0959 28.5838 33.0959 28.7514C33.0959 28.9191 33.2359 29.0588 33.4039 29.0588C33.5719 29.0588 33.7119 28.9191 33.7119 28.7514C33.7119 28.5838 33.5719 28.4441 33.4039 28.4441Z" fill="#3952A8"/>
<path d="M32.004 29.6736C31.808 29.6736 31.64 29.8412 31.64 30.0368C31.64 30.2324 31.808 30.4 32.004 30.4C32.2 30.4 32.368 30.2324 32.368 30.0368C32.368 29.8412 32.2 29.6736 32.004 29.6736Z" fill="#3952A8"/>
<path d="M30.492 30.7354C30.268 30.7354 30.072 30.9309 30.072 31.1545C30.072 31.378 30.268 31.5736 30.492 31.5736C30.716 31.5736 30.912 31.378 30.912 31.1545C30.912 30.9309 30.716 30.7354 30.492 30.7354Z" fill="#3952A8"/>
<path d="M28.868 31.6014C28.616 31.6014 28.392 31.797 28.392 32.0485C28.392 32.3 28.588 32.5235 28.868 32.5235C29.12 32.5235 29.316 32.3279 29.316 32.0485C29.316 31.797 29.12 31.6014 28.868 31.6014Z" fill="#3952A8"/>
<path d="M27.104 32.2162C26.824 32.2162 26.6 32.4397 26.6 32.7191C26.6 32.9985 26.824 33.2221 27.104 33.2221C27.384 33.2221 27.608 32.9985 27.608 32.7191C27.608 32.4677 27.384 32.2162 27.104 32.2162Z" fill="#3952A8"/>
<path d="M25.284 32.6353C24.976 32.6353 24.724 32.8867 24.724 33.1941C24.724 33.5014 24.976 33.7529 25.284 33.7529C25.592 33.7529 25.844 33.5014 25.844 33.1941C25.844 32.8867 25.592 32.6353 25.284 32.6353Z" fill="#3952A8"/>
<path d="M23.408 32.803C23.072 32.803 22.792 33.0824 22.792 33.4177C22.792 33.753 23.072 34.0324 23.408 34.0324C23.744 34.0324 24.024 33.753 24.024 33.4177C24.024 33.0824 23.744 32.803 23.408 32.803Z" fill="#3952A8"/>
<path d="M22.204 33.3617C22.204 32.9985 21.896 32.6912 21.532 32.6912C21.168 32.6912 20.86 32.9985 20.86 33.3617C20.86 33.725 21.168 34.0323 21.532 34.0323C21.896 34.0323 22.204 33.725 22.204 33.3617Z" fill="#3952A8"/>
<path d="M20.384 33.0824C20.384 32.6913 20.076 32.356 19.656 32.356C19.264 32.356 18.928 32.6633 18.928 33.0824C18.928 33.4736 19.236 33.8089 19.656 33.8089C20.076 33.8089 20.384 33.5015 20.384 33.0824Z" fill="#3952A8"/>
<path d="M18.648 32.5795C18.648 32.1604 18.312 31.8251 17.864 31.8251C17.444 31.8251 17.108 32.1604 17.108 32.5795C17.108 32.9986 17.444 33.3618 17.864 33.3618C18.284 33.3339 18.648 32.9986 18.648 32.5795Z" fill="#3952A8"/>
<path d="M16.968 31.8251C16.968 31.378 16.604 31.0148 16.156 31.0148C15.708 31.0148 15.344 31.378 15.344 31.8251C15.344 32.2721 15.708 32.6354 16.156 32.6354C16.604 32.6354 16.968 32.2721 16.968 31.8251Z" fill="#3952A8"/>
<path d="M33.628 6.90144C33.656 6.90144 33.684 6.8735 33.684 6.84556C33.684 6.81762 33.656 6.78967 33.628 6.78967C33.6 6.78967 33.572 6.81762 33.572 6.84556C33.572 6.8735 33.6 6.90144 33.628 6.90144Z" fill="#3952A8"/>
<path d="M34.496 8.60585C34.552 8.60585 34.608 8.54997 34.608 8.49409C34.608 8.4382 34.552 8.38232 34.496 8.38232C34.44 8.38232 34.384 8.4382 34.384 8.49409C34.384 8.54997 34.44 8.60585 34.496 8.60585Z" fill="#3952A8"/>
<path d="M35.196 10.3942C35.28 10.3942 35.336 10.3383 35.336 10.2545C35.336 10.1706 35.28 10.1147 35.196 10.1147C35.112 10.1147 35.056 10.1706 35.056 10.2545C35.028 10.3383 35.112 10.3942 35.196 10.3942Z" fill="#3952A8"/>
<path d="M35.7 12.2662C35.812 12.2662 35.896 12.1824 35.896 12.0706C35.896 11.9588 35.812 11.875 35.7 11.875C35.588 11.875 35.504 11.9588 35.504 12.0706C35.476 12.1824 35.588 12.2662 35.7 12.2662Z" fill="#3952A8"/>
<path d="M35.756 13.9147C35.756 14.0544 35.868 14.1662 36.008 14.1662C36.148 14.1662 36.26 14.0544 36.26 13.9147C36.26 13.775 36.148 13.6633 36.008 13.6633C35.868 13.6353 35.756 13.775 35.756 13.9147Z" fill="#3952A8"/>
<path d="M36.12 15.4794C35.952 15.4794 35.812 15.6191 35.812 15.7867C35.812 15.9544 35.952 16.0941 36.12 16.0941C36.288 16.0941 36.428 15.9544 36.428 15.7867C36.428 15.6191 36.288 15.4794 36.12 15.4794Z" fill="#3952A8"/>
<path d="M36.036 17.2957C35.84 17.2957 35.672 17.4633 35.672 17.6589C35.672 17.8545 35.84 18.0221 36.036 18.0221C36.232 18.0221 36.4 17.8545 36.4 17.6589C36.4 17.4633 36.232 17.2957 36.036 17.2957Z" fill="#3952A8"/>
<path d="M35.7559 19.1118C35.5319 19.1118 35.3359 19.3074 35.3359 19.5309C35.3359 19.7545 35.5319 19.9501 35.7559 19.9501C35.9799 19.9501 36.1759 19.7824 36.1759 19.5309C36.1759 19.2795 35.9799 19.1118 35.7559 19.1118Z" fill="#3952A8"/>
<path d="M35.7 21.3191C35.7 21.0677 35.504 20.8721 35.252 20.8721C35 20.8721 34.776 21.0677 34.776 21.3191C34.776 21.5706 34.972 21.7662 35.252 21.7662C35.504 21.7662 35.7 21.5706 35.7 21.3191Z" fill="#3952A8"/>
<path d="M34.4959 22.5206C34.2159 22.5206 33.9919 22.7442 33.9919 23.0236C33.9919 23.303 34.2159 23.5265 34.4959 23.5265C34.7759 23.5265 34.9999 23.303 34.9999 23.0236C34.9999 22.7442 34.7759 22.5206 34.4959 22.5206Z" fill="#3952A8"/>
<path d="M33.544 24.0853C33.236 24.0853 32.984 24.3368 32.984 24.6442C32.984 24.9515 33.236 25.203 33.544 25.203C33.852 25.203 34.104 24.9515 34.104 24.6442C34.104 24.3368 33.852 24.0853 33.544 24.0853Z" fill="#3952A8"/>
<path d="M32.368 25.4824C32.032 25.4824 31.752 25.7618 31.752 26.0971C31.752 26.4324 32.032 26.7118 32.368 26.7118C32.704 26.7118 32.984 26.4324 32.984 26.0971C32.984 25.7618 32.704 25.4824 32.368 25.4824Z" fill="#3952A8"/>
<path d="M30.996 26.7397C30.632 26.7397 30.324 27.0471 30.324 27.4103C30.324 27.7736 30.632 28.0809 30.996 28.0809C31.36 28.0809 31.668 27.7736 31.668 27.4103C31.668 27.0471 31.36 26.7397 30.996 26.7397Z" fill="#3952A8"/>
<path d="M29.484 27.8015C29.092 27.8015 28.756 28.1089 28.756 28.528C28.756 28.9192 29.064 29.2545 29.484 29.2545C29.876 29.2545 30.212 28.9471 30.212 28.528C30.212 28.1368 29.876 27.8015 29.484 27.8015Z" fill="#3952A8"/>
<path d="M27.86 28.6677C27.44 28.6677 27.104 29.003 27.104 29.4501C27.104 29.8692 27.44 30.2045 27.86 30.2045C28.28 30.2045 28.616 29.8692 28.616 29.4501C28.616 29.003 28.28 28.6677 27.86 28.6677Z" fill="#3952A8"/>
<path d="M26.0959 29.3103C25.6479 29.3103 25.2839 29.6735 25.2839 30.1206C25.2839 30.5677 25.6479 30.9309 26.0959 30.9309C26.5439 30.9309 26.9079 30.5677 26.9079 30.1206C26.9079 29.6735 26.5439 29.3103 26.0959 29.3103Z" fill="#3952A8"/>
<path d="M20.748 0.167671C20.776 0.167671 20.804 0.139727 20.804 0.111785C20.804 0.0838443 20.776 0.0559082 20.748 0.0559082C20.72 0.0559082 20.692 0.0838443 20.692 0.111785C20.692 0.139727 20.72 0.167671 20.748 0.167671Z" fill="#3952A8"/>
<path d="M22.54 0.782364C22.596 0.782364 22.652 0.726483 22.652 0.670601C22.652 0.614719 22.596 0.558838 22.54 0.558838C22.484 0.558838 22.428 0.614719 22.428 0.670601C22.456 0.754424 22.484 0.782364 22.54 0.782364Z" fill="#3952A8"/>
<path d="M24.276 1.59263C24.36 1.59263 24.416 1.53675 24.416 1.45293C24.416 1.3691 24.36 1.28528 24.276 1.28528C24.192 1.28528 24.108 1.34116 24.108 1.45293C24.108 1.50881 24.192 1.59263 24.276 1.59263Z" fill="#3952A8"/>
<path d="M25.9 2.54266C26.012 2.54266 26.096 2.45884 26.096 2.34707C26.096 2.23531 26.012 2.15149 25.9 2.15149C25.788 2.15149 25.704 2.23531 25.704 2.34707C25.704 2.45884 25.788 2.54266 25.9 2.54266Z" fill="#3952A8"/>
<path d="M27.44 3.68825C27.58 3.68825 27.692 3.57648 27.692 3.43677C27.692 3.29707 27.58 3.1853 27.44 3.1853C27.3 3.1853 27.188 3.29707 27.188 3.43677C27.188 3.57648 27.3 3.68825 27.44 3.68825Z" fill="#3952A8"/>
<path d="M28.8679 4.97359C29.0359 4.97359 29.1759 4.83389 29.1759 4.66624C29.1759 4.49859 29.0359 4.35889 28.8679 4.35889C28.6999 4.35889 28.5599 4.49859 28.5599 4.66624C28.5599 4.83389 28.6719 4.97359 28.8679 4.97359Z" fill="#3952A8"/>
<path d="M30.128 6.42655C30.324 6.42655 30.492 6.2589 30.492 6.06331C30.492 5.86773 30.324 5.70007 30.128 5.70007C29.932 5.70007 29.764 5.86773 29.764 6.06331C29.764 6.2589 29.932 6.42655 30.128 6.42655Z" fill="#3952A8"/>
<path d="M31.248 7.96324C31.472 7.96324 31.668 7.76765 31.668 7.54412C31.668 7.32059 31.472 7.125 31.248 7.125C31.024 7.125 30.828 7.32059 30.828 7.54412C30.828 7.76765 31.024 7.96324 31.248 7.96324Z" fill="#3952A8"/>
<path d="M32.144 9.66768C32.396 9.66768 32.592 9.47209 32.592 9.22062C32.592 8.96915 32.396 8.77356 32.144 8.77356C31.892 8.77356 31.668 8.96915 31.668 9.22062C31.696 9.47209 31.892 9.66768 32.144 9.66768Z" fill="#3952A8"/>
<path d="M32.34 10.953C32.34 11.2324 32.564 11.456 32.844 11.456C33.124 11.456 33.348 11.2324 33.348 10.953C33.348 10.6736 33.124 10.4501 32.844 10.4501C32.564 10.4501 32.34 10.6736 32.34 10.953Z" fill="#3952A8"/>
<path d="M32.7319 12.7692C32.7319 13.0765 32.9839 13.328 33.2919 13.328C33.5999 13.328 33.8519 13.0765 33.8519 12.7692C33.8519 12.4618 33.5999 12.2103 33.2919 12.2103C32.9839 12.2103 32.7319 12.4618 32.7319 12.7692Z" fill="#3952A8"/>
<path d="M32.9 14.6412C32.9 14.9765 33.18 15.2559 33.516 15.2559C33.852 15.2559 34.132 14.9765 34.132 14.6412C34.132 14.3059 33.852 14.0265 33.516 14.0265C33.18 14.0265 32.9 14.3059 32.9 14.6412Z" fill="#3952A8"/>
<path d="M34.132 16.5132C34.132 16.15 33.824 15.8427 33.46 15.8427C33.096 15.8427 32.788 16.15 32.788 16.5132C32.788 16.8765 33.096 17.1838 33.46 17.1838C33.852 17.1838 34.132 16.8765 34.132 16.5132Z" fill="#3952A8"/>
<path d="M33.908 18.3573C33.908 17.9662 33.6 17.6309 33.18 17.6309C32.788 17.6309 32.452 17.9382 32.452 18.3573C32.452 18.7485 32.788 19.0838 33.18 19.0838C33.6 19.0838 33.908 18.7485 33.908 18.3573Z" fill="#3952A8"/>
<path d="M33.46 20.1736C33.46 19.7545 33.124 19.3912 32.704 19.3912C32.284 19.3912 31.948 19.7265 31.948 20.1736C31.948 20.5927 32.284 20.928 32.704 20.928C33.096 20.928 33.46 20.5927 33.46 20.1736Z" fill="#3952A8"/>
<path d="M31.92 21.0676C31.472 21.0676 31.108 21.4309 31.108 21.8779C31.108 22.325 31.472 22.6882 31.92 22.6882C32.368 22.6882 32.732 22.325 32.732 21.8779C32.76 21.4309 32.396 21.0676 31.92 21.0676Z" fill="#3952A8"/>
<path d="M6.88803 4.4986C6.91603 4.4986 6.94403 4.47066 6.94403 4.44272C6.94403 4.41478 6.91603 4.38684 6.88803 4.38684C6.86003 4.38684 6.83203 4.41478 6.83203 4.44272C6.83203 4.47066 6.86003 4.4986 6.88803 4.4986Z" fill="#3952A8"/>
<path d="M8.56793 3.68826C8.62393 3.68826 8.67993 3.63237 8.67993 3.57648C8.67993 3.5206 8.62393 3.46472 8.56793 3.46472C8.51193 3.46472 8.45593 3.5206 8.45593 3.57648C8.45593 3.63237 8.51193 3.68826 8.56793 3.68826Z" fill="#3952A8"/>
<path d="M10.3039 3.04564C10.3879 3.04564 10.4719 2.98975 10.4719 2.90593C10.4719 2.82211 10.4159 2.73828 10.3039 2.73828C10.2199 2.73828 10.1639 2.82211 10.1639 2.90593C10.1639 2.96181 10.2199 3.04564 10.3039 3.04564Z" fill="#3952A8"/>
<path d="M12.1239 2.59857C12.2359 2.59857 12.3199 2.51475 12.3199 2.40299C12.3199 2.29122 12.2359 2.2074 12.1239 2.2074C12.0119 2.2074 11.9279 2.29122 11.9279 2.40299C11.8999 2.48681 12.0119 2.59857 12.1239 2.59857Z" fill="#3952A8"/>
<path d="M13.972 2.3191C14.112 2.3191 14.224 2.20734 14.224 2.06763C14.224 1.92793 14.112 1.81616 13.972 1.81616C13.832 1.81616 13.72 1.92793 13.72 2.06763C13.72 2.20734 13.832 2.3191 13.972 2.3191Z" fill="#3952A8"/>
<path d="M15.848 2.26327C16.016 2.26327 16.156 2.12356 16.156 1.95591C16.156 1.78827 16.016 1.64856 15.848 1.64856C15.68 1.64856 15.54 1.78827 15.54 1.95591C15.54 2.12356 15.68 2.26327 15.848 2.26327Z" fill="#3952A8"/>
<path d="M17.724 2.40299C17.92 2.40299 18.088 2.23533 18.088 2.03975C18.088 1.84416 17.92 1.67651 17.724 1.67651C17.528 1.67651 17.36 1.84416 17.36 2.03975C17.36 2.23533 17.528 2.40299 17.724 2.40299Z" fill="#3952A8"/>
<path d="M19.572 2.71031C19.796 2.71031 19.992 2.54266 19.992 2.29119C19.992 2.06766 19.796 1.87207 19.572 1.87207C19.348 1.87207 19.152 2.06766 19.152 2.29119C19.18 2.54266 19.348 2.71031 19.572 2.71031Z" fill="#3952A8"/>
<path d="M21.392 3.29707C21.644 3.29707 21.868 3.10149 21.868 2.85001C21.868 2.59854 21.672 2.40295 21.392 2.40295C21.14 2.40295 20.944 2.59854 20.944 2.85001C20.944 3.07354 21.14 3.29707 21.392 3.29707Z" fill="#3952A8"/>
<path d="M23.128 4.07949C23.408 4.07949 23.632 3.85596 23.632 3.57655C23.632 3.29713 23.408 3.07361 23.128 3.07361C22.848 3.07361 22.624 3.29713 22.624 3.57655C22.596 3.85596 22.848 4.07949 23.128 4.07949Z" fill="#3952A8"/>
<path d="M24.1639 4.52647C24.1639 4.83383 24.4159 5.0853 24.7239 5.0853C25.0319 5.0853 25.2839 4.83383 25.2839 4.52647C25.2839 4.21912 25.0319 3.96765 24.7239 3.96765C24.4159 3.96765 24.1639 4.21912 24.1639 4.52647Z" fill="#3952A8"/>
<path d="M26.208 6.31474C26.544 6.31474 26.824 6.03532 26.824 5.70003C26.824 5.36473 26.544 5.08533 26.208 5.08533C25.872 5.08533 25.592 5.36473 25.592 5.70003C25.592 6.06326 25.872 6.31474 26.208 6.31474Z" fill="#3952A8"/>
<path d="M27.496 7.73974C27.86 7.73974 28.168 7.43238 28.168 7.06915C28.168 6.70591 27.86 6.39856 27.496 6.39856C27.132 6.39856 26.824 6.70591 26.824 7.06915C26.824 7.43238 27.132 7.73974 27.496 7.73974Z" fill="#3952A8"/>
<path d="M28.6159 7.85144C28.2239 7.85144 27.8879 8.1588 27.8879 8.57791C27.8879 8.96909 28.1959 9.30438 28.6159 9.30438C29.0079 9.30438 29.3439 8.99703 29.3439 8.57791C29.3439 8.18674 29.0079 7.85144 28.6159 7.85144Z" fill="#3952A8"/>
<path d="M28.756 10.1985C28.756 10.6176 29.092 10.9529 29.512 10.9529C29.932 10.9529 30.268 10.6176 30.268 10.1985C30.268 9.77939 29.932 9.44409 29.512 9.44409C29.12 9.44409 28.756 9.77939 28.756 10.1985Z" fill="#3952A8"/>
<path d="M29.4 11.9589C29.4 12.4059 29.764 12.7692 30.212 12.7692C30.66 12.7692 31.024 12.4059 31.024 11.9589C31.024 11.5118 30.66 11.1486 30.212 11.1486C29.764 11.1486 29.4 11.5118 29.4 11.9589Z" fill="#3952A8"/>
<path d="M30.66 12.9088C30.184 12.9088 29.792 13.3 29.792 13.775C29.792 14.25 30.184 14.6412 30.66 14.6412C31.136 14.6412 31.528 14.25 31.528 13.775C31.556 13.3 31.164 12.9088 30.66 12.9088Z" fill="#3952A8"/>
<path d="M0.167985 17.1838C0.111985 17.1838 0.0839844 17.2397 0.0839844 17.2677C0.0839844 17.3235 0.139985 17.3515 0.167985 17.3515C0.223985 17.3515 0.251985 17.2956 0.251985 17.2677C0.251985 17.2397 0.223985 17.1838 0.167985 17.1838Z" fill="#3952A8"/>
<path d="M0.727983 15.3118C0.615983 15.3118 0.531982 15.3956 0.531982 15.5074C0.531982 15.6191 0.615983 15.703 0.727983 15.703C0.839983 15.703 0.923982 15.6191 0.923982 15.5074C0.923982 15.3956 0.839983 15.3118 0.727983 15.3118Z" fill="#3952A8"/>
<path d="M1.76398 13.775C1.76398 13.6074 1.62398 13.4956 1.48398 13.4956C1.31598 13.4956 1.20398 13.6353 1.20398 13.775C1.20398 13.9427 1.34398 14.0544 1.48398 14.0544C1.62398 14.0544 1.76398 13.9427 1.76398 13.775Z" fill="#3952A8"/>
<path d="M2.38004 12.5177C2.60404 12.5177 2.77204 12.3501 2.77204 12.1265C2.77204 11.903 2.60404 11.7354 2.38004 11.7354C2.15604 11.7354 1.98804 11.903 1.98804 12.1265C1.98804 12.3501 2.18404 12.5177 2.38004 12.5177Z" fill="#3952A8"/>
<path d="M3.47197 11.0927C3.75197 11.0927 3.94797 10.8692 3.94797 10.6177C3.94797 10.3662 3.72397 10.1427 3.47197 10.1427C3.19197 10.1427 2.99597 10.3662 2.99597 10.6177C2.99597 10.8692 3.21997 11.0927 3.47197 11.0927Z" fill="#3952A8"/>
<path d="M4.73204 9.77949C5.04004 9.77949 5.32004 9.52802 5.32004 9.19272C5.32004 8.88537 5.06804 8.60596 4.73204 8.60596C4.42404 8.60596 4.14404 8.85743 4.14404 9.19272C4.14404 9.52802 4.39604 9.77949 4.73204 9.77949Z" fill="#3952A8"/>
<path d="M6.10401 8.60594C6.46801 8.60594 6.77601 8.29859 6.77601 7.93536C6.77601 7.57212 6.46801 7.26477 6.10401 7.26477C5.74001 7.26477 5.43201 7.57212 5.43201 7.93536C5.43201 8.29859 5.74001 8.60594 6.10401 8.60594Z" fill="#3952A8"/>
<path d="M7.61603 7.59999C8.03603 7.59999 8.40003 7.26469 8.40003 6.81763C8.40003 6.39851 8.06403 6.03528 7.61603 6.03528C7.19603 6.03528 6.83203 6.37057 6.83203 6.81763C6.83203 7.23675 7.19603 7.59999 7.61603 7.59999Z" fill="#3952A8"/>
<path d="M9.23995 6.76178C9.71595 6.76178 10.1079 6.3706 10.1079 5.8956C10.1079 5.4206 9.71595 5.02942 9.23995 5.02942C8.76395 5.02942 8.37195 5.4206 8.37195 5.8956C8.37195 6.3706 8.76395 6.76178 9.23995 6.76178Z" fill="#3952A8"/>
<path d="M11.0039 6.14703C11.4799 6.14703 11.8719 5.78379 11.9559 5.33673C12.1519 5.61615 12.4599 5.78379 12.8239 5.78379C13.2439 5.78379 13.5799 5.56026 13.7759 5.19703C13.9999 5.47644 14.3359 5.67202 14.6999 5.67202C15.0359 5.67202 15.3439 5.53232 15.5679 5.28085C15.7919 5.5882 16.1559 5.81173 16.6039 5.81173C16.8559 5.81173 17.1079 5.72791 17.3319 5.5882C17.3879 5.67203 17.4439 5.72791 17.4999 5.78379C17.1919 5.81174 16.8839 5.95144 16.6879 6.17497C16.4359 5.95144 16.1279 5.81173 15.7919 5.81173C15.3439 5.81173 14.9519 6.03526 14.6999 6.37055C14.4759 6.20291 14.2239 6.09114 13.9159 6.09114C13.4119 6.09114 12.9639 6.3985 12.7679 6.81761C12.5719 6.67791 12.3479 6.62203 12.0959 6.62203C11.5359 6.62203 11.0599 7.0132 10.9199 7.54409C10.7519 7.43232 10.5559 7.37644 10.3319 7.37644C9.71594 7.37644 9.21194 7.87938 9.21194 8.49408C9.04394 8.41026 8.87594 8.35438 8.67993 8.35438C8.09194 8.35438 7.64393 8.82938 7.64393 9.3882C7.64393 9.49997 7.67194 9.58379 7.69993 9.66762C7.55994 9.58379 7.39194 9.52791 7.19594 9.52791C6.66394 9.52791 6.21594 9.97497 6.21594 10.5059C6.21594 11.0367 6.66394 11.4838 7.19594 11.4838C7.72794 11.4838 8.17594 11.0367 8.17594 10.5059C8.17594 10.422 8.17593 10.3382 8.14793 10.2544C8.31593 10.3661 8.51193 10.422 8.70793 10.422C9.26793 10.422 9.74393 9.97497 9.74393 9.41615C9.91193 9.52791 10.1359 9.58379 10.3319 9.58379C10.3599 9.58379 10.3599 9.58379 10.3879 9.58379C10.1639 9.80732 9.99593 10.0867 9.96793 10.422C9.88393 10.422 9.82793 10.3941 9.74393 10.3941C9.07193 10.3941 8.51194 10.9529 8.51194 11.6235C8.51194 11.6794 8.51194 11.7073 8.51194 11.7632C8.45594 11.7632 8.42794 11.7632 8.37194 11.7632C7.72794 11.7632 7.19594 12.2941 7.19594 12.9367C7.19594 13.0764 7.22394 13.1882 7.25194 13.3C7.22394 13.3 7.19594 13.3 7.19594 13.3C6.57994 13.3 6.10393 13.8029 6.10393 14.3897C6.10393 14.6132 6.15994 14.8088 6.27194 14.9764H6.24393C5.68393 14.9764 5.20793 15.4514 5.20793 16.0103C5.20793 16.3176 5.34793 16.5691 5.54393 16.7647C5.51593 16.7647 5.51593 16.7647 5.48793 16.7647C4.95593 16.7647 4.50793 17.2117 4.50793 17.7426C4.50793 18.2735 4.95593 18.7206 5.48793 18.7206C6.01993 18.7206 6.46793 18.3014 6.46793 17.7426C6.46793 17.4632 6.35593 17.2397 6.18793 17.0441C6.21593 17.0441 6.24393 17.0441 6.24393 17.0441C6.55193 17.0441 6.80394 16.9044 6.99993 16.7088V16.7367C6.99993 17.0161 7.08393 17.2397 7.22393 17.4353C6.77593 17.6029 6.46793 18.022 6.46793 18.497C6.46793 18.8323 6.63594 19.1397 6.85994 19.3632C6.49593 19.5308 6.21594 19.922 6.21594 20.3411C6.21594 20.7603 6.43993 21.1235 6.80393 21.2911C6.46793 21.4588 6.24393 21.7941 6.24393 22.2132C6.24393 22.6882 6.57994 23.1073 7.05594 23.2191C6.74794 23.3867 6.52393 23.6941 6.52393 24.0853C6.52393 24.6161 6.97193 25.0632 7.50393 25.0632C7.55993 25.0632 7.61594 25.0632 7.67194 25.0353C7.30794 25.147 7.02793 25.4823 7.02793 25.9014C7.02793 26.4044 7.44794 26.8235 7.95194 26.8235C8.45594 26.8235 8.87594 26.4044 8.87594 25.9014C8.87594 25.3985 8.45594 24.9794 7.95194 24.9794C7.89594 24.9794 7.83993 24.9794 7.78393 25.0073C8.17593 24.8956 8.48393 24.5323 8.48393 24.0853C8.48393 24.0573 8.48393 24.0294 8.48393 24.0294C8.62393 24.197 8.81994 24.3088 9.07194 24.3647C8.90394 24.5603 8.81993 24.7838 8.81993 25.0632C8.81993 25.65 9.29594 26.125 9.91194 26.125H9.93994C9.82794 26.2926 9.74393 26.4882 9.74393 26.7117C9.74393 27.2706 10.1919 27.7455 10.7799 27.7455C10.8919 27.7455 10.9759 27.7176 11.0879 27.6897C10.9759 27.8573 10.9199 28.025 10.9199 28.2206C10.9199 28.7514 11.3679 29.1985 11.8999 29.1985C12.1239 29.1985 12.3479 29.1147 12.5159 28.975C12.3759 29.1426 12.2919 29.3382 12.2919 29.5617C12.2919 30.0647 12.7119 30.4838 13.2159 30.4838C13.7199 30.4838 14.1399 30.0647 14.1399 29.5617C14.1399 29.3103 14.0279 29.0867 13.8879 28.9191C13.9999 28.9191 14.1399 28.8911 14.2519 28.8632C14.2519 29.3103 14.5039 29.6735 14.8679 29.8691C14.8119 29.8691 14.7559 29.8411 14.6999 29.8411C14.2239 29.8411 13.8319 30.2323 13.8319 30.7073C13.8319 31.1823 14.2239 31.5735 14.6999 31.5735C15.1759 31.5735 15.5679 31.1823 15.5679 30.7073C15.5679 30.372 15.3719 30.0926 15.1199 29.9529C15.2039 29.9808 15.2879 29.9808 15.3999 29.9808C15.6239 29.9808 15.8199 29.925 15.9879 29.8132C16.0439 30.372 16.4919 30.7911 17.0519 30.7911C17.3599 30.7911 17.6399 30.6514 17.8359 30.4558C17.9199 30.9308 18.3399 31.322 18.8439 31.322C19.2359 31.322 19.5719 31.0985 19.7399 30.7911C19.8239 31.2382 20.2159 31.5735 20.6919 31.5735C21.1959 31.5735 21.6159 31.1823 21.6439 30.7073C21.6719 31.1823 22.0639 31.5735 22.5679 31.5735C23.0719 31.5735 23.4919 31.1544 23.4919 30.6514C23.4919 30.1485 23.0999 29.7573 22.5959 29.7294C22.6799 29.6455 22.7359 29.5338 22.7919 29.422C22.9879 29.6455 23.2959 29.7573 23.6039 29.7573C23.7159 29.7573 23.8279 29.7294 23.9399 29.7014C23.7159 29.8691 23.5479 30.1205 23.5479 30.4279C23.5479 30.9029 23.9399 31.2941 24.4159 31.2941C24.8919 31.2941 25.2839 30.9029 25.2839 30.4279C25.2839 29.9529 24.8919 29.5617 24.4159 29.5617C24.3319 29.5617 24.2479 29.5897 24.1639 29.5897C24.4159 29.422 24.6119 29.1705 24.6679 28.8911C24.8639 29.0588 25.0879 29.1426 25.3679 29.1426C25.9559 29.1426 26.4599 28.6676 26.4599 28.0808V28.0529C26.6279 28.1647 26.8239 28.2485 27.0479 28.2485C27.6079 28.2485 28.0839 27.8014 28.0839 27.2147C28.0839 27.1029 28.0839 27.0191 28.0279 26.9073C28.1959 27.0191 28.3639 27.075 28.5599 27.075C29.0919 27.075 29.5399 26.6279 29.5399 26.097C29.5399 25.8735 29.4559 25.65 29.3159 25.4823C29.4839 25.622 29.6799 25.7058 29.9039 25.7058C30.4079 25.7058 30.8279 25.2867 30.8279 24.7838C30.8279 24.2808 30.4079 23.8617 29.9039 23.8617C29.6519 23.8617 29.4279 23.9455 29.2599 24.1132C29.2599 24.0014 29.2319 23.8617 29.2039 23.75C29.6519 23.75 30.0159 23.4985 30.2119 23.1353C30.2119 23.1911 30.1839 23.247 30.1839 23.3029C30.1839 23.7779 30.5759 24.1691 31.0519 24.1691C31.5279 24.1691 31.9199 23.7779 31.9199 23.3029C31.9199 22.8279 31.5279 22.4367 31.0519 22.4367C30.7159 22.4367 30.4359 22.6323 30.2959 22.8838C30.3239 22.8 30.3239 22.7161 30.3239 22.6044C30.3239 22.3808 30.2679 22.1853 30.1559 22.0176C30.7159 21.9617 31.1359 21.5147 31.1359 20.9558C31.1359 20.6485 30.9959 20.3691 30.7999 20.1735C31.2759 20.0897 31.6679 19.6706 31.6679 19.1676C31.6679 18.7764 31.4439 18.4411 31.1359 18.2735C31.5839 18.1897 31.9199 17.7985 31.9199 17.3235C31.9199 16.8206 31.5279 16.4014 31.0519 16.3735C31.5279 16.3456 31.9199 15.9544 31.9199 15.4514C31.9199 14.9485 31.4999 14.5294 30.9959 14.5294C30.4919 14.5294 30.0719 14.9485 30.0719 15.4514C30.0719 15.9264 30.4359 16.3176 30.8839 16.3735C30.3799 16.4014 29.9879 16.8206 29.9879 17.3514C29.9879 17.7147 30.1839 18.022 30.4919 18.1897C30.0159 18.2735 29.6519 18.6926 29.6519 19.1956C29.6519 19.475 29.7639 19.7264 29.9599 19.922C29.4279 20.0058 29.0359 20.4529 29.0359 20.9838C29.0359 21.1794 29.0919 21.375 29.1759 21.5147C28.5879 21.5426 28.1119 22.0456 28.1119 22.6323C28.1119 22.7441 28.1399 22.8559 28.1679 22.9676C28.1399 22.9676 28.1399 22.9676 28.1119 22.9676C27.4679 22.9676 26.9359 23.4985 26.9359 24.1411C26.9359 24.1691 26.9359 24.197 26.9359 24.225C26.8799 24.225 26.8239 24.197 26.7399 24.197C26.1239 24.197 25.6199 24.6441 25.5359 25.2588C25.4239 25.2308 25.3119 25.2029 25.1999 25.2029C24.6959 25.2029 24.2479 25.5103 24.0519 25.9294C23.7999 25.7338 23.4639 25.622 23.1279 25.7058C22.7639 25.7897 22.4559 26.0132 22.3159 26.3485C22.0639 26.097 21.6999 25.9573 21.3359 25.9853C20.9719 26.0411 20.6639 26.2647 20.4959 26.572C20.2999 26.3206 19.9639 26.1529 19.6279 26.1529C19.2919 26.1529 19.0119 26.2926 18.7879 26.5161C18.6479 26.2367 18.3959 25.9853 18.0879 25.9014C17.7519 25.7897 17.3879 25.8735 17.1079 26.0691C17.0239 25.7338 16.8279 25.4544 16.4919 25.2867C16.1839 25.147 15.8199 25.147 15.5399 25.2867C15.5399 24.9794 15.3999 24.6441 15.1199 24.4485C14.8679 24.2529 14.5319 24.1691 14.2239 24.225C14.3079 23.9176 14.2239 23.5823 14.0279 23.3029C13.8039 23.0235 13.4679 22.8558 13.1319 22.8558C13.2719 22.5485 13.2719 22.1853 13.1039 21.8779C12.9639 21.5985 12.6839 21.4029 12.4039 21.3191C12.5999 21.0955 12.6839 20.7603 12.6279 20.4529C12.5719 20.1176 12.3479 19.8103 12.0679 19.6426C12.3479 19.4191 12.5159 19.1117 12.5159 18.7206C12.5159 18.3853 12.3759 18.0779 12.1239 17.8823C12.4039 17.7426 12.6279 17.4911 12.7119 17.1558C12.7959 16.8206 12.7119 16.4853 12.5439 16.2338C12.8519 16.1779 13.1039 15.9823 13.2719 15.7029C13.4399 15.3956 13.4679 15.0603 13.3559 14.7529C13.6919 14.7808 14.0279 14.6411 14.2519 14.3897C14.4759 14.1382 14.5879 13.8029 14.5319 13.4676C14.8399 13.5514 15.1759 13.4956 15.4559 13.3C15.7359 13.1044 15.9039 12.797 15.9319 12.4897C16.2119 12.6294 16.5759 12.6573 16.8839 12.5456C17.1919 12.4058 17.4159 12.1823 17.4999 11.9029C17.7239 12.0985 18.0319 12.2103 18.3679 12.1823C18.7319 12.1544 19.0399 11.9588 19.2079 11.6514C19.4039 11.9309 19.6839 12.0985 20.0479 12.1264C20.3839 12.1544 20.6919 12.0147 20.9159 11.8191C21.0279 12.1264 21.2799 12.35 21.6159 12.4617C21.9519 12.5735 22.3159 12.5176 22.5959 12.322C22.6519 12.6573 22.8479 12.9367 23.1559 13.1044C23.4079 13.2441 23.6879 13.272 23.9679 13.2161C23.9959 13.272 24.0239 13.3 24.0519 13.3279C24.0799 13.5794 24.1639 13.8029 24.3319 13.9985L24.3599 14.0264C24.9479 14.6411 26.2639 16.0941 26.0119 18.05C25.9559 18.525 26.2359 18.7764 26.5719 18.4132C28.6999 16.122 28.3639 13.3279 28.3079 12.9926C28.3079 12.7691 28.2519 12.5735 28.1679 12.3779C28.1959 12.2661 28.1959 12.1264 28.1959 12.0147C28.1959 11.4279 27.9159 10.897 27.4679 10.5617C27.4959 10.45 27.4959 10.3382 27.4959 10.2264C27.4959 9.49997 27.0479 8.88526 26.4039 8.60585C26.3759 7.79555 25.7879 7.12497 25.0039 6.98526C24.8639 6.25879 24.2199 5.69997 23.4359 5.69997C23.4079 5.69997 23.3799 5.69997 23.3519 5.69997C23.1559 5.1132 22.5959 4.66615 21.9239 4.66615C21.7839 4.66615 21.6719 4.69408 21.5599 4.72202C21.3359 4.21908 20.8319 3.88379 20.2719 3.88379C20.0479 3.88379 19.8239 3.93967 19.6559 4.0235C19.4319 3.63232 18.9839 3.35291 18.5079 3.35291C18.1999 3.35291 17.8919 3.46467 17.6679 3.63232C17.4439 3.32497 17.0799 3.10144 16.6599 3.10144C16.2679 3.10144 15.9039 3.29702 15.6799 3.57644C15.4559 3.32496 15.1479 3.15732 14.7839 3.15732C14.3079 3.15732 13.9159 3.43674 13.7199 3.82791C13.5239 3.60438 13.2439 3.46467 12.9079 3.46467C12.3479 3.46467 11.8999 3.88379 11.8439 4.41467C11.6759 4.19114 11.3959 4.0235 11.0879 4.0235C10.5559 4.0235 10.1359 4.44261 10.1359 4.97349C10.0239 5.72791 10.4719 6.14703 11.0039 6.14703Z" fill="#3952A8"/>
<path d="M4.50795 31.0427C4.47995 31.0427 4.42395 31.0707 4.42395 31.1265C4.42395 31.1545 4.45195 31.2104 4.50795 31.2104C4.56395 31.2104 4.59195 31.1824 4.59195 31.1265C4.56395 31.0707 4.53595 31.0427 4.50795 31.0427Z" fill="#3952A8"/>
<path d="M3.64 29.3103C3.556 29.3103 3.5 29.3662 3.5 29.45C3.5 29.5338 3.556 29.5897 3.64 29.5897C3.724 29.5897 3.78 29.5338 3.78 29.45C3.78 29.3662 3.696 29.3103 3.64 29.3103Z" fill="#3952A8"/>
<path d="M2.93994 27.4941C2.82794 27.4941 2.71594 27.6059 2.71594 27.7177C2.71594 27.8294 2.82794 27.9412 2.93994 27.9412C3.05194 27.9412 3.16394 27.8294 3.16394 27.7177C3.16394 27.6059 3.05194 27.4941 2.93994 27.4941Z" fill="#3952A8"/>
<path d="M2.43593 25.6221C2.26793 25.6221 2.12793 25.7618 2.12793 25.9294C2.12793 26.0971 2.26793 26.2368 2.43593 26.2368C2.60393 26.2368 2.74393 26.0971 2.74393 25.9294C2.71593 25.7338 2.57593 25.6221 2.43593 25.6221Z" fill="#3952A8"/>
<path d="M2.49204 24.0573C2.49204 23.8617 2.32404 23.6941 2.12804 23.6941C1.93204 23.6941 1.76404 23.8617 1.76404 24.0573C1.76404 24.2529 1.93204 24.4206 2.12804 24.4206C2.32404 24.4206 2.49204 24.2529 2.49204 24.0573Z" fill="#3952A8"/>
<path d="M2.43604 22.1853C2.43604 21.9339 2.24004 21.7383 1.98804 21.7383C1.73604 21.7383 1.54004 21.9339 1.54004 22.1853C1.54004 22.4368 1.73604 22.6324 1.98804 22.6324C2.24004 22.6324 2.43604 22.4368 2.43604 22.1853Z" fill="#3952A8"/>
<path d="M1.54004 20.3132C1.54004 20.5926 1.76404 20.8441 2.07204 20.8441C2.35204 20.8441 2.60404 20.6206 2.60404 20.3132C2.60404 20.0338 2.38004 19.7823 2.07204 19.7823C1.79204 19.7823 1.54004 20.0338 1.54004 20.3132Z" fill="#3952A8"/>
<path d="M2.35204 19.0559C2.68804 19.0559 2.94004 18.7764 2.94004 18.4691C2.94004 18.1338 2.66004 17.8823 2.35204 17.8823C2.01604 17.8823 1.76404 18.1617 1.76404 18.4691C1.76404 18.7764 2.01604 19.0559 2.35204 19.0559Z" fill="#3952A8"/>
<path d="M2.88404 15.9824C2.52004 15.9824 2.21204 16.2898 2.21204 16.653C2.21204 17.0162 2.52004 17.3236 2.88404 17.3236C3.24804 17.3236 3.55604 17.0162 3.55604 16.653C3.55604 16.2898 3.24804 15.9824 2.88404 15.9824Z" fill="#3952A8"/>
<path d="M3.61196 15.6751C4.03196 15.6751 4.36796 15.3398 4.36796 14.9207C4.36796 14.5015 4.03196 14.1663 3.61196 14.1663C3.19196 14.1663 2.85596 14.5015 2.85596 14.9207C2.88396 15.3398 3.21996 15.6751 3.61196 15.6751Z" fill="#3952A8"/>
<path d="M4.59203 14.1383C5.04003 14.1383 5.40403 13.7751 5.40403 13.328C5.40403 12.8809 5.04003 12.5177 4.59203 12.5177C4.14403 12.5177 3.78003 12.8809 3.78003 13.328C3.78003 13.7751 4.14403 14.1383 4.59203 14.1383Z" fill="#3952A8"/>
<path d="M6.66395 11.8471C6.66395 11.3442 6.27195 10.953 5.76795 10.953C5.26395 10.953 4.87195 11.3442 4.87195 11.8471C4.87195 12.3501 5.26395 12.7412 5.76795 12.7412C6.24395 12.7412 6.66395 12.3501 6.66395 11.8471Z" fill="#3952A8"/>
<path d="M52.8079 26.1529C51.8279 26.1529 50.9039 25.9574 50.0359 25.5941C49.1679 25.2309 48.4119 24.7 47.7679 24.0574C47.1239 23.4147 46.6199 22.6603 46.2559 21.7941C45.8919 20.9279 45.6959 20.0059 45.6959 19.0279C45.6959 18.05 45.8919 17.1 46.2559 16.2338C46.6199 15.3676 47.1239 14.6132 47.7679 13.9706C48.4119 13.3279 49.1679 12.7971 50.0359 12.4338C50.9039 12.0426 51.8279 11.875 52.8079 11.875C53.7879 11.875 54.7399 12.0706 55.6079 12.4618C56.4759 12.8529 57.2319 13.3838 57.9039 14.0544C58.0439 14.1941 58.1559 14.3618 58.2119 14.5853C58.2959 14.8368 58.2679 15.0603 58.1279 15.2838C57.9599 15.5353 57.7359 15.6471 57.4279 15.675C57.0919 15.675 56.8679 15.5912 56.6719 15.3956C56.1959 14.9765 55.5799 14.5853 54.9079 14.2221C54.2639 13.8868 53.5359 13.7191 52.8079 13.7191C52.0799 13.7191 51.3799 13.8588 50.7359 14.1382C50.0919 14.4176 49.5319 14.8088 49.0559 15.2838C48.5799 15.7868 48.2159 16.3456 47.9359 16.9882C47.6559 17.6309 47.5159 18.3294 47.5159 19.0559C47.5159 19.7824 47.6559 20.4809 47.9359 21.1235C48.2159 21.7662 48.5799 22.325 49.0559 22.8C49.5319 23.275 50.0919 23.6662 50.7359 23.9456C51.3799 24.225 52.0799 24.3647 52.8079 24.3647C53.5639 24.3647 54.2919 24.225 54.9639 23.9176C55.6359 23.6382 56.1959 23.2191 56.6999 22.6882C56.8399 22.5206 57.0359 22.4088 57.2599 22.3529C57.3439 22.325 57.3999 22.325 57.4839 22.325C57.6519 22.325 57.8199 22.3809 57.9599 22.4647C58.1839 22.6603 58.2959 22.9118 58.2959 23.1912C58.2959 23.4706 58.2119 23.7221 58.0439 23.9176C57.3999 24.6441 56.6159 25.2029 55.7199 25.5941C54.8239 25.9294 53.8439 26.1529 52.8079 26.1529Z" fill="#3952A8"/>
<path d="M67.704 26.125C66.724 26.125 65.8 25.9294 64.932 25.5662C64.064 25.203 63.308 24.6721 62.664 24.0574C62.02 23.4147 61.516 22.6603 61.152 21.7941C60.788 20.928 60.592 20.0059 60.592 19.028C60.592 18.05 60.788 17.128 61.152 16.2618C61.516 15.3956 62.048 14.6412 62.664 13.9985C63.308 13.3559 64.064 12.853 64.932 12.4618C65.8 12.0985 66.724 11.903 67.704 11.903C68.684 11.903 69.608 12.0985 70.476 12.4618C71.344 12.825 72.1 13.3559 72.744 13.9985C73.388 14.6412 73.892 15.3956 74.284 16.2618C74.648 17.128 74.844 18.05 74.844 19.028C74.844 20.0059 74.648 20.928 74.284 21.7941C73.92 22.6603 73.388 23.4147 72.744 24.0574C72.1 24.7 71.344 25.203 70.476 25.5662C69.608 25.9294 68.684 26.125 67.704 26.125ZM67.704 13.7191C66.976 13.7191 66.276 13.8588 65.632 14.1382C64.988 14.4177 64.428 14.7809 63.952 15.2559C63.476 15.7309 63.084 16.3177 62.832 16.9603C62.552 17.603 62.412 18.3015 62.412 19.028C62.412 19.7544 62.552 20.453 62.832 21.0956C63.112 21.7382 63.476 22.2971 63.952 22.7721C64.428 23.2471 64.988 23.6103 65.632 23.8897C66.276 24.1691 66.976 24.3088 67.704 24.3088C68.432 24.3088 69.132 24.1691 69.776 23.8897C70.42 23.6103 70.98 23.2471 71.456 22.7721C71.932 22.2971 72.324 21.7382 72.604 21.0956C72.884 20.453 73.024 19.7544 73.024 19.028C73.024 18.3015 72.884 17.603 72.604 16.9603C72.324 16.3177 71.96 15.7588 71.456 15.2559C70.98 14.7809 70.42 14.3897 69.776 14.1382C69.132 13.8588 68.432 13.7191 67.704 13.7191Z" fill="#3952A8"/>
<path d="M87.444 26.1529C87.192 26.1529 86.968 26.0691 86.8 25.8735C86.632 25.7059 86.52 25.4823 86.52 25.2309V17.1C86.52 16.625 86.436 16.2059 86.24 15.7867C86.072 15.3676 85.82 15.0044 85.484 14.697C85.176 14.3897 84.784 14.1382 84.392 13.9426C83.972 13.775 83.524 13.6632 83.076 13.6632C82.6 13.6632 82.152 13.747 81.76 13.9426C81.34 14.1103 80.976 14.3617 80.668 14.697C80.36 15.0044 80.108 15.3956 79.94 15.7867C79.772 16.2059 79.66 16.6529 79.66 17.1V25.2309C79.66 25.4823 79.576 25.7059 79.38 25.8735C79.212 26.0412 78.988 26.125 78.736 26.125C78.484 26.125 78.26 26.0412 78.092 25.8456C77.924 25.6779 77.812 25.4544 77.812 25.2029V17.072C77.812 16.3456 77.952 15.675 78.232 15.0323C78.512 14.3897 78.876 13.8309 79.352 13.3559C79.828 12.8809 80.388 12.4897 81.032 12.2382C81.676 11.9588 82.348 11.8191 83.076 11.8191C83.804 11.8191 84.476 11.9588 85.12 12.2382C85.764 12.5176 86.324 12.8809 86.8 13.3559C87.276 13.8309 87.668 14.3897 87.92 15.0323C88.2 15.675 88.34 16.3735 88.34 17.072V25.2029C88.34 25.4544 88.256 25.6779 88.088 25.8456C87.92 26.0691 87.696 26.1529 87.444 26.1529Z" fill="#3952A8"/>
<path d="M96.4599 26.153C95.7599 26.153 95.0879 26.0412 94.4719 25.8177C93.8559 25.5942 93.2959 25.2868 92.8479 24.8677C92.3719 24.4765 92.0079 24.0015 91.7279 23.4707C91.4479 22.9398 91.3359 22.353 91.3359 21.7383C91.3359 21.5148 91.4199 21.2912 91.5879 21.1236C91.7559 20.956 91.9799 20.8721 92.2039 20.8721C92.4559 20.8721 92.6519 20.956 92.8199 21.1236C92.9879 21.2912 93.0719 21.4868 93.0719 21.7383C93.0719 22.1015 93.1559 22.4368 93.3239 22.7442C93.4919 23.0515 93.7159 23.3309 94.0239 23.5824C94.3319 23.8059 94.6679 24.0015 95.0879 24.1412C95.5079 24.2809 95.9559 24.3648 96.4319 24.3648C96.9079 24.3648 97.3559 24.2809 97.7759 24.1412C98.1959 24.0015 98.5599 23.8059 98.8679 23.5545C99.1759 23.3309 99.4279 23.0515 99.5959 22.7162C99.7639 22.4089 99.8199 22.0736 99.8199 21.7104C99.7919 21.3751 99.6799 21.0677 99.5119 20.7883C99.3159 20.4809 99.0919 20.2295 98.7839 19.978C98.5039 19.7545 98.1399 19.5589 97.7479 19.3912C97.3559 19.2236 96.9639 19.1118 96.5159 19.056C95.8999 19.028 95.3119 18.8883 94.7239 18.6927C94.1639 18.4971 93.6319 18.2457 93.2119 17.9383C92.7639 17.631 92.3999 17.2677 92.1479 16.8486C91.8679 16.4295 91.7279 15.9265 91.7279 15.4236C91.7279 14.8927 91.8679 14.4177 92.1199 13.9707C92.3719 13.5236 92.7359 13.1324 93.1559 12.8251C93.5759 12.4898 94.1079 12.2383 94.6959 12.0427C95.2839 11.8471 95.8999 11.7633 96.5439 11.7633C97.1879 11.7633 97.8319 11.8471 98.3919 12.0427C98.9799 12.2383 99.4839 12.4898 99.9319 12.8251C100.38 13.1604 100.716 13.5515 100.968 13.9707C101.22 14.4177 101.36 14.8927 101.36 15.4236C101.36 15.6751 101.276 15.8986 101.08 16.0662C100.912 16.2339 100.688 16.3457 100.436 16.3457C100.184 16.3457 99.9599 16.2618 99.7919 16.0662C99.6239 15.8986 99.5399 15.6471 99.5119 15.3677C99.5119 15.1442 99.4279 14.9486 99.2879 14.753C99.1199 14.5295 98.9239 14.3618 98.6439 14.1942C98.3639 14.0265 98.0559 13.8868 97.6919 13.7751C97.3279 13.6633 96.9359 13.6354 96.5159 13.6354C96.0959 13.6354 95.7039 13.6912 95.3119 13.7751C94.9479 13.8868 94.6119 13.9986 94.3599 14.1942C94.1079 14.3618 93.8839 14.5574 93.7439 14.8089C93.6039 15.0324 93.5199 15.2559 93.5199 15.4795C93.5199 15.703 93.6039 15.8986 93.7719 16.0942C93.9679 16.3177 94.2199 16.4854 94.4999 16.653C94.8079 16.8207 95.1439 16.9604 95.5079 17.0721C95.8719 17.1839 96.2079 17.2677 96.5159 17.2957C97.1879 17.3795 97.8319 17.5192 98.4479 17.7707C99.0639 18.0221 99.5959 18.3295 100.044 18.6927C100.492 19.0839 100.856 19.531 101.136 20.0339C101.388 20.5368 101.528 21.1236 101.528 21.7104C101.528 22.3251 101.388 22.9118 101.136 23.4427C100.884 23.9736 100.492 24.4486 100.016 24.8398C99.5399 25.2309 99.0079 25.5383 98.3919 25.7618C97.8319 26.0412 97.1599 26.153 96.4599 26.153Z" fill="#3952A8"/>
<path d="M105.7 26.1529C105.448 26.1529 105.224 26.0691 105.056 25.8735C104.888 25.7059 104.776 25.4823 104.776 25.2309V12.7412C104.776 12.4897 104.86 12.2662 105.056 12.0985C105.224 11.9309 105.448 11.8191 105.7 11.8191H113.344C113.596 11.8191 113.82 11.9029 113.988 12.0985C114.156 12.2662 114.24 12.4897 114.24 12.7412C114.24 12.9926 114.156 13.2162 113.988 13.3838C113.82 13.5514 113.596 13.6632 113.344 13.6632H106.624V18.05H111.384C111.636 18.05 111.86 18.1338 112.028 18.3294C112.196 18.497 112.308 18.7206 112.308 18.972C112.308 19.2235 112.224 19.447 112.028 19.6147C111.86 19.7823 111.636 19.8662 111.384 19.8662H106.624V24.3367H113.344C113.596 24.3367 113.82 24.4206 113.988 24.6162C114.156 24.7838 114.24 25.0073 114.24 25.2588C114.24 25.5103 114.156 25.7338 113.988 25.9015C113.82 26.0691 113.596 26.1809 113.344 26.1809H105.7V26.1529Z" fill="#3952A8"/>
<path d="M126.336 26.1529C126.084 26.1529 125.86 26.0691 125.692 25.9015C125.524 25.7338 125.412 25.5103 125.412 25.2588V17.1279C125.412 16.6529 125.328 16.2338 125.132 15.8147C124.964 15.3956 124.712 15.0324 124.376 14.725C124.068 14.4177 123.676 14.1662 123.284 13.9706C122.864 13.8029 122.416 13.6912 121.968 13.6912C121.492 13.6912 121.044 13.775 120.652 13.9706C120.232 14.1382 119.868 14.3897 119.56 14.725C119.252 15.0324 119 15.4235 118.832 15.8147C118.664 16.2338 118.552 16.6809 118.552 17.1279V25.2588C118.552 25.5103 118.468 25.7338 118.272 25.9015C118.104 26.0691 117.88 26.1529 117.628 26.1529C117.376 26.1529 117.152 26.0691 116.984 25.9015C116.816 25.7338 116.732 25.5103 116.732 25.2588V17.1279C116.732 16.4015 116.872 15.7309 117.152 15.0882C117.432 14.4456 117.796 13.8868 118.272 13.4118C118.748 12.9368 119.308 12.5456 119.952 12.2941C120.596 12.0147 121.296 11.875 121.996 11.875C122.724 11.875 123.396 12.0147 124.04 12.2941C124.656 12.5735 125.244 12.9368 125.72 13.4118C126.196 13.8868 126.588 14.4456 126.84 15.0882C127.12 15.7309 127.26 16.4294 127.26 17.1279V25.2588C127.26 25.5103 127.176 25.7338 127.008 25.9015C126.812 26.0691 126.588 26.1529 126.336 26.1529Z" fill="#3952A8"/>
<path d="M135.352 26.153C134.652 26.153 133.98 26.0413 133.364 25.8177C132.748 25.5942 132.188 25.2868 131.74 24.8677C131.264 24.4766 130.9 24.0016 130.62 23.4707C130.34 22.9398 130.228 22.353 130.228 21.7383C130.228 21.5148 130.312 21.2913 130.48 21.1236C130.648 20.956 130.872 20.8721 131.096 20.8721C131.348 20.8721 131.544 20.956 131.712 21.1236C131.88 21.2913 131.964 21.5148 131.964 21.7383C131.964 22.1015 132.048 22.4368 132.216 22.7442C132.384 23.0515 132.608 23.3589 132.916 23.5824C133.224 23.8339 133.588 24.0016 133.98 24.1692C134.4 24.3089 134.848 24.3927 135.324 24.3927C135.8 24.3927 136.248 24.3089 136.668 24.1692C137.088 24.0295 137.452 23.8339 137.76 23.5824C138.068 23.3589 138.32 23.0515 138.488 22.7442C138.656 22.4368 138.712 22.1015 138.684 21.7383C138.656 21.403 138.544 21.0957 138.376 20.8163C138.18 20.5089 137.956 20.2574 137.648 20.006C137.368 19.7824 137.004 19.5868 136.612 19.4192C136.22 19.2516 135.828 19.1398 135.38 19.0839C134.764 19.056 134.176 18.9163 133.616 18.7207C133.056 18.5251 132.524 18.2736 132.104 17.9663C131.656 17.6589 131.292 17.2957 131.04 16.8765C130.76 16.4574 130.62 15.9545 130.62 15.4515C130.62 14.9486 130.76 14.4457 131.012 13.9986C131.264 13.5516 131.628 13.1604 132.076 12.853C132.524 12.5177 133.028 12.2663 133.588 12.0707C134.176 11.8751 134.792 11.7913 135.436 11.7913C136.08 11.7913 136.724 11.8751 137.284 12.0707C137.872 12.2663 138.376 12.5177 138.824 12.853C139.272 13.1883 139.608 13.5795 139.86 13.9986C140.112 14.4457 140.252 14.9486 140.252 15.4515C140.252 15.703 140.168 15.9266 139.972 16.0942C139.804 16.2618 139.58 16.3736 139.328 16.3736C139.076 16.3736 138.852 16.2898 138.684 16.0942C138.516 15.9266 138.432 15.6751 138.432 15.3957C138.432 15.1721 138.348 14.9765 138.208 14.781C138.068 14.5574 137.844 14.3898 137.564 14.2221C137.284 14.0545 136.976 13.9148 136.612 13.803C136.248 13.6913 135.856 13.6633 135.436 13.6633C135.016 13.6633 134.624 13.7192 134.232 13.803C133.868 13.9148 133.532 14.0265 133.28 14.2221C133.028 14.3898 132.804 14.5854 132.664 14.8368C132.524 15.0604 132.44 15.2839 132.44 15.5074C132.44 15.731 132.524 15.9266 132.692 16.1221C132.888 16.3457 133.14 16.5133 133.42 16.681C133.728 16.8486 134.064 16.9883 134.428 17.1001C134.764 17.2118 135.128 17.2957 135.436 17.3236C136.108 17.4074 136.752 17.5471 137.368 17.7986C137.984 18.0501 138.516 18.3574 138.964 18.7207C139.412 19.1118 139.776 19.5589 140.028 20.0618C140.28 20.5648 140.42 21.1515 140.42 21.7383C140.42 22.353 140.28 22.9398 140.028 23.4707C139.776 24.0016 139.384 24.4766 138.908 24.8677C138.432 25.2589 137.9 25.5663 137.284 25.7898C136.724 26.0413 136.052 26.153 135.352 26.153Z" fill="#3952A8"/>
<path d="M149.156 26.1529C148.904 26.1529 148.68 26.0691 148.512 25.9015C148.344 25.7338 148.232 25.5103 148.232 25.2588V20.5926L142.576 13.3279C142.436 13.1323 142.352 12.9088 142.38 12.6573C142.408 12.4059 142.52 12.2103 142.716 12.0426C142.884 11.9029 143.08 11.847 143.304 11.847C143.612 11.875 143.836 11.9868 144.004 12.1823L149.184 18.8044L154.448 12.1823C154.616 11.9868 154.812 11.875 155.064 11.847H155.092C155.372 11.847 155.568 11.9029 155.736 12.0426C155.932 12.2103 156.044 12.4059 156.072 12.6573C156.1 12.9088 156.016 13.1323 155.876 13.3279L150.136 20.5926V25.2588C150.136 25.5103 150.052 25.7338 149.884 25.9015C149.632 26.0691 149.408 26.1529 149.156 26.1529Z" fill="#3952A8"/>
<path d="M162.932 26.153C162.232 26.153 161.56 26.0412 160.944 25.8177C160.328 25.5942 159.768 25.2868 159.32 24.8677C158.844 24.4765 158.48 24.0015 158.2 23.4707C157.92 22.9398 157.808 22.353 157.808 21.7383C157.808 21.5148 157.892 21.2912 158.06 21.1236C158.228 20.956 158.452 20.8721 158.676 20.8721C158.9 20.8721 159.124 20.956 159.292 21.1236C159.46 21.2912 159.544 21.5148 159.544 21.7383C159.544 22.1015 159.628 22.4368 159.796 22.7442C159.964 23.0515 160.188 23.3309 160.496 23.5824C160.804 23.8059 161.168 24.0015 161.56 24.1412C161.98 24.2809 162.428 24.3648 162.904 24.3648C163.38 24.3648 163.828 24.2809 164.248 24.1412C164.668 24.0015 165.032 23.8059 165.34 23.5545C165.648 23.3309 165.9 23.0236 166.068 22.7162C166.236 22.4089 166.292 22.0736 166.264 21.7104C166.236 21.3751 166.124 21.0677 165.956 20.7883C165.76 20.4809 165.536 20.2295 165.228 19.978C164.948 19.7545 164.584 19.5589 164.192 19.3912C163.8 19.2236 163.408 19.1118 162.96 19.056C162.344 19.028 161.756 18.8883 161.168 18.6927C160.608 18.4971 160.076 18.2457 159.656 17.9383C159.208 17.631 158.844 17.2677 158.592 16.8486C158.312 16.4295 158.172 15.9265 158.172 15.4236C158.172 14.9207 158.312 14.4177 158.564 13.9707C158.816 13.5236 159.18 13.1324 159.628 12.8251C160.048 12.4898 160.58 12.2383 161.14 12.0427C161.728 11.8471 162.344 11.7633 162.988 11.7633C163.632 11.7633 164.276 11.8471 164.836 12.0427C165.424 12.2383 165.928 12.4898 166.348 12.8251C166.796 13.1604 167.132 13.5236 167.412 13.9707C167.664 14.4177 167.804 14.9207 167.804 15.4236C167.804 15.6751 167.72 15.8986 167.524 16.0662C167.356 16.2339 167.132 16.3457 166.88 16.3457C166.628 16.3457 166.404 16.2618 166.236 16.0662C166.068 15.8986 165.984 15.6471 165.956 15.3677C165.956 15.1442 165.872 14.9486 165.732 14.753C165.564 14.5295 165.368 14.3618 165.088 14.1942C164.808 14.0265 164.5 13.8868 164.136 13.7751C163.772 13.6633 163.38 13.6354 162.96 13.6354C162.54 13.6354 162.148 13.6912 161.756 13.7751C161.392 13.8868 161.056 13.9986 160.804 14.1942C160.552 14.3618 160.328 14.5574 160.188 14.8089C160.048 15.0324 159.964 15.2559 159.964 15.4795C159.964 15.703 160.048 15.8986 160.216 16.0942C160.412 16.3177 160.664 16.4854 160.944 16.653C161.252 16.8207 161.588 16.9604 161.952 17.0721C162.316 17.1839 162.652 17.2677 162.96 17.2957C163.632 17.3795 164.276 17.5192 164.892 17.7707C165.508 18.0221 166.04 18.3295 166.488 18.6927C166.936 19.0839 167.3 19.531 167.552 20.0339C167.804 20.5368 167.944 21.0957 167.944 21.7104C167.944 22.3251 167.804 22.9118 167.552 23.4427C167.3 23.9736 166.908 24.4486 166.432 24.8398C165.956 25.2309 165.424 25.5383 164.808 25.7618C164.304 26.0412 163.632 26.153 162.932 26.153Z" fill="#3952A8"/>
</g>
<defs>
<clipPath id="clip0_51_864">
<rect width="168" height="38" fill="white"/>
</clipPath>
</defs>
</svg>
