<svg width="164" height="30" viewBox="0 0 164 30" fill="none" xmlns="http://www.w3.org/2000/svg">
<path fill-rule="evenodd" clip-rule="evenodd" d="M160.352 24.0691V23.6201H160.64C160.797 23.6201 161.011 23.6321 161.011 23.8241C161.011 24.0321 160.901 24.0691 160.715 24.0691H160.352ZM160.352 24.3841H160.544L160.991 25.1681H161.481L160.987 24.3521C161.242 24.3331 161.452 24.2121 161.452 23.8681C161.452 23.4411 161.157 23.3031 160.659 23.3031H159.938V25.1681H160.352V24.3841ZM162.45 24.2381C162.45 23.1431 161.599 22.5081 160.65 22.5081C159.695 22.5081 158.845 23.1431 158.845 24.2381C158.845 25.3331 159.695 25.9711 160.65 25.9711C161.598 25.9711 162.45 25.3331 162.45 24.2381ZM161.93 24.2381C161.93 25.0361 161.343 25.5721 160.65 25.5721V25.5661C159.937 25.5721 159.361 25.0361 159.361 24.2381C159.361 23.4411 159.938 22.9071 160.65 22.9071C161.344 22.9071 161.93 23.4411 161.93 24.2381Z" fill="black"/>
<path fill-rule="evenodd" clip-rule="evenodd" d="M96.374 5.70705L96.376 25.3671H101.928V5.70705H96.374ZM52.697 5.68105V25.3671H58.3V10.0861L62.67 10.1001C64.107 10.1001 65.1 10.4451 65.793 11.1841C66.672 12.1201 67.03 13.6281 67.03 16.3891V25.3671H72.457V14.4901C72.457 6.72705 67.509 5.68005 62.668 5.68005H52.698L52.697 5.68105ZM105.314 5.70805V25.3671H114.32C119.118 25.3671 120.684 24.5691 122.377 22.7801C123.575 21.5241 124.348 18.7661 124.348 15.7531C124.348 12.9901 123.693 10.5251 122.551 8.99005C120.494 6.24505 117.531 5.70805 113.106 5.70805H105.314ZM110.822 9.98805H113.209C116.672 9.98805 118.912 11.5441 118.912 15.5791C118.912 19.6161 116.672 21.1711 113.209 21.1711H110.822V9.98805ZM88.369 5.70805L83.735 21.2881L79.295 5.70905L73.302 5.70805L79.642 25.3671H87.645L94.036 5.70805H88.369ZM126.932 25.3671H132.485V5.70905L126.93 5.70805L126.932 25.3671ZM142.496 5.71505L134.743 25.3601H140.218L141.445 21.8881H150.62L151.781 25.3601H157.725L149.913 5.71405L142.496 5.71505ZM146.1 9.30005L149.464 18.5041H142.631L146.1 9.30005Z" fill="black"/>
<path fill-rule="evenodd" clip-rule="evenodd" d="M16.889 8.985V6.28C17.151 6.26 17.417 6.247 17.687 6.238C25.087 6.006 29.942 12.597 29.942 12.597C29.942 12.597 24.698 19.879 19.076 19.879C18.333 19.882 17.594 19.764 16.889 19.529V11.325C19.769 11.673 20.349 12.945 22.081 15.833L25.933 12.585C25.933 12.585 23.121 8.897 18.381 8.897C17.866 8.897 17.373 8.933 16.889 8.985ZM16.889 0.0469971V4.09C17.154 4.069 17.42 4.052 17.687 4.042C27.977 3.696 34.682 12.482 34.682 12.482C34.682 12.482 26.982 21.846 18.959 21.846C18.224 21.846 17.535 21.778 16.889 21.663V24.161C17.442 24.231 18.015 24.273 18.613 24.273C26.078 24.273 31.477 20.461 36.705 15.948C37.572 16.642 41.121 18.331 41.85 19.071C36.879 23.231 25.295 26.586 18.727 26.586C18.113 26.584 17.5 26.552 16.889 26.49V30H45.264V0.0469971H16.889ZM16.889 19.529V21.663C9.984 20.433 8.067 13.254 8.067 13.254C8.067 13.254 11.383 9.58 16.889 8.985V11.325L16.878 11.324C13.988 10.977 11.731 13.677 11.731 13.677C11.731 13.677 12.996 18.221 16.889 19.529ZM4.625 12.943C4.625 12.943 8.717 6.903 16.889 6.28V4.088C7.838 4.815 0 12.48 0 12.48C0 12.48 4.439 25.313 16.889 26.488V24.161C7.753 23.012 4.625 12.943 4.625 12.943Z" fill="#76B900"/>
</svg>
