<svg width="146" height="26" viewBox="0 0 146 26" fill="none" xmlns="http://www.w3.org/2000/svg">
<g clip-path="url(#clip0_51_844)">
<path d="M29.4666 7.2587C24.1628 7.2587 20.0186 11.2725 20.0186 16.6459C20.0186 22.0192 24.0581 25.9987 29.4666 25.9987C34.8752 25.9987 38.9849 21.9505 38.9849 16.6115C38.9849 11.3069 34.9454 7.2587 29.4666 7.2587ZM29.5024 22.1262C26.4821 22.1262 24.2688 19.7877 24.2688 16.6472C24.2688 13.471 26.4463 11.1338 29.4666 11.1338C32.5228 11.1338 34.7347 13.5067 34.7347 16.6472C34.7347 19.7877 32.5228 22.1262 29.5024 22.1262ZM40.1432 11.3425H42.7779V25.6512H46.9924V7.6075H40.1432V11.3425ZM9.41226 11.1325C11.6255 11.1325 13.3815 12.4933 14.0481 14.5174H18.5091C17.7007 10.1905 14.1184 7.2587 9.44804 7.2587C4.1442 7.2587 0 11.2725 0 16.6472C0 22.0219 4.0395 26 9.44804 26C14.0137 26 17.6662 23.0682 18.4746 18.7056H14.0481C13.416 20.7297 11.66 22.1262 9.44672 22.1262C6.39058 22.1262 4.2489 19.7877 4.2489 16.6472C4.25023 13.471 6.35745 11.1325 9.41226 11.1325ZM120.22 14.9019L117.13 14.4487C115.655 14.24 114.601 13.7511 114.601 12.599C114.601 11.3425 115.971 10.715 117.832 10.715C119.869 10.715 121.169 11.587 121.45 13.0178H125.524C125.067 9.38848 122.257 7.26002 117.938 7.26002C113.477 7.26002 110.527 9.52853 110.527 12.7391C110.527 15.8095 112.459 17.5905 116.357 18.1481L119.448 18.6012C120.959 18.81 121.801 19.4045 121.801 20.521C121.801 21.9518 120.326 22.545 118.289 22.545C115.795 22.545 114.39 21.533 114.18 19.9978H110.035C110.422 23.5227 113.196 26 118.254 26C122.855 26 125.91 23.9059 125.91 20.3109C125.91 17.1004 123.698 15.4251 120.22 14.9019ZM44.8852 0.174399C43.3399 0.174399 42.1802 1.29082 42.1802 2.82606C42.1802 4.3613 43.3385 5.47772 44.8852 5.47772C46.4304 5.47772 47.5901 4.3613 47.5901 2.82606C47.5901 1.29082 46.4304 0.174399 44.8852 0.174399ZM106.734 13.7855C106.734 9.87733 104.346 7.26002 99.2886 7.26002C94.5122 7.26002 91.8431 9.66858 91.3156 13.368H95.4956C95.7063 11.9371 96.8302 10.7506 99.2183 10.7506C101.361 10.7506 102.415 11.6927 102.415 12.8448C102.415 14.3456 100.483 14.7288 98.0945 14.9732C94.8634 15.322 90.8597 16.4384 90.8597 20.6267C90.8597 23.8729 93.2837 25.9656 97.1469 25.9656C100.167 25.9656 102.064 24.7092 103.013 22.7194C103.153 24.4991 104.488 25.6512 106.35 25.6512H108.808V21.9175H106.735V13.7855H106.734ZM102.59 18.3225C102.59 20.731 100.483 22.5107 97.9182 22.5107C96.3372 22.5107 95.0026 21.8475 95.0026 20.4523C95.0026 18.6726 97.1456 18.1838 99.1123 17.975C101.009 17.8006 102.062 17.3818 102.59 16.5785V18.3225ZM80.2176 7.2587C77.8638 7.2587 75.8971 8.23639 74.4923 9.87601V0H70.2778V25.6512H74.422V23.2783C75.8269 24.988 77.8294 26 80.2176 26C85.2749 26 89.1037 22.0219 89.1037 16.6472C89.1037 11.2725 85.2047 7.2587 80.2176 7.2587ZM79.5854 22.1262C76.565 22.1262 74.3518 19.7877 74.3518 16.6472C74.3518 13.5067 76.5995 11.1338 79.6199 11.1338C82.676 11.1338 84.8177 13.4723 84.8177 16.6472C84.8177 19.7877 82.6058 22.1262 79.5854 22.1262ZM60.1976 7.2587C57.4582 7.2587 55.6664 8.37512 54.6128 9.94603V7.6075H50.4328V25.6499H54.6473V15.8439C54.6473 13.0865 56.4033 11.1325 59.0022 11.1325C61.4262 11.1325 62.9357 12.8421 62.9357 15.3207V25.6512H67.1501V15.0076C67.1515 10.4692 64.7991 7.2587 60.1976 7.2587ZM146 16.054C146 10.8894 142.207 7.26002 137.114 7.26002C131.705 7.26002 127.736 11.3082 127.736 16.6472C127.736 22.2663 131.986 26 137.184 26C141.575 26 145.017 23.417 145.894 19.7533H141.503C140.871 21.3586 139.326 22.2663 137.253 22.2663C134.548 22.2663 132.511 20.591 132.055 17.6592H145.999V16.054H146ZM132.302 14.6575C132.97 12.1445 134.866 10.9237 137.044 10.9237C139.432 10.9237 141.258 12.2846 141.68 14.6575H132.302Z" fill="#0052FF"/>
</g>
<defs>
<clipPath id="clip0_51_844">
<rect width="146" height="26" fill="white"/>
</clipPath>
</defs>
</svg>
