<svg width="125" height="32" viewBox="0 0 125 32" fill="none" xmlns="http://www.w3.org/2000/svg">
<g clip-path="url(#clip0_51_996)">
<path d="M29.8813 8.0578L29.1873 6.86262C28.9945 6.51563 28.5703 6.39997 28.2233 6.59274C28.1848 6.6313 28.1077 6.66985 28.0691 6.7084L26.4883 8.28913C26.257 8.52045 26.2184 8.90599 26.4112 9.17587C26.9895 10.0626 27.4522 11.0265 27.7992 12.0289C29.9969 18.5445 26.4883 25.6 19.9723 27.7976C18.6999 28.2217 17.3504 28.453 16.0009 28.453C13.9575 28.453 11.9525 27.9518 10.1789 26.9879L12.8779 24.2891C17.4661 26.0241 22.5941 23.7108 24.3291 19.1229C25.1774 16.8482 25.0617 14.3036 24.0207 12.106C23.8665 11.759 23.4423 11.6048 23.0568 11.759C22.9797 11.7976 22.9025 11.8361 22.864 11.9132L21.2446 13.4939C21.0518 13.6867 21.0133 13.918 21.0518 14.1494L21.2061 14.7277C21.8615 17.5807 20.0879 20.4723 17.2348 21.1277C15.9238 21.4361 14.5358 21.2433 13.3791 20.5494L12.6851 20.1253C12.4152 19.9711 12.0682 20.0096 11.8369 20.2409L5.28226 26.7952C5.01236 27.065 5.01236 27.5277 5.28226 27.7976C5.32081 27.8361 5.32081 27.8361 5.35937 27.8747L6.32328 28.6072C9.06079 30.8433 12.4923 32 16.0009 32C24.8304 32 32.0019 24.8289 32.0019 15.9614C32.0019 13.1855 31.2693 10.4867 29.8813 8.0578Z" fill="url(#paint0_linear_51_996)"/>
<path d="M25.7171 3.31566C22.9411 1.15663 19.5096 0 16.0009 0C7.1715 0 0 7.17108 0 16.0386C0 18.8145 0.732572 21.5518 2.08205 23.9422L2.77606 25.1373C2.96885 25.4843 3.39297 25.6 3.73997 25.4072C3.77853 25.3687 3.85564 25.3301 3.8942 25.2916L5.47502 23.7108C5.70635 23.4795 5.74491 23.094 5.55213 22.8241C4.97378 21.9373 4.5111 20.9735 4.1641 19.9711C1.96638 13.4554 5.47502 6.4 11.9911 4.20241C13.2634 3.77831 14.6129 3.54699 15.9624 3.54699C18.0059 3.54699 20.0108 4.04819 21.7844 5.01205L19.0854 7.71084C14.4972 5.9759 9.36922 8.28916 7.63418 12.8771C7.24861 13.8795 7.05583 14.959 7.05583 16.0386C7.05583 16.1928 7.09439 16.8482 7.09439 16.9639C7.21005 17.9663 7.47995 18.9687 7.94263 19.894C8.09685 20.241 8.52097 20.3952 8.90654 20.241C8.98365 20.2024 9.06076 20.1639 9.09932 20.0867L10.7187 18.4675C10.9115 18.2747 10.95 18.0434 10.9115 17.812L10.7958 17.2337C10.1403 14.3807 11.9139 11.4892 14.7671 10.8337C16.078 10.5253 17.4661 10.7181 18.6228 11.412L19.3168 11.8361C19.5867 11.9904 19.9337 11.9518 20.165 11.7205L26.7196 5.16626C26.9895 4.89639 26.9895 4.43373 26.7196 4.16386C26.6811 4.1253 26.6811 4.1253 26.6425 4.08675L25.7171 3.31566Z" fill="url(#paint1_linear_51_996)"/>
<path d="M52.6681 20.4337C52.4368 20.2409 52.0512 20.2409 51.8199 20.4722C50.7789 21.2819 49.5836 22.0144 47.8486 22.0144C44.6484 22.0144 42.0651 19.3156 42.0651 16.0385C42.0651 12.7614 44.6484 10.0241 47.8486 10.0241C49.2366 10.0241 50.7018 10.6024 51.8199 11.5662C51.9356 11.7204 52.1284 11.7975 52.3211 11.7975C52.4754 11.7975 52.6296 11.6819 52.7453 11.5662L53.7863 10.4867C53.902 10.371 53.9791 10.1783 53.9791 9.9855C53.9791 9.79273 53.902 9.63851 53.7477 9.48429C51.9356 7.90357 50.1234 7.20959 47.8486 7.20959C42.9905 7.20959 39.0192 11.1807 39.0192 16.0771C39.0192 20.9349 42.9519 24.906 47.8486 24.906C50.0849 24.9445 52.2055 24.0578 53.7863 22.5156C53.9405 22.3614 54.0176 22.1686 53.9791 21.9759C53.9791 21.8216 53.902 21.6674 53.7863 21.5518L52.6681 20.4337Z" fill="black"/>
<path d="M60.2252 7.40234H58.6444C58.2973 7.40234 57.9889 7.71078 57.9889 8.05777V23.9421C57.9889 24.2891 58.2973 24.5975 58.6444 24.5975H60.2252C60.5722 24.5975 60.8806 24.2891 60.8806 23.9421V8.05777C60.8806 7.71078 60.6107 7.40234 60.2252 7.40234Z" fill="black"/>
<path d="M78.848 12.7614C78.848 9.83126 76.4189 7.40234 73.4501 7.40234H66.9726C66.587 7.40234 66.3171 7.71078 66.3171 8.05777V23.9421C66.3171 24.3276 66.6256 24.5975 66.9726 24.5975H68.5149C68.8619 24.5975 69.1703 24.2891 69.1703 23.9421V18.0433H72.4091L75.5321 24.2891C75.6478 24.4819 75.8791 24.6361 76.1105 24.6361H77.9612C78.1925 24.6361 78.4239 24.5204 78.5395 24.3276C78.6552 24.0963 78.6552 23.865 78.5395 23.6337L75.3779 17.7349C77.5371 16.771 78.848 14.8819 78.848 12.7614ZM75.9177 12.7999C75.9177 14.3035 74.6839 15.5758 73.2187 15.5758H69.1703V10.1782H73.2573C74.6839 10.1397 75.9177 11.3734 75.9177 12.7999Z" fill="black"/>
<path d="M95.7742 20.4337C95.5429 20.2409 95.1573 20.2409 94.926 20.4722C93.8849 21.2819 92.6897 22.0144 90.9547 22.0144C87.7545 22.0144 85.1712 19.3156 85.1712 16.0385C85.1712 12.7614 87.7545 10.0241 90.9161 10.0241C92.3041 10.0241 93.7693 10.6024 94.8874 11.5662C95.0031 11.7204 95.1959 11.7975 95.3886 11.7975C95.5429 11.7975 95.6971 11.6819 95.8128 11.5662L96.8538 10.4867C96.9695 10.371 97.0466 10.1783 97.0466 9.9855C97.0466 9.79273 96.9695 9.63851 96.8152 9.48429C95.0031 7.90357 93.1909 7.20959 90.9161 7.20959C86.058 7.20959 82.0867 11.1807 82.0867 16.0771C82.0867 20.9349 86.0194 24.906 90.9161 24.906C93.1524 24.9445 95.273 24.0578 96.8538 22.5156C97.008 22.3614 97.0851 22.1686 97.0466 21.9759C97.0466 21.8216 96.9695 21.6674 96.8538 21.5518L95.7742 20.4337Z" fill="black"/>
<path d="M110.233 21.9373H103.987V8.05777C103.987 7.71078 103.678 7.40234 103.331 7.40234H101.751C101.365 7.40234 101.095 7.71078 101.095 8.05777V23.9421C101.095 24.3276 101.404 24.5975 101.751 24.5975H110.233C110.619 24.5975 110.888 24.2891 110.888 23.9421V22.6313C110.888 22.2457 110.619 21.9373 110.233 21.9373Z" fill="black"/>
<path d="M124.345 10.1012C124.73 10.1012 125 9.79273 125 9.44574V8.09634C125 7.7108 124.692 7.44092 124.345 7.44092H114.821C114.436 7.44092 114.166 7.74935 114.166 8.09634V23.9807C114.166 24.3662 114.474 24.6361 114.821 24.6361H124.345C124.73 24.6361 125 24.3277 125 23.9807V22.6698C125 22.2843 124.692 22.0144 124.345 22.0144H117.019V17.2337H123.149C123.535 17.2337 123.805 16.9253 123.805 16.5783V15.2289C123.805 14.8819 123.496 14.5734 123.149 14.5734H117.019V10.1012H124.345Z" fill="black"/>
</g>
<defs>
<linearGradient id="paint0_linear_51_996" x1="10.3572" y1="33.0178" x2="32.8815" y2="10.4922" gradientUnits="userSpaceOnUse">
<stop stop-color="#B090F5"/>
<stop offset="1" stop-color="#5FBFFF"/>
</linearGradient>
<linearGradient id="paint1_linear_51_996" x1="-0.887647" y1="21.5075" x2="21.6397" y2="-1.01983" gradientUnits="userSpaceOnUse">
<stop stop-color="#68D7FA"/>
<stop offset="1" stop-color="#4EE498"/>
</linearGradient>
<clipPath id="clip0_51_996">
<rect width="125" height="32" fill="white"/>
</clipPath>
</defs>
</svg>
