<?xml version="1.0" encoding="utf-8"?><svg xmlns="http://www.w3.org/2000/svg" xmlns:xlink="http://www.w3.org/1999/xlink"><symbol viewBox="0 0 36 36" id="C" xmlns="http://www.w3.org/2000/svg"><g clip-path="url(#aaa)"><path fill-rule="evenodd" clip-rule="evenodd" d="M25.686 0a2.792 2.792 0 0 1 2.52 1.565l7.505 15.183a2.826 2.826 0 0 1 0 2.49l-7.506 15.197A2.826 2.826 0 0 1 25.687 36H13.341a2.255 2.255 0 0 1-2.25-2.25v-1.794h-8.86A2.176 2.176 0 0 1 .06 29.788L.03 18.137 0 6.222a2.175 2.175 0 0 1 2.173-2.178h8.92V2.25A2.256 2.256 0 0 1 13.343 0h12.343zM13.343.804a1.447 1.447 0 0 0-1.447 1.446v2.531h11.166a1.53 1.53 0 0 1 1.096.462c.146.13.265.287.352.461l5.738 11.611a1.544 1.544 0 0 1 0 1.358l-5.74 11.623a1.726 1.726 0 0 1-1.445.923H11.896v2.531a1.447 1.447 0 0 0 1.446 1.444h12.343a2.002 2.002 0 0 0 1.796-1.116l7.506-15.198a1.999 1.999 0 0 0 0-1.774L27.483 1.92A2.007 2.007 0 0 0 25.686.804H13.343zM6.734 9.937V27h6.27c1.242 0 2.305-.188 3.187-.563.883-.382 1.559-.94 2.028-1.675.476-.735.715-1.645.715-2.73 0-.704-.149-1.36-.446-1.97a3.602 3.602 0 0 0-1.36-1.488 3.716 3.716 0 0 0-1.08-.455 4.37 4.37 0 0 0 .472-.224c.656-.368 1.152-.84 1.488-1.418.336-.586.504-1.23.504-1.934 0-.797-.137-1.484-.41-2.063a3.562 3.562 0 0 0-1.184-1.43c-.516-.382-1.145-.663-1.887-.843-.734-.18-1.57-.27-2.508-.27H6.734zm6.399 9.352c.68 0 1.23.113 1.652.34.422.219.73.535.926.95.195.405.293.886.293 1.44 0 .532-.113.997-.34 1.395-.219.39-.55.7-.996.926-.445.219-1 .328-1.664.328H9.676v-5.379h3.457zm-.61-7.008c.696 0 1.266.082 1.711.246.454.164.79.426 1.008.786.219.359.328.824.328 1.394 0 .516-.117.957-.351 1.324-.235.36-.578.637-1.031.832-.446.188-.989.282-1.63.282H9.677V12.28h2.847z"/></g><defs><clipPath id="aaa"><path d="M0 0h36v36H0z"/></clipPath></defs></symbol><symbol viewBox="0 0 12 12" id="arrow" xmlns="http://www.w3.org/2000/svg"><path d="M6 9.42a.838.838 0 0 1-.594-.246l-5.16-5.16a.84.84 0 1 1 1.189-1.188L6 7.392l4.565-4.566a.84.84 0 0 1 1.189 1.189l-5.16 5.16A.838.838 0 0 1 6 9.42z"/></symbol><symbol viewBox="0 0 14 14" id="arrow-2" xmlns="http://www.w3.org/2000/svg"><g clip-path="url(#aca)"><path d="M13.81 6.54L9.642 2.373a.651.651 0 0 0-.92.921l3.054 3.055H.652a.651.651 0 0 0 0 1.302h11.127l-3.055 3.055a.651.651 0 0 0 .92.92L13.81 7.46a.65.65 0 0 0 0-.92z"/></g><defs><clipPath id="aca"><path d="M0 0h14v14H0z"/></clipPath></defs></symbol><symbol viewBox="0 0 16 16" id="arrow-3" xmlns="http://www.w3.org/2000/svg"><g clip-path="url(#ada)"><path d="M.99 12.5a.989.989 0 0 1-.452-.11c-.379-.184-.594-.584-.525-.971a1.31 1.31 0 0 1 .309-.657 521.568 521.568 0 0 1 4.312-4.321c.213-.21.466-.322.729-.322.275 0 .54.119.768.347L8.82 9.153l3.656-3.66-.369-.002-1.481-.01c-.581-.006-.987-.41-.99-.984 0-.281.096-.534.278-.716a.976.976 0 0 1 .703-.278c.743-.003 1.484-.003 2.2-.003.746 0 1.49.003 2.209.003.556.003.963.4.966.947.009 1.525.009 3.028 0 4.469-.003.547-.42.944-.988.944h-.012c-.566-.007-.966-.404-.975-.97a63.372 63.372 0 0 1-.004-1.327V6.88a.491.491 0 0 0-.04.038c-1.238 1.24-2.472 2.484-3.71 3.728l-.515.515c-.306.313-.597.463-.881.463-.285 0-.566-.147-.866-.45L5.363 8.531l-.222.219c-.232.228-.447.444-.66.656l-.993 1c-.572.575-1.163 1.172-1.747 1.756a1.036 1.036 0 0 1-.75.338z"/></g><defs><clipPath id="ada"><path d="M0 0h16v16H0z"/></clipPath></defs></symbol><symbol viewBox="0 0 10 10" id="arrow-4" xmlns="http://www.w3.org/2000/svg"><g clip-path="url(#aea)"><path d="M9.355 0H1.8a.645.645 0 0 0 0 1.29h5.998L.189 8.897a.645.645 0 1 0 .913.913L8.709 2.2v6a.645.645 0 0 0 1.289 0V.645A.642.642 0 0 0 9.355 0z"/></g><defs><clipPath id="aea"><path d="M0 0h10v10H0z"/></clipPath></defs></symbol><symbol viewBox="0 0 788 788" id="bch" xmlns="http://www.w3.org/2000/svg"><title>12-bitcoin-cash-square-crop</title><circle class="afcls-1" cx="394" cy="394" r="394"/><path class="afcls-2" d="M551.124 407.914l-.187-.346-.031-.058c-.113-.348-.2-.713-.326-1.089l-.016-.03-.016-.029-.016-.029-.016-.029-.016-.029-.016-.029-.032-.058a68.435 68.435 0 0 0-22.372-33.478l-.015-.029c-.315-.24-.646-.51-.962-.747l-.435-.324-.315-.239-.135-.114-.3-.211-.135-.113-.3-.211-.135-.113-.315-.239-.165-.1-.315-.239-.165-.1-.34-.224-.165-.1-.2-.3-.18-.127-.34-.224-.179-.127-.341-.225-.179-.126-.34-.225-.18-.127-.36-.255-.179-.127-.388-.238-.18-.126-.387-.239-.18-.126-.388-.239-.179-.126-.388-.239-.209-.11-.388-.238-.208-.111-.418-.222-.208-.11-.433-.251-.208-.11-.433-.25-.209-.111-.433-.25-.224-.139-.433-.251-.225-.139-.461-.236-.224-.139-.462-.236-.312-.17-.016-.029c-.224-.139-.461-.236-.686-.376a95.508 95.508 0 0 0-30.588-9.665 85.552 85.552 0 0 0 8.195-10.293l.393-.584.029-.016.182-.284.238-.388.127-.18.238-.387.126-.18.239-.388.126-.179.239-.388.126-.18.238-.388.126-.179.209-.374.127-.179.208-.374.1-.165.208-.373.1-.165.208-.373.1-.165.18-.358.1-.165.179-.357.1-.165.179-.357.1-.165.195-.329.1-.165.2-.328.1-.165.171-.312.1-.165.17-.313.069-.148.171-.313.068-.149.171-.312.068-.149.171-.312.069-.149.137-.3.069-.149.138-.3.069-.149.138-.3.069-.148.151-.341.207-.445c.151-.341.273-.668.425-1.01l.029-.016a60.785 60.785 0 0 0 3.088-35.684l-.016-.029-.032-.058-.016-.029-.015-.029-.016-.029-.016-.029-.017-.029-.015-.028a11.288 11.288 0 0 0-.235-.992v-.073l-.016-.029-.016-.029-.016-.028.016.028-.14-.259c-.1-.466-.2-.936-.35-1.411-.1-.466-.248-.946-.379-1.4l-.171-.317-.031-.058c-.1-.319-.195-.64-.293-.959l-.017-.029-.016-.029-.016-.029-.015-.029-.016-.028-.017-.029-.015-.029a60.8 60.8 0 0 0-19.9-29.784l-.017-.03c-.27-.227-.57-.438-.841-.663l-.374-.283-.3-.22-.135-.113-.256-.2-.135-.114-.255-.2-.135-.113-.284-.182-.136-.113-.3-.211-.135-.113-.3-.211-.136-.113-.3-.211-.165-.1-.3-.211-.165-.1-.3-.211-.165-.1-.328-.195-.165-.1-.328-.195-.165-.1-.329-.195-.165-.1-.328-.2-.165-.1-.34-.225-.165-.1-.345-.224-.165-.1-.373-.209-.165-.1-.373-.209-.18-.127-.373-.208-.179-.127-.373-.208-.18-.127-.387-.238-.209-.111-.388-.238-.208-.11-.418-.223-.208-.11-.418-.222-.3-.138-.016-.029-.626-.332c-18.294-9.508-41.536-12.371-64.92-6.372l-6.083 1.562-15.415-59.862-35.652 9.14 15.3 59.681-28.521 7.316-15.348-59.486L280.027 210l15.335 59.676-73.529 18.924 9.783 38.025 29.627-7.609a18.335 18.335 0 0 1 22.332 13.178l.008.034 41.128 160.01a12.249 12.249 0 0 1-8.8 14.9l-25.96 6.678 1.525 45.223 73.435-18.874 15.537 59.568 35.636-9.169-15.35-59.706 28.521-7.316 15.35 59.7 35.636-9.169-15.4-59.938a6704.9 6704.9 0 0 1 14.827-3.85c26.353-6.779 47.663-22.232 60.558-41.494l.436-.643.029-.016.211-.3.28-.448.139-.225.28-.448.14-.225.25-.433.139-.224.25-.433.111-.209.25-.433.111-.208.25-.433.11-.209.222-.417.111-.209.222-.417.11-.209.239-.388.11-.208.238-.388.111-.208.208-.374.111-.208.208-.373.111-.208.208-.373.085-.193.209-.373.085-.193.179-.357.1-.165.18-.357.1-.165.179-.358.1-.165.179-.357.1-.165.18-.357.1-.165.18-.358.1-.165.151-.34.1-.165.151-.34.069-.149.165-.386.221-.491c.165-.386.344-.744.479-1.114l.014-.045a68.5 68.5 0 0 0 3.482-40.138l-.016-.029-.016-.029-.016-.029-.016-.029-.016-.029-.016-.029-.016-.029-.016-.029-.255-1.092v-.073l-.015-.029-.016-.029-.017-.029-.016-.029-.015-.029-.016-.029-.016-.029-.016-.029-.016-.028-.016-.029-.016-.029-.015-.029-.016-.029-.063-.115c-.132-.523-.237-1.062-.4-1.572-.025-.318-.101-.874-.133-1.489zM341.641 300.876c6.083-1.561 31.233-7.878 39.526-10.037 13.185-3.375 26.172-2.065 36.323 2.82l.341.151.148.069.209.11.1.056.208.11.1.056.208.11.1.056.209.11.1.055.209.111.1.055.209.111.1.055.208.111.1.055.208.111.1.055.208.111.1.055.18.127.1.055.179.127.1.055.179.127.1.055.165.1.1.055.165.1.1.055.165.1.1.055.165.1.1.055.165.1.076.072.165.1.06.041.165.1.059.042.165.1.06.041.165.1.059.042.136.113.059.042.165.1.225.14c.165.1.315.241.48.34a30.749 30.749 0 0 1 10.9 15.612l.046.085c.048.16.113.348.161.51l.016.03.094.17c.066.262.146.48.214.741a4.436 4.436 0 0 1 .142.817l.093.17.016.029a2.557 2.557 0 0 0 .133.523l.046.085a30.857 30.857 0 0 1-2.029 18.931l-.234.535-.124.255-.1.165-.027.089-.069.149-.027.089-.1.165-.027.086-.1.165-.027.089-.1.165-.027.085-.1.165-.027.089-.1.165-.028.09-.1.165-.056.1-.1.165-.056.1-.1.165-.055.1-.1.165-.055.1-.127.179-.055.1-.127.18-.055.1-.127.179-.055.1-.127.179-.055.1-.127.18-.055.1-.127.18-.055.1-.127.179-.055.1-.127.179-.055.1-.156.195-.055.1-.156.195-.055.1-.156.195-.055.1-.156.195-.113.135-.211.3c-6.557 9.188-17.3 16.609-30.485 19.983-8.309 2.127-33.393 8.706-39.471 10.268zM481 423.55l.094.17.016.029c.035.2.085.364.12.568l.016.03.016.029.017.029.016.029a31.694 31.694 0 0 1-2.867 20.675l-.319.581-.153.269-.111.208-.055.1-.1.165-.055.1-.1.165-.055.1-.127.179-.055.1-.127.179-.055.1-.127.18-.055.1-.127.179-.055.1-.127.179-.055.1-.127.18-.055.1-.127.18-.055.1-.127.179-.055.1-.127.179-.055.1-.156.195-.055.1-.156.195-.055.1-.14.225-.055.1-.141.224-.055.1-.139.225-.086.12-.139.224-.085.12-.17.239-.085.12-.17.239-.086.12-.17.239-.085.12-.17.239-.085.12-.17.239-.142.152-.269.33c-7.964 10.169-20.807 18.533-36.409 22.537-9.836 2.54-39.562 10.314-46.794 12.16l-20.237-78.739c7.217-1.872 37.025-9.357 46.861-11.9 15.6-4 30.914-2.869 42.754 2.186l.386.165.193.085.283.108.132.039.256.124.132.039.256.125.132.039.255.124.1.055.255.124.1.056.255.124.1.055.255.124.1.056.209.11.1.056.209.11.1.056.208.11.1.055.208.111.1.055.208.111.1.055.209.111.1.055.209.111.1.055.208.111.1.055.208.11.1.056.179.126.1.056.18.127.1.055.18.127.1.055.179.127.1.055.18.127.1.055.165.1.1.055.18.127.239.17c.179.127.388.238.569.364a31.789 31.789 0 0 1 12.547 16.799l.062.115c.064.188.113.349.177.537l.016.028.093.171c.067.262.133.523.216.815.147.063.17.385.125.782z"/></symbol><symbol id="bch-logo" viewBox="0 0 55.2 70.3" xmlns="http://www.w3.org/2000/svg"><style>.agst0{fill:#363635}</style><title>Artboard 51</title><path class="agst0" d="M54.9 30.5c1.7-7.3-3.6-11.7-11.1-14.9L47 5.8l-5.9-2-3.1 9.6c-1.6-.5-3.2-1-4.7-1.6l3.2-9.5-6-2-3.2 9.8c-1.3-.4-2.6-.8-3.8-1.3l-8.2-2.7-2.1 6.3s4.4 1.4 4.3 1.4c2.4.8 2.7 2.5 2.6 3.7l-3.7 11.1c.2.1.4.1.6.2l-.7-.2L11 44.4c-.5 1.1-1.8 1.6-2.9 1.2.1.1-4.3-1.4-4.3-1.4L.2 50.9 8 53.4l4.3 1.4L9 64.7l6 2 3.2-9.8c1.6.5 3.2 1.1 4.7 1.6l-3.2 9.7 6 2 3.3-9.9c10.2 2.9 18 2.7 22-6.4 3.2-7.4.8-11.9-4.5-15.2 3.9-.5 7.1-2.9 8.4-8.2zM39.6 48.9c-2.4 7.4-14.8 2.3-18.9 1L25 36.7c4.1 1.4 17.1 4.5 14.6 12.2zm3.3-19.4c-2.2 6.7-12.5 2.4-15.9 1.3l4-11.9c3.4 1.1 14.3 3.6 11.9 10.6z"/></symbol><symbol viewBox="0 0 14 18" id="bell" xmlns="http://www.w3.org/2000/svg"><path d="M4.559 16.376A2.672 2.672 0 0 0 7 18c1.09 0 2.027-.669 2.442-1.624H4.56zM7 1.72c.719 0 1.41.129 2.05.366v-.08C9.05.9 8.167 0 7.082 0h-.163C5.834 0 4.95.9 4.95 2.005v.08A5.913 5.913 0 0 1 7 1.72zm6.468 13.6H.532a.53.53 0 0 1-.52-.412.515.515 0 0 1 .277-.583c.052-.035.443-.314.835-1.158.72-1.55.871-3.733.871-5.291 0-2.812 2.245-5.1 5.005-5.1 2.753 0 4.994 2.277 5.004 5.08v.02c0 1.558.152 3.741.872 5.291.392.844.783 1.123.835 1.158.22.103.327.341.277.583a.53.53 0 0 1-.52.412z"/></symbol><symbol viewBox="0 0 12 12" id="bnb" xmlns="http://www.w3.org/2000/svg"><path fill-rule="evenodd" clip-rule="evenodd" d="M6 0a6 6 0 1 1 0 12A6 6 0 0 1 6 0z"/><path class="aifill" d="M3.298 6l.004 1.586 1.348.794v.928L2.513 8.055v-2.52L3.298 6zm0-1.587v.925l-.786-.465V3.95l.786-.465.788.465-.788.464zm1.915-.464l.785-.465.789.465-.789.464-.785-.464z" fill="#fff"/><path class="aifill" d="M3.865 7.257V6.33l.785.464v.925l-.785-.46zm1.348 1.455l.785.465.789-.465v.925l-.789.464-.785-.464v-.925zm2.7-4.763l.785-.465.789.465v.924l-.789.465v-.925l-.785-.464zm.785 3.637L8.702 6l.785-.465v2.52L7.35 9.308v-.929l1.348-.793z" fill="#fff"/><path class="aifill" d="M8.135 7.257l-.785.46v-.924l.785-.464v.928z" fill="#fff"/><path class="aifill" d="M8.135 4.742l.004.929-1.352.793v1.59l-.785.46-.785-.46v-1.59l-1.352-.793v-.929l.789-.464 1.344.797 1.351-.797.79.464h-.004zm-4.27-1.586l2.133-1.258 2.137 1.258-.785.465-1.352-.798-1.348.798-.785-.465z" fill="#fff"/></symbol><symbol viewBox="0 0 2500.01 2500" id="bnb-logo" xmlns="http://www.w3.org/2000/svg"><defs><style>.ajcls-1{fill:#f3ba2f}</style></defs><title>bi</title><g id="ajLayer_2" data-name="Layer 2"><g id="ajLayer_1-2" data-name="Layer 1"><path class="ajcls-1" d="M764.48 1050.52L1250 565l485.75 485.73 282.5-282.5L1250 0 482 768l282.49 282.5M0 1250l282.51-282.55L565 1249.94l-282.51 282.51zm764.48 199.51L1250 1935l485.74-485.72 282.65 282.35-.14.15L1250 2500l-768-768-.4-.4 282.91-282.12M1935 1250.12l282.51-282.51L2500 1250.1l-282.5 282.51z"/><path class="ajcls-1" d="M1536.52 1249.85h.12L1250 963.19 1038.13 1175l-24.34 24.35-50.2 50.21-.4.39.4.41L1250 1536.81l286.66-286.66.14-.16-.26-.14"/></g></g></symbol><symbol viewBox="0 0 24 24" id="btc" xmlns="http://www.w3.org/2000/svg"><g clip-path="url(#aka)"><path d="M12 24c6.627 0 12-5.373 12-12S18.627 0 12 0 0 5.373 0 12s5.373 12 12 12z"/><path d="M17.392 10.515c.235-1.572-.962-2.417-2.599-2.981l.531-2.13-1.296-.323-.517 2.074c-.341-.085-.691-.165-1.039-.245l.52-2.087-1.295-.323-.531 2.129a43.312 43.312 0 0 1-.828-.195l.002-.006-1.788-.447-.345 1.385s.962.22.941.234c.525.131.62.479.604.754l-.604 2.426c.036.01.083.023.134.043l-.137-.034-.847 3.4c-.065.159-.227.398-.594.307.012.019-.943-.235-.943-.235l-.643 1.484 1.687.42c.314.08.621.162.924.239l-.537 2.154 1.295.323.532-2.131c.353.096.697.185 1.033.268l-.53 2.121 1.297.323.536-2.15c2.21.419 3.873.25 4.573-1.75.563-1.61-.028-2.538-1.192-3.143.848-.196 1.486-.753 1.656-1.904zM14.43 14.67c-.4 1.61-3.111.74-3.99.521l.712-2.854c.879.22 3.697.654 3.278 2.333zm.4-4.177c-.365 1.464-2.62.72-3.353.538l.646-2.588c.732.182 3.088.522 2.708 2.05z" class="akfill" fill="#fff"/></g><defs><clipPath id="aka"><path d="M0 0h24v24H0z"/></clipPath></defs></symbol><symbol id="btc-logo" viewBox="0 0 49.14 68.03" xmlns="http://www.w3.org/2000/svg"><defs><style>.alcls-1{fill:#363635}</style></defs><path class="alcls-1" d="M45.49 21c-.7-7.42-7.1-9.93-15.19-10.66V.04h-6.25v10h-5V0h-6.27v10.3H.14L.1 17s4.63-.08 4.55 0c2.54 0 3.37 1.48 3.6 2.75v11.74a5.92 5.92 0 0 1 .67 0h-.69L8.18 48a2.21 2.21 0 0 1-2.36 2c.08.07-4.56 0-4.56 0L0 57.5h12.64v10.42h6.27v-10.3c1.72 0 3.38.06 5 .06v10.26h6.27v-10.4C40.72 57.06 48.1 54.42 49 44.53c.76-8-3-11.54-9-13 3.64-1.85 5.92-5.1 5.4-10.54zm-8.83 22.25c0 7.79-13.34 6.87-17.59 6.86v-13.8c4.25 0 17.58-1.17 17.56 6.94zm-2.87-19.47c0 7.08-11.13 6.22-14.67 6.22V17.48c3.57.01 14.69-1.09 14.67 6.3z"/></symbol><symbol viewBox="0 0 18 18" id="burger" xmlns="http://www.w3.org/2000/svg"><g clip-path="url(#ama)"><path d="M16.875 15.75H1.125a1.125 1.125 0 1 1 0-2.25h15.75a1.125 1.125 0 0 1 0 2.25zm0-5.625H1.125a1.125 1.125 0 1 1 0-2.25h15.75a1.125 1.125 0 0 1 0 2.25zm0-5.625H1.125a1.125 1.125 0 1 1 0-2.25h15.75a1.125 1.125 0 0 1 0 2.25z"/></g><defs><clipPath id="ama"><path d="M0 0h18v18H0z"/></clipPath></defs></symbol><symbol viewBox="0 0 16 16" id="cab-btn-1" xmlns="http://www.w3.org/2000/svg"><path d="M10.457 10.504V8.221c0-.316.101-.414.42-.414h3.371c.288 0 .405.114.405.393v3.798c0 .129.021.18.17.175.272-.015.692-.005.964-.005.085 0 .16.01.197.093.037.083.005.145-.048.207-.73.832-2.47 2.604-3.2 3.436-.112.129-.197.129-.314-.005-.724-.827-2.418-2.594-3.142-3.42-.058-.068-.1-.135-.053-.223.048-.088.117-.088.203-.088.271 0 .59-.01.862.005.15.005.176-.046.176-.175-.01-.78-.01-.713-.01-1.494zm-3.487.858a.224.224 0 0 1-.102-.217c.006-.232 0-.46.006-.692 0-.062-.022-.083-.08-.088a3.148 3.148 0 0 1-1.38-.553 1.944 1.944 0 0 1-.319-.264c-.074-.082-.085-.15-.016-.237.155-.202.31-.398.469-.594.085-.104.17-.114.277-.026.33.29.73.49 1.16.584.363.072.709.051 1.039-.14.346-.201.516-.734.064-1.075-.235-.175-.511-.279-.788-.392-.346-.14-.698-.264-1.028-.434-.33-.17-.623-.378-.841-.677a1.508 1.508 0 0 1-.277-1.08c.085-.744.548-1.199 1.22-1.488a2.04 2.04 0 0 1 .43-.124c.06-.01.064-.036.064-.083v-.749c0-.134.059-.191.197-.191h.597c.122 0 .176.051.176.17v.75c0 .051.015.072.069.077a2.8 2.8 0 0 1 1.384.558.632.632 0 0 1 .064.057c.09.083.101.13.037.232-.122.217-.245.43-.367.646-.07.12-.165.14-.282.052a2.567 2.567 0 0 0-.5-.305c-.39-.176-.789-.253-1.21-.145-.282.073-.527.202-.622.496-.08.243 0 .476.197.641.255.222.57.336.883.455.378.144.756.284 1.119.47.255.13.479.305.66.517.197.232.287.511.314.81 0 .032.005.068.005.1.016.03-.005.071.016.102v.052c-.021.119-.01.243-.042.362-.08.3-.23.573-.448.806-.314.34-.713.537-1.166.635-.053 0-.09.047-.09.098v.01c.005.228 0 .46 0 .693 0 .088-.032.155-.128.181H6.97z"/><path d="M7.822 12.587c-.166.015-.336.02-.506.02-3.131 0-5.67-2.464-5.67-5.502 0-3.039 2.539-5.503 5.67-5.503 3.13 0 5.67 2.464 5.67 5.503h1.65v-.006C14.633 3.234 11.299 0 7.322 0 3.28-.005 0 3.172 0 7.094v.01c0 3.865 3.338 7.1 7.316 7.1a7.59 7.59 0 0 0 1.927-.248l-1.421-1.37z"/></symbol><symbol viewBox="0 0 16 16" id="cab-btn-2" xmlns="http://www.w3.org/2000/svg"><path d="M10.457 5.503v2.284c0 .315.101.408.42.414h3.371c.288 0 .405-.114.405-.398v-3.8c0-.128.021-.18.17-.175.272.015.692 0 .964.005.085 0 .16-.01.197-.093.037-.083.005-.145-.048-.207-.73-.832-2.47-2.605-3.2-3.437-.112-.129-.197-.129-.314.005-.724.827-2.418 2.595-3.142 3.422-.058.067-.1.134-.053.222.048.088.117.088.203.088.271 0 .59.01.862-.005.15-.01.176.047.176.176-.01.785-.01.718-.01 1.499zM6.97 13.157a.224.224 0 0 1-.102-.217c.006-.232 0-.46.006-.692 0-.062-.022-.083-.08-.088a3.21 3.21 0 0 1-1.38-.553 1.943 1.943 0 0 1-.319-.264c-.074-.083-.085-.15-.016-.238.155-.201.31-.398.469-.594.085-.103.17-.114.277-.026.33.29.73.491 1.16.584.363.072.709.052 1.039-.14.346-.201.516-.733.064-1.074-.235-.176-.511-.28-.788-.393-.346-.14-.698-.264-1.028-.434-.33-.171-.623-.378-.841-.678a1.508 1.508 0 0 1-.277-1.08c.085-.744.548-1.199 1.22-1.488.138-.057.281-.104.43-.13.06-.01.064-.036.064-.082v-.75c0-.134.059-.19.197-.19h.597c.122 0 .176.05.176.17v.75c0 .05.015.071.069.077a2.8 2.8 0 0 1 1.384.558.633.633 0 0 1 .064.057c.09.082.101.129.037.232-.122.217-.245.43-.367.646-.07.124-.165.14-.282.052a2.567 2.567 0 0 0-.5-.305c-.39-.176-.789-.253-1.21-.145-.282.073-.527.207-.622.497-.08.242 0 .475.197.64.255.223.57.336.883.455.378.145.756.285 1.119.47.255.13.479.306.66.518.197.232.287.511.314.811 0 .031.005.067.005.098.016.031-.005.072.016.104v.051c-.021.12-.01.243-.042.362-.08.3-.23.574-.448.806-.314.341-.713.538-1.166.636a.097.097 0 0 0-.09.098v.01c.005.233 0 .46 0 .693 0 .088-.032.155-.128.181l-.761.005z"/><path d="M7.822 3.41a5.442 5.442 0 0 0-.506-.021c-3.131 0-5.676 2.465-5.676 5.51 0 3.044 2.54 5.51 5.676 5.51s5.676-2.477 5.676-5.516h1.65v.005C14.637 12.76 11.304 16 7.326 16 3.286 16.005.006 12.821 0 8.898v-.01c0-3.866 3.338-7.102 7.316-7.102.65 0 1.299.083 1.927.248L7.822 3.41z"/></symbol><symbol viewBox="0 0 16 16" id="cab-btn-3" xmlns="http://www.w3.org/2000/svg"><path d="M8 5.6c.48 0 .8.4.8.8h1.6c0-1.04-.64-1.92-1.6-2.24V3.2H7.2v.96c-.96.32-1.6 1.2-1.6 2.24 0 1.28 1.04 2.4 2.4 2.4.48 0 .8.4.8.8 0 .48-.4.8-.8.8-.48 0-.8-.4-.8-.8H5.6c0 1.04.64 1.92 1.6 2.24v.96h1.6v-.96c.96-.32 1.6-1.2 1.6-2.24 0-1.36-1.04-2.4-2.4-2.4-.4 0-.8-.4-.8-.8 0-.48.4-.8.8-.8z"/><path d="M14.4 8H16c0-4.4-3.6-8-8-8S0 3.6 0 8s3.6 8 8 8c2.16 0 4.16-.88 5.68-2.32l.72.72v-2.56h-2.56l.72.72C11.36 13.68 9.68 14.4 8 14.4c-3.52 0-6.4-2.88-6.4-6.4 0-3.52 2.88-6.4 6.4-6.4 3.52 0 6.4 2.88 6.4 6.4z"/></symbol><symbol viewBox="0 0 16 16" id="cab-btn-4" xmlns="http://www.w3.org/2000/svg"><path d="M6.723 7.989H5.069a.858.858 0 0 0-.858.857v6.297A.858.858 0 0 0 5.07 16h1.654a.86.86 0 0 0 .857-.857V8.846a.86.86 0 0 0-.857-.857zm5.066-.26V4.44a.857.857 0 0 0-.858-.857H9.277a.858.858 0 0 0-.857.857v5.309a4.422 4.422 0 0 1 3.369-2.02zm3.354-1.943h-1.654a.86.86 0 0 0-.858.857v1.1A4.423 4.423 0 0 1 16 9.969V6.643a.86.86 0 0 0-.857-.857zM2.511 10.194H.857a.858.858 0 0 0-.857.857v4.092A.86.86 0 0 0 .857 16h1.654a.86.86 0 0 0 .858-.857V11.05a.858.858 0 0 0-.858-.857zm4.346-6.765a3.429 3.429 0 1 0-6.857 0 3.429 3.429 0 0 0 6.857 0zm-4.246-.286h1.635a.695.695 0 0 1 .694.694v.817a.694.694 0 0 1-.694.692h-.532v.328a.286.286 0 0 1-.571 0v-.328H2.61a.694.694 0 0 1-.694-.692.286.286 0 0 1 .572 0 .123.123 0 0 0 .122.12h1.635a.123.123 0 0 0 .123-.12v-.817a.124.124 0 0 0-.123-.123H2.61a.695.695 0 0 1-.694-.694v-.817a.694.694 0 0 1 .694-.692h.532v-.328a.286.286 0 1 1 .571 0v.328h.532a.695.695 0 0 1 .694.692.286.286 0 0 1-.571 0 .123.123 0 0 0-.123-.12H2.61a.123.123 0 0 0-.122.12v.817a.124.124 0 0 0 .122.123z"/><path d="M12.143 8.286a3.857 3.857 0 1 0 0 7.714 3.857 3.857 0 0 0 0-7.714zm-2.286 2.428a.857.857 0 1 1 1.714 0 .857.857 0 0 1-1.714 0zm.894 3.223a.272.272 0 0 1-.2.083.281.281 0 0 1-.264-.175.285.285 0 0 1 .062-.31l3.142-3.144a.286.286 0 0 1 .403 0 .286.286 0 0 1 0 .403l-3.143 3.143zm2.82.492a.857.857 0 1 1 0-1.715.857.857 0 0 1 0 1.715z"/><path d="M10.714 11a.286.286 0 1 0 0-.571.286.286 0 0 0 0 .571zm2.857 2.857a.286.286 0 1 0 0-.571.286.286 0 0 0 0 .571z"/></symbol><symbol viewBox="0 0 22 22" id="cab-menu-1" xmlns="http://www.w3.org/2000/svg"><g clip-path="url(#ara)"><path d="M8.48 0H1.603C.72 0 0 .72 0 1.604V5.73c0 .885.72 1.604 1.604 1.604H8.48c.885 0 1.604-.72 1.604-1.604V1.604A1.608 1.608 0 0 0 8.48 0zm0 9.167H1.603C.72 9.167 0 9.887 0 10.77v9.625C0 21.28.72 22 1.604 22H8.48c.885 0 1.604-.72 1.604-1.604V10.77c0-.885-.72-1.604-1.604-1.604zm11.916 5.5H13.52c-.885 0-1.604.72-1.604 1.604v4.125c0 .884.72 1.604 1.604 1.604h6.875C21.28 22 22 21.28 22 20.396V16.27c0-.885-.72-1.604-1.604-1.604zm0-14.667H13.52c-.885 0-1.604.72-1.604 1.604v9.625c0 .885.72 1.604 1.604 1.604h6.875c.884 0 1.604-.72 1.604-1.604V1.604A1.605 1.605 0 0 0 20.396 0z"/></g><defs><clipPath id="ara"><path d="M0 0h22v22H0z"/></clipPath></defs></symbol><symbol viewBox="0 0 24 24" id="cab-menu-2" xmlns="http://www.w3.org/2000/svg"><g clip-path="url(#asa)"><path d="M22.594 11.496v-2.83a2.58 2.58 0 0 0-2.485-2.576V4.354c0-.905-.736-1.64-1.64-1.64h-4.517l-.583-1.622a1.63 1.63 0 0 0-.848-.93 1.63 1.63 0 0 0-1.257-.057L3.067 3.09a1.63 1.63 0 0 0-.926.85 1.63 1.63 0 0 0-.053 1.256l.33.899A2.581 2.581 0 0 0 0 8.666v12.75a2.581 2.581 0 0 0 2.578 2.578h17.438a2.581 2.581 0 0 0 2.578-2.578v-2.923A1.643 1.643 0 0 0 24 16.869v-3.75c0-.825-.612-1.51-1.406-1.623zm0 5.373c0 .13-.105.235-.235.235h-3.75a2.112 2.112 0 0 1-2.109-2.11c0-1.163.946-2.11 2.11-2.11h3.75c.129 0 .234.106.234.235v3.75zM3.409 4.711a.233.233 0 0 1 .14-.3l8.196-2.984a.234.234 0 0 1 .3.14l.412 1.146h-.316c-.905 0-1.641.736-1.641 1.64v1.735H3.913L3.41 4.711zm15.294-.357v1.734h-6.797V4.354c0-.13.105-.235.235-.235h6.328c.129 0 .234.105.234.235zm1.313 18.234H2.578a1.173 1.173 0 0 1-1.172-1.172V8.666c0-.646.526-1.172 1.172-1.172h17.438c.646 0 1.172.526 1.172 1.172v2.813h-2.579a3.52 3.52 0 0 0-3.515 3.515 3.52 3.52 0 0 0 3.515 3.516h2.578v2.906c0 .646-.525 1.172-1.171 1.172z"/><path d="M18.61 15.697a.703.703 0 1 0 0-1.406.703.703 0 0 0 0 1.406z"/></g><defs><clipPath id="asa"><path d="M0 0h24v24H0z"/></clipPath></defs></symbol><symbol viewBox="0 0 24 24" id="cab-menu-3" xmlns="http://www.w3.org/2000/svg"><path d="M12.019 12.321a4.734 4.734 0 0 0 4.729-4.729 4.734 4.734 0 0 0-4.73-4.729 4.734 4.734 0 0 0-4.728 4.73 4.734 4.734 0 0 0 4.729 4.728zm0-7.91a3.184 3.184 0 0 1 3.18 3.181 3.184 3.184 0 0 1-3.18 3.18 3.184 3.184 0 0 1-3.18-3.18 3.184 3.184 0 0 1 3.18-3.18zm-7.46 9.466a2.98 2.98 0 0 0 2.978-2.978 2.98 2.98 0 0 0-2.978-2.977 2.98 2.98 0 0 0-2.978 2.977 2.98 2.98 0 0 0 2.978 2.978zm0-4.407a1.43 1.43 0 0 1 0 2.858 1.43 1.43 0 0 1-1.43-1.429c0-.788.642-1.43 1.43-1.43zm14.882 4.407a2.98 2.98 0 0 0 2.978-2.978 2.98 2.98 0 0 0-2.978-2.977 2.98 2.98 0 0 0-2.977 2.977 2.98 2.98 0 0 0 2.977 2.978zm0-4.407a1.43 1.43 0 0 1 0 2.858 1.43 1.43 0 0 1-1.43-1.429c0-.788.642-1.43 1.43-1.43zM24 16.737v1.277a.774.774 0 1 1-1.548 0v-1.277a.339.339 0 0 0-.2-.31l-1.327-.591h-2.51a2.775 2.775 0 0 1 1.133 2.234v2.292a.774.774 0 0 1-1.548 0V18.07c0-.481-.284-.92-.724-1.116l-2.5-1.117h-.22c-1.043 2.106-4.068 2.108-5.113 0h-.218l-2.5 1.117c-.44.196-.725.635-.725 1.116v2.292a.774.774 0 0 1-1.548 0V18.07c0-.893.43-1.72 1.133-2.234h-2.51l-1.326.592a.339.339 0 0 0-.2.309v1.277a.774.774 0 0 1-1.549 0v-1.277c0-.744.439-1.42 1.118-1.723 1.612-.72 1.573-.727 1.792-.727 3.548 0 3.385-.025 3.592.067l1.123.502 1.12-.5c.193-.086.242-.067 1.235-.067.356 0 .667.243.752.59.324 1.318 2.212 1.319 2.536 0a.774.774 0 0 1 .752-.59h.92c.218 0 .228.028 1.435.567 1.22-.545 1.223-.569 1.439-.569 3.548 0 3.384-.025 3.591.067l1.477.66c.68.303 1.118.98 1.118 1.723z"/></symbol><symbol viewBox="0 0 24 24" id="cab-menu-4" xmlns="http://www.w3.org/2000/svg"><g clip-path="url(#aua)"><path d="M20.485 3.515A11.922 11.922 0 0 0 12 0a11.922 11.922 0 0 0-8.485 3.515A11.922 11.922 0 0 0 0 12c0 3.205 1.248 6.219 3.515 8.485A11.922 11.922 0 0 0 12 24c3.205 0 6.219-1.248 8.485-3.515A11.921 11.921 0 0 0 24 12c0-3.205-1.248-6.219-3.515-8.485zm-.994.994a10.515 10.515 0 0 1 3.08 6.788h-1.883C20.33 6.818 16.57 3.283 12 3.283A8.678 8.678 0 0 0 6.35 5.37L5.014 4.035A10.515 10.515 0 0 1 12 1.406c2.83 0 5.49 1.102 7.49 3.103zM12 19.31c-4.031 0-7.31-3.279-7.31-7.31S7.969 4.69 12 4.69s7.31 3.279 7.31 7.31-3.279 7.31-7.31 7.31zM1.406 12c0-2.59.924-5.039 2.616-6.97l1.334 1.334A8.678 8.678 0 0 0 3.283 12c0 4.565 3.528 8.321 8 8.687v1.882a10.515 10.515 0 0 1-6.774-3.078A10.532 10.532 0 0 1 1.406 12zm18.085 7.49a10.515 10.515 0 0 1-6.802 3.081V20.69c4.253-.334 7.658-3.734 8-7.986h1.881a10.515 10.515 0 0 1-3.08 6.788z"/><path d="M12.94 11.269c-.636-.225-1.34-.497-1.734-.806-.124-.097-.178-.32-.133-.554.022-.117.124-.507.524-.628.656-.197 1.105.065 1.268.187a.703.703 0 1 0 .842-1.127 2.804 2.804 0 0 0-1.047-.47v-.286a.703.703 0 1 0-1.406 0v.332l-.063.018c-.77.232-1.345.888-1.5 1.713-.143.76.105 1.496.647 1.921.447.351 1.065.648 2.134 1.026.71.251.695.827.656 1.062-.08.479-.483.995-1.176 1-.68.004-.891-.03-1.413-.37a.703.703 0 1 0-.77 1.176c.563.368.978.518 1.485.572v.322a.703.703 0 0 0 1.406 0v-.39a2.52 2.52 0 0 0 1.042-.578 2.64 2.64 0 0 0 .812-1.498c.197-1.166-.436-2.22-1.574-2.622z"/></g><defs><clipPath id="aua"><path d="M0 0h24v24H0z"/></clipPath></defs></symbol><symbol viewBox="0 0 24 24" id="cab-menu-5" xmlns="http://www.w3.org/2000/svg"><g clip-path="url(#ava)"><path d="M12.015 17c-2.757 0-5-2.243-5-5s2.243-5 5-5 5 2.243 5 5-2.243 5-5 5zm0-8.5c-1.93 0-3.5 1.57-3.5 3.5s1.57 3.5 3.5 3.5 3.5-1.57 3.5-3.5-1.57-3.5-3.5-3.5z"/><path d="M13.678 24h-3.326c-.8 0-1.507-.568-1.681-1.351l-.421-1.872a9.194 9.194 0 0 1-1.954-1.135l-1.823.576a1.733 1.733 0 0 1-2.024-.789L.79 16.562a1.748 1.748 0 0 1 .32-2.134l1.414-1.299a10.116 10.116 0 0 1-.001-2.258L1.119 9.578a1.746 1.746 0 0 1-.333-2.13l1.668-2.886c.387-.692 1.239-1.02 2.016-.782l1.826.577A9.201 9.201 0 0 1 8.25 3.222l.422-1.874C8.845.568 9.552 0 10.352 0h3.326c.8 0 1.507.568 1.68 1.351l.422 1.872c.686.291 1.34.67 1.954 1.135l1.823-.576c.784-.24 1.632.089 2.024.789l1.658 2.867c.397.71.263 1.584-.321 2.134l-1.413 1.299a10.335 10.335 0 0 1 0 2.258l1.406 1.292.007.006c.584.55.719 1.424.326 2.125l-1.668 2.885c-.387.692-1.237 1.023-2.017.781l-1.826-.577a9.206 9.206 0 0 1-1.954 1.135l-.422 1.874a1.73 1.73 0 0 1-1.68 1.35zm-7.23-5.941a.75.75 0 0 1 .478.171 7.705 7.705 0 0 0 2.229 1.293.75.75 0 0 1 .472.539l.509 2.26a.225.225 0 0 0 .217.178h3.326a.223.223 0 0 0 .216-.176l.51-2.262a.75.75 0 0 1 .472-.539 7.72 7.72 0 0 0 2.229-1.293.747.747 0 0 1 .703-.137l2.2.695c.106.033.218-.006.266-.092l1.668-2.885a.244.244 0 0 0-.048-.289l-1.688-1.552a.75.75 0 0 1-.234-.663 8.92 8.92 0 0 0 .099-1.308c0-.425-.033-.865-.1-1.308a.75.75 0 0 1 .235-.663l1.692-1.556a.244.244 0 0 0 .039-.294L20.28 5.311a.23.23 0 0 0-.272-.1l-2.198.694a.748.748 0 0 1-.703-.137 7.704 7.704 0 0 0-2.23-1.293.749.749 0 0 1-.471-.539l-.51-2.26a.23.23 0 0 0-.218-.176h-3.326a.223.223 0 0 0-.216.176l-.51 2.262a.75.75 0 0 1-.472.539A7.696 7.696 0 0 0 6.926 5.77a.752.752 0 0 1-.703.137l-2.201-.695c-.103-.032-.217.006-.265.092L2.089 8.188a.245.245 0 0 0 .05.292l1.687 1.55a.75.75 0 0 1 .234.662c-.066.443-.1.883-.1 1.308 0 .425.034.865.1 1.308a.75.75 0 0 1-.234.663l-1.692 1.556a.245.245 0 0 0-.04.294l1.659 2.867a.23.23 0 0 0 .272.1l2.198-.694a.73.73 0 0 1 .226-.035z"/></g><defs><clipPath id="ava"><path d="M0 0h24v24H0z"/></clipPath></defs></symbol><symbol viewBox="0 0 24 24" id="cab-menu-6" xmlns="http://www.w3.org/2000/svg"><g clip-path="url(#awa)"><path d="M19.422 10.714l-.438.217V2.813c0-1.163-.946-2.11-2.11-2.11H2.11C.946.703 0 1.65 0 2.813v11.296c0 1.164.946 2.11 2.11 2.11h6.374v1.218c0 .783.552 1.44 1.286 1.602l-.573 3.44a.703.703 0 0 0 .694.818h2.812c.34 0 .633-.245.692-.58l.636-3.573 5.39 2.673a.704.704 0 0 0 1.016-.63v-9.843a.704.704 0 0 0-1.015-.63zM1.406 14.109V2.813c0-.388.316-.704.703-.704h14.766c.388 0 .703.316.703.704v8.815l-3.68 1.825h-3.773c-.809 0-1.482.588-1.616 1.36h-6.4a.704.704 0 0 1-.703-.704zm8.719 3.563a.235.235 0 0 1-.234-.235v-2.343c0-.13.105-.235.234-.235h3.234v2.813h-3.234zm.596 4.219l.468-2.813h1.425l-.5 2.813H10.72zm8.31-1.837l-4.265-2.115v-3.347l4.265-2.115v7.577zm3.797-5.957l.75-.328a.703.703 0 1 0-.563-1.288l-.75.328a.703.703 0 0 0 .563 1.288zm.75 4.665l-.75-.328a.703.703 0 0 0-.563 1.288l.75.328a.703.703 0 0 0 .563-1.288zm-.281-3.199h-.75a.703.703 0 0 0 0 1.406h.75a.703.703 0 0 0 0-1.407z"/><path d="M12.619 9.09a.704.704 0 0 0 0-1.258L6.994 5.02a.704.704 0 0 0-1.017.628v5.625c0 .523.55.863 1.017.63L12.62 9.09zM7.383 6.786l3.35 1.675-3.35 1.675v-3.35z"/></g><defs><clipPath id="awa"><path d="M0 0h24v24H0z"/></clipPath></defs></symbol><symbol viewBox="0 0 24 24" id="cab-menu-7" xmlns="http://www.w3.org/2000/svg"><g clip-path="url(#axa)"><path d="M17.416 13.94a.75.75 0 0 0-.75.75v2.927c0 .565-.46 1.025-1.025 1.025h-3.933V6.926c0-.927-.46-1.724-1.262-2.187L4.836 1.5H15.64c.566 0 1.025.46 1.025 1.025v3.34a.75.75 0 0 0 1.5 0v-3.34A2.528 2.528 0 0 0 15.641 0H3.812a2.528 2.528 0 0 0-2.525 2.525v15.842c0 .927.46 1.724 1.262 2.187l5.371 3.101c.401.232.832.348 1.263.348.43 0 .861-.116 1.263-.348a2.468 2.468 0 0 0 1.262-2.187v-1.326h3.933a2.528 2.528 0 0 0 2.525-2.525v-2.928a.75.75 0 0 0-.75-.75zm-7.208 7.528a.99.99 0 0 1-.512.888.99.99 0 0 1-1.026 0l-5.37-3.1a.99.99 0 0 1-.513-.889V2.525c0-.15.032-.294.091-.423l6.818 3.936a.99.99 0 0 1 .512.888v14.542zm12.286-10.867l-2.438 2.438a.748.748 0 0 1-1.06 0 .75.75 0 0 1 0-1.061l1.157-1.157h-6.89a.75.75 0 0 1 0-1.5h6.89l-1.157-1.157a.75.75 0 1 1 1.06-1.06l2.438 2.437a.75.75 0 0 1 0 1.06z"/></g><defs><clipPath id="axa"><path d="M0 0h24v24H0z"/></clipPath></defs></symbol><symbol viewBox="0 0 36 36" id="cab-plan-1" xmlns="http://www.w3.org/2000/svg"><g clip-path="url(#aya)"><path d="M35.711 16.748L28.206 1.565A2.792 2.792 0 0 0 25.686 0H13.344a2.255 2.255 0 0 0-2.25 2.25v1.794h-8.92A2.173 2.173 0 0 0 0 6.222l.03 11.914.03 11.652a2.175 2.175 0 0 0 2.172 2.168h8.86v1.794a2.255 2.255 0 0 0 2.25 2.25h12.345a2.825 2.825 0 0 0 2.518-1.565l7.506-15.198a2.825 2.825 0 0 0 0-2.489zm-24.403 7.624c-.321 0-.572-.09-.751-.27-.18-.18-.27-.423-.269-.732 0-.321.09-.562.269-.722.179-.16.43-.241.75-.241h2.077v-8.408l-1.576.954c-.234.137-.454.19-.658.158a.905.905 0 0 1-.52-.26 1.073 1.073 0 0 1-.286-.51.96.96 0 0 1 .046-.602c.094-.22.261-.4.473-.51l2.558-1.539a6.11 6.11 0 0 1 .742-.38c.216-.098.449-.151.686-.157a.99.99 0 0 1 .649.21c.173.142.259.373.259.696v10.348h1.891c.322 0 .572.08.751.24.18.161.269.402.269.724 0 .321-.09.568-.269.741-.179.173-.429.26-.75.26h-6.341zm23.68-5.492l-7.506 15.198a2 2 0 0 1-1.795 1.116H13.343a1.446 1.446 0 0 1-1.446-1.444v-2.531h11.165a1.725 1.725 0 0 0 1.445-.923l5.741-11.623a1.542 1.542 0 0 0 0-1.358L24.51 5.704a1.526 1.526 0 0 0-.351-.46 1.53 1.53 0 0 0-1.096-.463H11.896V2.25A1.446 1.446 0 0 1 13.343.804h12.344a2.006 2.006 0 0 1 1.797 1.116l7.504 15.186a1.998 1.998 0 0 1 0 1.774z"/></g><defs><clipPath id="aya"><path d="M0 0h36v36H0z"/></clipPath></defs></symbol><symbol viewBox="0 0 36 36" id="cab-plan-2" xmlns="http://www.w3.org/2000/svg"><g clip-path="url(#aza)"><path fill-rule="evenodd" clip-rule="evenodd" d="M25.686 0a2.792 2.792 0 0 1 2.52 1.565l7.505 15.183a2.826 2.826 0 0 1 0 2.49l-7.506 15.197A2.826 2.826 0 0 1 25.687 36H13.341a2.255 2.255 0 0 1-2.25-2.25v-1.794h-8.86A2.176 2.176 0 0 1 .06 29.788L.03 18.137 0 6.222a2.175 2.175 0 0 1 2.173-2.178h8.92V2.25A2.256 2.256 0 0 1 13.343 0h12.343zM13.343.804a1.447 1.447 0 0 0-1.447 1.446v2.531h11.166a1.53 1.53 0 0 1 1.096.462c.146.13.265.287.352.461l5.738 11.611a1.544 1.544 0 0 1 0 1.358l-5.74 11.623a1.726 1.726 0 0 1-1.445.923H11.896v2.531a1.447 1.447 0 0 0 1.446 1.444h12.343a2.002 2.002 0 0 0 1.796-1.116l7.506-15.198a1.999 1.999 0 0 0 0-1.774L27.483 1.92A2.007 2.007 0 0 0 25.686.804H13.343zm-.175 8.9c-1.07 0-2.035.187-2.895.562a6.08 6.08 0 0 0-2.191 1.629c-.61.703-1.078 1.55-1.406 2.543-.32.992-.48 2.101-.48 3.328v1.418c0 1.226.156 2.335.468 3.328.32.992.781 1.84 1.383 2.543a6.243 6.243 0 0 0 2.168 1.617c.844.375 1.793.562 2.848.562 1.374 0 2.542-.25 3.503-.75.961-.5 1.707-1.183 2.239-2.05.53-.875.843-1.872.937-2.989h-2.93c-.085.742-.265 1.371-.539 1.887a2.65 2.65 0 0 1-1.183 1.16c-.516.266-1.192.399-2.027.399-.688 0-1.278-.137-1.77-.41a3.392 3.392 0 0 1-1.219-1.16c-.312-.5-.547-1.098-.703-1.794a11.373 11.373 0 0 1-.223-2.343v-1.442c0-.906.082-1.71.247-2.414.171-.71.425-1.308.761-1.793a3.318 3.318 0 0 1 1.254-1.101c.5-.25 1.086-.375 1.758-.375.82 0 1.484.14 1.992.421.508.274.89.672 1.149 1.196.265.523.437 1.152.515 1.886h2.93c-.117-1.14-.438-2.152-.961-3.035a5.418 5.418 0 0 0-2.18-2.074c-.937-.5-2.086-.75-3.445-.75z"/></g><defs><clipPath id="aza"><path d="M0 0h36v36H0z"/></clipPath></defs></symbol><symbol viewBox="0 0 36 36" id="cab-plan-3" xmlns="http://www.w3.org/2000/svg"><g clip-path="url(#baa)"><path fill-rule="evenodd" clip-rule="evenodd" d="M25.686 0a2.792 2.792 0 0 1 2.52 1.565l7.505 15.183a2.826 2.826 0 0 1 0 2.49l-7.506 15.197A2.826 2.826 0 0 1 25.687 36H13.341a2.255 2.255 0 0 1-2.25-2.25v-1.794h-8.86A2.176 2.176 0 0 1 .06 29.788L.03 18.137 0 6.222a2.175 2.175 0 0 1 2.173-2.178h8.92V2.25A2.256 2.256 0 0 1 13.343 0h12.343zM13.343.804a1.447 1.447 0 0 0-1.447 1.446v2.531h11.166a1.53 1.53 0 0 1 1.096.462c.146.13.265.287.352.461l5.738 11.611a1.544 1.544 0 0 1 0 1.358l-5.74 11.623a1.726 1.726 0 0 1-1.445.923H11.896v2.531a1.447 1.447 0 0 0 1.446 1.444h12.343a2.002 2.002 0 0 0 1.796-1.116l7.506-15.198a1.999 1.999 0 0 0 0-1.774L27.483 1.92A2.007 2.007 0 0 0 25.686.804H13.343zM6.734 9.937V27h6.27c1.242 0 2.305-.188 3.187-.563.883-.382 1.559-.94 2.028-1.675.476-.735.715-1.645.715-2.73 0-.704-.149-1.36-.446-1.97a3.602 3.602 0 0 0-1.36-1.488 3.716 3.716 0 0 0-1.08-.455 4.37 4.37 0 0 0 .472-.224c.656-.368 1.152-.84 1.488-1.418.336-.586.504-1.23.504-1.934 0-.797-.137-1.484-.41-2.063a3.562 3.562 0 0 0-1.184-1.43c-.516-.382-1.145-.663-1.887-.843-.734-.18-1.57-.27-2.508-.27H6.734zm6.399 9.352c.68 0 1.23.113 1.652.34.422.219.73.535.926.95.195.405.293.886.293 1.44 0 .532-.113.997-.34 1.395-.219.39-.55.7-.996.926-.445.219-1 .328-1.664.328H9.676v-5.379h3.457zm-.61-7.008c.696 0 1.266.082 1.711.246.454.164.79.426 1.008.786.219.359.328.824.328 1.394 0 .516-.117.957-.351 1.324-.235.36-.578.637-1.031.832-.446.188-.989.282-1.63.282H9.677V12.28h2.847z"/></g><defs><clipPath id="baa"><path d="M0 0h36v36H0z"/></clipPath></defs></symbol><symbol viewBox="0 0 36 36" id="cab-plan-4" xmlns="http://www.w3.org/2000/svg"><g clip-path="url(#bba)"><path fill-rule="evenodd" clip-rule="evenodd" d="M25.686 0a2.792 2.792 0 0 1 2.52 1.565l7.505 15.183a2.826 2.826 0 0 1 0 2.49l-7.506 15.197A2.826 2.826 0 0 1 25.687 36H13.341a2.255 2.255 0 0 1-2.25-2.25v-1.794h-8.86A2.176 2.176 0 0 1 .06 29.788L.03 18.137 0 6.222a2.175 2.175 0 0 1 2.173-2.178h8.92V2.25A2.256 2.256 0 0 1 13.343 0h12.343zM13.343.804a1.447 1.447 0 0 0-1.447 1.446v2.531h11.166a1.53 1.53 0 0 1 1.096.462c.146.13.265.287.352.461l5.738 11.611a1.543 1.543 0 0 1 0 1.358l-5.74 11.623a1.726 1.726 0 0 1-1.445.923H11.896v2.531a1.447 1.447 0 0 0 1.446 1.444h12.343a2.003 2.003 0 0 0 1.796-1.116l7.506-15.198a1.999 1.999 0 0 0 0-1.774L27.483 1.92A2.007 2.007 0 0 0 25.686.804H13.343zM6.734 9.938V27h11.168v-2.332H9.676v-5.309h7.043v-2.297H9.676v-4.78h8.168V9.937H6.734z"/></g><defs><clipPath id="bba"><path d="M0 0h36v36H0z"/></clipPath></defs></symbol><symbol viewBox="0 0 36 36" id="cab-plan-5" xmlns="http://www.w3.org/2000/svg"><g clip-path="url(#bca)"><path fill-rule="evenodd" clip-rule="evenodd" d="M25.686 0a2.792 2.792 0 0 1 2.52 1.565l7.505 15.183a2.826 2.826 0 0 1 0 2.49l-7.506 15.197A2.826 2.826 0 0 1 25.687 36H13.341a2.255 2.255 0 0 1-2.25-2.25v-1.794h-8.86A2.176 2.176 0 0 1 .06 29.788L.03 18.137 0 6.222a2.175 2.175 0 0 1 2.173-2.178h8.92V2.25A2.256 2.256 0 0 1 13.343 0h12.343zM13.343.804a1.447 1.447 0 0 0-1.447 1.446v2.531h11.166a1.53 1.53 0 0 1 1.096.462c.146.13.265.287.352.461l5.738 11.611a1.543 1.543 0 0 1 0 1.358l-5.74 11.623a1.726 1.726 0 0 1-1.445.923H11.896v2.531a1.447 1.447 0 0 0 1.446 1.444h12.343a2.003 2.003 0 0 0 1.796-1.116l7.506-15.198a1.999 1.999 0 0 0 0-1.774L27.483 1.92A2.007 2.007 0 0 0 25.686.804H13.343zm-.855 8.9c-.898 0-1.718.116-2.46.35a6 6 0 0 0-1.934.973 4.43 4.43 0 0 0-1.254 1.477 4.139 4.139 0 0 0-.434 1.898c0 .704.14 1.325.422 1.864a4.61 4.61 0 0 0 1.184 1.418 8.56 8.56 0 0 0 1.781 1.078 20.48 20.48 0 0 0 2.25.832c.742.226 1.352.449 1.828.668.484.21.86.43 1.125.656.266.227.45.477.55.75.11.273.165.586.165.938 0 .46-.117.867-.352 1.218-.234.352-.586.625-1.054.82-.461.196-1.035.294-1.723.294a5.974 5.974 0 0 1-1.477-.176 3.632 3.632 0 0 1-1.195-.54 2.613 2.613 0 0 1-.808-.96c-.188-.39-.282-.864-.282-1.418H5.88c0 .906.191 1.699.574 2.379A5.148 5.148 0 0 0 8 25.91a7.156 7.156 0 0 0 2.156.996 9.125 9.125 0 0 0 2.426.328c.914 0 1.742-.105 2.484-.316.75-.219 1.391-.527 1.922-.926a4.199 4.199 0 0 0 1.242-1.465c.29-.578.434-1.226.434-1.945 0-.687-.117-1.3-.352-1.84a4.245 4.245 0 0 0-1.054-1.465c-.469-.43-1.055-.812-1.758-1.148a16.133 16.133 0 0 0-2.473-.938 14.457 14.457 0 0 1-1.629-.562 5.969 5.969 0 0 1-1.148-.621 2.46 2.46 0 0 1-.68-.727 1.77 1.77 0 0 1-.222-.879c0-.453.113-.859.34-1.218.226-.36.57-.645 1.03-.856.462-.21 1.04-.316 1.735-.316.735 0 1.34.125 1.817.375.484.25.843.593 1.078 1.031.242.43.363.926.363 1.488h2.918c0-.953-.25-1.824-.75-2.613-.492-.79-1.2-1.418-2.121-1.887-.914-.468-2.004-.703-3.27-.703z"/></g><defs><clipPath id="bca"><path d="M0 0h36v36H0z"/></clipPath></defs></symbol><symbol viewBox="0 0 36 36" id="cab-plan-logo" xmlns="http://www.w3.org/2000/svg"><g clip-path="url(#bda)"><path d="M25.686 0a2.792 2.792 0 0 1 2.52 1.565l7.505 15.183a2.826 2.826 0 0 1 0 2.49l-7.506 15.197A2.826 2.826 0 0 1 25.687 36H13.341a2.255 2.255 0 0 1-2.25-2.25v-1.794h-8.86A2.176 2.176 0 0 1 .06 29.788L.03 18.137 0 6.222a2.175 2.175 0 0 1 2.173-2.178h8.92V2.25A2.256 2.256 0 0 1 13.343 0h12.343zM13.343.804a1.447 1.447 0 0 0-1.447 1.446v2.531h11.166a1.53 1.53 0 0 1 1.096.462c.146.13.265.287.352.461l5.738 11.611a1.542 1.542 0 0 1 0 1.358l-5.74 11.623a1.726 1.726 0 0 1-1.445.923H11.896v2.531a1.447 1.447 0 0 0 1.446 1.444h12.343a2.002 2.002 0 0 0 1.796-1.116l7.506-15.198a1.999 1.999 0 0 0 0-1.774L27.483 1.92A2.007 2.007 0 0 0 25.686.804H13.343zm-.175 8.9c-1.07 0-2.035.187-2.895.562a6.08 6.08 0 0 0-2.191 1.629c-.61.703-1.078 1.55-1.406 2.543-.32.992-.48 2.101-.48 3.328v1.418c0 1.226.156 2.335.468 3.328.32.992.781 1.84 1.383 2.543a6.243 6.243 0 0 0 2.168 1.617c.844.375 1.793.562 2.848.562 1.374 0 2.542-.25 3.503-.75.961-.5 1.707-1.183 2.239-2.05.53-.875.843-1.872.937-2.989h-2.93c-.085.742-.265 1.371-.539 1.887a2.65 2.65 0 0 1-1.183 1.16c-.516.266-1.192.399-2.027.399-.688 0-1.278-.137-1.77-.41a3.392 3.392 0 0 1-1.219-1.16c-.312-.5-.547-1.098-.703-1.794a11.373 11.373 0 0 1-.223-2.343v-1.442c0-.906.082-1.71.247-2.414.171-.71.425-1.308.761-1.793a3.319 3.319 0 0 1 1.254-1.101c.5-.25 1.086-.375 1.758-.375.82 0 1.484.14 1.992.421.508.274.89.672 1.149 1.196.265.523.437 1.152.515 1.886h2.93c-.117-1.14-.438-2.152-.961-3.035a5.418 5.418 0 0 0-2.18-2.074c-.937-.5-2.086-.75-3.445-.75z"/></g><defs><clipPath id="bda"><path d="M0 0h36v36H0z"/></clipPath></defs></symbol><symbol viewBox="0 0 18 18" id="cancel" xmlns="http://www.w3.org/2000/svg"><path d="M14.245 0H3.755C1.685 0 0 1.692 0 3.772v10.456C0 16.308 1.684 18 3.755 18h10.49C16.315 18 18 16.308 18 14.228V3.772C18 1.692 16.316 0 14.245 0zm2.38 14.228a2.388 2.388 0 0 1-2.38 2.39H3.755a2.388 2.388 0 0 1-2.38-2.39V3.772a2.388 2.388 0 0 1 2.38-2.39h10.49a2.388 2.388 0 0 1 2.38 2.39v10.456z"/><path d="M12.234 5.588a.569.569 0 0 0-.805-.003L8.9 8.103 6.373 5.567a.569.569 0 0 0-.806 0 .572.572 0 0 0 0 .808l2.526 2.533-2.506 2.496a.572.572 0 0 0 .402.977c.145 0 .29-.055.401-.166L8.9 9.716l2.51 2.517a.567.567 0 0 0 .805 0 .572.572 0 0 0 0-.808L9.707 8.91l2.525-2.515a.572.572 0 0 0 .002-.808z"/></symbol><symbol viewBox="0 0 10 10" id="check" xmlns="http://www.w3.org/2000/svg"><g clip-path="url(#bfa)"><path d="M9.96 2.426l-6.201 6.2a.14.14 0 0 1-.198 0l-3.52-3.52a.14.14 0 0 1 0-.197l.855-.856a.14.14 0 0 1 .198 0L3.66 6.62l5.246-5.246a.14.14 0 0 1 .198 0l.855.856a.14.14 0 0 1 0 .197z"/></g><defs><clipPath id="bfa"><path d="M0 0h10v10H0z"/></clipPath></defs></symbol><symbol viewBox="0 0 14 14" id="check-2" xmlns="http://www.w3.org/2000/svg"><path d="M12.25 0H1.75C.785 0 0 .785 0 1.75v7.875c0 .965.785 1.75 1.75 1.75h2.625v2.297c0 .268.306.424.522.265l3.415-2.562h3.938c.965 0 1.75-.785 1.75-1.75V1.75C14 .785 13.215 0 12.25 0zm-2.13 4.479L6.538 8.034a.3.3 0 0 1-.427-.003l-2.07-2.086a.302.302 0 0 1 .003-.427l.711-.705a.302.302 0 0 1 .427.002l1.15 1.162 2.659-2.636a.302.302 0 0 1 .426.003l.706.711a.301.301 0 0 1-.003.424z"/></symbol><symbol viewBox="0 0 18 18" id="check-3" xmlns="http://www.w3.org/2000/svg"><path fill-rule="evenodd" clip-rule="evenodd" d="M9 3a6 6 0 1 0 5.895 4.873.75.75 0 1 1 1.473-.28 7.5 7.5 0 1 1-4.035-5.314.75.75 0 1 1-.667 1.344A5.973 5.973 0 0 0 9 3zm7.398.747a.75.75 0 0 1-.27 1.026l-.166.097a15.701 15.701 0 0 0-6.222 6.723.75.75 0 0 1-1.206.204L5.524 8.79a.75.75 0 1 1 1.06-1.061l2.288 2.285a17.202 17.202 0 0 1 6.334-6.44l.166-.097a.75.75 0 0 1 1.026.27z"/></symbol><symbol viewBox="0 0 18 18" id="close" xmlns="http://www.w3.org/2000/svg"><g clip-path="url(#bia)"><path d="M18 2.077L15.923 0 9 6.923 2.077 0 0 2.077 6.923 9 0 15.923 2.077 18 9 11.077 15.923 18 18 15.923 11.077 9 18 2.077z"/></g><defs><clipPath id="bia"><path d="M0 0h18v18H0z"/></clipPath></defs></symbol><symbol viewBox="0 0 16 16" id="copy" xmlns="http://www.w3.org/2000/svg"><path d="M10.461 0H2.256C1.01 0 0 .916 0 2.047v8.93c0 1.13 1.01 2.046 2.256 2.046h8.205c1.247 0 2.257-.916 2.257-2.046v-8.93C12.718.917 11.708 0 10.46 0z"/><path d="M13.744 16H5.538a2.38 2.38 0 0 1-1.595-.6 1.956 1.956 0 0 1-.661-1.447v-8.93c0-.542.238-1.063.661-1.446a2.38 2.38 0 0 1 1.595-.6h8.206a2.38 2.38 0 0 1 1.595.6c.423.383.66.904.661 1.446v8.93c0 .543-.238 1.063-.661 1.447a2.38 2.38 0 0 1-1.595.6zM5.538 4.093c-.271 0-.532.098-.724.273a.89.89 0 0 0-.301.657v8.93a.89.89 0 0 0 .3.658c.193.174.454.272.725.273h8.206c.271 0 .532-.099.724-.273a.89.89 0 0 0 .301-.658v-8.93a.89.89 0 0 0-.3-.657 1.083 1.083 0 0 0-.725-.273H5.538z"/></symbol><symbol viewBox="0 0 256 256" id="dash" xmlns="http://www.w3.org/2000/svg"><path d="M128 256c70.692 0 128-57.308 128-128C256 57.308 198.692 0 128 0 57.308 0 0 57.308 0 128c0 70.692 57.308 128 128 128zM71.519 103.269c.12-.432.217-.86.355-1.273 2.469-7.398 4.942-14.794 7.416-22.19.43-1.288.433-1.291 1.816-1.291l73.246-.001c13.361 0 26.722.011 40.083-.007 3.812-.006 7.342.988 10.646 2.822 1.776.985 3.177 2.383 4.25 4.121 1.79 2.898 2.648 6.058 3.033 9.427.388 3.411-.23 6.586-1.363 9.786-1.548 4.37-2.85 8.827-4.257 13.247-3.595 11.294-7.17 22.595-10.8 33.878-.76 2.36-2.012 4.515-3.188 6.695-2.382 4.414-5.868 7.847-9.642 11.047-2.749 2.331-5.876 4.063-8.97 5.866-2.835 1.652-5.938 2.332-9.125 2.719-1.566.19-3.158.222-4.738.223-37.19.011-74.382.01-111.573.007-.541 0-1.082-.035-1.775-.058.098-.475.134-.838.247-1.175a16777.6 16777.6 0 0 1 7.59-22.684c.345-1.031.359-1.031 1.576-1.031 14.98-.002 29.96-.001 44.94-.001h56.509c1.132-.007 1.138-.005 1.5-1.112 2.603-7.97 5.2-15.941 7.805-23.91 2.54-7.774 5.086-15.546 7.625-23.32.136-.415.235-.843.388-1.399-.54-.031-.97-.079-1.402-.079-7.06-.004-14.12-.003-21.179-.003-26.378 0-52.756 0-79.134-.005-.604 0-1.239.115-1.88-.3m-28.282 36.294c.15-.537.24-.96.386-1.363 2.311-6.417 4.63-12.831 6.947-19.246.21-.58.42-1.16.626-1.742.144-.404.415-.608.856-.587.274.013.549-.002.824-.002 19.402 0 38.804 0 58.207.003.47 0 .94.039 1.558.066-.126.505-.196.897-.32 1.271-2.265 6.8-4.536 13.596-6.808 20.393-.436 1.303-.442 1.305-1.803 1.305H47.46c-1.03 0-2.06.007-3.09-.004-.33-.004-.661-.053-1.133-.094" fill-rule="evenodd"/></symbol><symbol id="dash-logo" viewBox="0 0 72.2 42.52" xmlns="http://www.w3.org/2000/svg"><defs><style>.blcls-1{fill:#363635}</style></defs><path class="blcls-1" d="M72.1 6.74a7.76 7.76 0 0 0-1.1-3.5A5 5 0 0 0 68.36.83 7.93 7.93 0 0 0 64.59 0h-49l-3.47 10.52h44.36l-7 21.48H5.13L1.62 42.52h49.19a13.34 13.34 0 0 0 4.29-.83A28.68 28.68 0 0 0 59.39 39a20.45 20.45 0 0 0 3.51-3.5 22.8 22.8 0 0 0 2.16-4.05L71.56 11a7.57 7.57 0 0 0 .54-4.28z"/><path class="blcls-1" d="M29.61 16.39H3.51L0 26.1h26.37z"/></symbol><symbol viewBox="0 0 14 14" id="delete" xmlns="http://www.w3.org/2000/svg"><path d="M13.5.875H9.75L9.456.364A.698.698 0 0 0 9.18.098.831.831 0 0 0 8.784 0H5.212a.822.822 0 0 0-.394.098.688.688 0 0 0-.274.266L4.25.875H.5a.538.538 0 0 0-.354.128.412.412 0 0 0-.146.31v.875c0 .116.053.227.146.309a.54.54 0 0 0 .354.128h13a.54.54 0 0 0 .354-.128.412.412 0 0 0 .146-.31v-.874a.412.412 0 0 0-.146-.31.539.539 0 0 0-.354-.128zM1.662 12.77c.024.333.192.646.47.874.279.229.646.356 1.027.356h7.682c.381 0 .748-.127 1.027-.356.278-.229.446-.541.47-.874L13 3.5H1l.663 9.27z"/></symbol><symbol viewBox="0 0 2000 2000" id="doge" xmlns="http://www.w3.org/2000/svg"><path d="M1024 659H881.12v281.69h224.79v117.94H881.12v281.67H1031c38.51 0 316.16 4.35 315.73-327.72S1077.44 659 1024 659z"/><path d="M1000 0C447.71 0 0 447.71 0 1000s447.71 1000 1000 1000 1000-447.71 1000-1000S1552.29 0 1000 0zm39.29 1540.1H677.14v-481.46H549.48V940.7h127.65V459.21h310.82c73.53 0 560.56-15.27 560.56 549.48 0 574.09-509.21 531.41-509.21 531.41z"/></symbol><symbol id="doge-logo" viewBox="0 0 44.51 48.19" xmlns="http://www.w3.org/2000/svg"><defs><style>.bocls-1{fill:#363635}</style></defs><path class="bocls-1" d="M21.82 48.16s22.69 1.9 22.69-23.68C44.51-.68 22.81 0 19.53 0H5.69v21.45H0v5.26h5.69v21.45zm-7-21.45h10v-5.26h-10V8.9h6.36c2.38 0 14.36 1 14.38 15.76s-12.35 14.6-14.07 14.6h-6.71z"/></symbol><symbol viewBox="0 0 16 16" id="dots" xmlns="http://www.w3.org/2000/svg"><path d="M6.5 8c0 .827.673 1.5 1.5 1.5S9.5 8.827 9.5 8 8.827 6.5 8 6.5 6.5 7.173 6.5 8zm0 5c0 .827.673 1.5 1.5 1.5s1.5-.673 1.5-1.5-.673-1.5-1.5-1.5-1.5.673-1.5 1.5zm0-10c0 .827.673 1.5 1.5 1.5S9.5 3.827 9.5 3 8.827 1.5 8 1.5 6.5 2.173 6.5 3z"/></symbol><symbol viewBox="0 0 24 24" id="eth" xmlns="http://www.w3.org/2000/svg"><g clip-path="url(#bqa)"><path d="M12 24c6.627 0 12-5.373 12-12S18.627 0 12 0 0 5.373 0 12s5.373 12 12 12z"/><path d="M12.373 3v6.652l5.623 2.513L12.374 3z" fill="#fff" class="bqfill" fill-opacity=".602"/><path d="M12.373 3L6.75 12.165l5.623-2.512V3z" fill="#fff" class="bqfill"/><path d="M12.373 16.476v4.52L18 13.212l-5.627 3.264z" fill="#fff" class="bqfill" fill-opacity=".602"/><path d="M12.373 20.996v-4.52L6.75 13.211l5.623 7.784z" fill="#fff" class="bqfill"/><path d="M12.373 15.43l5.623-3.265-5.622-2.511v5.776z" fill="#fff" class="bqfill" fill-opacity=".2"/><path d="M6.75 12.165l5.623 3.265V9.654l-5.623 2.51z" fill="#fff" class="bqfill" fill-opacity=".602"/></g><defs><clipPath id="bqa"><path fill="#fff" class="bqfill" d="M0 0h24v24H0z"/></clipPath></defs></symbol><symbol id="eth-logo" viewBox="0 0 42.32 68.03" xmlns="http://www.w3.org/2000/svg"><defs><style>.brcls-1{fill:#363635}</style></defs><path class="brcls-1" d="M21.65 47.38l20.67-12.22-20.67-9.4v21.62zm0-22.69l20.49 9.32L21.65 0v24.69zM.67 39.85l20 28.18V51.67l-20-11.82zm40.99 0L21.65 51.67v16.36l20.01-28.18zm-20.99 7.53V25.76L0 35.16l20.67 12.22zm0-47.38L.18 34.01l20.49-9.32V0z"/></symbol><symbol viewBox="0 0 24 24" id="fb" xmlns="http://www.w3.org/2000/svg"><g clip-path="url(#bsa)"><path d="M24 12c0-6.628-5.372-12-12-12S0 5.372 0 12s5.372 12 12 12c.07 0 .14 0 .21-.005v-9.337H9.634v-3.005h2.578V9.441c0-2.564 1.566-3.961 3.853-3.961 1.097 0 2.04.08 2.311.117v2.681H16.8c-1.242 0-1.486.59-1.486 1.458v1.912h2.977l-.39 3.005h-2.587v8.883C20.33 22.096 24 17.48 24 12z"/></g><defs><clipPath id="bsa"><path d="M0 0h24v24H0z"/></clipPath></defs></symbol><symbol viewBox="0 0 24 24" id="inst" xmlns="http://www.w3.org/2000/svg"><g clip-path="url(#bta)"><path d="M14.297 12a2.297 2.297 0 1 1-4.594 0 2.297 2.297 0 0 1 4.594 0z"/><path d="M17.372 7.936a2.128 2.128 0 0 0-.516-.792 2.133 2.133 0 0 0-.792-.516c-.243-.094-.608-.206-1.28-.237-.726-.033-.944-.04-2.784-.04-1.84 0-2.058.007-2.784.04-.672.03-1.037.143-1.28.237-.3.11-.57.287-.792.516a2.136 2.136 0 0 0-.516.792c-.094.243-.206.608-.237 1.28-.033.726-.04.944-.04 2.784 0 1.84.007 2.058.04 2.785.03.671.143 1.036.237 1.28.11.298.287.57.516.791.222.23.493.405.792.516.243.094.608.207 1.28.237.726.033.944.04 2.784.04 1.84 0 2.058-.007 2.784-.04.672-.03 1.037-.143 1.28-.237a2.282 2.282 0 0 0 1.308-1.308c.094-.243.206-.607.237-1.28.033-.726.04-.944.04-2.784 0-1.84-.007-2.058-.04-2.784-.03-.672-.143-1.037-.237-1.28zM12 15.538a3.538 3.538 0 1 1 0-7.076 3.538 3.538 0 0 1 0 7.076zm3.678-6.39a.827.827 0 1 1 0-1.653.827.827 0 0 1 0 1.654z"/><path d="M12 0C5.374 0 0 5.374 0 12s5.374 12 12 12 12-5.374 12-12S18.626 0 12 0zm6.85 14.84c-.034.734-.15 1.235-.321 1.674a3.524 3.524 0 0 1-2.015 2.015c-.439.17-.94.287-1.673.32-.735.034-.97.042-2.84.042-1.872 0-2.107-.008-2.842-.042-.733-.033-1.234-.15-1.672-.32a3.375 3.375 0 0 1-1.221-.795 3.377 3.377 0 0 1-.795-1.22c-.17-.439-.287-.94-.32-1.673-.034-.735-.042-.97-.042-2.841 0-1.871.008-2.106.042-2.84.033-.734.15-1.235.32-1.674.173-.46.444-.876.795-1.22a3.38 3.38 0 0 1 1.22-.795c.439-.17.94-.287 1.673-.32.735-.034.97-.042 2.841-.042 1.871 0 2.106.008 2.84.042.734.033 1.235.15 1.674.32.46.173.876.444 1.22.795.35.344.622.76.795 1.22.17.439.287.94.32 1.673.034.735.042.97.042 2.841 0 1.871-.008 2.106-.042 2.84z"/></g><defs><clipPath id="bta"><path d="M0 0h24v24H0z"/></clipPath></defs></symbol><symbol viewBox="0 0 226.777 226.777" id="ltc" xmlns="http://www.w3.org/2000/svg"><path d="M113.441 0C50.789 0 0 50.79 0 113.443c0 62.654 50.789 113.441 113.441 113.441 62.654 0 113.443-50.787 113.443-113.441C226.885 50.79 176.096 0 113.441 0zm44.036 168.762H68.839l7.45-35.566-14.486 9.933 3.519-19.463 15.151-10.43 14.862-70.939h27.671l-10.232 48.71L148.8 66.213l-4.222 20.167-36.02 24.693-7.126 33.93H162.4l-4.923 23.759z"/></symbol><symbol id="ltc-logo" viewBox="0 0 46.48 51.02" xmlns="http://www.w3.org/2000/svg"><defs><style>.bvcls-1{fill:#363635}</style></defs><path class="bvcls-1" d="M20.26 41l3.31-12.48 7.85-2.86 1.95-7.34-.07-.18L25.58 21l5.56-21H15.36L8.08 27.35 2 29.57l-2 7.56 6.07-2.22L1.78 51h42l2.7-10z"/></symbol><symbol viewBox="0 0 12 12" id="minus" xmlns="http://www.w3.org/2000/svg"><path d="M2.5 6h7" stroke-width="2" stroke-linecap="round" stroke-linejoin="round"/></symbol><symbol viewBox="0 0 512 512" id="monero" xmlns="http://www.w3.org/2000/svg"><circle cx="256" cy="256" r="256"/><path d="M364.2 393.163h107.979c-45.411 71.439-125.262 118.836-216.178 118.836S85.235 464.603 39.824 393.163h107.969V257.328l108.209 108.146L364.2 257.328v135.835z"/><path d="M512 256.001c0 28.599-4.692 56.1-13.343 81.784H421.21V122.537L256.002 286.062 90.794 122.537v215.248H13.346C4.694 312.102.003 284.6.003 256.001.003 114.617 114.617.003 256.001.003S512 114.616 512 256.001z"/></symbol><symbol id="monero-logo" viewBox="0 0 90.97 45.35" xmlns="http://www.w3.org/2000/svg"><defs><style>.bycls-1{fill:#363635}</style></defs><path class="bycls-1" d="M90.97 45.35v-8.84H73.65V0l-28.2 28.21L17.24 0v36.51H0v8.84h26.65V22.38l18.8 18.8 18.79-18.8v22.97h26.73z"/></symbol><symbol viewBox="0 0 16 14" id="mute" xmlns="http://www.w3.org/2000/svg"><path d="M8.888.875v12.25a.868.868 0 0 1-.26.619.896.896 0 0 1-.629.256h-.524a.896.896 0 0 1-.622-.254l-3.404-3.351a2.688 2.688 0 0 0-1.885-.77c-.415 0-.812-.162-1.106-.451A1.528 1.528 0 0 1 0 8.085v-2.17c0-.408.165-.8.458-1.089a1.577 1.577 0 0 1 1.106-.451 2.69 2.69 0 0 0 1.885-.77L6.853.254A.896.896 0 0 1 7.475 0h.524c.236 0 .462.092.629.256.166.164.26.387.26.619zM14.434 7l1.431-1.418A.42.42 0 0 0 16 5.276a.415.415 0 0 0-.135-.306l-.47-.464a.427.427 0 0 0-.481-.098.427.427 0 0 0-.142.098l-1.44 1.409-1.44-1.409a.427.427 0 0 0-.48-.098.426.426 0 0 0-.142.098l-.47.464a.42.42 0 0 0-.136.306.415.415 0 0 0 .135.306L12.23 7 10.8 8.418a.42.42 0 0 0-.136.306.415.415 0 0 0 .135.306l.471.464a.426.426 0 0 0 .311.132.432.432 0 0 0 .311-.132l1.44-1.409 1.44 1.409a.427.427 0 0 0 .48.098.427.427 0 0 0 .142-.098l.471-.464A.42.42 0 0 0 16 8.724a.415.415 0 0 0-.135-.306L14.435 7z"/></symbol><symbol viewBox="0 0 75 75" id="payeer" xmlns="http://www.w3.org/2000/svg"><circle class="cast0" cx="37.5" cy="37.5" r="37.5"/><path class="cast1" d="M24.4 18.3c3.1-.5 7.5-.9 13.6-.9 6.3 0 10.6 1.2 13.6 3.5 2.8 2.3 4.7 5.9 4.7 10.3s-1.4 8-4.2 10.6c-3.5 3.3-8.5 4.7-14.5 4.7-1.4 0-2.4 0-3.5-.2v15.9h-9.9v-44l.2.1zm10 20.2c.9.2 1.9.3 3.3.3 5.4 0 8.7-2.8 8.7-7.3 0-4.2-2.8-6.6-7.8-6.6-2.1 0-3.5.2-4.2.3v13.3z"/></symbol><symbol id="payeer-logo" viewBox="0 0 75 75" xmlns="http://www.w3.org/2000/svg"><style>.st0{fill:#3499dc}.cbst1{fill:#fff}</style><path class="cbst1" d="M24.4 18.3c3.1-.5 7.5-.9 13.6-.9 6.3 0 10.6 1.2 13.6 3.5 2.8 2.3 4.7 5.9 4.7 10.3s-1.4 8-4.2 10.6c-3.5 3.3-8.5 4.7-14.5 4.7-1.4 0-2.4 0-3.5-.2v15.9h-9.9v-44l.2.1zm10 20.2c.9.2 1.9.3 3.3.3 5.4 0 8.7-2.8 8.7-7.3 0-4.2-2.8-6.6-7.8-6.6-2.1 0-3.5.2-4.2.3v13.3z"/></symbol><symbol viewBox="0 0 46 46" id="pm" xmlns="http://www.w3.org/2000/svg"><path d="M23 0C10.324 0 0 10.324 0 23s10.324 23 23 23 23-10.324 23-23S35.676 0 23 0zm-8.791 30.871H9.098c-.307 0-.41-.102-.41-.409 0-.306 0-.51.41-.51 1.329 0 1.43-.205 1.43-1.534v-3.271c0-.307.103-.41.41-.307h1.329c.306 0 .409.102.409.409v3.68c0 .92.204 1.022 1.022 1.124h.409c.409 0 .51.103.51.511 0 .205 0 .307-.408.307zm.715-6.849c-2.453.205-4.906.205-7.36-.409-.102 0-.306-.102-.408-.102-.205-.102-.307-.102-.512-.204.41.102.512.102 1.023.102.92.102 1.84.204 2.862.204 1.431.103 2.862 0 4.191-.306 2.147-.511 3.271-2.25 2.964-4.396 0-.102 0-.204-.102-.409v-.511c0-.102 0-.102-.102-.204v-.103l-.307-.613c-1.022-1.533-2.657-1.635-4.293-1.533-.307 0-.307.204-.307.409v6.337c0 .41-.102.512-.51.512h-1.227c-.205 0-.307-.103-.307-.307v-6.235c0-.41-.205-.614-.613-.614h-.818c-.307 0-.41 0-.41-.409 0-.307.205-.307.41-.307h6.542c1.431 0 2.658.614 3.578 1.84 0 0 .102.205.204.307 0 .102.102.102.102.205 0 .102.103.102.103.204l.306.92c0 .102.103.613.103.716v.51c0 .103 0 .512-.103.614-.306 1.636-1.329 2.658-2.862 3.271-.715.409-1.431.511-2.147.511zm23.614 6.85H33.12c-.307 0-.307-.205-.307-.41 0-.204-.102-.51.307-.51h.818c.613 0 .818-.205.818-.92.102-1.943.102-3.885.102-5.828v-4.497h-.102c-.41.715-.716 1.43-1.125 2.146 0 0 0 .103-.102.103 0 0 0 .102-.102.102-.103.102-.103.306-.205.409 0 0 0 .102-.102.102 0 .102 0 .102-.102.204 0 0 0 .103-.102.103-.614 1.533-1.432 2.964-2.147 4.395-.716 1.329-1.329 2.76-2.045 4.089-.102.102-.102.409-.306.409-.205 0-.205-.205-.307-.409C26.17 26.68 24.33 23 22.49 19.32c0-.102-.102-.204-.102-.307-.103-.204-.307-.51-.41-.817-.101.204-.101.408-.101.51v10.12c.204.818.306.92 1.124.92h.613c.41-.102.614.103.511.512 0 .306-.102.409-.408.409h-5.214c-.409 0-.306-.307-.409-.511 0-.307.103-.41.41-.41h.817c.818 0 1.124-.306 1.227-1.124.102-.715.102-1.43.204-2.146.102-1.023.102-2.147.102-3.17v-6.95c0-.512-.204-.614-.613-.716h-.409c-.409 0-.613-.204-.409-.613 0-.103.102-.103.205-.103h2.964c.102 0 .205.103.307.205.51 1.227 1.226 2.351 1.635 3.578 1.534 2.862 2.76 5.826 4.294 8.79 1.124-2.248 2.146-4.497 3.27-6.644 0-.102.103-.102.103-.204 0 0 0-.102.102-.102.818-1.738 1.636-3.476 2.454-5.316.102-.102.204-.204.306-.204h3.271c.307 0 .307.204.307.409 0 .204 0 .408-.307.408h-.409c-.817 0-.92.205-.92.92 0 2.556 0 5.01-.102 7.565v.92c0 .92.102 1.942 0 2.862 0 .409 0 .818.102 1.227 0 .204.307.51.614.51h.92c.306 0 .306.205.306.41 0 .306.103.613-.306.613z"/></symbol><symbol viewBox="0 0 17 8" id="pm-logo" xmlns="http://www.w3.org/2000/svg"><path d="M16 7.13h-.36a.6.6 0 0 1-.36-.14.51.51 0 0 1-.15-.28v-.49c0-.54 0-1.11-.06-1.69-.06-.58 0-1.72 0-1.72V1.69a2.57 2.57 0 0 1 .05-.61.53.53 0 0 1 .21-.33 1.58 1.58 0 0 1 .53-.14h.23a.14.14 0 0 0 0-.15.17.17 0 0 0-.09-.11h-1.85a2.997 2.997 0 0 1-.24.89l-.61 1.28-1.06 2.12-.42.87a8.427 8.427 0 0 1-.45.84c-.14-.26-.26-.5-.39-.76l-.38-.81-1.32-2.6c-.17-.36-.33-.72-.45-1a2.47 2.47 0 0 1-.14-.83H6.94a.15.15 0 0 0-.07.12.14.14 0 0 0 0 .14h.17c.16.034.317.077.47.13a.44.44 0 0 1 .2.29 1.63 1.63 0 0 1 0 .52v1.07c0 .41 0 .85-.07 1.29-.07.44 0 .65-.06.91s0 .51-.06.73c-.06.22 0 .46 0 .69a2.17 2.17 0 0 1-.11.54.36.36 0 0 1-.2.23 1.11 1.11 0 0 1-.35.1h-.23s-.06.07 0 .14a.18.18 0 0 0 .06.13h1.65l.61.05A.16.16 0 0 0 9 7.26a.17.17 0 0 0 0-.15h-.43a.58.58 0 0 1-.32-.1.45.45 0 0 1-.14-.31 2 2 0 0 1 0-.64V3.4c0-.35.05-.66.06-1 .01-.34 0-.67.05-1l.35.92.36.8 1 2.15c.09.18.19.4.31.67s.27.56.39.83c.107.234.197.474.27.72h.05a.11.11 0 0 0 .08 0c.08-.18.17-.4.3-.67.13-.27.26-.58.41-.89.15-.31.33-.65.51-1l1-1.94c.07-.16.15-.34.25-.54l.3-.57c.08-.18.17.5.17.5H14v3.8a.83.83 0 0 1 .1.56.33.33 0 0 1-.15.27c-.06.07-.18.1-.38.12h-.33v.15a.19.19 0 0 0 .06.13c.23 0 .47 0 .69-.06h1.3c.22 0 .45.05.67.06a.13.13 0 0 0 .06-.13.16.16 0 0 0-.02-.15zM5.4.44a3.33 3.33 0 0 0-.92-.35A7.07 7.07 0 0 0 3.28 0H2.07c-.36 0-.68 0-1 .06A.16.16 0 0 0 1 .21a.13.13 0 0 0 .1.14h.38a.54.54 0 0 1 .36.13.44.44 0 0 1 .16.39c.014.237.014.474 0 .71v2.24c.334.02.667.02 1 0V.69A.53.53 0 0 1 3 .4a.22.22 0 0 1 .15-.11h.45A1.9 1.9 0 0 1 5 .77c.319.364.484.837.46 1.32a1.92 1.92 0 0 1-.38 1.26 1.81 1.81 0 0 1-1 .62 8.34 8.34 0 0 1-1.93.13C1.47 4.08.76 4.04 0 3.97c.591.137 1.189.244 1.79.32.7.096 1.41.096 2.11 0 .318-.049.63-.13.93-.24a4.71 4.71 0 0 0 .82-.48c.189-.15.34-.341.44-.56a2.19 2.19 0 0 0 .18-.86 2 2 0 0 0-.27-1 1.83 1.83 0 0 0-.6-.71zM3.82 7.07a1.07 1.07 0 0 1-.55-.13.58.58 0 0 1-.24-.4 4.47 4.47 0 0 1 0-.88V4.59a5.32 5.32 0 0 1-1 0V5.7a6.2 6.2 0 0 1-.05.88.42.42 0 0 1-.2.38.77.77 0 0 1-.5.15h-.25a.13.13 0 0 0-.05.15.15.15 0 0 0 .07.14l.72-.05h1.46l.9.05s0-.08.07-.14a.19.19 0 0 0 0-.15l-.38-.04z"/></symbol><symbol viewBox="0 0 26 26" id="rdd" xmlns="http://www.w3.org/2000/svg"><path d="M17.662 11.212c-.38 0-.713.153-.959.39-.903-.606-2.12-.996-3.467-1.038l.7-3.063 2.231.486c0 .53.445.962.992.962.556 0 1.004-.444 1.004-.974S17.718 7 17.159 7c-.39 0-.726.228-.893.54l-2.464-.53c-.124-.032-.245.054-.278.174l-.769 3.378c-1.338.054-2.542.444-3.447 1.05a1.364 1.364 0 0 0-.971-.4c-1.407 0-1.867 1.832-.58 2.458a2.67 2.67 0 0 0-.065.606c0 2.057 2.387 3.724 5.319 3.724 2.944 0 5.331-1.667 5.331-3.724 0-.206-.023-.422-.078-.616 1.262-.629.797-2.448-.602-2.448zM9.799 13.8c0-.54.445-.975 1.004-.975.546 0 .991.432.991.975 0 .53-.445.962-.991.962-.557.003-1.004-.432-1.004-.962zm5.42 2.295c-.921.894-3.519.894-4.44 0-.1-.086-.1-.238 0-.336a.248.248 0 0 1 .335 0c.703.7 3.035.712 3.768 0a.248.248 0 0 1 .334 0c.104.098.104.25.003.336zm-.02-1.33c-.547 0-.992-.432-.992-.963 0-.54.445-.974.991-.974.557 0 1.005.432 1.005.974-.003.528-.448.963-1.005.963z"/><path d="M13 0C5.82 0 0 5.82 0 13s5.82 13 13 13 13-5.82 13-13S20.18 0 13 0zm0 24.818C6.473 24.818 1.182 19.527 1.182 13 1.182 6.473 6.473 1.182 13 1.182c6.527 0 11.818 5.291 11.818 11.818 0 6.527-5.291 11.818-11.818 11.818z"/></symbol><symbol viewBox="0 0 24 24" id="reset" xmlns="http://www.w3.org/2000/svg"><path d="M23.297 11.297a.703.703 0 0 0-.703.703c0 5.841-4.753 10.594-10.594 10.594C6.159 22.594 1.406 17.84 1.406 12 1.406 6.159 6.16 1.406 12 1.406c2.352 0 4.587.762 6.423 2.168l-1.22.216a.703.703 0 1 0 .245 1.385l2.662-.47a.703.703 0 0 0 .581-.693V1.349a.703.703 0 0 0-1.406 0v1.114A11.909 11.909 0 0 0 12 0a11.922 11.922 0 0 0-8.485 3.515A11.922 11.922 0 0 0 0 12c0 3.205 1.248 6.219 3.515 8.485A11.922 11.922 0 0 0 12 24c3.205 0 6.219-1.248 8.485-3.515A11.921 11.921 0 0 0 24 12a.703.703 0 0 0-.703-.703z"/><path d="M15.6 9V7.857C15.6 5.841 13.985 4.2 12 4.2S8.4 5.84 8.4 7.857V9h1.35V7.857c0-1.26 1.01-2.286 2.25-2.286s2.25 1.026 2.25 2.286V9h1.35zm-8.4 2.497v5.806c0 .385.307.697.686.697h8.228a.691.691 0 0 0 .686-.697v-5.806a.691.691 0 0 0-.686-.697H7.886a.691.691 0 0 0-.686.697zm4.343 1.858h.914c.379 0 .686.312.686.697a.691.691 0 0 1-.686.696h-.914a.691.691 0 0 1-.686-.696c0-.385.307-.697.686-.697z"/></symbol><symbol viewBox="0 0 16 16" id="search" xmlns="http://www.w3.org/2000/svg"><path d="M10.685 1.83a6.27 6.27 0 0 0-8.855 0 6.27 6.27 0 0 0 0 8.855c2.174 2.173 5.56 2.406 7.999.71.051.242.169.474.358.663l3.554 3.554a1.322 1.322 0 1 0 1.87-1.87l-3.554-3.556a1.323 1.323 0 0 0-.663-.356c1.698-2.44 1.465-5.825-.709-8zM9.563 9.564a4.68 4.68 0 0 1-6.61 0 4.68 4.68 0 0 1 0-6.61 4.68 4.68 0 0 1 6.61 0 4.679 4.679 0 0 1 0 6.61z"/></symbol><symbol viewBox="0 0 20 20" id="sect-1-icon-1" xmlns="http://www.w3.org/2000/svg"><g clip-path="url(#cha)"><path d="M15.804 11.059a.197.197 0 0 1 .182.124l.704 1.775a2.49 2.49 0 0 0 1.399 1.397l1.786.705a.199.199 0 0 1 .09.294.198.198 0 0 1-.09.073l-1.786.704a2.485 2.485 0 0 0-1.399 1.397l-.704 1.776a.197.197 0 0 1-.183.126.197.197 0 0 1-.183-.126l-.704-1.776a2.48 2.48 0 0 0-1.398-1.397l-1.775-.704a.199.199 0 0 1-.09-.294.2.2 0 0 1 .09-.073l1.775-.705a2.483 2.483 0 0 0 1.398-1.397l.704-1.775a.197.197 0 0 1 .184-.124zM13.773 0a3.581 3.581 0 0 1 3.586 3.581v5.346a.409.409 0 0 1-.591.369 2.17 2.17 0 0 0-.968-.225.41.41 0 0 1-.42-.394V3.58a1.61 1.61 0 0 0-1.607-1.61H3.58a1.61 1.61 0 0 0-1.61 1.61v10.192a1.61 1.61 0 0 0 1.61 1.608h5.74a.417.417 0 0 1 .387.278c.176.377.425.717.732.998a.409.409 0 0 1-.29.697H3.58A3.581 3.581 0 0 1 0 13.773V3.58A3.581 3.581 0 0 1 3.581 0h10.192zM7.2 4.484a.278.278 0 0 1 .263.198l2.366 7.383a.274.274 0 0 1-.039.247.275.275 0 0 1-.223.112h-.663a.276.276 0 0 1-.262-.197l-.382-1.184H5.042l-.37 1.184a.275.275 0 0 1-.263.197h-.662a.276.276 0 0 1-.257-.364l2.366-7.382a.276.276 0 0 1 .097-.139.276.276 0 0 1 .16-.055h1.088zm5.341.002c.152 0 .275.124.275.277v7.383a.276.276 0 0 1-.275.276h-.632a.276.276 0 0 1-.275-.277V4.764c0-.153.123-.276.275-.277h.632zM5.437 9.86h2.45l-1.23-3.8-1.22 3.8z"/></g><defs><clipPath id="cha"><path d="M0 0h20v20H0z"/></clipPath></defs></symbol><symbol viewBox="0 0 18 18" id="sect-1-icon-2" xmlns="http://www.w3.org/2000/svg"><g clip-path="url(#cia)"><path d="M11.893 5.625A6.114 6.114 0 0 1 18 11.732a6.106 6.106 0 1 1-6.107-6.107zm2.091 1.059a5.466 5.466 0 0 0-7.14 7.14 5.464 5.464 0 1 0 7.14-7.14zM0 13.58c1.112.681 3.5 1.016 5.803 1.042.336.71.792 1.354 1.35 1.907-.34.014-.688.024-1.046.024-3.95 0-6.107-.85-6.107-1.286V13.58zm11.893-6.67a4.828 4.828 0 0 1 4.82 4.821 4.823 4.823 0 0 1-5.76 4.729 4.821 4.821 0 0 1 .94-9.55zm.643 1.285a.323.323 0 0 0-.322.322v.322h-.643v-.322a.321.321 0 0 0-.642 0v.322h-.322a.644.644 0 0 0-.643.642v4.5a.643.643 0 0 0 .643.643h.322v.321a.321.321 0 1 0 .642 0v-.321h.643v.321a.323.323 0 0 0 .643 0v-.353a1.611 1.611 0 0 0 1.286-1.575 1.601 1.601 0 0 0-.653-1.286 1.601 1.601 0 0 0-.633-2.86v-.354a.321.321 0 0 0-.32-.322zm0 3.858a.965.965 0 0 1 0 1.928h-1.929v-1.928h1.93zM0 11.01c1.12.678 3.471.958 5.158 1.023a6.72 6.72 0 0 0 .376 1.94C1.952 13.898 0 13.108 0 12.697v-1.685zm12.536-1.529a.965.965 0 0 1 0 1.93h-1.929v-1.93h1.93zM0 8.438c1.071.656 3.321.99 5.54 1.039a6.695 6.695 0 0 0-.38 1.913C1.774 11.264 0 10.51 0 10.125V8.438zM0 5.87c1.157.71 3.7 1.041 6.107 1.041.372 0 .738-.008 1.097-.024a6.77 6.77 0 0 0-1.4 1.949C2.05 8.794 0 7.976 0 7.554V5.87zM12.214 5c-.107-.005-.213-.017-.321-.017A6.708 6.708 0 0 0 8.05 6.19c-.622.051-1.273.079-1.943.079C2.157 6.269 0 5.419 0 4.982V3.3c1.157.71 3.7 1.04 6.107 1.04 2.408 0 4.95-.33 6.107-1.04V5zM6.107 1.125c3.373 0 6.107.576 6.107 1.286 0 .71-2.734 1.285-6.107 1.285C2.735 3.696 0 3.121 0 2.411s2.735-1.286 6.107-1.286z"/></g><defs><clipPath id="cia"><path d="M0 0h18v18H0z"/></clipPath></defs></symbol><symbol viewBox="0 0 18 18" id="sect-1-icon-3" xmlns="http://www.w3.org/2000/svg"><g clip-path="url(#cja)"><path d="M8.96 2.648v4.767H7.618l-.3-1.122a.666.666 0 1 0-.417 0 .217.217 0 0 0 .004.088l.346 1.288a.21.21 0 0 0 .206.167H8.96v.953H5.835a.196.196 0 0 0-.073.013.667.667 0 1 0 .014.4.236.236 0 0 0 .059.009H8.96v.952H7.457a.21.21 0 0 0-.206.168l-.346 1.288a.21.21 0 0 0-.004.088.666.666 0 1 0 .417 0l.3-1.123H8.96v4.767a2.02 2.02 0 0 1-2.015 2.014 2.02 2.02 0 0 1-2.014-2.014 1.325 1.325 0 0 1 1.326-1.325.21.21 0 0 0 .21-.212.21.21 0 0 0-.21-.21 1.744 1.744 0 0 0-1.747 1.71 2.374 2.374 0 0 1-1.784-3.211C1.442 11.687.505 10.503.457 9c.048-1.505.985-2.689 2.269-3.105A2.374 2.374 0 0 1 4.58 2.673a1.707 1.707 0 0 0 1.711 1.686.176.176 0 0 0 0-.35c-.375 0-.715-.153-.96-.4a1.358 1.358 0 0 1-.4-.962A2.02 2.02 0 0 1 6.947.633 2.022 2.022 0 0 1 8.96 2.648zm4.549 1.803H9.382v1.715h2.412v5.668H9.382v1.715h4.127V4.45zm-2.137 2.137h-1.99v4.824h1.99V6.588zm5.96-.468a.211.211 0 1 0 0-.421h-2.19V4.575h2.19a.211.211 0 1 0 0-.422h-2.19V2.82h-1.335V.629a.211.211 0 1 0-.422 0v2.19h-1.124V.63a.21.21 0 1 0-.421 0v2.19h-1.124V.63a.211.211 0 1 0-.422 0v2.19h-.912v1.21h4.548v9.942H9.382v1.21h.912v2.19a.211.211 0 1 0 .423 0v-2.19h1.123v2.19a.21.21 0 1 0 .421 0v-2.19h1.124v2.19a.211.211 0 1 0 .422 0v-2.19h1.334v-1.335h2.191a.21.21 0 1 0 0-.422h-2.19v-1.123h2.19a.211.211 0 1 0 0-.423h-2.19v-1.123h2.19a.21.21 0 1 0 0-.421h-2.19V9.21h2.19a.211.211 0 1 0 0-.422h-2.19V7.666h2.19a.211.211 0 1 0 0-.422h-2.19V6.12h2.19z"/></g><defs><clipPath id="cja"><path d="M0 0h18v18H0z"/></clipPath></defs></symbol><symbol viewBox="0 0 18 18" id="sect-1-icon-4" xmlns="http://www.w3.org/2000/svg"><g clip-path="url(#cka)"><path d="M13.35 9.06a.335.335 0 0 1 .246.108c.32.381.97 1.217 1.373 1.8.83 1.193 1.724 2.707 1.724 3.691a3.343 3.343 0 0 1-2.493 3.232 3.342 3.342 0 0 1-3.758-1.591 3.288 3.288 0 0 1-.434-1.64c0-1.737 2.777-5.112 3.096-5.492a.336.336 0 0 1 .246-.108zM8.611 0a.33.33 0 0 1 .246.111c.104.09 5.157 6.305 5.836 9.398a21.728 21.728 0 0 0-.604-.756.977.977 0 0 0-1.476.004c-.543.643-3.248 3.967-3.248 5.902 0 .862.28 1.702.8 2.39-3.929 1.054-7.972-2.089-7.915-6.164C2.25 7.475 8.109.417 8.365.11A.33.33 0 0 1 8.61 0zm4.738 12.999a.324.324 0 0 0-.322.316.964.964 0 0 1-.964.965.322.322 0 0 0-.225.547c.06.06.14.095.225.096a.966.966 0 0 1 .964.965.322.322 0 0 0 .644 0 .967.967 0 0 1 .964-.965.322.322 0 0 0 .224-.547.323.323 0 0 0-.225-.096.967.967 0 0 1-.963-.965.321.321 0 0 0-.322-.316zm-9.562-2.43a.322.322 0 0 0-.322.316 5.135 5.135 0 0 0 2.402 4.353.326.326 0 0 0 .444-.102.324.324 0 0 0-.1-.445 4.481 4.481 0 0 1-2.103-3.806.32.32 0 0 0-.321-.317zm9.562 3.711c.093.122.202.23.325.322a1.72 1.72 0 0 0-.325.325 1.622 1.622 0 0 0-.322-.325c.123-.09.232-.2.322-.322zM8.61 5.943a.322.322 0 0 0-.322.322v.357h-1.16a.323.323 0 0 0-.316.309.323.323 0 0 0 .29.334v4.109H6.83a.322.322 0 1 0 0 .643h1.459v.357a.322.322 0 0 0 .643 0v-.357a1.558 1.558 0 0 0 1.785-1.511 1.493 1.493 0 0 0-.585-1.187 1.527 1.527 0 0 0-.228-2.535 1.525 1.525 0 0 0-.972-.162v-.357a.323.323 0 0 0-.321-.322zm.595 3.698a.868.868 0 0 1 .868.865.869.869 0 0 1-.868.868h-1.46V9.641h1.46zm0-2.376a.869.869 0 0 1 .868.868.868.868 0 0 1-.868.865h-1.46V7.265h1.46z"/></g><defs><clipPath id="cka"><path d="M0 0h18v18H0z"/></clipPath></defs></symbol><symbol viewBox="0 0 18 18" id="sect-10-icon-1" xmlns="http://www.w3.org/2000/svg"><path d="M13.35 9.06a.333.333 0 0 1 .247.108c.32.381.97 1.218 1.372 1.8.83 1.193 1.723 2.707 1.724 3.691a3.341 3.341 0 0 1-6.25 1.64 3.29 3.29 0 0 1-.435-1.64c0-1.736 2.779-5.112 3.097-5.491a.333.333 0 0 1 .246-.108zM8.613 0a.329.329 0 0 1 .246.111c.114.103 5.157 6.308 5.835 9.398a21.682 21.682 0 0 0-.605-.756.978.978 0 0 0-1.475.004c-.544.643-3.247 3.967-3.247 5.902 0 .862.28 1.702.8 2.39-3.93 1.054-7.972-2.089-7.916-6.164C2.25 7.474 8.113.413 8.366.11A.33.33 0 0 1 8.612 0zm4.737 12.999a.321.321 0 0 0-.321.316.966.966 0 0 1-.965.965.322.322 0 0 0 0 .643.965.965 0 0 1 .965.965.321.321 0 0 0 .642 0 .967.967 0 0 1 .965-.965.321.321 0 0 0 0-.643.965.965 0 0 1-.965-.965.321.321 0 0 0-.321-.316zm-9.562-2.43a.324.324 0 0 0-.322.316 5.135 5.135 0 0 0 2.403 4.353.324.324 0 0 0 .485-.345.324.324 0 0 0-.142-.202 4.481 4.481 0 0 1-2.102-3.806.322.322 0 0 0-.322-.317zm9.562 3.711c.092.122.202.23.325.322a1.727 1.727 0 0 0-.325.325 1.62 1.62 0 0 0-.321-.325c.122-.09.23-.2.321-.322zM8.61 5.943a.322.322 0 0 0-.32.322v.357H7.126a.322.322 0 0 0-.025.643v4.109h-.274a.322.322 0 1 0 0 .643h1.46v.357a.321.321 0 0 0 .643 0v-.357a1.558 1.558 0 0 0 1.785-1.511 1.494 1.494 0 0 0-.586-1.187 1.529 1.529 0 0 0 .443-1.812 1.525 1.525 0 0 0-1.642-.885v-.357a.322.322 0 0 0-.321-.322zm.595 3.698a.869.869 0 0 1 .869.865.868.868 0 0 1-.869.868h-1.46V9.641h1.46zm0-2.376a.87.87 0 0 1 .869.868.868.868 0 0 1-.869.865h-1.46V7.265h1.46z"/></symbol><symbol viewBox="0 0 20 20" id="skype" xmlns="http://www.w3.org/2000/svg"><path d="M14.584 10.724a4.642 4.642 0 0 0-5.308-5.308A2.796 2.796 0 0 0 7.803 5 2.802 2.802 0 0 0 5 7.803a2.8 2.8 0 0 0 .416 1.473 4.642 4.642 0 0 0 5.308 5.308A2.802 2.802 0 0 0 15 12.197c0-.541-.152-1.046-.416-1.473zm-2.44.956a1.7 1.7 0 0 1-.758.603c-.334.146-.726.217-1.181.217-.543 0-.995-.098-1.351-.298a1.78 1.78 0 0 1-.615-.573c-.157-.237-.239-.471-.239-.701 0-.136.05-.251.147-.346a.515.515 0 0 1 .37-.146c.12 0 .226.038.31.112a.848.848 0 0 1 .213.329c.069.166.144.305.226.417.079.108.19.2.337.274.144.071.334.109.572.109.328 0 .593-.075.792-.217.203-.146.301-.322.301-.54a.551.551 0 0 0-.16-.413 1.04 1.04 0 0 0-.426-.247 7.519 7.519 0 0 0-.703-.183 5.36 5.36 0 0 1-.994-.312 1.628 1.628 0 0 1-.642-.491 1.26 1.26 0 0 1-.238-.776c0-.295.085-.556.252-.786.166-.23.408-.404.723-.529A3.056 3.056 0 0 1 10.189 7c.34 0 .63.04.88.122.248.081.454.19.618.325.163.136.284.278.36.427a.97.97 0 0 1 .114.437.523.523 0 0 1-.147.36.474.474 0 0 1-.363.159c-.131 0-.232-.03-.301-.098a1.307 1.307 0 0 1-.22-.305 1.337 1.337 0 0 0-.356-.461c-.134-.109-.357-.163-.664-.163-.285 0-.514.061-.684.18-.173.118-.255.257-.255.42 0 .102.03.186.085.26a.725.725 0 0 0 .242.194c.105.054.21.098.314.129.108.03.285.078.53.135a8 8 0 0 1 .844.23c.252.086.468.187.645.31.18.121.32.274.418.46.102.186.15.417.15.685.004.328-.08.616-.254.874z"/><path d="M10 0C4.477 0 0 4.477 0 10s4.477 10 10 10 10-4.477 10-10S15.523 0 10 0zm0 19.09A9.09 9.09 0 1 1 10 .91a9.09 9.09 0 0 1 0 18.18z"/></symbol><symbol viewBox="0 0 24 24" id="tg" xmlns="http://www.w3.org/2000/svg"><g clip-path="url(#cna)"><path fill-rule="evenodd" clip-rule="evenodd" d="M12 0C5.373 0 0 5.373 0 12s5.373 12 12 12 12-5.373 12-12S18.627 0 12 0zm5.562 8.16c-.18 1.898-.962 6.503-1.36 8.628-.168.9-.499 1.201-.82 1.23-.696.065-1.225-.46-1.9-.902-1.056-.693-1.653-1.124-2.678-1.8-1.185-.78-.417-1.209.258-1.91.177-.184 3.247-2.977 3.307-3.23.007-.032.014-.15-.056-.212-.07-.063-.174-.041-.249-.024-.106.024-1.793 1.139-5.061 3.345-.48.33-.913.49-1.302.481-.428-.01-1.252-.242-1.865-.441-.751-.244-1.349-.374-1.297-.789.027-.216.325-.437.893-.663a572.556 572.556 0 0 1 6.998-3.014c3.333-1.386 4.025-1.627 4.476-1.635.566-.01.702.457.656.937z"/></g><defs><clipPath id="cna"><path d="M0 0h24v24H0z"/></clipPath></defs></symbol><symbol viewBox="0 0 12 12" id="trx" xmlns="http://www.w3.org/2000/svg"><path d="M6 12A6 6 0 1 0 6 0a6 6 0 0 0 0 12z"/><path d="M8.744 3.567L2.4 2.4l3.339 8.4 4.65-5.668-1.645-1.565zm-.1.514l.97.923-2.654.48 1.683-1.403zM6.382 5.39L3.584 3.07l4.572.84-1.774 1.48zm-.2.41l-.456 3.772-2.46-6.19L6.184 5.8zm.421.2l2.94-.532-3.37 4.107L6.603 6z" class="cofill" fill="#fff"/></symbol><symbol viewBox="0 0 64 64" id="trx-logo" xmlns="http://www.w3.org/2000/svg"><path class="cpcls-1" d="M61.55 19.28c-3-2.77-7.15-7-10.53-10l-.2-.14a3.82 3.82 0 0 0-1.11-.62C41.56 7 3.63-.09 2.89 0a1.4 1.4 0 0 0-.58.22l-.19.15a2.23 2.23 0 0 0-.52.84l-.05.13v.82C5.82 14.05 22.68 53 26 62.14c.2.62.58 1.8 1.29 1.86h.16c.38 0 2-2.14 2-2.14S58.41 26.74 61.34 23a9.46 9.46 0 0 0 1-1.48 2.41 2.41 0 0 0-.79-2.24zm-24.67 4.09l12.36-10.25 7.25 6.68zm-4.8-.67L10.8 5.26l34.43 6.35zM34 27.27l21.78-3.51-24.9 30zM7.91 7L30.3 26l-3.24 27.78z"/></symbol><symbol viewBox="0 0 26 26" id="tw" xmlns="http://www.w3.org/2000/svg"><path d="M19.175 8.45a4.91 4.91 0 0 1-1.542.59 2.44 2.44 0 0 0-1.773-.756 2.405 2.405 0 0 0-2.423 2.364c0 .183.023.366.065.544a6.92 6.92 0 0 1-4.999-2.494 2.364 2.364 0 0 0-.33 1.182c0 .802.407 1.55 1.08 1.985a2.446 2.446 0 0 1-1.098-.3v.029a2.4 2.4 0 0 0 1.944 2.363 2.48 2.48 0 0 1-1.094.042 2.423 2.423 0 0 0 2.264 1.654 4.91 4.91 0 0 1-3.587.999 6.943 6.943 0 0 0 3.717 1.075 6.795 6.795 0 0 0 6.92-6.79v-.307A4.91 4.91 0 0 0 19.5 9.395a4.904 4.904 0 0 1-1.394.379 2.405 2.405 0 0 0 1.069-1.324z"/><path d="M13 0C5.82 0 0 5.82 0 13s5.82 13 13 13 13-5.82 13-13S20.18 0 13 0zm0 24.818C6.473 24.818 1.182 19.527 1.182 13 1.182 6.473 6.473 1.182 13 1.182c6.527 0 11.818 5.291 11.818 11.818 0 6.527-5.291 11.818-11.818 11.818z"/></symbol><symbol viewBox="0 0 21 21" id="usdt" xmlns="http://www.w3.org/2000/svg"><g clip-path="url(#cra)"><path d="M10.5 0C16.298 0 21 4.702 21 10.5S16.298 21 10.5 21 0 16.301 0 10.5 4.702 0 10.5 0z"/><path d="M11.979 9.33V7.765h3.572v-2.38H5.824v2.38h3.573v1.563c-2.902.134-5.086.709-5.086 1.397 0 .688 2.184 1.263 5.086 1.397v5.002h2.584v-5.002c2.9-.134 5.078-.708 5.078-1.397-.003-.688-2.181-1.263-5.08-1.397zm.002 2.37c-.072.003-.446.027-1.28.027a27.31 27.31 0 0 1-1.3-.027v.003c-2.565-.114-4.48-.56-4.48-1.093 0-.534 1.912-.98 4.48-1.094v1.738c.168.012.647.04 1.312.04.796 0 1.196-.031 1.271-.04V9.51c2.561.114 4.472.56 4.472 1.094-.006.533-1.917.98-4.475 1.096z" fill="#fff" class="crfill"/></g><defs><clipPath id="cra"><path d="M0 0h21v21H0z"/></clipPath></defs></symbol><symbol viewBox="0 0 226.777 226.777" id="usdt-logo" xmlns="http://www.w3.org/2000/svg"><path d="M226.883 107.66c0-14.245-38.761-26.13-90.27-28.872l-.004-22.697h64.315V8.855H25.06v47.236h64.31v22.808C38.799 81.829.97 93.59.97 107.66c0 14.072 37.829 25.834 88.4 28.759v81.504h47.239V136.53c51.513-2.736 90.274-14.625 90.274-28.87zm-112.957 14.033c-55.288 0-100.109-8.557-100.109-19.119 0-8.943 32.139-16.451 75.553-18.54v5.383h.005v22.059c7.827.439 16.053.669 24.551.669 7.825 0 15.424-.199 22.688-.563v-27.63c44.355 1.961 77.423 9.548 77.423 18.622-.001 10.562-44.823 19.119-100.111 19.119z"/></symbol><symbol viewBox="0 0 16 16" id="wapp" xmlns="http://www.w3.org/2000/svg"><g clip-path="url(#cta)"><path d="M8 0a8 8 0 1 0 .002 16.002A8 8 0 0 0 8 0zm.17 12.658h-.002a4.786 4.786 0 0 1-2.289-.583l-2.538.666.68-2.48a4.776 4.776 0 0 1-.64-2.394A4.794 4.794 0 0 1 8.17 3.081c1.28 0 2.483.5 3.386 1.404a4.757 4.757 0 0 1 1.402 3.386 4.794 4.794 0 0 1-4.788 4.787z"/><path d="M8.17 3.89a3.985 3.985 0 0 0-3.98 3.978c0 .752.21 1.484.608 2.117l.095.15-.403 1.469 1.507-.395.145.086a3.974 3.974 0 0 0 2.026.554h.001a3.985 3.985 0 0 0 3.98-3.978 3.954 3.954 0 0 0-1.165-2.815A3.953 3.953 0 0 0 8.171 3.89zm2.342 5.688c-.1.28-.578.535-.808.569-.206.03-.467.044-.753-.047a6.916 6.916 0 0 1-.682-.252c-1.2-.518-1.984-1.726-2.044-1.806-.06-.08-.489-.649-.489-1.238 0-.588.31-.878.419-.997a.44.44 0 0 1 .32-.15c.079 0 .159 0 .228.004.074.004.172-.028.27.206.1.24.339.828.368.888.03.06.05.13.01.21-.04.079-.172.251-.299.408C7 7.44 6.93 7.498 7 7.617c.07.12.31.512.665.829.457.407.843.533.963.593.12.06.189.05.259-.03s.299-.349.378-.468c.08-.12.16-.1.27-.06.11.04.697.329.817.389s.2.09.23.14c.03.05.03.289-.07.568z"/></g><defs><clipPath id="cta"><path d="M0 0h16v16H0z"/></clipPath></defs></symbol><symbol viewBox="0 0 16 16" id="x" xmlns="http://www.w3.org/2000/svg"><g clip-path="url(#cua)"><path d="M8 0a8 8 0 1 1 0 16A8 8 0 0 1 8 0zM6.992 8.522L3.4 12.696h.812l3.14-3.65 2.508 3.65h2.74l-3.725-5.42L12.3 3.295h-.812L8.515 6.752 6.14 3.295H3.4l3.592 5.227zm4.496 3.591h-1.246L4.504 3.906H5.75l5.737 8.207z"/></g><defs><clipPath id="cua"><path d="M0 0h16v16H0z"/></clipPath></defs></symbol><symbol viewBox="0 0 226.777 226.777" id="xrp" xmlns="http://www.w3.org/2000/svg"><path d="M113.48.183C50.908.183.183 50.908.183 113.48c0 62.572 50.725 113.297 113.297 113.297 62.572 0 113.297-50.726 113.297-113.297C226.777 50.908 176.052.183 113.48.183zm47.419 163.777c-7.365 12.656-23.905 17.119-36.941 9.97-13.037-7.149-17.635-23.205-10.268-35.862 3.068-5.272 1.153-11.96-4.28-14.941-5.356-2.937-12.132-1.166-15.261 3.941h-.002v-.021c-.044.078-.083.155-.128.232-7.365 12.656-23.904 17.12-36.94 9.97-13.038-7.149-17.636-23.207-10.271-35.86 7.367-12.657 23.905-17.12 36.944-9.969 4.357 2.39 7.765 5.779 10.107 9.7v-.014l.002-.002c3.248 5.032 10.055 6.654 15.341 3.603 5.362-3.095 7.125-9.824 3.936-15.03-7.651-12.494-3.42-28.645 9.451-36.072 12.869-7.428 29.506-3.321 37.159 9.172 7.651 12.495 3.422 28.645-9.451 36.073a27.612 27.612 0 0 1-13.697 3.694l.012.005v.002c-6.175.207-11.081 5.161-11.007 11.191.073 6.11 5.239 11.008 11.533 10.936l-.039.021a27.627 27.627 0 0 1 13.533 3.401c13.034 7.151 17.632 23.206 10.267 35.86z"/></symbol><symbol id="xrp-logo" viewBox="0 0 52.44 56.69" xmlns="http://www.w3.org/2000/svg"><defs><style>.cwcls-1{fill:#363635}</style></defs><title>Artboard 53</title><path class="cwcls-1" d="M34.67 1.53a12 12 0 0 0-5.93 10.3 13.42 13.42 0 0 0 2 6.36C31.59 20 32 23 29 24.56a4.71 4.71 0 0 1-6.4-1.76 19.78 19.78 0 0 0-4.83-4.8 11.49 11.49 0 0 0-11.84 0 11.94 11.94 0 0 0 0 20.63 11.51 11.51 0 0 0 11.85 0 12.06 12.06 0 0 0 4.6-4.82A4.51 4.51 0 0 1 28.73 32a4.91 4.91 0 0 1 1.76 6.36 13.24 13.24 0 0 0-1.76 6.36 11.92 11.92 0 0 0 5.94 10.31 11.49 11.49 0 0 0 11.84 0 11.93 11.93 0 0 0 0-20.62 13.24 13.24 0 0 0-6.58-1.54 4.6 4.6 0 1 1 0-9.2 13.81 13.81 0 0 0 6.58-1.54 11.92 11.92 0 0 0 0-20.61A11.37 11.37 0 0 0 40.59 0a11.31 11.31 0 0 0-5.92 1.53z"/></symbol><symbol viewBox="0 0 24 24" id="yt" xmlns="http://www.w3.org/2000/svg"><g clip-path="url(#cxa)"><path d="M10.505 14.248L14.41 12l-3.904-2.248v4.496z"/><path d="M12 0C5.374 0 0 5.374 0 12s5.374 12 12 12 12-5.374 12-12S18.626 0 12 0zm7.498 12.012s0 2.434-.309 3.607a1.88 1.88 0 0 1-1.321 1.322c-1.174.309-5.868.309-5.868.309s-4.682 0-5.868-.321a1.88 1.88 0 0 1-1.321-1.322C4.5 14.446 4.5 12 4.5 12s0-2.433.31-3.607a1.917 1.917 0 0 1 1.321-1.334C7.306 6.75 12 6.75 12 6.75s4.694 0 5.868.321a1.88 1.88 0 0 1 1.322 1.322c.32 1.174.308 3.62.308 3.62z"/></g><defs><clipPath id="cxa"><path d="M0 0h24v24H0z"/></clipPath></defs></symbol></svg>