<svg width="102" height="31" viewBox="0 0 102 31" fill="none" xmlns="http://www.w3.org/2000/svg">
<path d="M39.684 22.6207V12.5459H40.3801V22.6207H39.684Z" fill="#262729" stroke="#292929"/>
<path d="M35.1531 8.55067V7.85449H47.9785V8.55067H35.1531Z" fill="#262729" stroke="#292929"/>
<path d="M42.7477 22.6207V12.5459H43.4439V22.6207H42.7477Z" fill="#262729" stroke="#292929"/>
<path d="M92.014 16.6529V22.6311H91.3026V15.862L92.014 16.6529Z" fill="#262729" stroke="#292929"/>
<path d="M88.9159 10.761V22.6309H88.2083V7.56787L99.4428 20.0539L100.314 21.0227V19.7194V7.85341H101.03V22.9168L89.7875 10.4265L88.9159 9.45815V10.761Z" fill="#262729" stroke="#292929"/>
<path d="M69.2371 15.2344C69.2371 11.1594 72.5507 7.8457 76.6258 7.8457C80.7007 7.8457 84.0145 11.163 84.0145 15.2344C84.0145 19.3095 80.7009 22.6232 76.6258 22.6232C72.5507 22.6232 69.2371 19.3095 69.2371 15.2344ZM69.9371 15.2344C69.9371 18.9261 72.9384 21.9232 76.6258 21.9232C80.3134 21.9232 83.3145 18.922 83.3145 15.2344C83.3145 11.5428 80.3132 8.5457 76.6258 8.5457C72.9344 8.5457 69.9371 11.543 69.9371 15.2344Z" fill="#262729" stroke="#292929"/>
<path d="M75.9911 15.2342C75.9911 14.8838 76.2754 14.5996 76.6258 14.5996C76.9761 14.5996 77.2604 14.8838 77.2604 15.2342C77.2604 15.5846 76.9761 15.8688 76.6258 15.8688C76.2754 15.8688 75.9911 15.5846 75.9911 15.2342Z" fill="#262729" stroke="#292929"/>
<path d="M62.0226 17.0239L64.9984 22.6311H64.1713L61.0879 16.7966L60.9471 16.5302H60.6458H56.6995H56.1995V17.0302V22.6349H55.5148V15.8191L61.0008 15.8226V15.8226L61.0067 15.8225C62.9717 15.8003 64.5496 14.1767 64.5496 12.1938C64.5496 10.2012 62.9492 8.56888 60.9667 8.56888H53.6281H53.1281V9.06888V22.6349H52.4434V7.85742H60.9667C63.3346 7.85742 65.2687 9.80008 65.2687 12.1938C65.2687 14.0496 64.046 15.7375 62.3067 16.315L61.7453 16.5014L62.0226 17.0239Z" fill="#262729" stroke="#292929"/>
<path d="M22.9677 5.73075L22.645 5.42422L22.3032 5.70915L16.2023 10.7938L14.7457 12.0078L16.6115 11.6699L26.2308 9.92792L27.2006 9.75229L26.4861 9.07343L22.9677 5.73075ZM14.1136 11.2152L14.4336 11.4806L14.7529 11.2144L21.1823 5.8546L22.0014 5.17177L20.9527 4.9788L4.3844 1.93027L2.49951 1.58345L3.97474 2.80688L14.1136 11.2152ZM14.2033 12.3801L14.236 12.1095L14.0263 11.9354L3.46337 3.16806L2.67937 3.73741L11.5919 26.1697L12.553 26.045L14.2033 12.3801ZM15.1459 12.5502L14.7828 12.616L14.7386 12.9823L13.1761 25.9367L12.9707 27.6401L14.0591 26.3137L26.2723 11.4302L27.1352 10.3785L25.7966 10.621L15.1459 12.5502ZM12.2501 29.4668L0.798494 0.65527L22.7532 4.6938L28.2721 9.94398L12.2501 29.4668Z" fill="#EB0029" stroke="#292929"/>
</svg>
