<svg width="8" height="8" viewBox="0 0 8 8" fill="none" xmlns="http://www.w3.org/2000/svg">
<path d="M4 8C6.20914 8 8 6.20914 8 4C8 1.79086 6.20914 0 4 0C1.79086 0 0 1.79086 0 4C0 6.20914 1.79086 8 4 8Z" fill="#EB0029"/>
<path d="M5.82913 2.37811L1.59961 1.6001L3.82541 7.2001L6.92622 3.42178L5.82913 2.37811ZM5.76166 2.72108L6.40895 3.33604L4.63927 3.65652L5.76166 2.72108ZM4.25483 3.59257L2.38957 2.04568L5.43766 2.60652L4.25483 3.59257ZM4.1213 3.86666L3.81768 6.38062L2.17802 2.25371L4.1213 3.86666ZM4.40242 3.9995L6.36186 3.64458L4.11497 6.38273L4.40242 3.9995Z" fill="white"/>
</svg>
