<?xml version="1.0" encoding="utf-8"?>
<!-- Generator: Adobe Illustrator 24.1.2, SVG Export Plug-In . SVG Version: 6.00 Build 0)  -->
<svg version="1.1" id="Слой_1" xmlns="http://www.w3.org/2000/svg" xmlns:xlink="http://www.w3.org/1999/xlink" x="0px" y="0px"
	 viewBox="0 0 3781.4 2500" style="enable-background:new 0 0 3781.4 2500;" xml:space="preserve">
<style type="text/css">
	.st0{fill:#53AE94;}
	.st1{fill:#FFFFFF;}
</style>
<path class="st0" d="M1250,0c690.3,0,1250,559.7,1250,1250s-559.7,1250-1250,1250S0,1940.5,0,1250S559.6,0,1250,0"/>
<path class="st1" d="M1404.3,1083.4V897.5h425.2V614.2H671.6v283.3h425.3v185.8c-345.6,15.9-605.5,84.3-605.5,166.3
	s260,150.5,605.5,166.4v595.6h307.5V1416c345-15.9,604.3-84.3,604.3-166.3S1749.4,1099.4,1404.3,1083.4 M1404.4,1365.6v-0.1
	c-8.7,0.5-53.3,3.2-152.5,3.2c-79.3,0-135.2-2.3-154.8-3.3v0.2c-305.3-13.5-533.3-66.7-533.3-130.3c0-63.6,227.9-116.7,533.3-130.3
	v207.6c20,1.4,77.2,4.8,156.1,4.8c94.8,0,142.5-3.9,151.3-4.8V1105c304.8,13.6,532.1,66.8,532.1,130.2s-227.5,116.6-532.1,130.2"/>
<g>
	<circle cx="2548.5" cy="1325" r="906.1"/>
	<path class="st1" d="M3043.7,1113.5c-45.2-32.1-93.7-66.4-141-100.4c-1.1-0.8-2.1-1.6-3.4-2.4c-5.5-4.6-11.8-8.1-18.6-10.6
		l-0.6-0.3c-126.7-31.1-253.3-62.3-380-93.7l-338.9-83.6l-8.9-2.4c-10.2-2.9-22-6.1-34.5-4.5c-3.4,0.5-6.7,1.8-9.6,3.7l-3.2,2.7
		c-4,4.1-7,9-8.9,14.3l-0.8,2.2v12.2l0.6,1.9c71.4,203,144.6,409,215.3,608.3c54.4,153.5,111,312.4,166.2,468.5
		c3.4,10.6,13.1,17.6,25.1,18.6h2.6c10.7,0.3,20.8-5.3,26.2-14.6l207.3-306.6c50.5-74.6,101-149.4,151.5-224l62-91.9
		c34-50.4,69.1-102.4,103.9-153.1l1.8-2.6v-3.2C3058.7,1142.7,3058.9,1123.6,3043.7,1113.5 M2800.9,1225.3
		c-48.7,25.7-98.4,52.3-148.4,78.5l87.4-95c36.4-39.8,74.3-81,111.5-121.3l0.8-0.8c3.1-4.2,7.1-8.2,11.3-12.5c2.8-2.9,6-5.8,8.9-9.3
		c19.4,13.6,39,27.4,57.8,40.9c13.6,9.8,27.5,19.7,41.6,29.4C2914.6,1164.9,2857.7,1194.9,2800.9,1225.3 M2675.8,1212.5
		c-37.4,41.1-76.2,83.3-114.6,125c-74.6-91.8-149.5-183.5-224.5-275l-100.8-122.9l-0.2-0.3c-7.6-8.7-15-18.3-22.3-27.3
		c-4.7-6.1-9.7-11.9-14.7-18.1c30.4,7.9,61,15.4,91.1,22.5c26.4,6.4,53.9,13,80.9,19.9l455.6,112.2
		C2775.8,1103.4,2725,1158.9,2675.8,1212.5 M2544.2,1729.8c2.9-27.9,6.1-56.5,8.7-84.7c2.4-22.6,4.7-45.6,7.1-67.7
		c3.6-35.3,7.6-71.9,10.8-107.8l0.7-6.3c2.6-22.9,5.2-46.4,6.8-70.1c3-1.7,6.2-3.2,9.5-4.5c3.9-1.8,7.8-3.4,11.7-5.8
		c60.4-32.2,121-64.3,181.6-96.1c60.5-31.8,122.5-64.8,184-97.4c-55.8,82-111.4,164.1-166.7,246.4c-46.8,69.2-95,140.6-142.9,211
		c-18.8,28.1-38.5,56.8-57,84.4c-21,30.8-42.4,62.4-63.3,94C2537.7,1793.2,2540.8,1761.1,2544.2,1729.8 M2179.4,956.6
		c-3.4-9.6-7.1-19.4-10.3-28.7c70.7,86.5,141.8,173.6,211.2,258c35.8,43.8,71.7,87.3,107.5,131.4c7.1,8.2,14.2,17,21,25.5
		c8.9,10.9,17.8,22.3,27.5,33.2c-3.2,27.3-5.8,54.9-8.7,81.4c-1.8,18.6-3.6,37.2-5.7,56.1v0.2c-0.8,11.9-2.4,23.9-3.7,35.6l-6,52.8
		l-0.3,1.8c-4.7,53.6-10.5,107.8-16,160.3c-2.3,21.7-4.4,44.1-6.8,66.4c-1.3-4-2.8-8-4.2-11.7c-4-10.8-7.8-21.7-11.5-32.6l-28-78.8
		L2179.4,956.6"/>
</g>
</svg>
