<svg width="105" height="29" viewBox="0 0 105 29" fill="none" xmlns="http://www.w3.org/2000/svg">
<path fill-rule="evenodd" clip-rule="evenodd" d="M28.3806 14.1903C28.3806 22.0274 22.0274 28.3806 14.1903 28.3806C6.35322 28.3806 0 22.0274 0 14.1903C0 6.35322 6.35322 0 14.1903 0C22.0274 0 28.3806 6.35322 28.3806 14.1903ZM15.7029 15.4982V15.5005V15.5028C19.1593 15.3477 21.7395 14.7454 21.7395 14.0245C21.7395 13.3035 19.1615 12.7012 15.7029 12.5461V14.9005C15.6026 14.9096 15.0641 14.9553 13.9873 14.9553C13.0907 14.9553 12.4405 14.9165 12.2147 14.9005V12.5438C8.75151 12.6967 6.1644 13.3013 6.1644 14.0222C6.1644 14.7454 8.74922 15.3477 12.2147 15.5005V15.4982C12.4382 15.5096 13.0702 15.5347 13.9714 15.5347C15.0984 15.5347 15.6048 15.5051 15.7029 15.4982ZM15.7029 10.194V12.302L15.7052 12.3043C19.6201 12.4845 22.5631 13.2625 22.5631 14.191C22.5631 15.1218 19.6201 15.8975 15.7052 16.0777V22.8352H12.217V16.0777C8.29751 15.8952 5.34766 15.1195 5.34766 14.1887C5.34766 13.2579 8.29523 12.4822 12.217 12.302V10.194H7.39179V6.97949H20.5281V10.194H15.7029Z" fill="#50AF95"/>
<path d="M40.4344 7.85763V11.266H43.747V13.8235H40.4116V19.0091C40.4116 20.1544 41.0436 20.7133 41.9698 20.7133C42.4329 20.7133 42.9691 20.5673 43.4071 20.3483L44.2352 22.8807C43.3843 23.2206 42.677 23.3666 41.7759 23.3917C39.1705 23.4898 37.4663 22.0046 37.4663 19.0091V13.8235H35.226V11.266H37.4663V8.17475L40.4344 7.85763ZM97.5447 11.1063L97.7637 12.4934C98.69 11.0082 99.9311 10.7892 101.149 10.7892C102.39 10.7892 103.584 11.2752 104.241 11.9322L102.901 14.5125C102.292 14.0014 101.733 13.7322 100.759 13.7322C99.201 13.7322 97.7637 14.5604 97.7637 16.7756V23.1065H94.7934V11.1018L97.5447 11.1063ZM90.2648 15.7079C90.0709 14.1497 88.8526 13.3695 87.1484 13.3695C85.5423 13.3695 84.2259 14.1497 83.7879 15.7079H90.2648ZM83.74 18.1673C83.9339 19.6525 85.2252 20.7247 87.3195 20.7247C88.4146 20.7247 89.8518 20.3095 90.534 19.6046L92.4321 21.4799C91.1659 22.794 89.0967 23.4282 87.2693 23.4282C83.1308 23.4282 80.6692 20.8707 80.6692 17.0243C80.6692 13.3718 83.1536 10.7413 87.0503 10.7413C91.0678 10.7413 93.5774 13.2258 93.1142 18.1673H83.74ZM70.6402 6.06445V12.7353C71.7124 11.3482 73.0265 10.933 74.3908 10.933C77.7992 10.933 79.3095 13.2463 79.3095 16.7779V23.1088H76.3391V16.803C76.3391 14.6106 75.1938 13.6866 73.6105 13.6866C71.8562 13.6866 70.6402 15.1718 70.6402 16.9741V23.1111H67.6698V6.06674L70.6402 6.06445ZM62.7511 7.72075V11.1292H66.0637V13.6866H62.7283V18.8722C62.7283 20.0175 63.3625 20.5764 64.2865 20.5764C64.7496 20.5764 65.2857 20.4304 65.7237 20.2114L66.5519 22.7438C65.7009 23.0837 64.9937 23.2297 64.0925 23.2548C61.4872 23.3529 59.783 21.8654 59.783 18.8722V13.6866H57.5426V11.1292H59.783V8.03787L62.7511 7.72075ZM54.5449 15.7079C54.351 14.1497 53.1327 13.3695 51.4285 13.3695C49.8224 13.3695 48.506 14.1497 48.068 15.7079H54.5449ZM48.0201 18.1673C48.214 19.6525 49.5053 20.7247 51.5996 20.7247C52.6947 20.7247 54.1319 20.3095 54.8141 19.6046L56.7122 21.4799C55.446 22.794 53.3768 23.4282 51.5494 23.4282C47.4087 23.4282 44.9493 20.8707 44.9493 17.0243C44.9493 13.3718 47.4338 10.7413 51.3281 10.7413C55.3457 10.7413 57.8529 13.2258 57.3921 18.1673H48.0201Z" fill="#50AF95"/>
</svg>
