<svg width="14" height="14" viewBox="0 0 14 14" fill="none" xmlns="http://www.w3.org/2000/svg">
<g clip-path="url(#clip0_7910_2988)">
<path d="M7 0C10.8656 0 14 3.13444 14 7C14 10.8656 10.8656 14 7 14C3.13444 14 0 10.8675 0 7C0 3.1325 3.13444 0 7 0Z" fill="#26A17B"/>
<path d="M7.98499 6.21947V5.17724H10.3669V3.59058H3.88221V5.17724H6.26416V6.21947C4.32944 6.30891 2.87305 6.69197 2.87305 7.15085C2.87305 7.60974 4.32944 7.9928 6.26416 8.08224V11.417H7.98693V8.08224C9.91971 7.9928 11.3722 7.60974 11.3722 7.15085C11.3703 6.69197 9.91777 6.30891 7.98499 6.21947ZM7.98693 7.8003C7.93832 7.80224 7.68944 7.8178 7.13332 7.8178C6.68805 7.8178 6.37694 7.80613 6.2661 7.8003V7.80224C4.55694 7.72641 3.27944 7.42891 3.27944 7.07308C3.27944 6.71724 4.55499 6.41974 6.2661 6.34391V7.5028C6.37888 7.51058 6.69777 7.53002 7.1411 7.53002C7.67194 7.53002 7.93832 7.50863 7.98888 7.5028V6.34002C9.6961 6.41585 10.9697 6.71335 10.9697 7.06919C10.9658 7.42502 9.69221 7.72252 7.98693 7.8003Z" fill="white"/>
</g>
<defs>
<clipPath id="clip0_7910_2988">
<rect width="14" height="14" fill="white"/>
</clipPath>
</defs>
</svg>
